<svg width="1920" height="1229" viewBox="0 0 1920 1229" fill="none" xmlns="http://www.w3.org/2000/svg">
<g clip-path="url(#clip0_77_1181)">
<rect width="1920" height="1228" transform="translate(0 0.804688)" fill="url(#paint0_linear_77_1181)"/>
<g opacity="0.3">
<path d="M-814.586 899.514C-893.859 887.389 -949.012 874.695 -993.412 858.354C-1161.68 794.057 -1234.11 628.674 -1177.92 437.02C-1148.53 341.345 -1086.7 256.862 -999.122 192.713C-921.861 136.953 -812.054 88.6199 -653.549 40.6074C-544.248 7.97872 -423.071 -16.6307 -272.196 -36.8389C-119.332 -56.9546 -3.21278 -59.754 104.305 -45.9134C109.179 -45.2579 114.035 -44.5615 119.149 -43.7794C240.28 -25.2516 421.816 28.0444 604.754 98.7903C790.689 170.693 942.371 247.347 1010.5 303.841C1213.03 416.662 1149.03 486.952 1052.18 593.352C1009.22 640.548 960.531 694.043 923.45 762.01C896.711 811.062 874.064 855.051 854.083 893.866C758.142 1080.26 714.364 1165.33 510.098 1235.45C460.864 1251.44 403.093 1254.54 338.423 1244.65C287.446 1236.85 231.735 1220.93 172.832 1197.32C119.458 1175.77 65.5753 1150.81 8.5294 1124.39C-66.4983 1089.64 -144.076 1053.7 -231.359 1020.32C-335.377 980.889 -455.168 951.135 -597.586 929.351C-618.725 926.118 -640.999 922.964 -663.782 919.976C-674.023 918.636 -684.186 917.317 -694.254 916.009C-736.518 910.528 -776.438 905.349 -814.586 899.514ZM119.621 -44.8317C114.483 -45.6176 109.6 -46.3206 104.69 -46.984C-3.23133 -60.8767 -119.691 -58.0757 -272.94 -37.9092C-424.004 -17.6764 -545.346 6.96857 -654.815 39.6421C-813.563 87.7318 -923.559 136.153 -1000.99 192.032C-1088.74 256.312 -1150.68 340.938 -1180.11 436.765C-1236.42 628.829 -1163.62 794.651 -994.641 859.218C-949.991 875.653 -894.607 888.404 -815.061 900.571C-776.864 906.414 -736.924 911.595 -694.631 917.081C-684.561 918.385 -674.406 919.702 -664.167 921.044C-641.413 924.03 -619.172 927.179 -598.061 930.408C-455.92 952.149 -336.379 981.839 -232.591 1021.18C-145.421 1054.52 -67.8895 1090.43 7.10264 1125.17C64.176 1151.61 118.083 1176.58 171.533 1198.16C230.691 1221.87 286.678 1237.86 337.948 1245.7C403.275 1255.7 461.639 1252.56 511.438 1236.39C610.765 1202.29 674.421 1164.39 724.287 1109.65C772.714 1056.5 807.747 988.433 856.238 894.23C876.217 855.42 898.856 811.429 925.604 762.386C962.626 694.502 1011.29 641.043 1054.22 593.88C1104.21 538.963 1143.7 495.584 1146.35 450.588C1149.22 401.938 1107.85 356.496 1012.23 303.236C944.098 246.713 792.182 169.931 606.015 97.934C422.847 27.1068 241.018 -26.2634 119.621 -44.8317Z" fill="#EDE9F6"/>
<path d="M112.759 -32.6209C115.644 -32.2111 118.497 -31.7869 121.43 -31.3381C237.164 -13.6317 411.892 38.0044 588.797 106.795C768.842 176.794 916.272 251.553 983.181 306.777C1179.74 416.667 1120.08 485.656 1029.76 590.084C990.706 635.241 946.443 686.425 912.778 750.864C887.995 797.801 866.994 840.011 848.462 877.251C758.569 1057.9 717.539 1140.36 521.525 1209.06C470.088 1226.71 408.681 1230.25 338.986 1219.59C292.247 1212.44 241.504 1198.84 188.171 1179.17C121.645 1156.59 54.004 1128.82 -17.6017 1099.42C-84.8844 1071.8 -154.47 1043.23 -230.131 1016.01C-387.464 960.166 -550.388 930.885 -659.25 913.719L-678.544 910.903C-701.964 907.483 -724.089 904.254 -746.039 900.896C-839.407 886.611 -914.079 872.197 -975.027 848.276C-1135.87 784.559 -1207.37 624.067 -1157.18 439.41C-1132.49 344.768 -1076 261.53 -993.806 198.697C-920.351 143.077 -814.281 95.0539 -659.996 47.5715C-547.47 12.7493 -422.428 -12.2534 -266.481 -31.1038C-114.739 -49.0662 1.85335 -49.591 111.557 -32.8047L112.759 -32.6209ZM121.906 -32.3973C118.96 -32.8479 116.091 -33.2747 113.211 -33.6764L112.032 -33.8616C1.91976 -50.708 -115.035 -50.19 -267.178 -32.1793C-423.337 -13.3029 -548.568 11.7342 -661.276 46.6113C-815.806 94.1731 -922.073 142.288 -995.693 198.034C-1078.05 260.992 -1134.65 344.375 -1159.37 439.169C-1209.68 624.223 -1137.82 785.14 -976.301 849.125C-915.048 873.162 -840.144 887.63 -746.515 901.955C-724.549 905.316 -702.418 908.543 -678.986 911.965L-659.722 914.778C-551.039 931.917 -388.355 961.152 -231.314 1016.89C-155.725 1044.09 -86.1729 1072.64 -18.9107 1100.25C52.7349 1129.67 120.416 1157.46 186.988 1180.05C240.514 1199.79 291.504 1213.45 338.512 1220.64C408.868 1231.41 470.909 1227.82 522.883 1209.98C719.516 1141.07 760.601 1058.51 850.619 877.605C869.15 840.368 890.148 798.164 914.927 751.227C948.549 686.864 992.786 635.718 1031.81 590.597C1078.43 536.697 1115.25 494.124 1116.75 450.06C1118.38 402.427 1077.71 358.049 984.915 306.174C917.993 250.921 770.322 176.03 590.067 105.945C412.928 37.065 237.908 -14.6497 121.906 -32.3973Z" fill="#EDE9F6"/>
<path d="M338.878 1194.39C296.775 1187.94 251.43 1176.61 204.112 1160.71C121.228 1137.49 36.2682 1106.48 -53.6805 1073.65C-109.821 1053.16 -167.869 1031.98 -229.021 1011.34C-380.153 961.248 -529.44 930.494 -655.547 907.015L-662.999 905.797C-779.29 886.808 -879.727 870.405 -957.992 837.683C-1111.74 774.522 -1182.56 618.988 -1138.43 441.429C-1118.27 346.536 -1068.5 266.824 -990.488 204.496C-921.799 149.837 -816.345 100.793 -668.113 54.5462C-553.842 18.0735 -420.994 -8.00493 -261.966 -25.1746C-111.264 -41.0618 9.13814 -39.1101 120.561 -19.0192L123.085 -18.6354C233.588 -1.72389 401.778 48.2925 572.978 115.149C747.438 183.281 890.913 256.171 956.789 310.132C1147.82 417.123 1092.48 484.785 1008.72 587.205C973.517 630.249 933.626 679.037 903.334 739.873C880.555 784.604 861.228 824.95 844.168 860.545C760.358 1035.43 722.111 1115.26 534.044 1182.45C480.153 1201.94 414.488 1205.96 338.878 1194.39ZM95.2149 -24.3725C-9.33661 -40.3731 -123.041 -40.9715 -262.608 -26.2582C-421.884 -9.06059 -554.947 17.0602 -669.405 53.5918C-817.894 99.9157 -923.544 149.066 -992.398 203.85C-1070.57 266.307 -1120.44 346.169 -1140.63 441.204C-1162.4 528.787 -1156.88 612.376 -1124.7 682.931C-1092.5 753.492 -1035.31 807.291 -959.316 838.507C-880.689 871.382 -780.048 887.816 -663.514 906.847L-656.11 908.055C-530.185 931.502 -381.052 962.222 -230.137 1012.24C-169.046 1032.86 -111.004 1054.04 -54.8803 1074.53C35.1295 1107.38 120.152 1138.41 203.073 1161.64C250.519 1177.58 296.068 1188.96 338.404 1195.44C414.719 1207.12 481.01 1203.06 535.444 1183.37C724.094 1115.96 762.396 1036.03 846.317 860.891C863.38 825.298 882.706 784.956 905.491 740.23C935.743 679.463 975.602 630.709 1010.79 587.702C1054.02 534.837 1088.16 493.088 1088.45 449.969C1088.79 403.35 1048.71 360.039 958.52 309.529C892.634 255.539 748.929 182.522 574.234 114.3C402.815 47.3516 234.331 -2.73886 123.56 -19.6915L121.084 -20.068C112.592 -21.5963 103.869 -23.0481 95.2149 -24.3725Z" fill="#EDE9F6"/>
<path d="M335.971 1168.77C299.219 1163.14 259.994 1154.04 219.407 1141.72C116.447 1118.46 9.9954 1083.61 -102.712 1046.71C-143.118 1033.47 -184.902 1019.79 -227.671 1006.27C-384.007 957.906 -538.184 924.47 -650.758 900.051C-759.022 880.356 -861.22 861.771 -939.286 826.932C-1011.38 796.124 -1066.17 743.957 -1097.78 676.059C-1129.45 608.024 -1136.23 527.583 -1117.39 443.428C-1102.12 349.638 -1057.56 271.198 -984.949 210.287C-920.146 155.831 -818.579 107.149 -674.451 61.4545C-557.09 22.825 -420.331 -3.62012 -256.352 -19.3911C-127.546 -31.4481 -21.3159 -29.982 77.965 -14.7838C94.9854 -12.1782 112.078 -9.11435 128.766 -5.67012C234.58 11.0823 395.457 59.5827 559.246 124.098C729.034 190.977 863.833 259.805 929.074 312.941C1114.19 416.999 1063.28 483.367 986.211 583.827C954.839 624.721 919.28 671.072 892.335 728.276C871.585 770.715 853.949 809.136 838.378 843.034C760.674 1012.26 725.212 1089.49 545.316 1155.24C488.785 1176.83 418.35 1181.38 335.971 1168.77ZM78.4399 -15.8415C-21.2073 -31.0958 -127.775 -32.5671 -256.945 -20.4833C-421.202 -4.68212 -558.196 21.8098 -675.768 60.5115C-820.145 106.284 -921.916 155.074 -986.878 209.661C-1059.65 270.708 -1104.3 349.292 -1119.59 443.224C-1138.45 527.487 -1131.66 608.06 -1099.93 676.219C-1068.21 744.37 -1013.14 796.761 -940.66 827.735C-862.257 862.725 -759.843 881.351 -651.417 901.073C-538.977 925.461 -384.898 958.883 -228.72 1007.19C-185.986 1020.7 -144.211 1034.39 -103.803 1047.62C8.97913 1084.54 115.519 1119.42 218.508 1142.69C259.147 1155.03 298.55 1164.17 335.497 1169.82C418.588 1182.54 489.665 1177.94 546.744 1156.15C727.197 1090.19 762.722 1012.84 840.542 843.371C856.103 809.473 873.74 771.059 894.486 728.622C921.411 671.481 956.941 625.166 988.287 584.301C1028.05 532.453 1059.48 491.5 1058.58 449.315C1057.62 403.708 1018.2 361.46 930.806 312.341C865.545 259.17 730.523 190.219 560.51 123.248C396.521 58.6566 235.328 10.0739 129.357 -6.70516C112.696 -10.1405 95.5337 -13.2247 78.4399 -15.8415Z" fill="#EDE9F6"/>
<path d="M331.034 1144.77C300.38 1140.07 268.015 1133.14 234.806 1124.16C106.657 1101.61 -26.9739 1061.84 -168.422 1019.73C-187.63 1014.01 -207.004 1008.25 -226.585 1002.46C-346.253 967.965 -460.128 940.061 -560.596 915.444C-590.822 908.04 -619.367 901.042 -646.617 894.228C-758.29 871.638 -849.386 851.642 -921.526 817.238C-990.203 786.625 -1042.95 735.78 -1074.09 670.192C-1105.3 604.445 -1113.36 526.9 -1097.39 445.935C-1087 353.098 -1047.59 275.823 -980.237 216.237C-919.287 161.92 -821.492 113.524 -681.263 68.2954C-562.379 27.9861 -417.558 0.361113 -250.798 -13.8321C-131.72 -23.6609 -32.4556 -21.5301 61.5753 -7.13172C87.0089 -3.23724 112.474 1.67144 137.273 7.44395C238.88 24.4788 392.365 71.6433 547.968 133.641C709.809 198.124 839.015 264.562 902.439 315.921C1081.87 417.219 1035.36 482.434 964.936 581.149C937.283 619.907 905.949 663.834 882.243 717.45C863.53 757.58 847.559 794.062 833.485 826.252C761.761 990.18 729.024 1064.99 557.052 1129.46C497.489 1153.46 421.46 1158.61 331.034 1144.77ZM62.0505 -8.19013C-32.3345 -22.6427 -131.914 -24.7801 -251.353 -14.9215C-418.403 -0.709706 -563.496 26.9782 -682.594 67.3569C-823.077 112.666 -921.081 161.168 -982.189 215.635C-1049.69 275.353 -1089.2 352.776 -1099.59 445.753C-1115.59 526.815 -1107.51 604.491 -1076.24 670.355C-1044.98 736.189 -991.976 787.251 -922.946 818.018C-850.516 852.561 -759.205 872.612 -647.375 895.228C-620.209 902.025 -591.659 909.024 -561.426 916.431C-460.993 941.038 -347.158 968.933 -227.57 1003.4C-208.013 1009.19 -188.635 1014.95 -169.433 1020.67C-27.87 1062.81 105.857 1102.61 234.07 1125.16C267.227 1134.14 299.759 1141.11 330.56 1145.82C421.718 1159.78 498.404 1154.57 558.503 1130.35C731.036 1065.69 763.812 990.754 835.635 826.577C849.725 794.391 865.677 757.911 884.401 717.786C908.092 664.225 939.395 620.327 967.032 581.603C1003.37 530.654 1032.07 490.412 1029.96 449.077C1027.68 404.388 988.896 363.133 904.167 315.317C840.716 263.922 711.316 197.372 549.253 132.802C393.432 70.7194 239.673 23.4766 137.933 6.42122C113.161 0.645676 87.5858 -4.28006 62.0505 -8.19013Z" fill="#EDE9F6"/>
<path d="M212.396 1099.65C76.2213 1078.79 -66.0691 1040.94 -224.586 997.265C-289.685 979.844 -351.687 963.839 -411.646 948.364C-495.662 926.679 -575.019 906.192 -641.992 887.051C-742.644 864.448 -831.724 842.782 -903.559 806.216C-968.912 775.826 -1019.71 726.378 -1050.48 663.2C-1081.35 599.853 -1090.78 525.341 -1077.76 447.72C-1072.43 356.005 -1038.23 280.05 -976.101 221.94C-919.079 167.889 -825.05 119.918 -688.642 75.2873C-566.577 32.8805 -417.535 4.93691 -245.623 -7.78374C-137.051 -15.5354 -41.7697 -12.7941 45.6467 0.596111C79.3047 5.75176 112.966 12.6738 145.703 21.1715C343.094 56.2655 740.488 210.047 876.612 319.268C1050.68 417.742 1008.65 481.717 945.052 578.56C921.081 615.04 893.923 656.387 873.45 706.255C856.808 743.894 842.584 778.289 830.022 808.631C764.463 967.078 734.549 1039.4 570.347 1102.4C507.412 1129.12 424.79 1134.89 324.765 1119.57C301.191 1115.96 276.567 1111.12 251.571 1105.2C238.656 1103.52 225.543 1101.66 212.396 1099.65ZM46.121 -0.460623C-41.6251 -13.9013 -137.224 -16.6525 -246.134 -8.87484C-418.363 3.86512 -567.698 31.8685 -689.99 74.3546C-826.662 119.068 -920.903 167.153 -978.075 221.356C-1040.35 279.607 -1074.63 355.714 -1079.97 447.561C-1093 525.27 -1083.55 599.903 -1052.63 663.371C-1021.74 726.778 -970.7 776.436 -905.031 806.974C-832.926 843.677 -743.631 865.397 -642.852 888.026C-575.938 907.154 -496.556 927.643 -412.523 949.337C-352.563 964.813 -290.578 980.815 -225.509 998.227C-66.8824 1041.93 75.529 1079.81 211.924 1100.7C225.099 1102.72 238.245 1104.58 250.988 1106.23C275.875 1112.14 300.613 1116.99 324.292 1120.62C425.083 1136.06 508.364 1130.23 571.834 1103.29C651.363 1072.77 701.541 1039.17 739.574 990.954C775.982 944.809 799.567 887.823 832.199 808.948C844.752 778.606 858.984 744.215 875.614 706.574C896.079 656.761 923.215 615.442 947.16 578.983C979.981 529.002 1005.92 489.528 1002.51 449.096C998.812 405.374 960.521 365.153 878.344 318.666C816.599 269.117 692.637 205.025 538.33 142.908C390.527 83.4005 244.016 37.5158 146.425 20.1625C113.713 11.6685 79.9215 4.71686 46.121 -0.460623Z" fill="#EDE9F6"/>
<path d="M143.355 1072.43C15.5839 1052.85 -114.005 1021.41 -223.915 993.236C-371.709 956.55 -525.419 917.674 -638.034 881.076C-743.382 854.788 -821.522 831.475 -885.844 796.408C-1012.58 734.621 -1078.41 601.997 -1057.68 450.274C-1057.35 359.528 -1028.3 284.769 -971.344 228.038C-918.298 174.149 -828.084 126.495 -695.545 82.3244C-572.171 38.3217 -414.792 9.16719 -240.41 -2.00069C-140.105 -8.17149 -51.4968 -5.06522 30.4654 7.49204C72.5081 13.9333 112.805 22.7627 153.653 34.4826C246.903 52.11 385.662 96.5569 525.019 153.426C671.082 213.03 789.183 274.582 849.041 322.298C1017.49 418.066 979.995 480.975 923.25 576.204C902.858 610.406 879.753 649.17 862.383 695.302C847.815 730.408 835.298 762.677 824.272 791.149C766.565 939.891 737.605 1014.55 581.208 1076.32C515.434 1105.82 422.689 1112.51 312.978 1095.7C297.757 1093.37 282.057 1090.57 266.286 1087.36C227.231 1083.96 185.955 1078.95 143.355 1072.43ZM30.9388 6.43723C-51.3407 -6.16864 -140.247 -9.28675 -240.877 -3.10008C-415.6 8.0909 -573.295 37.3112 -696.908 81.3989C-829.711 125.653 -920.149 173.441 -973.342 227.472C-1030.44 284.351 -1059.57 359.262 -1059.9 450.139C-1080.66 602.157 -1014.55 735.133 -887.364 797.142C-815.843 836.132 -725.453 860.452 -639.001 882.019C-526.39 918.619 -372.615 957.514 -224.764 994.216C-114.775 1022.41 14.9234 1053.88 142.882 1073.48C185.563 1080.02 226.947 1085.04 265.853 1088.41C281.446 1091.6 297.21 1094.42 312.504 1096.76C422.996 1113.69 516.434 1106.92 582.722 1077.19C739.633 1015.22 768.643 940.433 826.433 791.449C837.474 762.982 849.993 730.718 864.564 695.607C881.906 649.524 904.997 610.782 925.366 576.604C954.658 527.453 977.796 488.636 973.104 449.01C968.029 406.169 930.296 366.905 850.762 321.69C790.891 273.945 672.589 212.279 526.323 152.593C386.774 95.6485 247.76 51.1211 154.448 33.4941C113.616 21.7693 73.1564 12.9053 30.9388 6.43723Z" fill="#EDE9F6"/>
<path d="M66.7702 1047.2C-19.1165 1034.04 -113.976 1015.02 -223.219 989.061C-403.456 947.695 -537.95 910.352 -634.407 874.892C-728.978 848.671 -804.937 823.603 -868.677 786.351C-988.204 725.108 -1053.22 597.207 -1038.4 452.529C-1043.15 362.734 -1019.26 289.165 -967.367 233.824C-918.314 180.129 -831.855 132.78 -703.064 89.0732C-543.286 30.7011 -360.615 10.3328 -235.506 3.52456C-142.653 -1.30011 -60.2011 2.07054 16.5471 13.8315C66.0465 21.4169 113.49 32.4591 161.59 47.59C342.971 84.1098 695.724 225.273 822.085 325.224C985.187 418.393 952.288 480.319 902.484 574.05C885.57 605.884 866.398 641.965 852.057 684.288C839.565 716.729 828.768 746.758 819.248 773.253C767.489 917.294 741.505 989.595 592.707 1050.17C522.647 1083.33 420.611 1090.89 297.572 1072.03C292.232 1071.21 286.782 1070.33 281.369 1069.41C213.93 1066.27 143.815 1059.01 66.7702 1047.2ZM17.0206 12.7765C-60.0327 0.968732 -142.773 -2.41706 -235.935 2.42609C-361.298 9.2488 -544.333 29.6633 -704.438 88.1554C-833.509 131.951 -920.184 179.424 -969.387 233.289C-1021.41 288.769 -1045.38 362.502 -1040.61 452.418C-1055.46 597.367 -990.177 725.61 -870.249 787.056C-806.32 824.419 -730.155 849.56 -635.479 875.807C-539.015 911.273 -404.379 948.657 -224.016 990.052C-114.675 1016.04 -19.7079 1035.08 66.2968 1048.26C143.5 1060.09 213.762 1067.36 281.1 1070.49C286.26 1071.38 291.735 1072.26 297.099 1073.09C420.927 1092.06 523.682 1084.44 594.239 1051.03C743.551 990.246 769.58 917.826 821.431 773.541C830.953 747.052 841.735 717.027 854.223 684.576C868.564 642.289 887.721 606.233 904.626 574.42C954.612 480.342 987.627 418.186 823.807 324.62C697.341 224.566 343.969 83.1545 162.446 46.6129C114.362 31.4845 66.7273 20.3936 17.0206 12.7765Z" fill="#EDE9F6"/>
<path d="M-9.32699 1024C-76.6578 1013.68 -146.135 1000.6 -221.699 984.024C-395.199 947.349 -532.69 908.271 -630.368 867.868C-705.524 844.719 -784.203 817.544 -851.361 775.499C-963.863 714.838 -1028.24 591.807 -1019.43 454.383C-1029.58 364.398 -1011.42 294.14 -963.887 239.538C-918.895 186.121 -836.184 139.189 -711.033 96.0434C-583.281 48.4279 -412.742 17.7207 -230.807 9.56905C-144.628 5.90733 -67.7825 9.48738 4.11487 20.5082C60.6112 29.1682 114.761 42.5051 169.672 61.2839C342.825 98.4886 672.303 231.771 796.031 328.6C954.138 419.181 925.967 480.122 883.32 572.373C869.775 601.674 854.421 634.889 843.021 673.234C832.631 702.822 823.576 730.425 815.6 754.785C769.973 894.132 747.063 964.076 605.68 1023.4C515.748 1068.26 388.599 1063 297.76 1050.71L297.478 1050.69C202.35 1049.79 101.989 1041.07 -9.32699 1024ZM4.5866 19.4567C-67.5998 8.39159 -144.721 4.79599 -231.194 8.46357C-413.509 16.6394 -584.413 47.4122 -712.426 95.1259C-837.869 138.37 -920.794 185.439 -965.936 239.025C-1013.59 293.773 -1031.82 364.194 -1021.64 454.296C-1030.47 591.966 -965.844 715.319 -852.986 776.175C-785.645 818.333 -706.756 845.583 -631.544 868.743C-533.817 909.173 -396.124 948.316 -222.425 985.032C-146.786 1001.63 -77.2354 1014.72 -9.79872 1025.05C101.68 1042.14 202.198 1050.89 297.501 1051.79C388.881 1064.15 516.742 1069.39 607.258 1024.25C749.126 964.715 772.073 894.648 817.792 755.058C825.768 730.705 834.804 703.099 845.212 673.51C856.594 635.183 871.94 601.996 885.487 572.71C928.272 480.123 956.551 418.959 797.753 327.99C673.91 231.068 343.85 97.551 170.599 60.3313C115.693 41.5434 61.3149 28.1523 4.5866 19.4567Z" fill="#EDE9F6"/>
<path d="M-79.9729 1005.54C-125.962 998.494 -173.603 990.005 -221.587 980.316C-391.792 947.278 -532.043 906.418 -627.204 862.157C-719.432 830.494 -781.41 801.722 -834.585 765.897C-886.424 736.291 -929.119 692.235 -958.11 638.449C-987.273 584.341 -1001.9 521.586 -1000.39 456.97C-1015.82 367.884 -1002.64 298.748 -960.088 245.55C-919.17 192.311 -840.22 145.658 -718.729 102.925C-587.936 53.0773 -413.017 21.9047 -226.15 15.1354C-146.049 12.4154 -74.3896 16.1065 -7.07734 26.4259C55.8573 36.0743 116.154 51.7676 177.271 74.4054C343.716 112.715 649.09 238.867 768.517 331.586C921.535 419.796 898.154 480.014 862.757 571.166C852.397 597.855 840.645 628.107 832.002 662.427C823.651 689.031 816.636 713.025 809.857 736.221C770.316 871.432 750.473 939.299 616.411 997.646C529.216 1043.61 402.822 1042.35 312.145 1033.21L311.859 1033.2C191.685 1036.28 59.8552 1026.98 -79.9729 1005.54ZM-6.60426 25.3713C-74.1891 15.0101 -146.119 11.3018 -226.499 14.0326C-413.766 20.8133 -589.072 52.0602 -720.137 102.012C-841.923 144.85 -921.099 191.648 -962.159 245.067C-1004.83 298.414 -1018.06 367.711 -1002.61 456.913C-1004.11 521.577 -989.46 584.438 -960.237 638.645C-931.156 692.608 -888.28 736.833 -836.253 766.542C-782.966 802.448 -720.813 831.305 -628.487 862.993C-533.241 907.304 -392.714 948.247 -222.238 981.341C-174.213 991.036 -126.499 999.536 -80.4449 1006.6C59.5825 1028.06 191.63 1037.39 312.035 1034.31C403.229 1043.49 530.289 1044.72 618.006 998.474C752.55 939.922 772.436 871.929 812.047 736.477C818.827 713.278 825.838 689.294 834.191 662.675C842.83 628.373 854.574 598.141 864.936 571.464C900.455 479.993 923.92 419.56 770.242 330.978C715.7 288.623 613.977 234.217 491.275 181.784C376.046 132.545 259.031 92.0556 178.255 73.4728C117.139 50.8133 56.5988 35.0608 -6.60426 25.3713Z" fill="#EDE9F6"/>
<path d="M-137.531 990.073C-164.778 985.895 -192.516 981.2 -219.982 976.124C-390.954 945.783 -530.221 904.243 -622.758 855.989C-704.767 824.565 -764.526 793.712 -816.656 755.887C-916.433 695.36 -977.65 584.55 -980.47 459.423C-1001.31 371.319 -993.152 303.382 -955.524 251.667C-918.739 198.671 -843.551 152.37 -725.666 110.11C-591.84 58.0991 -412.493 26.5304 -220.634 21.2003C-145.975 19.2869 -78.9953 23.0656 -15.863 32.7456C53.0875 43.3177 119.083 61.4092 185.905 88.0586C342.059 126.657 629.384 248.123 742.424 334.97C890.7 420.914 872.294 480.517 844.403 570.727C837.035 594.58 828.67 621.615 822.64 651.695C816.287 675.071 810.9 696.396 805.694 717.019C773.557 844.141 755.859 914.167 628.925 971.56C544.519 1018.55 418.825 1021.27 328.228 1015.28C183.241 1023.72 26.6286 1015.24 -137.531 990.073ZM-15.3892 31.6892C-78.7778 21.9699 -146.021 18.1774 -220.944 20.0989C-413.225 25.4372 -592.97 57.0807 -727.085 109.203C-845.281 151.573 -920.7 198.031 -957.613 251.215C-995.354 303.075 -1003.55 371.177 -982.673 459.401C-979.854 584.722 -918.435 695.81 -818.379 756.499C-766.159 794.397 -706.231 825.337 -624.148 856.781C-531.492 905.109 -391.887 946.757 -220.576 977.157C-193.07 982.242 -165.28 986.945 -138.004 991.127C26.4609 1016.34 183.376 1024.84 328.409 1016.38C419.229 1022.4 545.644 1019.65 630.56 972.374C757.958 914.771 775.693 844.614 807.889 717.253C813.099 696.631 818.488 675.311 824.829 651.914C830.86 621.851 839.218 594.832 846.594 570.99C874.569 480.466 893.049 420.662 744.146 334.36C690.599 293.216 596.88 242.576 480.341 191.837C373.243 145.209 263.563 106.073 186.958 87.1466C120.117 60.4701 53.8583 42.3069 -15.3892 31.6892Z" fill="#EDE9F6"/>
<path d="M-184.649 977.165C-196.314 975.376 -208.119 973.476 -219.735 971.52C-392.171 943.685 -530.365 901.491 -619.376 849.494C-691.308 818.635 -748.547 785.649 -799.656 745.614C-892.275 685.627 -952.683 579.535 -961.307 461.775C-988.006 373.465 -984.953 308.661 -951.708 257.779C-919.124 205.064 -847.746 159.137 -733.5 117.361C-598.716 63.9838 -410.246 31.187 -216.381 27.3626C-146.681 26.1304 -83.9847 29.9532 -24.7149 39.042C50.8461 50.6291 120.012 70.5549 192.966 101.752C339.655 140.827 604.776 254.98 714.33 338.246C858.108 422.103 844.839 481.287 824.756 570.877C820.113 591.615 814.848 615.117 811.174 640.69C806.746 660.562 802.919 678.939 799.233 696.711C773.538 820.37 759.397 888.486 639.442 945.063C557.938 993.011 432.999 999.729 342.534 996.93C177.532 1011.6 -4.69309 1004.76 -184.649 977.165ZM-24.2415 37.9864C-83.7633 28.8589 -146.705 25.0204 -216.659 26.2595C-410.958 30.0903 -599.862 62.9735 -734.942 116.467C-849.502 158.354 -921.109 204.444 -953.82 257.361C-987.168 308.396 -990.248 373.358 -963.504 461.78C-954.873 579.709 -894.28 686.057 -801.423 746.192C-750.25 786.288 -692.855 819.362 -620.868 850.233C-531.687 902.336 -393.11 944.664 -220.26 972.565C-208.637 974.522 -196.81 976.423 -185.121 978.216C-4.81075 1005.87 177.753 1012.72 342.844 998.021C433.536 1000.85 559.148 994.08 641.114 945.861C761.512 889.07 775.695 820.822 801.433 696.922C805.122 679.153 808.936 660.776 813.378 640.892C817.053 615.317 822.315 591.822 826.956 571.097C837.336 524.787 845.54 488.212 833.308 451.771C820.102 412.427 783.946 377.224 716.056 337.635C664.367 298.348 576.113 250.109 467.62 201.867C368.727 157.895 266.477 120.138 194.098 100.865C121.097 69.6293 51.6489 49.6239 -24.2415 37.9864Z" fill="#EDE9F6"/>
<path d="M-233.3 965.965C-400.93 940.258 -533.158 898.102 -615.686 844.049C-679.431 813.277 -730.804 780.053 -782.373 736.251C-867.945 676.657 -927.514 575.112 -941.79 464.564C-974.106 377.115 -975.877 313.396 -947.396 263.973C-919.387 212.182 -849.826 165.234 -740.624 124.404C-602.85 68.7807 -409.86 35.4883 -211.11 33.0567C-145.845 32.3793 -86.9991 36.2135 -31.2134 44.7686C49.687 57.1753 123.548 79.4948 201.216 115.015C343.28 155.988 581.331 261.463 687.597 341.403C827.38 423.592 819.892 479.636 807.489 572.49C805.075 590.602 802.574 609.323 800.916 630.077C798.218 646.13 795.862 661.232 793.562 675.835C774.642 796.792 764.215 863.418 650.872 919.516C572.238 968.485 447.963 979.256 357.542 979.68C173.055 1001.47 -26.2507 997.46 -219.053 968.099C-223.846 967.396 -228.581 966.689 -233.3 965.965ZM-30.7385 43.7097C-86.764 35.1178 -145.847 31.2714 -211.352 31.9509C-410.557 34.3881 -603.996 67.7622 -742.074 123.511C-851.598 164.459 -921.406 211.591 -949.527 263.59C-978.1 313.169 -976.341 377.044 -943.98 464.604C-929.698 575.292 -869.955 677.07 -784.193 736.792C-732.566 780.649 -681.065 813.957 -617.277 844.74C-534.555 898.93 -401.899 941.239 -233.774 967.022C-229.047 967.747 -224.304 968.455 -219.508 969.154C-26.3333 998.574 173.369 1002.59 357.996 980.77C448.632 980.359 573.523 969.523 652.564 920.295C766.357 863.979 776.798 797.215 795.777 676.019C798.057 661.413 800.423 646.317 803.121 630.245C804.776 609.478 807.287 590.764 809.697 572.663C815.894 526.269 820.785 489.627 806.705 453.4C791.533 414.332 755.33 379.604 689.311 340.787C639.489 303.3 556.666 257.394 456.188 211.587C365.491 170.239 270.615 133.811 202.407 114.151C124.679 78.5825 50.5196 56.1712 -30.7385 43.7097Z" fill="#EDE9F6"/>
<path d="M-255.769 958.767C-414.28 934.456 -537.465 892.713 -612.006 838.054C-666.492 808.354 -713.753 773.927 -765.356 726.357C-844.129 667.088 -903.014 570.146 -922.925 466.992C-961.602 379.264 -968.077 318.523 -943.93 269.959C-920.105 218.42 -854.356 171.811 -748.507 131.407C-607.656 73.6038 -409.98 39.8966 -206.127 38.9249C-144.826 38.7373 -89.4176 42.5768 -36.7489 50.6548C49.3305 63.8572 127.629 88.6037 209.66 128.528C341.381 169.812 559.291 268.722 661.722 344.782C798.458 425.765 796.402 482.319 793.015 576.017C792.525 589.829 791.995 604.12 791.889 619.491C790.677 631.249 789.591 642.571 788.542 653.462C777.12 772.37 770.823 837.866 663.642 893.719C587.905 943.597 464.156 958.407 373.68 962.057C181.063 990.019 -23.4056 990.736 -217.862 964.151C-230.634 962.479 -243.386 960.666 -255.769 958.767ZM-36.276 49.6003C-89.1725 41.4873 -144.801 37.6337 -206.345 37.8204C-410.666 38.7981 -608.807 72.5821 -749.974 130.519C-856.16 171.044 -922.154 217.85 -946.082 269.61C-970.305 318.334 -963.836 379.232 -925.108 467.07C-905.178 570.337 -846.15 667.482 -767.221 726.861C-715.579 774.478 -668.207 808.98 -613.686 838.688C-538.933 893.515 -415.293 935.425 -256.241 959.819C-243.826 961.724 -231.045 963.541 -218.24 965.218C-23.4169 991.856 181.479 991.137 374.253 963.136C464.947 959.492 589.264 944.6 665.377 894.475C773.004 838.402 779.307 772.766 790.756 653.615C791.806 642.721 792.891 631.403 794.101 619.619C794.207 604.228 794.725 589.945 795.232 576.134C796.919 529.236 798.27 492.202 782.068 455.945C764.603 416.89 728.024 382.416 663.436 344.168C560.919 268.039 342.646 168.959 210.92 127.687C128.803 87.7006 50.1858 62.8613 -36.276 49.6003Z" fill="#EDE9F6"/>
<path d="M-273.071 952.356C-424.712 929.096 -540.575 887.433 -608.136 831.865C-661.932 798.526 -702.92 761.583 -747.935 716.347C-821.062 656.392 -877.71 566.416 -903.412 469.443C-933.479 411.006 -964.751 336.283 -939.728 276.069C-920.139 224.812 -858.27 178.556 -755.84 138.585C-614.17 79.4892 -406.823 44.4926 -201.163 44.9653C-143.517 45.1851 -91.3019 49.0056 -41.5397 56.6386C50.6482 70.7791 130.581 97.1378 217.618 142.122C341.084 184.415 538.063 277.217 634.775 348.077C769.5 428.577 773.352 486.453 779.74 582.344C780.316 590.822 780.894 599.584 781.582 608.674C781.4 615.508 781.246 622.208 781.075 628.755C778.301 742.742 776.616 811.543 675.195 867.575C602.463 918.293 479.362 937.169 388.883 944.081C191.536 977.811 -23.5581 983.421 -216.944 959.909C-236.019 957.685 -254.904 955.142 -273.071 952.356ZM-41.067 55.5844C-91.0488 47.9178 -143.477 44.079 -201.344 43.857C-297.771 43.6399 -397.625 51.3158 -490.137 66.0668C-592.656 82.4103 -682.547 106.506 -757.316 137.698C-860.11 177.812 -922.22 224.267 -941.901 275.758C-967.011 336.187 -935.682 411.071 -905.581 469.56C-879.862 566.62 -823.089 656.764 -749.851 716.811C-704.81 762.075 -663.748 799.085 -609.903 832.441C-542.113 888.207 -425.771 930.06 -273.544 953.41C-255.328 956.204 -236.389 958.752 -217.269 960.983C-120.843 972.709 -19.9322 977.351 82.6506 974.775C186.594 972.17 289.858 962.201 389.585 945.152C480.262 938.235 603.906 919.263 676.96 868.312C778.821 812.046 780.507 743.097 783.298 628.867C783.444 622.319 783.612 615.624 783.798 608.764C783.098 599.643 782.523 590.881 781.954 582.41C775.552 486.268 771.687 428.235 636.494 347.461C539.682 276.535 342.41 183.589 218.949 141.307C131.786 96.2542 51.5398 69.7892 -41.067 55.5844Z" fill="#EDE9F6"/>
<path d="M-287.537 946.359C-433.918 923.903 -543.722 882.071 -605.068 825.392C-655.224 789.792 -692.21 749.135 -731.362 706.09C-797.991 646.013 -853.898 560.6 -884.788 471.71C-921.094 410.346 -955.595 339.878 -936.445 282.059C-921.135 231.114 -863.152 185.233 -764.103 145.699C-619.553 84.486 -407.612 49.0943 -197.138 51.0136C-142.842 51.5883 -93.5504 55.3793 -46.4387 62.6065C50.4967 77.477 134.111 106.192 224.659 155.712C339.118 198.828 513.32 283.738 606.975 351.333C741.868 432.723 752.39 493.468 769.828 594.113L770.464 597.763L770.652 600.706C777.965 715.23 782.386 784.359 685.944 841.242C616.295 892.714 493.813 915.668 403.318 925.87C198.728 965.781 -21.4472 976.245 -216.8 955.364C-241.039 952.871 -264.833 949.842 -287.537 946.359ZM-45.9654 61.5508C-93.2845 54.2918 -142.782 50.4862 -197.296 49.912C-408.262 47.9852 -620.712 83.4662 -765.599 144.819C-865.019 184.513 -923.24 230.595 -938.633 281.791C-957.854 339.827 -923.281 410.444 -886.939 471.872C-856.034 560.819 -800.026 646.366 -733.317 706.515C-694.16 749.568 -657.132 790.276 -606.921 825.909C-545.329 882.825 -435.025 924.859 -288.009 947.412C-265.236 950.906 -241.368 953.944 -217.062 956.442C-21.3005 977.372 199.315 966.886 404.132 926.924C494.825 916.706 617.799 893.651 687.752 841.958C784.62 784.823 780.193 715.542 772.857 600.77L772.665 597.797L772.026 594.113C754.553 493.239 744.004 432.359 608.696 350.721C514.944 283.063 340.507 198.026 226.053 154.928C135.368 105.317 51.4173 76.49 -45.9654 61.5508Z" fill="#EDE9F6"/>
<path d="M-298.214 941.95C-440.386 920.138 -544.935 877.96 -600.575 819.975C-637.666 789.476 -665.878 754.856 -695.752 718.207C-701.455 711.207 -707.264 704.085 -713.251 696.836C-773.989 635.802 -829.094 554.898 -864.454 474.84C-905.181 414.124 -944.945 344.596 -931.322 288.785C-920.291 238.124 -866.191 192.581 -770.508 153.424C-623.106 90.0249 -406.63 54.1697 -191.434 57.5119C-140.222 58.3734 -93.624 62.118 -48.9909 68.9657C52.5217 84.5398 139.547 115.622 233.167 169.742C337.426 213.283 490.099 290.887 580.434 355.103C708.715 433.459 733.991 495.174 760.394 587.509C778.64 692.635 785.376 759.924 697.652 815.763C631.099 867.976 509.255 895.067 418.751 908.609C207.18 954.803 -17.9922 970.167 -215.433 951.892C-244.017 949.338 -271.869 945.992 -298.214 941.95ZM-48.5186 67.9123C-93.3509 61.0341 -140.135 57.2704 -191.558 56.4034C-407.275 53.0613 -624.26 89.0036 -772.011 152.553C-868.088 191.872 -922.434 237.635 -933.52 288.562C-947.194 344.585 -907.351 414.267 -866.582 475.044C-831.21 555.134 -776.041 636.135 -715.246 697.219C-709.296 704.423 -703.491 711.545 -697.791 718.542C-667.879 755.24 -639.627 789.898 -602.499 820.432C-575.655 848.41 -536.788 873.047 -487.024 893.605C-434.64 915.245 -371.272 931.865 -298.685 943.002C-272.25 947.057 -244.312 950.412 -215.637 952.977C-17.7809 971.294 207.837 955.904 419.67 909.65C510.373 896.081 632.667 868.876 699.491 816.455C787.631 760.357 780.885 692.897 762.587 587.482C736.132 494.913 710.781 433.055 582.144 354.485C491.745 290.218 338.88 212.511 234.636 168.992C140.834 114.756 53.4612 83.5581 -48.5186 67.9123Z" fill="#EDE9F6"/>
<path d="M-307.886 936.65C-446.843 915.328 -546.964 872.655 -597.407 813.246C-625.372 786.297 -646.583 756.331 -669.042 724.604C-677.82 712.205 -686.899 699.381 -696.706 686.261C-737.646 639.816 -796.764 565.78 -846.047 476.638C-893.677 413.552 -936.586 347.825 -928.338 294.198C-921.655 243.84 -871.388 198.655 -778.939 159.903C-628.543 94.3531 -407.293 58.0973 -187.069 62.9241C-139.307 64.0232 -93.873 67.8339 -52.0457 74.252C54.0655 90.5339 144.432 124.004 240.971 182.771C327.096 222.96 460.592 292.893 553.767 357.925C673.083 431.734 714.995 491.62 750.608 576.328C781.904 677.023 784.17 737.617 709.702 789.304C646.234 842.153 524.889 873.386 434.255 890.282C215.641 942.723 -14.8212 962.925 -214.777 947.182C-247.18 944.704 -278.505 941.158 -307.886 936.65ZM-51.5735 73.1988C-93.5879 66.752 -139.21 62.9246 -187.166 61.8224C-289.326 59.5837 -396.195 66.5516 -496.227 81.9698C-604.957 98.7315 -703.246 125.385 -780.457 159.034C-873.324 197.962 -923.825 243.379 -930.545 294.024C-938.821 347.858 -895.833 413.728 -848.141 476.89C-798.854 566.051 -739.689 640.146 -698.742 686.597C-688.969 699.675 -679.896 712.493 -671.116 724.888C-648.634 756.652 -627.397 786.656 -599.396 813.639C-575.055 842.305 -538.55 867.42 -490.92 888.241C-440.754 910.171 -379.335 926.812 -308.358 937.703C-278.867 942.228 -247.433 945.783 -214.926 948.272C-14.5391 964.05 216.363 943.816 435.27 891.304C526.11 874.366 647.87 843.021 711.57 789.965C748.529 764.327 767.838 735.058 772.301 697.891C776.775 660.555 765.565 617.354 752.782 576.227C717.078 491.306 675.063 431.284 555.473 357.308C462.247 292.235 328.612 222.224 242.511 182.061C145.763 123.148 55.0256 89.5556 -51.5735 73.1988Z" fill="#EDE9F6"/>
<path d="M-315.809 932.64C-451.952 911.747 -547.942 868.514 -593.404 807.612C-614.533 783.304 -630.369 756.633 -647.136 728.398C-657.023 711.752 -667.243 694.533 -679.111 676.844C-688.222 664.922 -697.838 652.486 -707.819 639.577C-744.955 591.547 -787.04 537.11 -826.26 479.663C-886.931 407.575 -926.711 349.605 -923.756 300.902C-921.422 250.87 -875.044 206.044 -785.902 167.679C-634.984 100.974 -403.59 63.3751 -182.014 69.5436C-136.852 70.8485 -93.7981 74.5992 -54.0588 80.6976C57.8986 97.8788 148.47 132.632 248.798 196.896C286.811 216.959 418.934 287.994 526.584 361.741C632.415 428.278 694.208 487.465 739.916 566.059C773.433 635.262 794.32 707.123 720.764 763.718C673.038 806.002 579.114 843.73 449.108 872.848C223.871 931.577 -11.5826 956.649 -213.901 943.46C-249.626 941.174 -283.911 937.535 -315.809 932.64ZM-53.586 79.6427C-93.4999 73.5174 -136.738 69.7506 -182.087 68.4461C-286.091 65.5481 -395.222 72.2878 -497.7 87.9367C-608.912 104.917 -709.099 132.196 -787.437 166.821C-877.009 205.371 -923.619 250.443 -925.962 300.775C-928.937 349.679 -889.075 407.777 -828.318 479.973C-789.113 537.403 -747.015 591.852 -709.871 639.892C-699.893 652.798 -690.282 665.234 -681.184 677.129C-669.35 694.777 -659.133 711.983 -649.251 728.621C-632.458 756.894 -616.601 783.598 -595.442 807.944C-573.507 837.333 -539.227 862.953 -493.568 884.075C-445.468 906.328 -385.821 923.021 -316.28 933.692C-284.257 938.607 -249.84 942.261 -213.988 944.555C-11.2388 957.772 224.653 932.662 450.205 873.848C580.54 844.657 674.79 806.79 722.682 764.35C754.99 739.492 771.403 710.703 772.79 676.367C773.996 646.765 764.232 611.653 742.048 565.867C696.23 487.082 634.312 427.774 528.297 361.116C420.595 287.34 288.373 216.255 250.414 196.225C149.831 131.786 58.8875 96.903 -53.586 79.6427Z" fill="#EDE9F6"/>
<path d="M-322.813 928.731C-454.823 908.47 -549.658 863.373 -589.85 801.749C-605.679 779.483 -617.275 755.282 -629.554 729.657C-639.241 709.444 -649.256 688.538 -662.061 667.073C-695.655 615.071 -744.435 556.949 -796.068 495.415L-807.192 482.158C-863.264 422.007 -918.142 358.942 -919.995 306.916C-922.045 257.173 -879.504 212.669 -793.548 174.648C-639.714 105.747 -403.483 67.6749 -177.04 75.2885C-134.238 76.7609 -93.357 80.4542 -55.5255 86.2607C90.8265 108.723 184.589 161.552 256.998 210.265C304.751 239.164 399.776 297.646 500.086 364.951C584.81 419.252 671.306 479.892 730.141 555.382C785.607 633.164 786.43 691.161 732.713 737.892C686.826 781.214 596.618 820.699 464.58 855.265C232.624 920.344 -8.0328 950.305 -213.067 939.639C-251.811 937.632 -288.732 933.962 -322.813 928.731ZM-55.0535 85.2075C-93.0517 79.3754 -134.112 75.6666 -177.088 74.1846C-404.077 66.5576 -640.884 104.723 -795.099 173.796C-881.503 212.013 -924.271 256.78 -922.209 306.836C-920.344 359.087 -865.362 422.28 -809.207 482.526L-798.101 495.763C-746.477 557.271 -697.725 615.37 -664.171 667.312C-651.386 688.735 -641.38 709.623 -631.704 729.822C-619.404 755.477 -607.796 779.709 -591.934 802.019C-572.258 832.188 -540.014 858.379 -496.103 879.859C-449.828 902.49 -391.687 919.288 -323.286 929.786C-289.067 935.038 -251.991 938.723 -213.103 940.737C-7.63402 951.422 233.468 921.417 465.768 856.248C598.133 821.594 688.619 781.972 734.681 738.492C788.692 691.492 787.916 633.208 732.201 555.079C673.243 479.428 586.632 418.695 501.8 364.333C401.468 297.021 306.417 238.519 258.695 209.638C186.082 160.781 91.9853 107.776 -55.0535 85.2075Z" fill="#EDE9F6"/>
<path d="M-328.786 924.986C-458.914 905.01 -550.259 859.169 -585.994 795.904C-597.558 775.317 -605.692 753.094 -614.307 729.569C-622.853 706.21 -631.694 682.055 -644.675 657.341C-669.866 609.389 -712.65 557.764 -787.736 484.724C-851.364 422.742 -909.031 362.972 -915.782 313.038C-922.229 263.598 -883.536 219.425 -800.766 181.739C-644.063 110.64 -403.072 72.1006 -171.835 81.1548C-131.257 82.7655 -92.417 86.3908 -56.381 91.9225C95.4554 115.23 191.422 171.632 265.267 223.728C277.273 232.213 289.525 240.925 302.078 249.858C352.129 285.451 408.851 325.796 473.543 368.221C488.867 378.269 504.868 388.578 520.347 398.55C592.635 445.126 667.38 493.283 720.257 544.725C782.556 605.381 791.179 664.804 744.536 712.043C701.174 755.732 612.179 797.994 480.015 837.654C241.487 909.083 -4.29654 943.943 -212.079 935.808C-253.56 934.148 -292.827 930.506 -328.786 924.986ZM-55.9079 90.8668C-92.1023 85.3107 -131.114 81.6711 -171.856 80.0497C-403.654 70.9773 -645.237 109.615 -802.333 180.894C-885.571 218.79 -924.48 263.241 -917.985 313.011C-911.201 363.163 -853.427 423.061 -789.684 485.155C-714.684 558.116 -671.953 609.666 -646.814 657.529C-633.853 682.202 -625.019 706.333 -616.478 729.672C-607.858 753.225 -599.712 775.471 -588.113 796.115C-570.615 827.09 -540.307 853.875 -498.017 875.735C-453.448 898.763 -396.673 915.691 -329.258 926.04C-293.137 931.584 -253.702 935.24 -212.057 936.911C-108.594 940.96 4.69061 934.347 124.665 917.253C243.676 900.294 363.647 873.835 481.274 838.614C613.755 798.857 703.002 756.459 746.539 712.603C793.485 665.057 784.848 605.277 722.203 544.288C669.225 492.751 594.404 444.541 522.05 397.921C506.572 387.954 490.579 377.648 475.271 367.603C410.587 325.199 353.885 284.867 303.845 249.277C291.302 240.351 279.036 231.631 267.035 223.145C192.941 170.87 96.6356 114.283 -55.9079 90.8668Z" fill="#EDE9F6"/>
<path d="M-325.868 911.255C-455.396 891.366 -545.708 847.142 -580.163 786.729C-592.388 765.332 -600.61 742.532 -609.31 718.396C-617.057 696.911 -625.067 674.695 -636.515 651.804C-641.948 641.082 -648.507 629.801 -656.007 618.273C-680.881 580.048 -716.297 538.511 -770.833 483.588C-830.462 423.32 -884.432 365.195 -889.83 316.502C-894.979 268.368 -857.001 225.387 -776.957 188.752C-684.739 146.488 -564.617 117.026 -429.584 103.547C-343.174 94.4935 -251.125 91.955 -163.366 96.1975C-124.677 97.9355 -87.4901 101.515 -52.8505 106.834C40.2262 121.126 120.23 148.222 198.91 192.105C220.424 204.171 242.178 217.688 265.4 233.426C283.794 245.738 302.489 258.424 322.289 271.852C366.68 301.948 416.971 336.061 472.225 371.575C481.292 377.366 490.447 383.183 499.658 389.033C562.281 428.823 627.047 469.968 678.383 513.441C690.584 523.763 701.745 533.975 711.54 543.792C770.673 602.793 778.32 660.765 733.088 707.026C690.77 750.172 604.743 791.717 477.422 830.51C392.402 856.903 299.7 878.339 201.893 894.225C133.873 905.495 64.3137 913.775 -4.84488 918.834C-74.2879 923.878 -139.28 924.919 -209.393 922.105C-250.63 920.439 -289.822 916.79 -325.868 911.255ZM-52.3796 105.783C-87.1736 100.44 -124.517 96.8415 -163.361 95.0991C-251.326 90.8419 -343.606 93.3935 -430.208 102.466C-565.595 115.981 -686.049 145.525 -778.528 187.907C-859.03 224.748 -897.217 268.002 -892.036 316.462C-886.615 365.376 -832.543 423.622 -772.796 484.005C-718.315 538.875 -682.941 580.363 -658.102 618.527C-650.621 630.029 -644.075 641.284 -638.652 651.981C-627.227 674.834 -619.226 697.03 -611.487 718.494C-602.775 742.663 -594.542 765.487 -582.282 786.942C-547.591 847.768 -456.693 892.292 -326.34 912.308C-290.132 917.868 -250.781 921.532 -209.383 923.206C-139.097 926.025 -73.936 924.982 -4.33534 919.926C64.9441 914.86 134.614 906.565 202.751 895.276C300.7 879.366 393.55 857.897 478.704 831.467C606.337 792.578 692.601 750.895 735.094 707.579C780.615 661.013 772.958 602.695 713.506 543.371C703.678 533.529 692.494 523.292 680.262 512.95C628.847 469.402 564.034 428.226 501.349 388.4C492.137 382.552 482.978 376.734 473.924 370.943C418.69 335.444 370.567 302.81 324.023 271.249C304.228 257.819 285.533 245.133 267.135 232.821C243.862 217.051 222.067 203.509 200.499 191.418C121.501 147.352 41.1482 120.144 -52.3796 105.783Z" fill="#EDE9F6"/>
<path d="M-323.811 897.405C-452.506 877.638 -541.638 835.084 -574.783 777.584C-587.715 755.343 -595.982 731.979 -604.736 707.241C-611.661 687.672 -618.817 667.437 -628.765 646.449C-633.815 636.072 -639.929 625.107 -646.942 613.852C-670.195 576.522 -703.283 536.109 -754.233 482.822C-809.82 424.342 -860.05 367.928 -864.092 320.523C-867.927 273.741 -830.713 232.002 -753.464 196.46C-662.744 154.467 -545.367 126.594 -414.025 115.847C-330.879 108.225 -244.014 106.95 -155.825 112.064C-119.089 113.917 -83.6481 117.441 -50.4858 122.535C40.5118 136.512 119.577 162.576 198.354 204.56C219.714 216.056 241.255 228.891 264.218 243.801C291.424 261.02 319.54 279.22 349.295 298.488C387.15 322.999 426.286 348.342 469.396 375.461L474.014 378.337C543.202 421.346 614.732 465.82 669.619 513.563C681.185 523.604 691.787 533.58 701.099 543.2C757.002 600.482 763.686 656.935 719.903 702.161C678.669 744.72 595.717 785.502 473.367 823.381C391.859 849.588 302.432 869.671 199.97 884.793C133.866 894.96 66.7497 902.165 -5.20879 906.83C-70.483 910.998 -130.992 911.437 -207.519 908.293C-248.517 906.624 -287.64 902.961 -323.811 897.405ZM-50.0135 121.48C-83.322 116.364 -118.909 112.827 -155.783 110.963C-244.173 105.842 -331.256 107.121 -414.59 114.765C-546.303 125.536 -664.039 153.492 -755.044 195.619C-832.728 231.365 -870.164 273.368 -866.299 320.47C-862.238 368.084 -811.903 424.623 -756.208 483.221C-705.312 536.454 -672.262 576.818 -649.045 614.091C-642.048 625.322 -635.95 636.265 -630.91 646.617C-620.98 667.568 -613.825 687.785 -606.909 707.336C-598.15 732.101 -589.868 755.499 -576.902 777.799C-560.602 806.073 -530.658 830.896 -487.893 851.579C-444.17 872.726 -389.121 888.498 -324.282 898.457C-287.953 904.037 -248.662 907.714 -207.499 909.391C-130.806 912.541 -70.1624 912.104 -4.73393 907.921C67.3443 903.25 134.57 896.032 200.78 885.853C303.417 870.707 393.011 850.582 474.661 824.329C597.322 786.357 680.516 745.44 721.908 702.714C765.981 657.188 759.294 600.393 703.069 542.792C693.732 533.143 683.106 523.152 671.506 513.08C616.529 465.257 544.93 420.744 475.679 377.691L471.078 374.825C427.99 347.717 388.851 322.371 350.997 297.865C321.235 278.593 293.124 260.392 265.911 243.169C242.917 228.242 221.328 215.378 199.91 203.848C120.822 161.696 41.4063 135.522 -50.0135 121.48Z" fill="#EDE9F6"/>
<path d="M-322.056 883.47C-448.196 864.088 -538.57 822.077 -570.012 768.205C-583.749 745.022 -592.035 721.054 -600.812 695.677C-606.919 678.016 -613.23 659.761 -621.757 640.705C-626.453 630.648 -632.139 619.981 -638.663 609.001C-660.341 572.522 -691.178 533.187 -738.652 481.46C-790.322 424.699 -836.929 369.93 -839.64 323.747C-842.187 278.262 -805.666 237.719 -731.107 203.244C-641.735 161.484 -526.899 135.18 -398.999 127.17C-320.299 121.061 -235.974 120.995 -148.333 126.957C-113.53 128.922 -79.8239 132.393 -48.1254 137.264C40.9882 150.957 119.328 176.039 198.431 216.198C219.686 227.154 241.07 239.324 263.795 253.409C304.255 277.539 346.997 304.044 392.249 332.101C416.455 347.116 441.486 362.638 467.736 378.772C536.714 420.413 608.563 465.093 662.425 513.282C673.428 523.087 683.481 532.831 692.317 542.254C745.118 597.886 750.855 652.891 708.461 697.13C668.247 739.148 588.226 779.204 470.629 816.194C391.732 842.431 305.4 861.225 198.902 875.342C135.783 884.264 69.0683 890.629 -5.10042 894.805C-74.6325 898.637 -131.24 897.574 -205.529 894.445C-246.421 892.761 -285.623 889.068 -322.056 883.47ZM-47.6543 136.212C-79.4869 131.321 -113.337 127.84 -148.265 125.865C-236.083 119.89 -320.623 119.96 -399.501 126.077C-527.797 134.109 -643.02 160.504 -732.691 202.407C-807.682 237.08 -844.411 277.884 -841.843 323.679C-839.129 370.071 -792.431 424.966 -740.655 481.838C-693.224 533.517 -662.422 572.803 -640.777 609.221C-634.267 620.182 -628.595 630.825 -623.906 640.857C-615.403 659.88 -609.087 678.123 -602.988 695.764C-594.202 721.179 -585.901 745.181 -572.13 768.425C-540.452 822.701 -449.477 865.018 -322.528 884.524C-285.937 890.147 -246.567 893.853 -205.514 895.545C-131.096 898.679 -74.3671 899.741 -4.65811 895.903C69.6233 891.718 136.454 885.343 199.656 876.405C306.359 862.264 392.879 843.428 471.941 817.134C589.841 780.058 670.094 739.863 710.471 697.676C753.137 653.14 747.405 597.804 694.302 541.857C685.447 532.416 675.36 522.642 664.333 512.814C610.364 464.534 538.439 419.801 469.392 378.12C443.156 361.994 418.121 346.471 393.913 331.46C348.661 303.394 305.911 276.887 265.448 252.762C242.684 238.649 221.247 226.451 199.945 215.466C120.535 175.149 41.8616 149.967 -47.6543 136.212Z" fill="#EDE9F6"/>
<path d="M-320.795 870.468C-445.87 851.245 -534.854 810.904 -564.932 759.783C-579.476 735.569 -587.684 710.964 -596.376 684.914C-601.629 669.17 -607.062 652.886 -614.18 635.803C-618.489 626.071 -623.721 615.698 -629.747 604.965C-649.755 569.317 -678.235 531.033 -722.097 480.825C-767.792 427.949 -812.522 372.565 -813.809 327.581C-815 283.342 -779.195 243.936 -707.392 210.455C-619.472 168.845 -507.328 144.027 -383.087 138.682C-309.132 134.018 -227.489 135.113 -140.38 141.931C-107.632 143.99 -75.7783 147.377 -45.685 152.002C41.424 165.391 118.946 189.492 198.274 227.847C219.362 238.251 240.521 249.764 262.981 263.045C325.825 298.354 393.505 339.047 465.161 382.131C528.835 419.501 601.032 464.284 653.803 513.106C664.198 522.669 673.681 532.192 682.006 541.425C731.554 595.439 736.264 649.05 695.257 692.379C656.087 733.922 579.077 773.333 466.372 809.521C389.686 835.996 306.516 853.596 196.682 866.597C136.139 874.443 71.7953 879.847 -5.79992 883.61C-77.0009 886.95 -131.109 884.633 -199.628 881.701L-204.025 881.51C-244.8 879.827 -284.084 876.111 -320.795 870.468ZM-45.2136 150.949C-75.4368 146.304 -107.418 142.9 -140.269 140.839C-227.55 134.007 -309.401 132.912 -383.512 137.586C-508.179 142.943 -620.735 167.855 -708.98 209.622C-781.204 243.295 -817.222 282.955 -816.018 327.494C-814.721 372.688 -769.902 428.202 -724.111 481.185C-680.292 531.342 -651.847 569.578 -631.865 605.171C-625.858 615.886 -620.629 626.237 -616.337 635.939C-609.227 652.992 -603.802 669.263 -598.554 684.999C-589.851 711.084 -581.631 735.728 -567.046 760.006C-536.731 811.53 -447.145 852.174 -321.266 871.521C-284.397 877.188 -244.948 880.923 -204.01 882.611L-199.617 882.801C-130.996 885.737 -76.8015 888.056 -5.39344 884.708C72.3205 880.942 136.752 875.527 197.387 867.669C307.467 854.642 390.833 836.992 467.707 810.457C580.695 774.179 657.931 734.63 697.272 692.919C738.546 649.304 733.829 595.367 684.008 541.043C675.658 531.79 666.133 522.234 655.723 512.647C602.849 463.727 530.552 418.885 466.795 381.468C395.139 338.381 327.438 297.678 264.57 262.365C242.103 249.071 220.897 237.526 199.745 227.091C120.11 188.587 42.2731 164.396 -45.2136 150.949Z" fill="#EDE9F6"/>
<path d="M-318.679 856.628C-442.642 837.567 -530.254 798.951 -559.06 750.678C-574.527 725.418 -582.624 700.233 -591.195 673.567C-595.627 659.774 -600.205 645.514 -606.037 630.488C-610.035 620.953 -614.71 611.174 -620.314 600.584C-638.71 565.854 -664.917 528.69 -705.281 480.093C-747.181 428.947 -788.084 375.349 -788.029 331.622C-787.927 288.739 -752.869 250.579 -683.824 218.214C-597.359 176.895 -487.88 153.678 -367.212 151.074C-297.174 147.803 -220.346 150.038 -132.288 157.906C-101.647 160.045 -71.7138 163.35 -43.2787 167.722C41.9575 180.828 118.822 203.942 198.601 240.465C219.567 250.307 240.537 261.149 262.727 273.599C319.389 303.399 381.301 338.136 463.485 386.241C547.217 433.798 605.346 474.223 646.411 513.468C656.223 522.772 665.157 532.061 672.987 541.083C719.387 593.371 723.154 645.459 683.603 687.762C646.026 728.136 569.976 767.845 463.676 802.591C369.061 836.342 270.888 849.569 195.938 857.32C122.193 865.916 49.7295 869.538 -5.15846 871.73C-66.6007 874.072 -113.911 871.86 -168.682 869.294C-179.167 868.803 -189.988 868.297 -201.305 867.802C-242.08 866.093 -281.568 862.334 -318.679 856.628ZM-42.8071 166.668C-71.36 162.278 -101.414 158.962 -132.134 156.815C-220.356 148.937 -297.375 146.7 -367.556 149.972C-488.676 152.586 -598.609 175.896 -685.416 217.378C-754.865 249.94 -790.138 288.348 -790.233 331.523C-790.288 375.455 -749.296 429.174 -707.315 480.43C-666.991 528.982 -640.814 566.095 -622.446 600.772C-616.85 611.342 -612.185 621.102 -608.201 630.611C-602.382 645.608 -597.8 659.861 -593.372 673.642C-584.79 700.35 -576.689 725.575 -561.168 750.909C-532.131 799.576 -443.916 838.495 -319.15 857.679C-281.88 863.41 -242.226 867.187 -201.297 868.898C-189.985 869.395 -179.169 869.903 -168.695 870.389C-113.817 872.959 -66.4238 875.18 -4.79481 872.827C50.1774 870.631 122.742 867.008 196.596 858.4C271.715 850.628 370.134 837.367 465.03 803.52C571.608 768.687 647.888 728.842 685.614 688.3C725.44 645.721 721.669 593.305 674.997 540.721C667.142 531.678 658.187 522.36 648.353 513.027C607.179 473.696 548.964 433.192 465.09 385.565C382.891 337.443 320.966 302.697 264.288 272.895C242.083 260.43 221.055 249.563 200.032 239.692C119.945 203.032 42.7864 179.829 -42.8071 166.668Z" fill="#EDE9F6"/>
<path d="M-317.509 842.627C-438.24 824.056 -526.454 786.214 -553.501 741.401C-569.93 715.017 -577.782 689.236 -586.098 661.943C-589.709 650.088 -593.448 637.83 -598.043 624.882C-601.66 615.693 -605.9 606.211 -610.999 595.88C-627.507 562.494 -652.099 525.332 -688.399 478.928C-726.426 429.477 -763.424 377.63 -761.971 335.094C-760.537 293.512 -726.215 256.547 -659.96 225.229C-574.992 184.135 -468.239 162.455 -351.24 162.535C-285.589 160.609 -213.501 163.894 -124.309 172.875C-95.9023 175.07 -68.0231 178.259 -41.3991 182.355C41.9567 195.176 118.172 217.33 198.475 252.065C219.284 261.348 240.052 271.515 261.942 283.158C323.512 313.418 388.604 348.173 460.974 389.42C538.934 432.278 598.461 473.843 637.905 512.977C647.108 522.024 655.488 531.088 662.813 539.912C705.985 590.518 708.757 641.144 670.614 682.481C634.097 722.338 561.176 761.316 459.732 795.202C368.951 828.741 274.512 840.58 194.111 847.735C126.521 854.759 58.2607 857.605 -5.42539 859.635C-60.2179 861.269 -101.086 859.063 -148.4 856.511C-164.453 855.642 -181.049 854.75 -199.315 853.936C-240.152 852.214 -279.915 848.41 -317.509 842.627ZM-40.9277 181.301C-67.6652 177.188 -95.6519 173.988 -124.114 171.791C-213.45 162.793 -285.723 159.504 -351.499 161.437C-468.983 161.348 -576.222 183.125 -661.561 224.399C-728.207 255.902 -762.73 293.104 -764.176 334.975C-765.632 377.711 -728.554 429.68 -690.447 479.243C-654.187 525.599 -629.622 562.716 -613.139 596.052C-608.044 606.363 -603.815 615.829 -600.21 624.987C-595.62 637.91 -591.887 650.162 -588.277 662.01C-579.952 689.348 -572.084 715.17 -555.604 741.635C-541.646 764.766 -512.87 785.633 -470.087 803.649C-429.388 820.791 -376.787 834.632 -317.979 843.678C-280.227 849.485 -240.299 853.307 -199.312 855.033C-181.054 855.846 -164.472 856.741 -148.436 857.607C-101.019 860.165 -60.0678 862.377 -5.09375 860.734C58.6846 858.702 127.021 855.85 194.715 848.818C275.32 841.643 370.031 829.767 461.099 796.12C562.806 762.15 635.962 723.034 672.63 683.014C711.03 641.401 708.261 590.458 664.831 539.569C657.486 530.72 649.077 521.625 639.854 512.555C600.313 473.326 540.654 431.659 462.569 388.731C390.157 347.463 325.025 312.689 263.454 282.425C241.545 270.776 220.716 260.58 199.845 251.27C119.253 216.405 42.7607 194.174 -40.9277 181.301Z" fill="#EDE9F6"/>
<path d="M-316.034 828.674C-435.242 810.33 -521.777 774.256 -547.521 732.178C-564.99 704.62 -572.161 679.491 -580.468 650.393C-583.303 640.454 -586.232 630.174 -589.733 619.319C-592.978 610.443 -596.796 601.256 -601.39 591.218C-616.277 558.72 -638.511 522.679 -671.351 477.792C-705.568 430.034 -738.737 379.944 -735.893 338.581C-733.134 298.292 -699.542 262.524 -636.032 232.274C-552.504 191.416 -448.389 171.291 -334.95 174.078C-257.081 173.262 -176.923 181.064 -115.779 187.948C-89.7191 190.18 -64.0249 193.228 -39.3422 197.027C42.3173 209.593 118.12 230.824 199.229 263.833C219.911 272.553 240.493 282.06 262.115 292.885C327.757 322.897 392.358 355.576 459.651 392.805C533.656 432.074 592.829 473.536 630.801 512.723C639.412 521.523 647.236 530.358 654.077 538.987C694.084 587.898 695.885 637.072 659.14 677.444C614.316 727.148 524.544 765.009 457.15 788.023C369.534 821.501 278.622 831.981 193.436 838.325C128.91 844.174 65.5209 846.021 -4.7139 847.677C-54.8462 848.751 -91.1364 846.446 -133.163 843.779C-152.773 842.533 -173.057 841.246 -196.54 840.181C-237.582 838.433 -277.787 834.56 -316.034 828.674ZM-38.8741 195.98C-63.6542 192.167 -89.4447 189.101 -115.538 186.867C-176.752 179.974 -257.086 172.157 -335.128 172.976C-449.074 170.179 -553.713 190.397 -637.639 231.448C-701.524 261.878 -735.325 297.879 -738.094 338.445C-740.952 380.002 -707.717 430.216 -673.422 478.081C-640.609 522.922 -618.403 558.921 -603.537 591.367C-598.95 601.391 -595.143 610.562 -591.904 619.406C-588.412 630.24 -585.48 640.516 -582.647 650.449C-574.328 679.598 -567.152 704.771 -549.616 732.415C-523.647 774.881 -436.499 811.259 -316.504 829.725C-278.095 835.636 -237.732 839.523 -196.533 841.279C-173.092 842.342 -152.834 843.63 -133.241 844.873C-91.1088 847.547 -54.7294 849.856 -4.42163 848.778C65.9085 847.121 129.366 845.268 193.985 839.412C279.41 833.049 370.611 822.533 458.546 788.935C526.114 765.868 616.148 727.878 661.175 677.973C698.157 637.332 696.361 587.856 656.117 538.659C649.259 530.002 641.396 521.138 632.77 512.315C594.693 473.022 535.365 431.451 461.202 392.1C393.883 354.85 329.229 322.146 263.561 292.123C241.929 281.293 221.301 271.763 200.547 263.009C119.166 229.89 43.0895 208.594 -38.8741 195.98Z" fill="#EDE9F6"/>
<path d="M-316.298 815.427C-433.834 797.331 -518.617 763.028 -543.085 723.671C-561.683 694.923 -568.416 669.314 -576.212 639.665C-578.334 631.596 -580.531 623.255 -583.061 614.468C-585.945 605.919 -589.343 597.025 -593.446 587.263C-606.737 555.672 -626.642 520.75 -656.086 477.355C-686.562 431.303 -715.956 382.976 -711.72 342.768C-707.657 303.773 -674.763 269.204 -613.966 240.03C-531.82 199.429 -430.265 180.877 -320.268 186.379C-254.837 187.054 -188.35 193.839 -108.63 203.822C-85.0964 206.047 -61.762 208.93 -39.2193 212.401C40.9504 224.744 116.628 245.096 198.941 276.444C219.549 284.61 239.961 293.458 261.322 303.48C329.951 332.503 394.133 363.116 457.589 397.091C529.194 433.651 586.451 473.862 623.192 513.394C631.228 521.947 638.513 530.549 644.856 538.98C681.778 586.209 682.641 633.92 647.27 673.33C603.732 722.378 518.155 759.351 454.026 781.734C373.759 813.4 291.224 823.829 191.992 829.753C130.257 834.5 68.9926 835.42 4.12992 836.393L-4.96733 836.528C-51.7168 837.131 -84.6159 834.671 -122.715 831.819C-144.653 830.179 -167.333 828.48 -194.917 827.203C-236.349 825.411 -277.184 821.449 -316.298 815.427ZM-38.7507 211.353C-61.3746 207.87 -84.7901 204.974 -108.349 202.747C-188.154 192.751 -254.783 185.955 -320.331 185.278C-430.885 179.751 -533.007 198.397 -615.577 239.209C-676.738 268.557 -709.835 303.348 -713.926 342.607C-718.18 383.011 -688.718 431.457 -658.172 477.617C-628.757 520.969 -608.877 555.851 -595.604 587.393C-591.503 597.14 -588.119 606.018 -585.243 614.536C-582.717 623.303 -580.517 631.645 -578.4 639.708C-570.587 669.415 -563.843 695.07 -545.185 723.913C-520.48 763.654 -435.087 798.26 -316.768 816.477C-277.499 822.523 -236.502 826.501 -194.914 828.302C-167.406 829.574 -144.758 831.268 -122.851 832.909C-84.6461 835.767 -51.6426 838.236 -4.71051 837.633L4.40192 837.492C69.3336 836.52 130.664 835.598 192.477 830.842C292.031 824.904 374.867 814.435 455.443 782.64C519.725 760.205 605.579 723.1 649.305 673.854C684.896 634.185 684.048 586.176 646.907 538.671C640.548 530.219 633.239 521.582 625.174 513.007C588.327 473.353 530.903 433.022 459.119 396.366C395.617 362.369 331.362 331.723 262.705 302.686C241.335 292.665 220.871 283.798 200.2 275.598C117.613 244.154 41.6991 223.74 -38.7507 211.353Z" fill="#EDE9F6"/>
<path d="M-316.361 801.236C-431.642 783.478 -514.261 751.003 -537.352 714.36C-557.026 684.467 -563.131 658.48 -570.204 628.39C-571.679 622.123 -573.205 615.632 -574.906 608.841C-577.42 600.614 -580.38 592.019 -583.97 582.546C-595.602 551.897 -613.105 518.104 -639.065 476.199C-665.696 431.88 -691.228 385.335 -685.552 346.265C-680.147 308.566 -647.999 275.198 -590.007 247.093C-509.377 206.729 -410.567 189.717 -304.247 197.89C-240.86 199.957 -177.219 208.232 -100.6 218.83C-79.9228 220.987 -59.3268 223.647 -39.2978 226.732C39.3912 238.853 115.062 258.347 198.839 288.086C219.321 295.693 239.518 303.867 260.551 313.07C331.337 340.661 394.952 369.193 455.058 400.302C523.387 433.852 580.051 473.844 614.653 512.923C622.091 521.222 628.818 529.599 634.645 537.821C668.365 583.332 668.229 629.578 634.276 668.041C592.071 716.445 510.813 752.551 450.079 774.316C372.266 806.08 289.921 815.599 190.217 820.124C135.426 823.591 81.0481 823.896 23.4743 824.216C14.0134 824.27 4.48363 824.323 -5.14845 824.392C-49.2702 824.598 -80.9403 821.831 -114.461 818.899C-137.825 816.857 -161.98 814.745 -192.819 813.297C-234.729 811.465 -276.291 807.408 -316.361 801.236ZM-38.8265 225.678C-58.9204 222.583 -79.5943 219.923 -100.271 217.763C-176.945 207.154 -240.7 198.864 -304.204 196.796C-411.119 188.577 -510.543 205.684 -591.621 246.274C-649.967 274.549 -682.31 308.133 -687.756 346.088C-693.454 385.343 -667.868 432 -641.17 476.431C-615.234 518.293 -597.746 552.05 -586.133 582.655C-582.553 592.112 -579.592 600.696 -577.092 608.896C-575.391 615.665 -573.872 622.152 -572.397 628.42C-565.311 658.569 -559.187 684.608 -539.451 714.607C-516.114 751.629 -432.89 784.408 -316.831 802.286C-276.606 808.482 -234.879 812.556 -192.82 814.395C-162.079 815.839 -137.964 817.946 -114.65 819.982C-81.0214 822.923 -49.2509 825.699 -4.9246 825.49C4.71459 825.425 14.2372 825.368 23.6971 825.317C81.3367 824.995 135.787 824.694 190.649 821.221C290.7 816.679 373.367 807.115 451.508 775.208C512.395 753.394 593.924 717.163 636.31 668.56C670.483 629.846 670.63 583.313 636.714 537.535C630.877 529.288 624.119 520.881 616.645 512.555C581.931 473.34 525.081 433.214 456.546 399.561C396.38 368.422 332.685 339.856 261.866 312.252C240.828 303.049 220.585 294.85 200.02 287.216C116.006 257.389 40.1137 237.838 -38.8265 225.678Z" fill="#EDE9F6"/>
<path d="M-316.407 787.047C-430.844 769.41 -509.145 739.535 -531.225 705.083C-551.981 674.127 -557.064 649.15 -563.5 617.525C-564.432 612.923 -565.401 608.18 -566.444 603.252C-568.594 595.325 -571.135 587.025 -574.208 577.866C-584.2 548.182 -599.343 515.52 -621.878 475.07C-643.738 434.37 -666.472 387.754 -659.347 349.793C-652.611 313.391 -621.19 281.229 -565.964 254.199C-486.802 214.096 -390.652 198.645 -287.891 209.503C-230.652 212.781 -171.549 221.813 -108.982 231.381L-92.0157 233.972C-74.6156 235.98 -57.2 238.321 -40.175 240.945C37.4082 252.902 113.609 271.637 199.629 299.913C220.019 306.959 240.033 314.47 260.743 322.865C334.391 349.135 395.696 374.827 453.723 403.747C520.119 434.991 574.729 473.681 607.521 512.698C614.377 520.745 620.566 528.89 625.884 536.92C656.46 580.712 655.365 625.486 622.804 663.002C581.92 710.758 504.913 745.971 447.508 767.097C363.51 802.533 274.045 808.044 189.614 810.656C140.396 813.072 91.5538 812.815 39.858 812.546C25.3209 812.468 10.6015 812.392 -4.35998 812.372C-46.5014 812.222 -75.9316 809.237 -107.091 806.081C-131.32 803.622 -156.376 801.085 -189.932 799.482C-231.971 797.62 -275.706 793.32 -316.407 787.047ZM-39.7062 239.896C-56.784 237.264 -74.2553 234.912 -91.6372 232.912L-108.517 230.332C-171.196 220.751 -230.394 211.7 -287.74 208.419C-391.131 197.489 -487.939 213.034 -567.594 253.388C-623.146 280.574 -654.758 312.942 -661.539 349.59C-668.697 387.73 -645.919 434.461 -623.999 475.27C-601.487 515.685 -586.358 548.309 -576.388 577.948C-573.307 587.096 -570.772 595.383 -568.636 603.281C-567.59 608.193 -566.625 612.935 -565.692 617.535C-559.239 649.228 -554.147 674.264 -533.316 705.334C-510.984 740.17 -432.099 770.338 -316.875 788.096C-276.021 794.393 -232.12 798.709 -189.933 800.579C-156.507 802.174 -131.506 804.707 -107.326 807.158C-76.06 810.329 -46.5284 813.32 -4.16722 813.472C10.8024 813.493 25.5096 813.568 40.0336 813.646C91.8023 813.917 140.701 814.172 189.973 811.753C274.725 809.13 364.561 803.594 448.97 767.985C506.516 746.806 583.782 711.468 624.838 663.511C657.61 625.757 658.716 580.704 627.97 536.652C622.623 528.601 616.427 520.423 609.537 512.353C576.624 473.182 521.804 434.342 455.188 402.989C397.076 374.036 335.678 348.299 261.982 322.012C241.263 313.626 221.216 306.094 200.738 299.021C114.495 270.672 38.1079 251.889 -39.7062 239.896Z" fill="#EDE9F6"/>
<path d="M-318.153 773.563C-429.398 756.41 -505.049 728.342 -525.698 696.559C-547.416 664.652 -551.37 640.821 -556.835 607.835C-557.352 604.732 -557.878 601.552 -558.435 598.275C-560.209 590.626 -562.31 582.615 -564.866 573.764C-573.161 545.059 -585.893 513.486 -604.935 474.389C-627.53 425.92 -640.991 386.818 -633.221 353.589C-625.095 318.413 -594.401 287.397 -541.975 261.395C-464.311 221.46 -370.887 207.494 -271.8 221.005C-248.262 222.992 -222.859 226.142 -191.744 230.94C-169.207 234.415 -146.493 238.305 -122.442 242.427C-109.796 244.59 -96.9652 246.786 -83.9073 248.966C-70.5379 250.662 -57.0987 252.551 -43.9022 254.586C33.9737 266.594 109.057 284.166 199.571 311.565C219.603 317.963 239.944 325.006 260.023 332.492C335.175 356.884 395.899 380.572 451.177 407.061C515.733 436.154 568.182 473.576 598.904 512.449C605.184 520.275 610.794 528.206 615.58 536.015C642.952 578.128 640.838 621.498 609.645 658.153C570.052 705.374 497.327 739.771 443.296 760.312C361.649 795.993 275.736 800.292 187.54 801.792C143.006 803.357 98.8126 802.621 52.0119 801.844C33.6 801.54 14.5458 801.222 -4.82414 801.048C-45.3849 800.585 -72.9381 797.379 -102.099 793.985C-126.778 791.114 -152.282 788.144 -188.102 786.421C-231.091 784.499 -276.054 780.055 -318.153 773.563ZM-191.275 229.89C-222.491 225.076 -247.988 221.914 -271.519 219.931C-371.288 206.329 -465.414 220.376 -543.603 260.585C-596.34 286.742 -627.231 317.958 -635.403 353.362C-643.208 386.754 -629.727 425.956 -607.075 474.55C-588.044 513.616 -575.324 545.156 -567.045 573.82C-564.493 582.661 -562.389 590.665 -560.624 598.286C-560.075 601.54 -559.542 604.725 -559.03 607.828C-553.548 640.894 -549.582 664.785 -527.778 696.819C-506.883 728.981 -430.644 757.34 -318.622 774.614C-276.37 781.129 -231.24 785.589 -188.106 787.516C-152.444 789.234 -127.013 792.192 -102.412 795.055C-73.1279 798.462 -45.4686 801.682 -4.66599 802.147C14.6979 802.324 33.736 802.64 52.1388 802.945C98.9991 803.724 143.254 804.46 187.858 802.89C276.397 801.388 362.702 797.064 444.784 761.193C498.939 740.596 571.92 706.073 611.682 658.658C643.068 621.774 645.208 578.132 617.678 535.772C612.876 527.939 607.244 519.981 600.935 512.124C570.081 473.08 517.399 435.494 452.582 406.286C397.22 379.755 336.387 356.018 261.167 331.607C241.112 324.126 220.725 317.069 200.613 310.644C109.897 283.187 34.6401 265.577 -43.4341 253.538C-56.6711 251.497 -70.1427 249.603 -83.4716 247.913C-96.4365 245.747 -109.268 243.553 -121.904 241.387C-145.972 237.265 -168.702 233.371 -191.275 229.89Z" fill="#EDE9F6"/>
<path d="M-256.81 232.949C-245.686 234.221 -234.262 235.771 -221.78 237.697C-192.873 242.157 -163.284 247.883 -131.957 253.942C-114.05 257.405 -95.5314 260.991 -76.4834 264.459C-68.4833 265.582 -60.4658 266.763 -52.5525 267.984C25.4745 280.022 103.221 297.226 199.514 323.759C219.543 329.615 239.712 335.972 259.446 342.654C337.205 365.355 395.738 386.383 449.289 410.872C512.349 437.893 562.822 473.987 591.449 512.519C597.177 520.09 602.248 527.781 606.543 535.379C631.195 576.292 628.244 617.044 597.987 653.242C559.723 699.779 491.227 733.21 440.507 753.065C361.014 788.867 278.455 791.952 186.528 792.16C145.843 792.971 105.465 791.777 62.7305 790.519C40.9877 789.878 18.513 789.218 -4.60597 788.809C-44.0035 788.027 -70.0225 784.573 -97.558 780.919C-122.42 777.617 -148.128 774.203 -185.975 772.345C-230.313 770.323 -276.929 765.681 -320.78 758.915C-428.513 742.295 -501.371 716.085 -520.689 687.006C-543.364 654.435 -546.209 632.004 -550.514 598.05L-551.218 592.51C-552.64 585.137 -554.329 577.432 -556.385 568.931C-563.146 540.971 -573.255 511.454 -589.158 473.217C-607.403 426.913 -617.686 389.458 -608.57 357.196C-599.13 323.346 -569.16 293.579 -519.498 268.716C-445.359 230.2 -357.108 217.42 -264.25 231.746C-261.772 232.128 -259.283 232.527 -256.81 232.949ZM-221.311 236.647C-233.85 234.712 -245.328 233.159 -256.395 231.893C-258.782 231.491 -261.284 231.083 -263.782 230.698C-357.466 216.245 -446.456 229.109 -521.137 267.908C-571.09 292.919 -601.248 322.872 -610.751 356.944C-619.91 389.359 -609.606 426.913 -591.316 473.338C-575.422 511.547 -565.327 541.035 -558.568 568.961C-556.516 577.454 -554.827 585.15 -553.411 592.497L-552.713 598.02C-548.396 632.065 -545.544 654.557 -522.767 687.269C-503.203 716.726 -429.75 743.224 -321.248 759.963C-277.243 766.752 -230.47 771.412 -185.975 773.439C-148.322 775.289 -122.708 778.69 -97.9398 781.978C-70.2657 785.651 -44.1364 789.12 -4.48575 789.907C18.608 790.314 41.0684 790.977 62.8071 791.617C105.601 792.877 146.033 794.067 186.778 793.256C275.69 793.054 362.151 789.897 442.013 753.93C492.854 734.026 561.605 700.47 600.042 653.74C630.477 617.319 633.445 576.313 608.655 535.167C604.349 527.545 599.253 519.821 593.513 512.222C564.736 473.5 514.007 437.224 450.66 410.079C397.009 385.543 338.335 364.462 260.5 341.747C240.785 335.063 220.566 328.692 200.47 322.82C103.989 296.232 26.1085 279 -52.0846 266.936C-60.0141 265.713 -68.0568 264.53 -75.9872 263.415C-94.9308 259.966 -113.434 256.385 -131.329 252.922C-162.698 246.851 -192.325 241.124 -221.311 236.647Z" fill="#EDE9F6"/>
<path d="M-323.778 745.184C-427.189 729.224 -496.777 704.891 -514.698 678.428C-538.117 645.4 -539.828 624.513 -542.659 589.917L-542.852 587.548C-543.912 580.412 -545.175 572.995 -546.714 564.858C-551.786 538.102 -559.596 509.658 -572.029 472.637C-584.014 434.4 -593.564 394.432 -582.383 361.173C-571.558 328.567 -542.304 299.977 -495.426 276.18C-426.95 240.122 -346.409 227.909 -262.488 240.861C-255.173 241.99 -247.74 243.323 -240.399 244.83C-238.751 245.075 -237.228 245.307 -235.685 245.545C-203.893 250.452 -171.09 257.663 -136.371 265.301C-114.422 270.127 -91.7329 275.119 -67.831 279.855C32.9663 295.484 124.302 316.934 200.365 335.847C220.402 341.155 240.38 346.832 259.702 352.723C312.978 366.583 382.473 386.123 447.973 414.624C508.675 439.331 558.35 475.062 584.305 512.666C589.45 519.996 593.972 527.461 597.737 534.856C619.235 574.002 615.315 613.357 586.435 648.682C549.447 694.662 485.182 727.222 437.783 746.438C360.482 782.433 277.91 784.451 185.741 783.355C148.404 783.539 111.348 781.961 72.1168 780.291C47.6389 779.248 22.3322 778.172 -3.99178 777.494C-42.4295 776.422 -67.0958 772.719 -93.2104 768.8C-118.006 765.077 -143.661 761.224 -183.263 759.25C-228.695 757.152 -278.593 752.157 -323.778 745.184ZM-262.021 239.813C-346.776 226.732 -428.057 239.034 -497.073 275.382C-544.225 299.308 -573.666 328.083 -584.558 360.898C-595.78 394.305 -586.215 434.377 -574.204 472.711C-561.771 509.713 -553.972 538.134 -548.906 564.863C-547.366 572.988 -546.104 580.397 -545.054 587.507L-544.861 589.857C-542.019 624.563 -540.305 645.511 -516.766 678.698C-498.597 705.535 -428.422 730.154 -324.246 746.232C-278.911 753.228 -228.848 758.241 -183.271 760.345C-143.901 762.305 -118.36 766.14 -93.6611 769.848C-67.4099 773.791 -42.6212 777.511 -3.89807 778.593C22.3885 779.267 47.6699 780.342 72.1296 781.386C111.412 783.057 148.515 784.638 185.929 784.456C278.516 785.556 361.516 783.52 439.32 747.298C486.846 728.032 551.345 695.346 588.475 649.17C617.536 613.637 621.472 574.041 599.872 534.668C596.081 527.253 591.545 519.752 586.367 512.39C560.288 474.579 510.321 438.648 449.296 413.812C383.635 385.238 313.975 365.65 260.64 351.776C241.356 345.896 221.341 340.207 201.224 334.881C125.05 315.937 33.5992 294.464 -67.27 278.822C-91.0474 274.107 -113.718 269.123 -135.643 264.3C-172.113 256.279 -206.464 248.727 -239.847 243.797C-247.138 242.303 -254.636 240.952 -262.021 239.813Z" fill="#EDE9F6"/>
<path d="M-328.943 730.086C-386.721 721.166 -487.02 701.317 -509.634 668.608C-533.622 635.411 -534.265 616.255 -535.431 581.476C-536.125 574.405 -536.961 567.286 -537.988 559.585C-542.323 527.196 -549.82 495.167 -555.854 470.877C-564.078 434.536 -569.93 396.427 -557.174 364.025C-544.952 332.657 -516.417 305.247 -472.345 282.55C-409.002 248.732 -335.381 237.059 -259.429 248.784C-248.046 250.542 -236.467 252.839 -225.014 255.623C-197.303 260.753 -168.86 267.891 -138.746 275.449C-113.844 281.7 -88.0922 288.159 -60.2213 294.164C23.4129 308.524 104.342 325.602 200.149 346.831C220.265 351.594 240.037 356.595 258.878 361.683C316.405 374.83 383.492 391.706 445.556 417.257C504.938 440.106 552.484 474.512 576.04 511.654C580.612 518.737 584.588 525.976 587.842 533.175C606.166 570.513 601.305 608.457 573.773 642.921C538.09 688.354 478.07 720.016 433.998 738.578C358.682 774.808 279.554 775.783 183.938 773.295C149.485 772.929 115.32 771.005 79.139 768.967C52.3848 767.458 24.7223 765.9 -4.36753 764.914C-33.8174 763.863 -54.2573 761.173 -70.367 758.686C-77.1491 757.639 -83.5622 756.559 -90.3647 755.413C-97.0864 754.278 -104.061 753.1 -111.337 751.977C-127.192 749.529 -149.501 746.512 -181.532 744.896C-229.209 742.662 -281.561 737.401 -328.943 730.086ZM-258.961 247.734C-335.754 235.879 -410.107 247.642 -474.003 281.758C-517.703 304.261 -547.213 332.605 -559.337 363.717C-572.15 396.263 -566.284 434.468 -558.038 470.907C-552.001 495.187 -544.514 527.191 -540.186 559.557C-539.155 567.249 -538.317 574.364 -537.636 581.31C-536.465 616.292 -535.819 635.516 -511.704 668.884C-488.738 702.105 -387.634 722.145 -329.411 731.134C-281.879 738.472 -229.365 743.748 -181.54 745.99C-149.716 747.594 -127.561 750.59 -111.803 753.022C-104.552 754.142 -97.6106 755.317 -90.885 756.452C-84.3799 757.548 -77.6461 758.684 -70.8356 759.736C-54.5964 762.243 -34.0079 764.948 -4.31621 766.011C24.724 766.992 52.3692 768.549 79.1063 770.058C115.32 772.101 149.543 774.029 184.059 774.39C280.151 776.896 359.711 775.903 435.562 739.425C479.752 720.814 539.998 689.021 575.833 643.403C603.522 608.742 608.421 570.569 589.981 533.015C586.723 525.794 582.727 518.525 578.13 511.409C554.428 474.033 506.573 439.41 446.821 416.429C384.567 390.789 317.3 373.872 259.715 360.709C240.895 355.622 221.088 350.623 200.911 345.84C105.014 324.59 24.0283 307.504 -59.5958 293.141C-87.318 287.171 -113.033 280.717 -137.909 274.475C-168.086 266.903 -196.589 259.746 -224.315 254.618C-235.769 251.836 -247.46 249.51 -258.961 247.734Z" fill="#EDE9F6"/>
<path d="M-335.16 715.806C-429.01 701.312 -489.158 681.367 -504.528 659.644C-528.919 626.544 -528.592 608.584 -528.003 575.986C-528.312 569.091 -528.725 562.258 -529.26 555.074C-531.442 525.643 -535.567 496.704 -539.701 469.813C-544.028 437.02 -546.486 399.203 -531.99 367.462C-518.538 337.72 -489.914 310.742 -449.208 289.437C-389.613 257.18 -323.958 246.302 -254.052 257.098C-239.256 259.383 -224.2 262.688 -209.299 266.922C-186.394 272.126 -162.955 278.856 -138.138 285.983C-111.15 293.733 -83.2397 301.746 -52.0892 309.016C-3.05658 318.368 45.278 327.888 96.4525 337.97C130.358 344.653 165.415 351.557 200.754 358.423C221.09 362.651 240.675 366.972 258.961 371.262C320.37 383.388 385.255 397.742 444.238 420.57C502.465 441.641 547.94 474.751 569.03 511.407C573.054 518.26 576.481 525.276 579.212 532.27C594.424 567.803 588.609 604.38 562.393 638.039C527.94 682.99 472.116 713.771 431.339 731.677C357.862 768.183 282.048 768.186 182.973 764.211C151.048 763.372 119.373 761.13 85.8471 758.756C57.1377 756.726 27.4474 754.623 -4.12999 753.297C-23.6527 752.446 -40.946 750.78 -58.5287 748.065C-68.6604 746.5 -77.7599 744.786 -87.386 742.971C-97.011 741.153 -106.98 739.273 -118.08 737.559C-137.533 734.554 -157.01 732.621 -179.365 731.483C-229.292 729.1 -286.073 723.387 -335.16 715.806ZM-253.583 256.047C-324.351 245.118 -390.728 256.09 -450.875 288.653C-491.813 310.07 -520.605 337.213 -534.138 367.125C-548.702 399.001 -546.234 436.911 -541.9 469.795C-537.765 496.673 -533.639 525.6 -531.457 555.012C-530.925 562.191 -530.514 569.022 -530.201 575.888C-530.798 608.608 -531.125 626.638 -506.59 659.93C-490.966 682.022 -430.243 702.242 -335.628 716.854C-286.399 724.457 -229.448 730.187 -179.377 732.575C-157.185 733.71 -137.854 735.623 -118.547 738.605C-107.524 740.307 -97.5912 742.182 -87.9894 743.993C-78.332 745.816 -69.198 747.54 -58.9975 749.115C-41.2488 751.857 -23.8127 753.532 -4.11599 754.391C27.4007 755.718 57.0585 757.815 85.7295 759.844C119.318 762.223 151.035 764.467 183.031 765.312C282.63 769.305 358.881 769.295 432.923 732.511C473.811 714.552 529.862 683.649 564.445 638.513C590.816 604.663 596.665 567.883 581.367 532.147C578.624 525.129 575.182 518.079 571.155 511.194C549.898 474.281 504.091 440.936 445.459 419.708C386.253 396.805 321.177 382.404 259.674 370.257C241.427 365.975 221.806 361.648 201.411 357.406C166.043 350.539 130.979 343.628 97.0963 336.954C45.9097 326.87 -2.42679 317.345 -51.3977 308.009C-82.371 300.779 -110.23 292.779 -137.178 285.045C-162.049 277.902 -185.538 271.157 -208.446 265.952C-223.399 261.699 -238.617 258.358 -253.583 256.047Z" fill="#EDE9F6"/>
</g>
</g>
<defs>
<linearGradient id="paint0_linear_77_1181" x1="960" y1="365.074" x2="960" y2="1228" gradientUnits="userSpaceOnUse">
<stop stop-color="#FBFAFF"/>
<stop offset="1" stop-color="white"/>
</linearGradient>
<clipPath id="clip0_77_1181">
<rect width="1920" height="1228" fill="white" transform="translate(0 0.804688)"/>
</clipPath>
</defs>
</svg>
