<svg width="1920" height="1265" viewBox="0 0 1920 1265" fill="none" xmlns="http://www.w3.org/2000/svg">
<g clip-path="url(#clip0_19_226)">
<rect width="1920" height="1264.8" fill="url(#paint0_linear_19_226)"/>
<g opacity="0.3">
<path d="M-814.586 898.71C-893.859 886.584 -949.012 873.891 -993.412 857.549C-1161.68 793.252 -1234.11 627.869 -1177.92 436.215C-1148.53 340.54 -1086.7 256.058 -999.122 191.909C-921.861 136.148 -812.054 87.8152 -653.549 39.8027C-544.248 7.17401 -423.071 -17.4354 -272.196 -37.6436C-119.332 -57.7593 -3.21278 -60.5587 104.305 -46.7181C109.179 -46.0626 114.035 -45.3662 119.149 -44.5841C240.28 -26.0563 421.816 27.2397 604.754 97.9856C790.689 169.888 942.371 246.543 1010.5 303.036C1213.03 415.857 1149.03 486.147 1052.18 592.547C1009.22 639.743 960.531 693.238 923.45 761.205C896.711 810.258 874.064 854.247 854.083 893.061C758.142 1079.45 714.364 1164.52 510.098 1234.65C460.864 1250.64 403.093 1253.73 338.423 1243.84C287.446 1236.05 231.735 1220.12 172.832 1196.52C119.458 1174.97 65.5753 1150.01 8.5294 1123.59C-66.4983 1088.83 -144.076 1052.9 -231.359 1019.51C-335.377 980.085 -455.168 950.33 -597.586 928.546C-618.725 925.313 -640.999 922.159 -663.782 919.171C-674.023 917.831 -684.186 916.513 -694.254 915.204C-736.518 909.723 -776.438 904.545 -814.586 898.71ZM119.621 -45.6364C114.483 -46.4223 109.6 -47.1253 104.69 -47.7887C-3.23133 -61.6814 -119.691 -58.8804 -272.94 -38.7139C-424.004 -18.4811 -545.346 6.16386 -654.815 38.8374C-813.563 86.9271 -923.559 135.348 -1000.99 191.227C-1088.74 255.507 -1150.68 340.133 -1180.11 435.96C-1236.42 628.024 -1163.62 793.846 -994.641 858.413C-949.991 874.849 -894.607 887.599 -815.061 899.766C-776.864 905.609 -736.924 910.791 -694.631 916.276C-684.561 917.58 -674.406 918.897 -664.167 920.239C-641.413 923.226 -619.172 926.374 -598.061 929.603C-455.92 951.345 -336.379 981.034 -232.591 1020.37C-145.421 1053.72 -67.8895 1089.63 7.10264 1124.37C64.176 1150.81 118.083 1175.77 171.533 1197.35C230.691 1221.06 286.678 1237.06 337.948 1244.9C403.275 1254.89 461.639 1251.76 511.438 1235.58C610.765 1201.48 674.421 1163.59 724.287 1108.84C772.714 1055.69 807.747 987.628 856.238 893.425C876.217 854.615 898.856 810.625 925.604 761.581C962.626 693.697 1011.29 640.238 1054.22 593.076C1104.21 538.159 1143.7 494.78 1146.35 449.783C1149.22 401.133 1107.85 355.691 1012.23 302.431C944.098 245.909 792.182 169.126 606.015 97.1293C422.847 26.3021 241.018 -27.0681 119.621 -45.6364Z" fill="#EDE9F6"/>
<path d="M112.759 -33.4255C115.644 -33.0157 118.497 -32.5915 121.43 -32.1427C237.164 -14.4363 411.892 37.1998 588.797 105.991C768.842 175.99 916.272 250.749 983.181 305.973C1179.74 415.862 1120.08 484.852 1029.76 589.279C990.706 634.437 946.443 685.62 912.778 750.06C887.995 796.996 866.994 839.207 848.462 876.446C758.569 1057.1 717.539 1139.55 521.525 1208.25C470.088 1225.9 408.681 1229.45 338.986 1218.78C292.247 1211.63 241.504 1198.04 188.171 1178.37C121.645 1155.78 54.004 1128.02 -17.6017 1098.62C-84.8844 1071 -154.47 1042.43 -230.131 1015.21C-387.464 959.362 -550.388 930.08 -659.25 912.914L-678.544 910.098C-701.964 906.678 -724.089 903.449 -746.039 900.091C-839.407 885.806 -914.079 871.393 -975.027 847.471C-1135.87 783.755 -1207.37 623.263 -1157.18 438.606C-1132.49 343.964 -1076 260.726 -993.806 197.893C-920.351 142.272 -814.281 94.2492 -659.996 46.7668C-547.47 11.9447 -422.428 -13.058 -266.481 -31.9084C-114.739 -49.8708 1.85335 -50.3956 111.557 -33.6093L112.759 -33.4255ZM121.906 -33.2019C118.96 -33.6526 116.091 -34.0793 113.211 -34.481L112.032 -34.6663C1.91976 -51.5126 -115.035 -50.9946 -267.178 -32.9839C-423.337 -14.1075 -548.568 10.9296 -661.276 45.8067C-815.806 93.3685 -922.073 141.483 -995.693 197.229C-1078.05 260.188 -1134.65 343.571 -1159.37 438.364C-1209.68 623.419 -1137.82 784.335 -976.301 848.321C-915.048 872.357 -840.144 886.826 -746.515 901.15C-724.549 904.511 -702.418 907.738 -678.986 911.16L-659.722 913.974C-551.039 931.113 -388.355 960.347 -231.314 1016.09C-155.725 1043.29 -86.1729 1071.84 -18.9107 1099.45C52.7349 1128.87 120.416 1156.65 186.988 1179.25C240.514 1198.99 291.504 1212.65 338.512 1219.84C408.868 1230.6 470.909 1227.02 522.883 1209.17C719.516 1140.27 760.601 1057.7 850.619 876.801C869.15 839.563 890.148 797.36 914.927 750.423C948.549 686.059 992.786 634.913 1031.81 589.792C1078.43 535.892 1115.25 493.319 1116.75 449.256C1118.38 401.623 1077.71 357.244 984.915 305.369C917.993 250.116 770.322 175.225 590.067 105.141C412.928 36.2604 237.908 -15.4544 121.906 -33.2019Z" fill="#EDE9F6"/>
<path d="M338.878 1193.58C296.775 1187.14 251.43 1175.81 204.112 1159.91C121.228 1136.68 36.2682 1105.67 -53.6805 1072.85C-109.821 1052.36 -167.869 1031.17 -229.021 1010.53C-380.153 960.443 -529.44 929.69 -655.547 906.211L-662.999 904.992C-779.29 886.003 -879.727 869.6 -957.992 836.879C-1111.74 773.718 -1182.56 618.183 -1138.43 440.625C-1118.27 345.731 -1068.5 266.019 -990.488 203.691C-921.799 149.032 -816.345 99.988 -668.113 53.7415C-553.842 17.2688 -420.994 -8.80957 -261.966 -25.9793C-111.264 -41.8664 9.13814 -39.9147 120.561 -19.8238L123.085 -19.44C233.588 -2.52853 401.778 47.4879 572.978 114.345C747.438 182.476 890.913 255.366 956.789 309.328C1147.82 416.318 1092.48 483.98 1008.72 586.4C973.517 629.445 933.626 678.232 903.334 739.069C880.555 783.8 861.228 824.145 844.168 859.74C760.358 1034.63 722.111 1114.45 534.044 1181.65C480.153 1201.14 414.488 1205.15 338.878 1193.58ZM95.2149 -25.1771C-9.33661 -41.1778 -123.041 -41.7761 -262.608 -27.0628C-421.884 -9.86524 -554.947 16.2556 -669.405 52.7872C-817.894 99.1111 -923.544 148.262 -992.398 203.046C-1070.57 265.502 -1120.44 345.364 -1140.63 440.399C-1162.4 527.982 -1156.88 611.572 -1124.7 682.126C-1092.5 752.687 -1035.31 806.487 -959.316 837.703C-880.689 870.577 -780.048 887.011 -663.514 906.042L-656.11 907.251C-530.185 930.697 -381.052 961.417 -230.137 1011.44C-169.046 1032.06 -111.004 1053.24 -54.8803 1073.72C35.1295 1106.57 120.152 1137.6 203.073 1160.83C250.519 1176.78 296.068 1188.16 338.404 1194.64C414.719 1206.32 481.01 1202.26 535.444 1182.57C724.094 1115.16 762.396 1035.22 846.317 860.086C863.38 824.494 882.706 784.151 905.491 739.426C935.743 678.658 975.602 629.905 1010.79 586.897C1054.02 534.032 1088.16 492.283 1088.45 449.164C1088.79 402.545 1048.71 359.234 958.52 308.724C892.634 254.734 748.929 181.717 574.234 113.496C402.815 46.547 234.331 -3.5435 123.56 -20.4962L121.084 -20.8726C112.592 -22.4009 103.869 -23.8527 95.2149 -25.1771Z" fill="#EDE9F6"/>
<path d="M335.971 1167.96C299.219 1162.34 259.994 1153.24 219.407 1140.92C116.447 1117.66 9.9954 1082.8 -102.712 1045.9C-143.118 1032.67 -184.902 1018.99 -227.671 1005.46C-384.007 957.102 -538.184 923.665 -650.758 899.246C-759.022 879.552 -861.22 860.966 -939.286 826.127C-1011.38 795.319 -1066.17 743.152 -1097.78 675.255C-1129.45 607.22 -1136.23 526.778 -1117.39 442.623C-1102.12 348.834 -1057.56 270.393 -984.949 209.483C-920.146 155.026 -818.579 106.344 -674.451 60.6497C-557.09 22.0202 -420.331 -4.42492 -256.352 -20.1959C-127.546 -32.2529 -21.3159 -30.7868 77.965 -15.5886C94.9854 -12.983 112.078 -9.91915 128.766 -6.47491C234.58 10.2775 395.457 58.7779 559.246 123.293C729.034 190.173 863.833 259.001 929.074 312.137C1114.19 416.194 1063.28 482.563 986.211 583.022C954.839 623.916 919.28 670.267 892.335 727.471C871.585 769.91 853.949 808.332 838.378 842.23C760.674 1011.45 725.212 1088.69 545.316 1154.44C488.785 1176.03 418.35 1180.57 335.971 1167.96ZM78.4399 -16.6463C-21.2073 -31.9006 -127.775 -33.3719 -256.945 -21.2881C-421.202 -5.48692 -558.196 21.005 -675.768 59.7067C-820.145 105.479 -921.916 154.269 -986.878 208.857C-1059.65 269.903 -1104.3 348.488 -1119.59 442.42C-1138.45 526.683 -1131.66 607.255 -1099.93 675.414C-1068.21 743.565 -1013.14 795.957 -940.66 826.93C-862.257 861.92 -759.843 880.547 -651.417 900.268C-538.977 924.657 -384.898 958.079 -228.72 1006.39C-185.986 1019.9 -144.211 1033.58 -103.803 1046.81C8.97913 1083.74 115.519 1118.62 218.508 1141.89C259.147 1154.22 298.55 1163.36 335.497 1169.02C418.588 1181.74 489.665 1177.14 546.744 1155.35C727.197 1089.38 762.722 1012.03 840.542 842.566C856.103 808.669 873.74 770.255 894.486 727.817C921.411 670.676 956.941 624.362 988.287 583.496C1028.05 531.649 1059.48 490.695 1058.58 448.511C1057.62 402.903 1018.2 360.655 930.806 311.536C865.545 258.366 730.523 189.414 560.51 122.444C396.521 57.8518 235.328 9.2691 129.357 -7.50995C112.696 -10.9453 95.5337 -14.0295 78.4399 -16.6463Z" fill="#EDE9F6"/>
<path d="M331.034 1143.96C300.38 1139.27 268.015 1132.34 234.806 1123.36C106.657 1100.81 -26.9739 1061.03 -168.422 1018.93C-187.63 1013.21 -207.004 1007.44 -226.585 1001.65C-346.253 967.16 -460.128 939.256 -560.596 914.639C-590.822 907.235 -619.367 900.237 -646.617 893.423C-758.29 870.834 -849.386 850.838 -921.526 816.433C-990.203 785.821 -1042.95 734.975 -1074.09 669.388C-1105.3 603.641 -1113.36 526.096 -1097.39 445.13C-1087 352.293 -1047.59 275.018 -980.237 215.433C-919.287 161.115 -821.492 112.719 -681.263 67.4907C-562.379 27.1814 -417.558 -0.44362 -250.798 -14.6368C-131.72 -24.4656 -32.4556 -22.3348 61.5753 -7.93646C87.0089 -4.04197 112.474 0.866705 137.273 6.63922C238.88 23.6741 392.365 70.8385 547.968 132.836C709.809 197.319 839.015 263.757 902.439 315.116C1081.87 416.414 1035.36 481.629 964.936 580.344C937.283 619.102 905.949 663.029 882.243 716.645C863.53 756.775 847.559 793.257 833.485 825.447C761.761 989.375 729.024 1064.19 557.052 1128.65C497.489 1152.66 421.46 1157.81 331.034 1143.96ZM62.0505 -8.99486C-32.3345 -23.4475 -131.914 -25.5848 -251.353 -15.7262C-418.403 -1.51444 -563.496 26.1735 -682.594 66.5522C-823.077 111.861 -921.081 160.364 -982.189 214.83C-1049.69 274.549 -1089.2 351.972 -1099.59 444.948C-1115.59 526.01 -1107.51 603.687 -1076.24 669.55C-1044.98 735.384 -991.976 786.447 -922.946 817.213C-850.516 851.757 -759.205 871.807 -647.375 894.424C-620.209 901.22 -591.659 908.219 -561.426 915.626C-460.993 940.233 -347.158 968.128 -227.57 1002.6C-208.013 1008.38 -188.635 1014.15 -169.433 1019.86C-27.87 1062 105.857 1101.81 234.07 1124.36C267.227 1133.34 299.759 1140.3 330.56 1145.02C421.718 1158.98 498.404 1153.77 558.503 1129.55C731.036 1064.88 763.812 989.949 835.635 825.772C849.725 793.586 865.677 757.106 884.401 716.981C908.092 663.421 939.395 619.523 967.032 580.799C1003.37 529.849 1032.07 489.607 1029.96 448.272C1027.68 403.583 988.896 362.328 904.167 314.512C840.716 263.118 711.316 196.568 549.253 131.997C393.432 69.9146 239.673 22.6719 137.933 5.61649C113.161 -0.159058 87.5858 -5.08479 62.0505 -8.99486Z" fill="#EDE9F6"/>
<path d="M212.396 1098.84C76.2213 1077.98 -66.0691 1040.13 -224.586 996.461C-289.685 979.039 -351.687 963.034 -411.646 947.559C-495.662 925.875 -575.019 905.387 -641.992 886.246C-742.644 863.643 -831.724 841.978 -903.559 805.411C-968.912 775.021 -1019.71 725.573 -1050.48 662.395C-1081.35 599.048 -1090.78 524.537 -1077.76 446.915C-1072.43 355.201 -1038.23 279.245 -976.101 221.135C-919.079 167.084 -825.05 119.113 -688.642 74.4825C-566.577 32.0758 -417.535 4.13215 -245.623 -8.58851C-137.051 -16.3401 -41.7697 -13.5989 45.6467 -0.208652C79.3047 4.947 112.966 11.8691 145.703 20.3668C343.094 55.4608 740.488 209.242 876.612 318.463C1050.68 416.937 1008.65 480.913 945.052 577.755C921.081 614.235 893.923 655.583 873.45 705.45C856.808 743.089 842.584 777.484 830.022 807.827C764.463 966.273 734.549 1038.59 570.347 1101.59C507.412 1128.32 424.79 1134.09 324.765 1118.76C301.191 1115.15 276.567 1110.32 251.571 1104.4C238.656 1102.71 225.543 1100.86 212.396 1098.84ZM46.121 -1.26539C-41.6251 -14.7061 -137.224 -17.4573 -246.134 -9.6796C-418.363 3.06036 -567.698 31.0637 -689.99 73.5498C-826.662 118.264 -920.903 166.348 -978.075 220.551C-1040.35 278.802 -1074.63 354.909 -1079.97 446.756C-1093 524.465 -1083.55 599.099 -1052.63 662.566C-1021.74 725.973 -970.7 775.631 -905.031 806.169C-832.926 842.872 -743.631 864.592 -642.852 887.222C-575.938 906.349 -496.556 926.838 -412.523 948.532C-352.563 964.008 -290.578 980.01 -225.509 997.422C-66.8824 1041.12 75.529 1079 211.924 1099.9C225.099 1101.91 238.245 1103.77 250.988 1105.42C275.875 1111.34 300.613 1116.19 324.292 1119.82C425.083 1135.25 508.364 1129.42 571.834 1102.48C651.363 1071.96 701.541 1038.37 739.574 990.149C775.982 944.005 799.567 887.018 832.199 808.143C844.752 777.801 858.984 743.41 875.614 705.769C896.079 655.957 923.215 614.637 947.16 578.178C979.981 528.198 1005.92 488.723 1002.51 448.292C998.812 404.57 960.521 364.348 878.344 317.861C816.599 268.313 692.637 204.22 538.33 142.103C390.527 82.5958 244.016 36.711 146.425 19.3577C113.713 10.8637 79.9215 3.91209 46.121 -1.26539Z" fill="#EDE9F6"/>
<path d="M143.355 1071.62C15.5839 1052.05 -114.005 1020.6 -223.915 992.431C-371.709 955.745 -525.419 916.87 -638.034 880.272C-743.382 853.983 -821.522 830.67 -885.844 795.603C-1012.58 733.817 -1078.41 601.192 -1057.68 449.469C-1057.35 358.724 -1028.3 283.964 -971.344 227.233C-918.298 173.345 -828.084 125.69 -695.545 81.5197C-572.171 37.5171 -414.792 8.36254 -240.41 -2.80534C-140.105 -8.97614 -51.4968 -5.86988 30.4654 6.68738C72.5081 13.1287 112.805 21.958 153.653 33.6779C246.903 51.3053 385.662 95.7523 525.019 152.621C671.082 212.225 789.183 273.778 849.041 321.494C1017.49 417.261 979.995 480.17 923.25 575.4C902.858 609.601 879.753 648.365 862.383 694.498C847.815 729.604 835.298 761.873 824.272 790.344C766.565 939.087 737.605 1013.75 581.208 1075.52C515.434 1105.01 422.689 1111.71 312.978 1094.9C297.757 1092.56 282.057 1089.76 266.286 1086.55C227.231 1083.16 185.955 1078.15 143.355 1071.62ZM30.9388 5.63257C-51.3407 -6.9733 -140.247 -10.0914 -240.877 -3.90474C-415.6 7.28625 -573.295 36.5066 -696.908 80.5943C-829.711 124.848 -920.149 172.636 -973.342 226.667C-1030.44 283.547 -1059.57 358.457 -1059.9 449.334C-1080.66 601.353 -1014.55 734.329 -887.364 796.337C-815.843 835.328 -725.453 859.648 -639.001 881.214C-526.39 917.814 -372.615 956.709 -224.764 993.411C-114.775 1021.6 14.9234 1053.07 142.882 1072.68C185.563 1079.21 226.947 1084.24 265.853 1087.6C281.446 1090.79 297.21 1093.61 312.504 1095.95C422.996 1112.88 516.434 1106.12 582.722 1076.39C739.633 1014.41 768.643 939.629 826.433 790.644C837.474 762.177 849.993 729.913 864.564 694.803C881.906 648.72 904.997 609.978 925.366 575.799C954.658 526.649 977.796 487.831 973.104 448.205C968.029 405.364 930.296 366.101 850.762 320.885C790.891 273.14 672.589 211.475 526.323 151.788C386.774 94.8438 247.76 50.3165 154.448 32.6894C113.616 20.9646 73.1564 12.1006 30.9388 5.63257Z" fill="#EDE9F6"/>
<path d="M66.7702 1046.4C-19.1165 1033.24 -113.976 1014.22 -223.219 988.256C-403.456 946.89 -537.95 909.548 -634.407 874.087C-728.978 847.866 -804.937 822.799 -868.677 785.546C-988.204 724.303 -1053.22 596.402 -1038.4 451.724C-1043.15 361.929 -1019.26 288.361 -967.367 233.02C-918.314 179.324 -831.855 131.976 -703.064 88.2684C-543.286 29.8963 -360.615 9.5281 -235.506 2.71981C-142.653 -2.10486 -60.2011 1.26579 16.5471 13.0268C66.0465 20.6121 113.49 31.6543 161.59 46.7852C342.971 83.3051 695.724 224.469 822.085 324.419C985.187 417.588 952.288 479.514 902.484 573.246C885.57 605.079 866.398 641.16 852.057 683.483C839.565 715.924 828.768 745.953 819.248 772.448C767.489 916.489 741.505 988.79 592.707 1049.37C522.647 1082.53 420.611 1090.08 297.572 1071.23C292.232 1070.41 286.782 1069.53 281.369 1068.61C213.93 1065.46 143.815 1058.21 66.7702 1046.4ZM17.0206 11.9717C-60.0327 0.163983 -142.773 -3.22181 -235.935 1.62134C-361.298 8.44405 -544.333 28.8586 -704.438 87.3506C-833.509 131.146 -920.184 178.62 -969.387 232.484C-1021.41 287.965 -1045.38 361.697 -1040.61 451.613C-1055.46 596.562 -990.177 724.805 -870.249 786.251C-806.32 823.615 -730.155 848.755 -635.479 875.002C-539.015 910.468 -404.379 947.852 -224.016 989.247C-114.675 1015.23 -19.7079 1034.27 66.2968 1047.45C143.5 1059.28 213.762 1066.55 281.1 1069.68C286.26 1070.57 291.735 1071.46 297.099 1072.28C420.927 1091.26 523.682 1083.63 594.239 1050.23C743.551 989.441 769.58 917.021 821.431 772.737C830.953 746.247 841.735 716.223 854.223 683.772C868.564 641.485 887.721 605.428 904.626 573.615C954.612 479.537 987.627 417.381 823.807 323.815C697.341 223.761 343.969 82.3498 162.446 45.8081C114.362 30.6797 66.7273 19.5888 17.0206 11.9717Z" fill="#EDE9F6"/>
<path d="M-9.32699 1023.2C-76.6578 1012.88 -146.135 999.797 -221.699 983.219C-395.199 946.544 -532.69 907.466 -630.368 867.063C-705.524 843.914 -784.203 816.739 -851.361 774.694C-963.863 714.034 -1028.24 591.002 -1019.43 453.578C-1029.58 363.593 -1011.42 293.335 -963.887 238.734C-918.895 185.316 -836.184 138.384 -711.033 95.2387C-583.281 47.6231 -412.742 16.916 -230.807 8.76433C-144.628 5.10262 -67.7825 8.68266 4.11487 19.7035C60.6112 28.3635 114.761 41.7004 169.672 60.4792C342.825 97.6838 672.303 230.966 796.031 327.795C954.138 418.377 925.967 479.317 883.32 571.568C869.775 600.869 854.421 634.084 843.021 672.43C832.631 702.017 823.576 729.62 815.6 753.981C769.973 893.327 747.063 963.271 605.68 1022.6C515.748 1067.45 388.599 1062.2 297.76 1049.9L297.478 1049.88C202.35 1048.99 101.989 1040.26 -9.32699 1023.2ZM4.5866 18.652C-67.5998 7.58687 -144.721 3.99128 -231.194 7.65885C-413.509 15.8347 -584.413 46.6075 -712.426 94.3212C-837.869 137.565 -920.794 184.634 -965.936 238.221C-1013.59 292.969 -1031.82 363.389 -1021.64 453.492C-1030.47 591.161 -965.844 714.514 -852.986 775.37C-785.645 817.528 -706.756 844.779 -631.544 867.939C-533.817 908.368 -396.124 947.511 -222.425 984.227C-146.786 1000.82 -77.2354 1013.91 -9.79872 1024.25C101.68 1041.34 202.198 1050.08 297.501 1050.98C388.881 1063.35 516.742 1068.58 607.258 1023.44C749.126 963.91 772.073 893.843 817.792 754.254C825.768 729.9 834.804 702.295 845.212 672.705C856.594 634.378 871.94 601.191 885.487 571.905C928.272 479.318 956.551 418.154 797.753 327.185C673.91 230.263 343.85 96.7462 170.599 59.5266C115.693 40.7387 61.3149 27.3476 4.5866 18.652Z" fill="#EDE9F6"/>
<path d="M-79.9729 1004.74C-125.962 997.689 -173.603 989.2 -221.587 979.512C-391.792 946.473 -532.043 905.614 -627.204 861.353C-719.432 829.69 -781.41 800.917 -834.585 765.092C-886.424 735.487 -929.119 691.43 -958.11 637.644C-987.273 583.536 -1001.9 520.781 -1000.39 456.165C-1015.82 367.08 -1002.64 297.943 -960.088 244.745C-919.17 191.506 -840.22 144.853 -718.729 102.12C-587.936 52.2724 -413.017 21.0999 -226.15 14.3305C-146.049 11.6106 -74.3896 15.3017 -7.07734 25.6211C55.8573 35.2694 116.154 50.9628 177.271 73.6006C343.716 111.91 649.09 238.062 768.517 330.781C921.535 418.992 898.154 479.209 862.757 570.361C852.397 597.051 840.645 627.302 832.002 661.622C823.651 688.226 816.636 712.22 809.857 735.416C770.316 870.627 750.473 938.495 616.411 996.841C529.216 1042.81 402.822 1041.55 312.145 1032.41L311.859 1032.39C191.685 1035.48 59.8552 1026.18 -79.9729 1004.74ZM-6.60426 24.5665C-74.1891 14.2053 -146.119 10.497 -226.499 13.2278C-413.766 20.0085 -589.072 51.2554 -720.137 101.207C-841.923 144.045 -921.099 190.843 -962.159 244.262C-1004.83 297.61 -1018.06 366.906 -1002.61 456.108C-1004.11 520.772 -989.46 583.633 -960.237 637.84C-931.156 691.803 -888.28 736.028 -836.253 765.738C-782.966 801.643 -720.813 830.5 -628.487 862.188C-533.241 906.499 -392.714 947.442 -222.238 980.537C-174.213 990.231 -126.499 998.731 -80.4449 1005.79C59.5825 1027.26 191.63 1036.58 312.035 1033.5C403.229 1042.69 530.289 1043.92 618.006 997.669C752.55 939.117 772.436 871.125 812.047 735.672C818.827 712.473 825.838 688.489 834.191 661.87C842.83 627.569 854.574 597.336 864.936 570.659C900.455 479.188 923.92 418.755 770.242 330.174C715.7 287.818 613.977 233.413 491.275 180.98C376.046 131.74 259.031 91.2508 178.255 72.668C117.139 50.0085 56.5988 34.256 -6.60426 24.5665Z" fill="#EDE9F6"/>
<path d="M-137.531 989.268C-164.778 985.09 -192.516 980.395 -219.982 975.319C-390.954 944.979 -530.221 903.438 -622.758 855.184C-704.767 823.761 -764.526 792.908 -816.656 755.082C-916.433 694.555 -977.65 583.745 -980.47 458.619C-1001.31 370.515 -993.152 302.577 -955.524 250.862C-918.739 197.867 -843.551 151.566 -725.666 109.306C-591.84 57.2944 -412.493 25.7258 -220.634 20.3957C-145.975 18.4823 -78.9953 22.261 -15.863 31.941C53.0875 42.5131 119.083 60.6045 185.905 87.254C342.059 125.852 629.384 247.319 742.424 334.166C890.7 420.109 872.294 479.713 844.403 569.922C837.035 593.775 828.67 620.81 822.64 650.891C816.287 674.266 810.9 695.592 805.694 716.214C773.557 843.337 755.859 913.362 628.925 970.755C544.519 1017.74 418.825 1020.47 328.228 1014.48C183.241 1022.92 26.6286 1014.44 -137.531 989.268ZM-15.3892 30.8846C-78.7778 21.1653 -146.021 17.3728 -220.944 19.2943C-413.225 24.6326 -592.97 56.276 -727.085 108.398C-845.281 150.769 -920.7 197.226 -957.613 250.41C-995.354 302.271 -1003.55 370.373 -982.673 458.596C-979.854 583.917 -918.435 695.006 -818.379 755.695C-766.159 793.592 -706.231 824.532 -624.148 855.976C-531.492 904.304 -391.887 945.953 -220.576 976.353C-193.07 981.437 -165.28 986.14 -138.004 990.322C26.4609 1015.54 183.376 1024.04 328.409 1015.58C419.229 1021.59 545.644 1018.84 630.56 971.569C757.958 913.966 775.693 843.81 807.889 716.449C813.099 695.827 818.488 674.506 824.829 651.11C830.86 621.046 839.218 594.027 846.594 570.185C874.569 479.661 893.049 419.857 744.146 333.556C690.599 292.412 596.88 241.772 480.341 191.033C373.243 144.405 263.563 105.268 186.958 86.342C120.117 59.6654 53.8583 41.5022 -15.3892 30.8846Z" fill="#EDE9F6"/>
<path d="M-184.649 976.36C-196.314 974.571 -208.119 972.671 -219.735 970.715C-392.171 942.88 -530.365 900.686 -619.376 848.689C-691.308 817.831 -748.547 784.844 -799.656 744.81C-892.275 684.823 -952.683 578.731 -961.307 460.971C-988.006 372.66 -984.953 307.856 -951.708 256.974C-919.124 204.259 -847.746 158.333 -733.5 116.556C-598.716 63.1791 -410.246 30.3823 -216.381 26.5578C-146.681 25.3257 -83.9847 29.1484 -24.7149 38.2373C50.8461 49.8244 120.012 69.7502 192.966 100.947C339.655 140.023 604.776 254.175 714.33 337.441C858.108 421.299 844.839 480.482 824.756 570.072C820.113 590.811 814.848 614.312 811.174 639.885C806.746 659.757 802.919 678.134 799.233 695.906C773.538 819.565 759.397 887.681 639.442 944.259C557.938 992.206 432.999 998.924 342.534 996.125C177.532 1010.8 -4.69309 1003.96 -184.649 976.36ZM-24.2415 37.1816C-83.7633 28.0541 -146.705 24.2157 -216.659 25.4547C-410.958 29.2856 -599.862 62.1687 -734.942 115.663C-849.502 157.549 -921.109 203.639 -953.82 256.556C-987.168 307.591 -990.248 372.554 -963.504 460.976C-954.873 578.904 -894.28 685.253 -801.423 745.388C-750.25 785.483 -692.855 818.557 -620.868 849.428C-531.687 901.532 -393.11 943.859 -220.26 971.76C-208.637 973.717 -196.81 975.618 -185.121 977.411C-4.81075 1005.06 177.753 1011.91 342.844 997.216C433.536 1000.04 559.148 993.275 641.114 945.056C761.512 888.265 775.695 820.017 801.433 696.118C805.122 678.348 808.936 659.971 813.378 640.087C817.053 614.512 822.315 591.017 826.956 570.293C837.336 523.982 845.54 487.407 833.308 450.967C820.102 411.623 783.946 376.419 716.056 336.83C664.367 297.544 576.113 249.305 467.62 201.063C368.727 157.09 266.477 119.334 194.098 100.06C121.097 68.8246 51.6489 48.8192 -24.2415 37.1816Z" fill="#EDE9F6"/>
<path d="M-233.3 965.16C-400.93 939.453 -533.158 897.297 -615.686 843.244C-679.431 812.472 -730.804 779.248 -782.373 735.446C-867.945 675.852 -927.514 574.307 -941.79 463.759C-974.106 376.31 -975.877 312.591 -947.396 263.168C-919.387 211.378 -849.826 164.429 -740.624 123.599C-602.85 67.976 -409.86 34.6836 -211.11 32.252C-145.845 31.5747 -86.9991 35.4088 -31.2134 43.9639C49.687 56.3706 123.548 78.6901 201.216 114.21C343.28 155.184 581.331 260.658 687.597 340.599C827.38 422.787 819.892 478.832 807.489 571.685C805.075 589.798 802.574 608.518 800.916 629.272C798.218 645.325 795.862 660.427 793.562 675.03C774.642 795.988 764.215 862.613 650.872 918.711C572.238 967.681 447.963 978.451 357.542 978.875C173.055 1000.67 -26.2507 996.655 -219.053 967.294C-223.846 966.591 -228.581 965.884 -233.3 965.16ZM-30.7385 42.905C-86.764 34.3131 -145.847 30.4667 -211.352 31.1462C-410.557 33.5835 -603.996 66.9575 -742.074 122.706C-851.598 163.655 -921.406 210.786 -949.527 262.786C-978.1 312.365 -976.341 376.239 -943.98 463.8C-929.698 574.487 -869.955 676.265 -784.193 735.988C-732.566 779.845 -681.065 813.152 -617.277 843.935C-534.555 898.125 -401.899 940.434 -233.774 966.217C-229.047 966.942 -224.304 967.65 -219.508 968.349C-26.3333 997.77 173.369 1001.79 357.996 979.965C448.632 979.555 573.523 968.718 652.564 919.491C766.357 863.175 776.798 796.41 795.777 675.215C798.057 660.608 800.423 645.512 803.121 629.44C804.776 608.674 807.287 589.959 809.697 571.859C815.894 525.464 820.785 488.822 806.705 452.595C791.533 413.527 755.33 378.799 689.311 339.982C639.489 302.496 556.666 256.589 456.188 210.782C365.491 169.434 270.615 133.006 202.407 113.346C124.679 77.7778 50.5196 55.3665 -30.7385 42.905Z" fill="#EDE9F6"/>
<path d="M-255.769 957.963C-414.28 933.651 -537.465 891.908 -612.006 837.249C-666.492 807.549 -713.753 773.123 -765.356 725.553C-844.129 666.283 -903.014 569.342 -922.925 466.187C-961.602 378.459 -968.077 317.718 -943.93 269.155C-920.105 217.615 -854.356 171.007 -748.507 130.602C-607.656 72.7992 -409.98 39.092 -206.127 38.1203C-144.826 37.9327 -89.4176 41.7721 -36.7489 49.8502C49.3305 63.0525 127.629 87.7991 209.66 127.724C341.381 169.007 559.291 267.917 661.722 343.978C798.458 424.96 796.402 481.514 793.015 575.213C792.525 589.024 791.995 603.315 791.889 618.686C790.677 630.444 789.591 641.766 788.542 652.657C777.12 771.565 770.823 837.061 663.642 892.914C587.905 942.792 464.156 957.602 373.68 961.253C181.063 989.214 -23.4056 989.931 -217.862 963.347C-230.634 961.674 -243.386 959.862 -255.769 957.963ZM-36.276 48.7957C-89.1725 40.6827 -144.801 36.829 -206.345 37.0158C-410.666 37.9934 -608.807 71.7774 -749.974 129.714C-856.16 170.239 -922.154 217.046 -946.082 268.805C-970.305 317.529 -963.836 378.427 -925.108 466.265C-905.178 569.532 -846.15 666.677 -767.221 726.056C-715.579 773.673 -668.207 808.175 -613.686 837.883C-538.933 892.71 -415.293 934.62 -256.241 959.015C-243.826 960.919 -231.045 962.736 -218.24 964.413C-23.4169 991.051 181.479 990.332 374.253 962.332C464.947 958.688 589.264 943.795 665.377 893.671C773.004 837.597 779.307 771.961 790.756 652.81C791.806 641.917 792.891 630.599 794.101 618.814C794.207 603.424 794.725 589.141 795.232 575.329C796.919 528.432 798.27 491.398 782.068 455.14C764.603 416.085 728.024 381.611 663.436 343.364C560.919 267.234 342.646 168.155 210.92 126.882C128.803 86.8959 50.1858 62.0567 -36.276 48.7957Z" fill="#EDE9F6"/>
<path d="M-273.071 951.551C-424.712 928.291 -540.575 886.628 -608.136 831.06C-661.932 797.721 -702.92 760.778 -747.935 715.542C-821.062 655.588 -877.71 565.611 -903.412 468.638C-933.479 410.201 -964.751 335.479 -939.728 275.264C-920.139 224.007 -858.27 177.751 -755.84 137.78C-614.17 78.6844 -406.823 43.6878 -201.163 44.1605C-143.517 44.3803 -91.3019 48.2009 -41.5397 55.8338C50.6482 69.9743 130.581 96.333 217.618 141.318C341.084 183.61 538.063 276.412 634.775 347.272C769.5 427.772 773.352 485.648 779.74 581.54C780.316 590.017 780.894 598.779 781.582 607.869C781.4 614.703 781.246 621.403 781.075 627.95C778.301 741.937 776.616 810.738 675.195 866.771C602.463 917.489 479.362 936.364 388.883 943.276C191.536 977.007 -23.5581 982.617 -216.944 959.104C-236.019 956.88 -254.904 954.338 -273.071 951.551ZM-41.067 54.7796C-91.0488 47.113 -143.477 43.2742 -201.344 43.0522C-297.771 42.8351 -397.625 50.511 -490.137 65.2621C-592.656 81.6056 -682.547 105.702 -757.316 136.893C-860.11 177.008 -922.22 223.462 -941.901 274.953C-967.011 335.382 -935.682 410.267 -905.581 468.755C-879.862 565.815 -823.089 655.959 -749.851 716.006C-704.81 761.27 -663.748 798.28 -609.903 831.637C-542.113 887.403 -425.771 929.255 -273.544 952.605C-255.328 955.399 -236.389 957.947 -217.269 960.178C-120.843 971.905 -19.9322 976.546 82.6506 973.971C186.594 971.365 289.858 961.396 389.585 944.347C480.262 937.43 603.906 918.458 676.96 867.507C778.821 811.241 780.507 742.292 783.298 628.063C783.444 621.514 783.612 614.819 783.798 607.959C783.098 598.838 782.523 590.077 781.954 581.605C775.552 485.463 771.687 427.43 636.494 346.656C539.682 275.731 342.41 182.784 218.949 140.502C131.786 95.4494 51.5398 68.9844 -41.067 54.7796Z" fill="#EDE9F6"/>
<path d="M-287.537 945.554C-433.918 923.098 -543.722 881.267 -605.068 824.587C-655.224 788.987 -692.21 748.33 -731.362 705.285C-797.991 645.209 -853.898 559.796 -884.788 470.905C-921.094 409.541 -955.595 339.073 -936.445 281.254C-921.135 230.31 -863.152 184.429 -764.103 144.894C-619.553 83.6812 -407.612 48.2895 -197.138 50.2088C-142.842 50.7836 -93.5504 54.5745 -46.4387 61.8018C50.4967 76.6723 134.111 105.387 224.659 154.907C339.118 198.023 513.32 282.934 606.975 350.528C741.868 431.918 752.39 492.663 769.828 593.308L770.464 596.958L770.652 599.901C777.965 714.425 782.386 783.554 685.944 840.437C616.295 891.909 493.813 914.863 403.318 925.065C198.728 964.977 -21.4472 975.441 -216.8 954.559C-241.039 952.066 -264.833 949.037 -287.537 945.554ZM-45.9654 60.7461C-93.2845 53.487 -142.782 49.6815 -197.296 49.1073C-408.262 47.1804 -620.712 82.6614 -765.599 144.014C-865.019 183.708 -923.24 229.79 -938.633 280.986C-957.854 339.022 -923.281 409.64 -886.939 471.068C-856.034 560.014 -800.026 645.561 -733.317 705.71C-694.16 748.763 -657.132 789.471 -606.921 825.104C-545.329 882.02 -435.025 924.054 -288.009 946.607C-265.236 950.101 -241.368 953.139 -217.062 955.637C-21.3005 976.567 199.315 966.081 404.132 926.119C494.825 915.902 617.799 892.846 687.752 841.154C784.62 784.018 780.193 714.738 772.857 599.965L772.665 596.993L772.026 593.308C754.553 492.434 744.004 431.554 608.696 349.917C514.944 282.258 340.507 197.222 226.053 154.123C135.368 104.512 51.4173 75.6852 -45.9654 60.7461Z" fill="#EDE9F6"/>
<path d="M-298.214 941.146C-440.386 919.334 -544.935 877.156 -600.575 819.17C-637.666 788.672 -665.878 754.051 -695.752 717.402C-701.455 710.403 -707.264 703.28 -713.251 696.031C-773.989 634.997 -829.094 554.093 -864.454 474.035C-905.181 413.32 -944.945 343.791 -931.322 287.98C-920.291 237.319 -866.191 191.776 -770.508 152.619C-623.106 89.2203 -406.63 53.3651 -191.434 56.7073C-140.222 57.5688 -93.624 61.3134 -48.9909 68.161C52.5217 83.7352 139.547 114.817 233.167 168.938C337.426 212.479 490.099 290.083 580.434 354.298C708.715 432.654 733.991 494.369 760.394 586.705C778.64 691.831 785.376 759.119 697.652 814.958C631.099 867.171 509.255 894.263 418.751 907.804C207.18 953.999 -17.9922 969.363 -215.433 951.087C-244.017 948.534 -271.869 945.188 -298.214 941.146ZM-48.5186 67.1076C-93.3509 60.2295 -140.135 56.4658 -191.558 55.5988C-407.275 52.2567 -624.26 88.1989 -772.011 151.748C-868.088 191.067 -922.434 236.83 -933.52 287.757C-947.194 343.781 -907.351 413.462 -866.582 474.24C-831.21 554.329 -776.041 635.33 -715.246 696.414C-709.296 703.619 -703.491 710.741 -697.791 717.737C-667.879 754.436 -639.627 789.094 -602.499 819.627C-575.655 847.605 -536.788 872.242 -487.024 892.801C-434.64 914.44 -371.272 931.061 -298.685 942.197C-272.25 946.253 -244.312 949.607 -215.637 952.172C-17.7809 970.49 207.837 955.099 419.67 908.845C510.373 895.276 632.667 868.071 699.491 815.65C787.631 759.552 780.885 692.093 762.587 586.677C736.132 494.108 710.781 432.25 582.144 353.68C491.745 289.413 338.88 211.707 234.636 168.188C140.834 113.952 53.4612 82.7534 -48.5186 67.1076Z" fill="#EDE9F6"/>
<path d="M-307.886 935.846C-446.843 914.524 -546.964 871.85 -597.407 812.441C-625.372 785.493 -646.583 755.527 -669.042 723.8C-677.82 711.4 -686.899 698.577 -696.706 685.457C-737.646 639.012 -796.764 564.976 -846.047 475.834C-893.677 412.747 -936.586 347.02 -928.338 293.393C-921.655 243.036 -871.388 197.85 -778.939 159.098C-628.543 93.5486 -407.293 57.2928 -187.069 62.1195C-139.307 63.2187 -93.873 67.0293 -52.0457 73.4474C54.0655 89.7294 144.432 123.199 240.971 181.967C327.096 222.155 460.592 292.088 553.767 357.12C673.083 430.93 714.995 490.815 750.608 575.523C781.904 676.218 784.17 736.812 709.702 788.5C646.234 841.349 524.889 872.581 434.255 889.478C215.641 941.918 -14.8212 962.12 -214.777 946.377C-247.18 943.899 -278.505 940.354 -307.886 935.846ZM-51.5735 72.3942C-93.5879 65.9474 -139.21 62.1201 -187.166 61.0179C-289.326 58.7792 -396.195 65.747 -496.227 81.1652C-604.957 97.927 -703.246 124.58 -780.457 158.23C-873.324 197.158 -923.825 242.574 -930.545 293.219C-938.821 347.053 -895.833 412.923 -848.141 476.085C-798.854 565.247 -739.689 639.341 -698.742 685.792C-688.969 698.87 -679.896 711.688 -671.116 724.083C-648.634 755.847 -627.397 785.851 -599.396 812.835C-575.055 841.5 -538.55 866.616 -490.92 887.436C-440.754 909.366 -379.335 926.008 -308.358 936.899C-278.867 941.424 -247.433 944.978 -214.926 947.468C-14.5391 963.246 216.363 943.012 435.27 890.5C526.11 873.562 647.87 842.216 711.57 789.16C748.529 763.523 767.838 734.253 772.301 697.087C776.775 659.75 765.565 616.55 752.782 575.423C717.078 490.502 675.063 430.479 555.473 356.504C462.247 291.43 328.612 221.42 242.511 181.257C145.763 122.343 55.0256 88.7511 -51.5735 72.3942Z" fill="#EDE9F6"/>
<path d="M-315.809 931.835C-451.952 910.942 -547.942 867.71 -593.404 806.807C-614.533 782.5 -630.369 755.828 -647.136 727.593C-657.023 710.947 -667.243 693.729 -679.111 676.039C-688.222 664.117 -697.838 651.681 -707.819 638.772C-744.955 590.742 -787.04 536.306 -826.26 478.858C-886.931 406.771 -926.711 348.801 -923.756 300.098C-921.422 250.065 -875.044 205.239 -785.902 166.875C-634.984 100.17 -403.59 62.5704 -182.014 68.7389C-136.852 70.0439 -93.7981 73.7945 -54.0588 79.893C57.8986 97.0741 148.47 131.827 248.798 196.092C286.811 216.154 418.934 287.189 526.584 360.936C632.415 427.473 694.208 486.661 739.916 565.254C773.433 634.458 794.32 706.318 720.764 762.914C673.038 805.197 579.114 842.925 449.108 872.044C223.871 930.772 -11.5826 955.845 -213.901 942.656C-249.626 940.369 -283.911 936.73 -315.809 931.835ZM-53.586 78.838C-93.4999 72.7127 -136.738 68.9459 -182.087 67.6414C-286.091 64.7435 -395.222 71.4832 -497.7 87.132C-608.912 104.113 -709.099 131.391 -787.437 166.016C-877.009 204.567 -923.619 249.638 -925.962 299.97C-928.937 348.874 -889.075 406.973 -828.318 479.168C-789.113 536.599 -747.015 591.047 -709.871 639.088C-699.893 651.994 -690.282 664.429 -681.184 676.325C-669.35 693.973 -659.133 711.179 -649.251 727.816C-632.458 756.09 -616.601 782.793 -595.442 807.139C-573.507 836.529 -539.227 862.149 -493.568 883.27C-445.468 905.524 -385.821 922.216 -316.28 932.888C-284.257 937.802 -249.84 941.457 -213.988 943.751C-11.2388 956.967 224.653 931.857 450.205 873.044C580.54 843.852 674.79 805.985 722.682 763.545C754.99 738.687 771.403 709.899 772.79 675.562C773.996 645.96 764.232 610.849 742.048 565.063C696.23 486.278 634.312 426.969 528.297 360.311C420.595 286.535 288.373 215.451 250.414 195.421C149.831 130.981 58.8875 96.0983 -53.586 78.838Z" fill="#EDE9F6"/>
<path d="M-322.813 927.926C-454.823 907.665 -549.658 862.569 -589.85 800.945C-605.679 778.678 -617.275 754.477 -629.554 728.852C-639.241 708.639 -649.256 687.733 -662.061 666.268C-695.655 614.267 -744.435 556.145 -796.068 494.611L-807.192 481.353C-863.264 421.203 -918.142 358.137 -919.995 306.112C-922.045 256.368 -879.504 211.865 -793.548 173.843C-639.714 104.942 -403.483 66.8703 -177.04 74.4839C-134.238 75.9563 -93.357 79.6495 -55.5255 85.4561C90.8265 107.919 184.589 160.747 256.998 209.461C304.751 238.359 399.776 296.842 500.086 364.146C584.81 418.447 671.306 479.088 730.141 554.577C785.607 632.359 786.43 690.357 732.713 737.087C686.826 780.41 596.618 819.894 464.58 854.46C232.624 919.539 -8.0328 949.501 -213.067 938.834C-251.811 936.827 -288.732 933.157 -322.813 927.926ZM-55.0535 84.4029C-93.0517 78.5708 -134.112 74.862 -177.088 73.3799C-404.077 65.7529 -640.884 103.918 -795.099 172.991C-881.503 211.209 -924.271 255.975 -922.209 306.032C-920.344 358.282 -865.362 421.475 -809.207 481.721L-798.101 494.959C-746.477 556.467 -697.725 614.565 -664.171 666.507C-651.386 687.93 -641.38 708.818 -631.704 729.017C-619.404 754.672 -607.796 778.904 -591.934 801.214C-572.258 831.383 -540.014 857.574 -496.103 879.054C-449.828 901.685 -391.687 918.483 -323.286 928.982C-289.067 934.234 -251.991 937.918 -213.103 939.932C-7.63402 950.617 233.468 920.612 465.768 855.443C598.133 820.789 688.619 781.168 734.681 737.688C788.692 690.687 787.916 632.403 732.201 554.275C673.243 478.623 586.632 417.89 501.8 363.529C401.468 296.216 306.417 237.715 258.695 208.833C186.082 159.976 91.9853 106.971 -55.0535 84.4029Z" fill="#EDE9F6"/>
<path d="M-328.786 924.181C-458.914 904.206 -550.259 858.364 -585.994 795.1C-597.558 774.512 -605.692 752.289 -614.307 728.764C-622.853 705.405 -631.694 681.251 -644.675 656.536C-669.866 608.585 -712.65 556.959 -787.736 483.919C-851.364 421.937 -909.031 362.167 -915.782 312.233C-922.229 262.793 -883.536 218.62 -800.766 180.934C-644.063 109.835 -403.072 71.2959 -171.835 80.3502C-131.257 81.9608 -92.417 85.5861 -56.381 91.1178C95.4554 114.426 191.422 170.827 265.267 222.923C277.273 231.408 289.525 240.12 302.078 249.053C352.129 284.647 408.851 324.992 473.543 367.417C488.867 377.464 504.868 387.774 520.347 397.745C592.635 444.321 667.38 492.478 720.257 543.92C782.556 604.577 791.179 664 744.536 711.238C701.174 754.928 612.179 797.189 480.015 836.849C241.487 908.278 -4.29654 943.139 -212.079 935.003C-253.56 933.344 -292.827 929.701 -328.786 924.181ZM-55.9079 90.0621C-92.1023 84.506 -131.114 80.8664 -171.856 79.245C-403.654 70.1726 -645.237 108.811 -802.333 180.089C-885.571 217.985 -924.48 262.436 -917.985 312.206C-911.201 362.358 -853.427 422.257 -789.684 484.351C-714.684 557.312 -671.953 608.861 -646.814 656.725C-633.853 681.397 -625.019 705.529 -616.478 728.868C-607.858 752.42 -599.712 774.667 -588.113 795.311C-570.615 826.286 -540.307 853.07 -498.017 874.931C-453.448 897.959 -396.673 914.886 -329.258 925.235C-293.137 930.78 -253.702 934.436 -212.057 936.106C-108.594 940.155 4.69061 933.542 124.665 916.448C243.676 899.49 363.647 873.03 481.274 837.809C613.755 798.052 703.002 755.655 746.539 711.798C793.485 664.252 784.848 604.472 722.203 543.484C669.225 491.946 594.404 443.736 522.05 397.116C506.572 387.149 490.579 376.844 475.271 366.799C410.587 324.394 353.885 284.062 303.845 248.473C291.302 239.546 279.036 230.827 267.035 222.34C192.941 170.065 96.6356 113.478 -55.9079 90.0621Z" fill="#EDE9F6"/>
<path d="M-325.868 910.45C-455.396 890.561 -545.708 846.338 -580.163 785.924C-592.388 764.528 -600.61 741.727 -609.31 717.592C-617.057 696.107 -625.067 673.89 -636.515 651C-641.948 640.277 -648.507 628.996 -656.007 617.469C-680.881 579.244 -716.297 537.706 -770.833 482.784C-830.462 422.516 -884.432 364.39 -889.83 315.698C-894.979 267.563 -857.001 224.583 -776.957 187.948C-684.739 145.684 -564.617 116.222 -429.584 102.742C-343.174 93.689 -251.125 91.1504 -163.366 95.3929C-124.677 97.1309 -87.4901 100.71 -52.8505 106.029C40.2262 120.321 120.23 147.417 198.91 191.301C220.424 203.367 242.178 216.884 265.4 232.621C283.794 244.933 302.489 257.619 322.289 271.047C366.68 301.144 416.971 335.257 472.225 370.77C481.292 376.562 490.447 382.379 499.658 388.229C562.281 428.018 627.047 469.164 678.383 512.636C690.584 522.959 701.745 533.17 711.54 542.988C770.673 601.988 778.32 659.96 733.088 706.221C690.77 749.368 604.743 790.912 477.422 829.706C392.402 856.099 299.7 877.534 201.893 893.42C133.873 904.691 64.3137 912.971 -4.84488 918.029C-74.2879 923.073 -139.28 924.115 -209.393 921.3C-250.63 919.635 -289.822 915.985 -325.868 910.45ZM-52.3796 104.978C-87.1736 99.6356 -124.517 96.0369 -163.361 94.2945C-251.326 90.0373 -343.606 92.5889 -430.208 101.661C-565.595 115.176 -686.049 144.721 -778.528 187.102C-859.03 223.944 -897.217 267.198 -892.036 315.658C-886.615 364.572 -832.543 422.817 -772.796 483.201C-718.315 538.071 -682.941 579.558 -658.102 617.722C-650.621 629.225 -644.075 640.479 -638.652 651.176C-627.227 674.029 -619.226 696.225 -611.487 717.69C-602.775 741.858 -594.542 764.682 -582.282 786.137C-547.591 846.963 -456.693 891.488 -326.34 911.504C-290.132 917.063 -250.781 920.728 -209.383 922.401C-139.097 925.22 -73.936 924.178 -4.33534 919.122C64.9441 914.055 134.614 905.761 202.751 894.472C300.7 878.561 393.55 857.093 478.704 830.662C606.337 791.774 692.601 750.09 735.094 706.774C780.615 660.208 772.958 601.89 713.506 542.566C703.678 532.724 692.494 522.488 680.262 512.146C628.847 468.598 564.034 427.421 501.349 387.595C492.137 381.748 482.978 375.93 473.924 370.138C418.69 334.64 370.567 302.005 324.023 270.445C304.228 257.015 285.533 244.329 267.135 232.016C243.862 216.247 222.067 202.704 200.499 190.613C121.501 146.548 41.1482 119.34 -52.3796 104.978Z" fill="#EDE9F6"/>
<path d="M-323.811 896.6C-452.506 876.833 -541.638 834.279 -574.783 776.779C-587.715 754.538 -595.982 731.174 -604.736 706.436C-611.661 686.867 -618.817 666.633 -628.765 645.645C-633.815 635.267 -639.929 624.303 -646.942 613.047C-670.195 575.717 -703.283 535.304 -754.233 482.017C-809.82 423.537 -860.05 367.123 -864.092 319.718C-867.927 272.936 -830.713 231.197 -753.464 195.655C-662.744 153.662 -545.367 125.789 -414.025 115.043C-330.879 107.421 -244.014 106.145 -155.825 111.26C-119.089 113.112 -83.6481 116.636 -50.4858 121.73C40.5118 135.707 119.577 161.772 198.354 203.755C219.714 215.251 241.255 228.086 264.218 242.996C291.424 260.215 319.54 278.415 349.295 297.683C387.15 322.195 426.286 347.538 469.396 374.656L474.014 377.532C543.202 420.541 614.732 465.015 669.619 512.758C681.185 522.799 691.787 532.776 701.099 542.395C757.002 599.678 763.686 656.13 719.903 701.356C678.669 743.915 595.717 784.698 473.367 822.576C391.859 848.783 302.432 868.866 199.97 883.988C133.866 894.155 66.7497 901.36 -5.20879 906.026C-70.483 910.194 -130.992 910.632 -207.519 907.488C-248.517 905.819 -287.64 902.156 -323.811 896.6ZM-50.0135 120.676C-83.322 115.56 -118.909 112.022 -155.783 110.158C-244.173 105.037 -331.256 106.316 -414.59 113.96C-546.303 124.732 -664.039 152.688 -755.044 194.814C-832.728 230.56 -870.164 272.564 -866.299 319.665C-862.238 367.279 -811.903 423.818 -756.208 482.416C-705.312 535.649 -672.262 576.013 -649.045 613.286C-642.048 624.518 -635.95 635.461 -630.91 645.812C-620.98 666.763 -613.825 686.981 -606.909 706.531C-598.15 731.297 -589.868 754.695 -576.902 776.994C-560.602 805.269 -530.658 830.091 -487.893 850.774C-444.17 871.921 -389.121 887.693 -324.282 897.652C-287.953 903.232 -248.662 906.909 -207.499 908.586C-130.806 911.736 -70.1624 911.299 -4.73393 907.116C67.3443 902.445 134.57 895.228 200.78 885.048C303.417 869.902 393.011 849.777 474.661 823.524C597.322 785.552 680.516 744.635 721.908 701.909C765.981 656.384 759.294 599.589 703.069 541.987C693.732 532.338 683.106 522.347 671.506 512.275C616.529 464.453 544.93 419.939 475.679 376.886L471.078 374.021C427.99 346.912 388.851 321.567 350.997 297.06C321.235 277.789 293.124 259.587 265.911 242.364C242.917 227.437 221.328 214.573 199.91 203.044C120.822 160.892 41.4063 134.718 -50.0135 120.676Z" fill="#EDE9F6"/>
<path d="M-322.056 882.665C-448.196 863.284 -538.57 821.272 -570.012 767.401C-583.749 744.218 -592.035 720.249 -600.812 694.872C-606.919 677.211 -613.23 658.956 -621.757 639.9C-626.453 629.843 -632.139 619.176 -638.663 608.196C-660.341 571.717 -691.178 532.382 -738.652 480.656C-790.322 423.895 -836.929 369.125 -839.64 322.942C-842.187 277.457 -805.666 236.915 -731.107 202.44C-641.735 160.68 -526.899 134.375 -398.999 126.365C-320.299 120.256 -235.974 120.19 -148.333 126.153C-113.53 128.118 -79.8239 131.589 -48.1254 136.459C40.9882 150.152 119.328 175.234 198.431 215.393C219.686 226.349 241.07 238.52 263.795 252.605C304.255 276.734 346.997 303.24 392.249 331.297C416.455 346.312 441.486 361.834 467.736 377.967C536.714 419.609 608.563 464.288 662.425 512.477C673.428 522.282 683.481 532.026 692.317 541.45C745.118 597.081 750.855 652.086 708.461 696.325C668.247 738.343 588.226 778.4 470.629 815.389C391.732 841.626 305.4 860.421 198.902 874.537C135.783 883.459 69.0683 889.825 -5.10042 894C-74.6325 897.832 -131.24 896.769 -205.529 893.641C-246.421 891.956 -285.623 888.263 -322.056 882.665ZM-47.6543 135.407C-79.4869 130.516 -113.337 127.036 -148.265 125.061C-236.083 119.086 -320.623 119.155 -399.501 125.273C-527.797 133.304 -643.02 159.7 -732.691 201.603C-807.682 236.276 -844.411 277.079 -841.843 322.875C-839.129 369.267 -792.431 424.162 -740.655 481.034C-693.224 532.712 -662.422 571.998 -640.777 608.416C-634.267 619.377 -628.595 630.02 -623.906 640.052C-615.403 659.075 -609.087 677.319 -602.988 694.96C-594.202 720.374 -585.901 744.377 -572.13 767.62C-540.452 821.896 -449.477 864.213 -322.528 883.72C-285.937 889.342 -246.567 893.048 -205.514 894.741C-131.096 897.874 -74.3671 898.937 -4.65811 895.098C69.6233 890.913 136.454 884.539 199.656 875.601C306.359 861.46 392.879 842.624 471.941 816.33C589.841 779.253 670.094 739.058 710.471 696.871C753.137 652.335 747.405 596.999 694.302 541.052C685.447 531.611 675.36 521.838 664.333 512.01C610.364 463.729 538.439 418.997 469.392 377.316C443.156 361.189 418.121 345.666 393.913 330.656C348.661 302.589 305.911 276.082 265.448 251.957C242.684 237.845 221.247 225.646 199.945 214.661C120.535 174.344 41.8616 149.162 -47.6543 135.407Z" fill="#EDE9F6"/>
<path d="M-320.795 869.664C-445.87 850.44 -534.854 810.099 -564.932 758.978C-579.476 734.764 -587.684 710.159 -596.376 684.109C-601.629 668.365 -607.062 652.081 -614.18 634.998C-618.489 625.266 -623.721 614.893 -629.747 604.161C-649.755 568.512 -678.235 530.228 -722.097 480.02C-767.792 427.144 -812.522 371.76 -813.809 326.776C-815 282.538 -779.195 243.131 -707.392 209.651C-619.472 168.04 -507.328 143.222 -383.087 137.877C-309.132 133.213 -227.489 134.308 -140.38 141.126C-107.632 143.185 -75.7783 146.572 -45.685 151.198C41.424 164.586 118.946 188.687 198.274 227.042C219.362 237.446 240.521 248.959 262.981 262.24C325.825 297.549 393.505 338.242 465.161 381.326C528.835 418.697 601.032 463.479 653.803 512.301C664.198 521.864 673.681 531.387 682.006 540.62C731.554 594.634 736.264 648.245 695.257 691.575C656.087 733.117 579.077 772.529 466.372 808.717C389.686 835.191 306.516 852.791 196.682 865.793C136.139 873.639 71.7953 879.042 -5.79992 882.805C-77.0009 886.146 -131.109 883.828 -199.628 880.896L-204.025 880.705C-244.8 879.022 -284.084 875.306 -320.795 869.664ZM-45.2136 150.145C-75.4368 145.499 -107.418 142.095 -140.269 140.034C-227.55 133.202 -309.401 132.107 -383.512 136.781C-508.179 142.138 -620.735 167.051 -708.98 208.817C-781.204 242.49 -817.222 282.15 -816.018 326.689C-814.721 371.883 -769.902 427.397 -724.111 480.38C-680.292 530.538 -651.847 568.773 -631.865 604.366C-625.858 615.082 -620.629 625.432 -616.337 635.134C-609.227 652.187 -603.802 668.458 -598.554 684.194C-589.851 710.279 -581.631 734.923 -567.046 759.201C-536.731 810.725 -447.145 851.369 -321.266 870.717C-284.397 876.383 -244.948 880.118 -204.01 881.806L-199.617 881.996C-130.996 884.932 -76.8015 887.251 -5.39344 883.903C72.3205 880.137 136.752 874.722 197.387 866.864C307.467 853.837 390.833 836.187 467.707 809.652C580.695 773.374 657.931 733.825 697.272 692.115C738.546 648.499 733.829 594.562 684.008 540.239C675.658 530.985 666.133 521.429 655.723 511.842C602.849 462.922 530.552 418.08 466.795 380.663C395.139 337.576 327.438 296.873 264.57 261.56C242.103 248.266 220.897 236.721 199.745 226.286C120.11 187.782 42.2731 163.591 -45.2136 150.145Z" fill="#EDE9F6"/>
<path d="M-318.679 855.823C-442.642 836.762 -530.254 798.147 -559.06 749.874C-574.527 724.613 -582.624 699.428 -591.195 672.762C-595.627 658.969 -600.205 644.71 -606.037 629.683C-610.035 620.149 -614.71 610.37 -620.314 599.779C-638.71 565.049 -664.917 527.886 -705.281 479.289C-747.181 428.143 -788.084 374.544 -788.029 330.818C-787.927 287.934 -752.869 249.774 -683.824 217.409C-597.359 176.09 -487.88 152.873 -367.212 150.269C-297.174 146.999 -220.346 149.233 -132.288 157.101C-101.647 159.24 -71.7138 162.545 -43.2787 166.917C41.9575 180.023 118.822 203.138 198.601 239.66C219.567 249.503 240.537 260.344 262.727 272.795C319.389 302.594 381.301 337.331 463.485 385.437C547.217 432.993 605.346 473.418 646.411 512.663C656.223 521.968 665.157 531.256 672.987 540.278C719.387 592.566 723.154 644.655 683.603 686.958C646.026 727.332 569.976 767.041 463.676 801.786C369.061 835.538 270.888 848.764 195.938 856.515C122.193 865.111 49.7295 868.733 -5.15846 870.925C-66.6007 873.268 -113.911 871.055 -168.682 868.489C-179.167 867.999 -189.988 867.492 -201.305 866.997C-242.08 865.288 -281.568 861.529 -318.679 855.823ZM-42.8071 165.863C-71.36 161.473 -101.414 158.157 -132.134 156.011C-220.356 148.132 -297.375 145.895 -367.556 149.168C-488.676 151.782 -598.609 175.092 -685.416 216.573C-754.865 249.135 -790.138 287.543 -790.233 330.719C-790.288 374.651 -749.296 428.37 -707.315 479.625C-666.991 528.177 -640.814 565.29 -622.446 599.967C-616.85 610.537 -612.185 620.298 -608.201 629.806C-602.382 644.803 -597.8 659.056 -593.372 672.837C-584.79 699.545 -576.689 724.77 -561.168 750.104C-532.131 798.771 -443.916 837.69 -319.15 856.874C-281.88 862.605 -242.226 866.382 -201.297 868.093C-189.985 868.59 -179.169 869.098 -168.695 869.585C-113.817 872.155 -66.4238 874.375 -4.79481 872.023C50.1774 869.826 122.742 866.203 196.596 857.595C271.715 849.824 370.134 836.562 465.03 802.716C571.608 767.882 647.888 728.037 685.614 687.495C725.44 644.917 721.669 592.501 674.997 539.916C667.142 530.874 658.187 521.555 648.353 512.223C607.179 472.891 548.964 432.387 465.09 384.76C382.891 336.638 320.966 301.892 264.288 272.09C242.083 259.625 221.055 248.758 200.032 238.887C119.945 202.228 42.7864 179.024 -42.8071 165.863Z" fill="#EDE9F6"/>
<path d="M-317.509 841.822C-438.24 823.252 -526.454 785.409 -553.501 740.596C-569.93 714.213 -577.782 688.432 -586.098 661.139C-589.709 649.283 -593.448 637.026 -598.043 624.077C-601.66 614.889 -605.9 605.406 -610.999 595.075C-627.507 561.689 -652.099 524.527 -688.399 478.124C-726.426 428.672 -763.424 376.825 -761.971 334.289C-760.537 292.707 -726.215 255.743 -659.96 224.424C-574.992 183.331 -468.239 161.651 -351.24 161.73C-285.589 159.804 -213.501 163.089 -124.309 172.07C-95.9023 174.266 -68.0231 177.455 -41.3991 181.55C41.9567 194.372 118.172 216.526 198.475 251.26C219.284 260.543 240.052 270.711 261.942 282.354C323.512 312.613 388.604 347.368 460.974 388.615C538.934 431.473 598.461 473.038 637.905 512.172C647.108 521.22 655.488 530.283 662.813 539.107C705.985 589.713 708.757 640.339 670.614 681.677C634.097 721.533 561.176 760.511 459.732 794.398C368.951 827.936 274.512 839.775 194.111 846.93C126.521 853.954 58.2607 856.801 -5.42539 858.83C-60.2179 860.464 -101.086 858.258 -148.4 855.706C-164.453 854.838 -181.049 853.946 -199.315 853.131C-240.152 851.409 -279.915 847.605 -317.509 841.822ZM-40.9277 180.496C-67.6652 176.384 -95.6519 173.183 -124.114 170.986C-213.45 161.988 -285.723 158.699 -351.499 160.632C-468.983 160.543 -576.222 182.321 -661.561 223.594C-728.207 255.098 -762.73 292.3 -764.176 334.171C-765.632 376.907 -728.554 428.875 -690.447 478.438C-654.187 524.794 -629.622 561.911 -613.139 595.247C-608.044 605.558 -603.815 615.025 -600.21 624.182C-595.62 637.105 -591.887 649.357 -588.277 661.205C-579.952 688.543 -572.084 714.366 -555.604 740.83C-541.646 763.962 -512.87 784.828 -470.087 802.845C-429.388 819.986 -376.787 833.828 -317.979 842.873C-280.227 848.68 -240.299 852.503 -199.312 854.229C-181.054 855.042 -164.472 855.936 -148.436 856.803C-101.019 859.36 -60.0678 861.572 -5.09375 859.929C58.6846 857.897 127.021 855.046 194.715 848.013C275.32 840.838 370.031 828.962 461.099 795.315C562.806 761.346 635.962 722.229 672.63 682.209C711.03 640.597 708.261 589.654 664.831 538.764C657.486 529.915 649.077 520.82 639.854 511.751C600.313 472.522 540.654 430.854 462.569 387.926C390.157 346.658 325.025 311.885 263.454 281.62C241.545 269.972 220.716 259.775 199.845 250.466C119.253 215.6 42.7607 193.369 -40.9277 180.496Z" fill="#EDE9F6"/>
<path d="M-316.034 827.87C-435.242 809.525 -521.777 773.452 -547.521 731.373C-564.99 703.815 -572.161 678.687 -580.468 649.588C-583.303 639.649 -586.232 629.369 -589.733 618.515C-592.978 609.638 -596.796 600.451 -601.39 590.413C-616.277 557.916 -638.511 521.874 -671.351 476.988C-705.568 429.229 -738.737 379.139 -735.893 337.776C-733.134 297.487 -699.542 261.72 -636.032 231.469C-552.504 190.611 -448.389 170.487 -334.95 173.273C-257.081 172.457 -176.923 180.259 -115.779 187.144C-89.7191 189.375 -64.0249 192.424 -39.3422 196.222C42.3173 208.788 118.12 230.019 199.229 263.028C219.911 271.749 240.493 281.255 262.115 292.081C327.757 322.093 392.358 354.771 459.651 392.001C533.656 431.27 592.829 472.732 630.801 511.919C639.412 520.718 647.236 529.554 654.077 538.182C694.084 587.093 695.885 636.268 659.14 676.64C614.316 726.343 524.544 764.204 457.15 787.218C369.534 820.696 278.622 831.177 193.436 837.521C128.91 843.37 65.5209 845.216 -4.7139 846.873C-54.8462 847.947 -91.1364 845.642 -133.163 842.975C-152.773 841.729 -173.057 840.442 -196.54 839.377C-237.582 837.628 -277.787 833.755 -316.034 827.87ZM-38.8741 195.176C-63.6542 191.363 -89.4447 188.297 -115.538 186.063C-176.752 179.17 -257.086 171.353 -335.128 172.171C-449.074 169.374 -553.713 189.593 -637.639 230.643C-701.524 261.074 -735.325 297.075 -738.094 337.641C-740.952 379.198 -707.717 429.412 -673.422 477.277C-640.609 522.118 -618.403 558.116 -603.537 590.562C-598.95 600.587 -595.143 609.758 -591.904 618.602C-588.412 629.436 -585.48 639.711 -582.647 649.645C-574.328 678.794 -567.152 703.967 -549.616 731.61C-523.647 774.077 -436.499 810.455 -316.504 828.92C-278.095 834.831 -237.732 838.719 -196.533 840.474C-173.092 841.538 -152.834 842.825 -133.241 844.069C-91.1088 846.743 -54.7294 849.051 -4.42163 847.973C65.9085 846.316 129.366 844.464 193.985 838.607C279.41 832.244 370.611 821.729 458.546 788.13C526.114 765.063 616.148 727.073 661.175 677.168C698.157 636.528 696.361 587.051 656.117 537.855C649.259 529.197 641.396 520.334 632.77 511.51C594.693 472.217 535.365 430.647 461.202 391.295C393.883 354.045 329.229 321.341 263.561 291.318C241.929 280.488 221.301 270.958 200.547 262.205C119.166 229.086 43.0895 207.789 -38.8741 195.176Z" fill="#EDE9F6"/>
<path d="M-316.298 814.622C-433.834 796.526 -518.617 762.224 -543.085 722.866C-561.683 694.118 -568.416 668.509 -576.212 638.86C-578.334 630.791 -580.531 622.45 -583.061 613.663C-585.945 605.114 -589.343 596.221 -593.446 586.458C-606.737 554.867 -626.642 519.945 -656.086 476.551C-686.562 430.498 -715.956 382.171 -711.72 341.963C-707.657 302.968 -674.763 268.399 -613.966 239.225C-531.82 198.624 -430.265 180.073 -320.268 185.574C-254.837 186.25 -188.35 193.034 -108.63 203.017C-85.0964 205.242 -61.762 208.126 -39.2193 211.596C40.9504 223.94 116.628 244.291 198.941 275.639C219.549 283.805 239.961 292.653 261.322 302.675C329.951 331.698 394.133 362.311 457.589 396.286C529.194 432.846 586.451 473.057 623.192 512.589C631.228 521.143 638.513 529.745 644.856 538.175C681.778 585.404 682.641 633.115 647.27 672.526C603.732 721.573 518.155 758.547 454.026 780.93C373.759 812.596 291.224 823.024 191.992 828.948C130.257 833.696 68.9926 834.615 4.12992 835.588L-4.96733 835.724C-51.7168 836.326 -84.6159 833.866 -122.715 831.015C-144.653 829.374 -167.333 827.675 -194.917 826.399C-236.349 824.607 -277.184 820.645 -316.298 814.622ZM-38.7507 210.549C-61.3746 207.065 -84.7901 204.169 -108.349 201.942C-188.154 191.946 -254.783 185.15 -320.331 184.474C-430.885 178.947 -533.007 197.592 -615.577 238.404C-676.738 267.752 -709.835 302.543 -713.926 341.803C-718.18 382.206 -688.718 430.652 -658.172 476.812C-628.757 520.164 -608.877 555.046 -595.604 586.588C-591.503 596.336 -588.119 605.213 -585.243 613.731C-582.717 622.498 -580.517 630.84 -578.4 638.903C-570.587 668.61 -563.843 694.265 -545.185 723.109C-520.48 762.849 -435.087 797.456 -316.768 815.673C-277.499 821.719 -236.502 825.696 -194.914 827.498C-167.406 828.769 -144.758 830.463 -122.851 832.104C-84.6461 834.962 -51.6426 837.431 -4.71051 836.828L4.40192 836.687C69.3336 835.715 130.664 834.794 192.477 830.037C292.031 824.099 374.867 813.63 455.443 781.835C519.725 759.401 605.579 722.295 649.305 673.049C684.896 633.38 684.048 585.371 646.907 537.867C640.548 529.414 633.239 520.777 625.174 512.203C588.327 472.548 530.903 432.217 459.119 395.561C395.617 361.564 331.362 330.919 262.705 301.881C241.335 291.86 220.871 282.993 200.2 274.793C117.613 243.349 41.6991 222.935 -38.7507 210.549Z" fill="#EDE9F6"/>
<path d="M-316.361 800.431C-431.642 782.673 -514.261 750.198 -537.352 713.555C-557.026 683.662 -563.131 657.675 -570.204 627.585C-571.679 621.318 -573.205 614.827 -574.906 608.036C-577.42 599.81 -580.38 591.214 -583.97 581.741C-595.602 551.092 -613.105 517.299 -639.065 475.395C-665.696 431.075 -691.228 384.53 -685.552 345.46C-680.147 307.761 -647.999 274.393 -590.007 246.289C-509.377 205.924 -410.567 188.912 -304.247 197.085C-240.86 199.152 -177.219 207.427 -100.6 218.025C-79.9228 220.182 -59.3268 222.842 -39.2978 225.927C39.3912 238.049 115.062 257.542 198.839 287.281C219.321 294.888 239.518 303.063 260.551 312.266C331.337 339.857 394.952 368.389 455.058 399.497C523.387 433.047 580.051 473.039 614.653 512.118C622.091 520.417 628.818 528.794 634.645 537.016C668.365 582.527 668.229 628.774 634.276 667.236C592.071 715.64 510.813 751.746 450.079 773.511C372.266 805.275 289.921 814.794 190.217 819.32C135.426 822.786 81.0481 823.091 23.4743 823.411C14.0134 823.465 4.48363 823.518 -5.14845 823.587C-49.2702 823.793 -80.9403 821.026 -114.461 818.094C-137.825 816.053 -161.98 813.94 -192.819 812.492C-234.729 810.66 -276.291 806.603 -316.361 800.431ZM-38.8265 224.873C-58.9204 221.778 -79.5943 219.118 -100.271 216.958C-176.945 206.349 -240.7 198.059 -304.204 195.991C-411.119 187.773 -510.543 204.879 -591.621 245.469C-649.967 273.745 -682.31 307.328 -687.756 345.283C-693.454 384.538 -667.868 431.195 -641.17 475.626C-615.234 517.489 -597.746 551.245 -586.133 581.85C-582.553 591.308 -579.592 599.891 -577.092 608.091C-575.391 614.86 -573.872 621.348 -572.397 627.615C-565.311 657.765 -559.187 683.803 -539.451 713.802C-516.114 750.825 -432.89 783.603 -316.831 801.481C-276.606 807.677 -234.879 811.752 -192.82 813.59C-162.079 815.034 -137.964 817.141 -114.65 819.177C-81.0214 822.118 -49.2509 824.894 -4.9246 824.685C4.71459 824.62 14.2372 824.564 23.6971 824.512C81.3367 824.19 135.787 823.889 190.649 820.416C290.7 815.874 373.367 806.311 451.508 774.404C512.395 752.589 593.924 716.358 636.31 667.755C670.483 629.041 670.63 582.509 636.714 536.73C630.877 528.483 624.119 520.076 616.645 511.751C581.931 472.536 525.081 432.409 456.546 398.756C396.38 367.617 332.685 339.051 261.866 311.448C240.828 302.244 220.585 294.045 200.02 286.412C116.006 256.584 40.1137 237.033 -38.8265 224.873Z" fill="#EDE9F6"/>
<path d="M-316.407 786.243C-430.844 768.605 -509.145 738.73 -531.225 704.279C-551.981 673.322 -557.064 648.345 -563.5 616.72C-564.432 612.118 -565.401 607.375 -566.444 602.447C-568.594 594.521 -571.135 586.22 -574.208 577.062C-584.2 547.377 -599.343 514.715 -621.878 474.266C-643.738 433.565 -666.472 386.949 -659.347 348.988C-652.611 312.586 -621.19 280.424 -565.964 253.395C-486.802 213.292 -390.652 197.84 -287.891 208.698C-230.652 211.977 -171.549 221.009 -108.982 230.577L-92.0157 233.168C-74.6156 235.175 -57.2 237.516 -40.175 240.14C37.4082 252.098 113.609 270.833 199.629 299.109C220.019 306.154 240.033 313.665 260.743 322.06C334.391 348.33 395.696 374.022 453.723 402.942C520.119 434.186 574.729 472.876 607.521 511.893C614.377 519.94 620.566 528.086 625.884 536.116C656.46 579.907 655.365 624.681 622.804 662.197C581.92 709.954 504.913 745.167 447.508 766.293C363.51 801.728 274.045 807.24 189.614 809.851C140.396 812.267 91.5538 812.01 39.858 811.742C25.3209 811.664 10.6015 811.587 -4.35998 811.567C-46.5014 811.417 -75.9316 808.433 -107.091 805.276C-131.32 802.818 -156.376 800.28 -189.932 798.677C-231.971 796.816 -275.706 792.516 -316.407 786.243ZM-39.7062 239.091C-56.784 236.459 -74.2553 234.107 -91.6372 232.107L-108.517 229.527C-171.196 219.947 -230.394 210.895 -287.74 207.614C-391.131 196.684 -487.939 212.23 -567.594 252.583C-623.146 279.77 -654.758 312.137 -661.539 348.786C-668.697 386.926 -645.919 433.656 -623.999 474.465C-601.487 514.88 -586.358 547.504 -576.388 577.144C-573.307 586.291 -570.772 594.579 -568.636 602.476C-567.59 607.388 -566.625 612.131 -565.692 616.73C-559.239 648.423 -554.147 673.459 -533.316 704.529C-510.984 739.365 -432.099 769.533 -316.875 787.292C-276.021 793.588 -232.12 797.904 -189.933 799.774C-156.507 801.369 -131.506 803.903 -107.326 806.354C-76.06 809.525 -46.5284 812.515 -4.16722 812.667C10.8024 812.688 25.5096 812.763 40.0336 812.842C91.8023 813.112 140.701 813.368 189.973 810.948C274.725 808.325 364.561 802.789 448.97 767.18C506.516 746.001 583.782 710.663 624.838 662.706C657.61 624.952 658.716 579.899 627.97 535.848C622.623 527.796 616.427 519.618 609.537 511.549C576.624 472.378 521.804 433.537 455.188 402.184C397.076 373.232 335.678 347.494 261.982 321.207C241.263 312.821 221.216 305.29 200.738 298.216C114.495 269.867 38.1079 251.084 -39.7062 239.091Z" fill="#EDE9F6"/>
<path d="M-318.153 772.759C-429.398 755.605 -505.049 727.537 -525.698 695.754C-547.416 663.847 -551.37 640.016 -556.835 607.03C-557.352 603.927 -557.878 600.747 -558.435 597.471C-560.209 589.822 -562.31 581.81 -564.866 572.96C-573.161 544.255 -585.893 512.681 -604.935 473.584C-627.53 425.115 -640.991 386.013 -633.221 352.785C-625.095 317.609 -594.401 286.592 -541.975 260.591C-464.311 220.656 -370.887 206.689 -271.8 220.2C-248.262 222.187 -222.859 225.337 -191.744 230.135C-169.207 233.61 -146.493 237.5 -122.442 241.622C-109.796 243.785 -96.9652 245.981 -83.9073 248.161C-70.5379 249.858 -57.0987 251.746 -43.9022 253.781C33.9737 265.789 109.057 283.361 199.571 310.76C219.603 317.158 239.944 324.201 260.023 331.687C335.175 356.079 395.899 379.767 451.177 406.256C515.733 435.349 568.182 472.771 598.904 511.645C605.184 519.471 610.794 527.401 615.58 535.21C642.952 577.323 640.838 620.693 609.645 657.349C570.052 704.569 497.327 738.966 443.296 759.508C361.649 795.188 275.736 799.487 187.54 800.987C143.006 802.552 98.8126 801.817 52.0119 801.039C33.6 800.735 14.5458 800.417 -4.82414 800.243C-45.3849 799.78 -72.9381 796.574 -102.099 793.181C-126.778 790.309 -152.282 787.339 -188.102 785.616C-231.091 783.694 -276.054 779.25 -318.153 772.759ZM-191.275 229.085C-222.491 224.272 -247.988 221.109 -271.519 219.126C-371.288 205.525 -465.414 219.571 -543.603 259.781C-596.34 285.937 -627.231 317.153 -635.403 352.557C-643.208 385.949 -629.727 425.151 -607.075 473.745C-588.044 512.811 -575.324 544.352 -567.045 573.015C-564.493 581.856 -562.389 589.861 -560.624 597.481C-560.075 600.735 -559.542 603.92 -559.03 607.023C-553.548 640.089 -549.582 663.98 -527.778 696.014C-506.883 728.176 -430.644 756.535 -318.622 773.809C-276.37 780.324 -231.24 784.784 -188.106 786.711C-152.444 788.429 -127.013 791.388 -102.412 794.25C-73.1279 797.657 -45.4686 800.877 -4.66599 801.342C14.6979 801.519 33.736 801.835 52.1388 802.14C98.9991 802.919 143.254 803.655 187.858 802.086C276.397 800.583 362.702 796.26 444.784 760.388C498.939 739.791 571.92 705.268 611.682 657.854C643.068 620.969 645.208 577.328 617.678 534.967C612.876 527.135 607.244 519.176 600.935 511.319C570.081 472.276 517.399 434.689 452.582 405.481C397.22 378.95 336.387 355.214 261.167 330.802C241.112 323.321 220.725 316.264 200.613 309.839C109.897 282.382 34.6401 264.772 -43.4341 252.733C-56.6711 250.692 -70.1427 248.799 -83.4716 247.109C-96.4365 244.943 -109.268 242.749 -121.904 240.583C-145.972 236.46 -168.702 232.566 -191.275 229.085Z" fill="#EDE9F6"/>
<path d="M-256.81 232.145C-245.686 233.417 -234.262 234.967 -221.78 236.892C-192.873 241.352 -163.284 247.078 -131.957 253.138C-114.05 256.6 -95.5314 260.186 -76.4834 263.654C-68.4833 264.777 -60.4658 265.958 -52.5525 267.179C25.4745 279.217 103.221 296.421 199.514 322.954C219.543 328.811 239.712 335.167 259.446 341.849C337.205 364.55 395.738 385.578 449.289 410.067C512.349 437.088 562.822 473.182 591.449 511.714C597.177 519.285 602.248 526.976 606.543 534.575C631.195 575.487 628.244 616.24 597.987 652.437C559.723 698.974 491.227 732.406 440.507 752.26C361.014 788.063 278.455 791.147 186.528 791.355C145.843 792.166 105.465 790.972 62.7305 789.714C40.9877 789.073 18.513 788.414 -4.60597 788.004C-44.0035 787.223 -70.0225 783.769 -97.558 780.114C-122.42 776.812 -148.128 773.399 -185.975 771.54C-230.313 769.519 -276.929 764.876 -320.78 758.111C-428.513 741.49 -501.371 715.28 -520.689 686.201C-543.364 653.63 -546.209 631.199 -550.514 597.245L-551.218 591.705C-552.64 584.333 -554.329 576.627 -556.385 568.126C-563.146 540.166 -573.255 510.649 -589.158 472.412C-607.403 426.108 -617.686 388.653 -608.57 356.391C-599.13 322.541 -569.16 292.775 -519.498 267.912C-445.359 229.395 -357.108 216.615 -264.25 230.941C-261.772 231.324 -259.283 231.722 -256.81 232.145ZM-221.311 235.842C-233.85 233.908 -245.328 232.354 -256.395 231.089C-258.782 230.687 -261.284 230.279 -263.782 229.893C-357.466 215.44 -446.456 228.304 -521.137 267.103C-571.09 292.115 -601.248 322.068 -610.751 356.139C-619.91 388.554 -609.606 426.108 -591.316 472.533C-575.422 510.742 -565.327 540.231 -558.568 568.156C-556.516 576.649 -554.827 584.345 -553.411 591.692L-552.713 597.215C-548.396 631.26 -545.544 653.753 -522.767 686.465C-503.203 715.922 -429.75 742.419 -321.248 759.159C-277.243 765.948 -230.47 770.607 -185.975 772.634C-148.322 774.484 -122.708 777.885 -97.9398 781.173C-70.2657 784.846 -44.1364 788.315 -4.48575 789.102C18.608 789.51 41.0684 790.172 62.8071 790.813C105.601 792.072 146.033 793.262 186.778 792.451C275.69 792.249 362.151 789.093 442.013 753.125C492.854 733.222 561.605 699.665 600.042 652.935C630.477 616.514 633.445 575.508 608.655 534.362C604.349 526.74 599.253 519.016 593.513 511.417C564.736 472.695 514.007 436.419 450.66 409.274C397.009 384.739 338.335 363.657 260.5 340.942C240.785 334.258 220.566 327.887 200.47 322.015C103.989 295.427 26.1085 278.195 -52.0846 266.131C-60.0141 264.908 -68.0568 263.725 -75.9872 262.61C-94.9308 259.161 -113.434 255.58 -131.329 252.117C-162.698 246.046 -192.325 240.319 -221.311 235.842Z" fill="#EDE9F6"/>
<path d="M-323.778 744.379C-427.189 728.419 -496.777 704.086 -514.698 677.624C-538.117 644.595 -539.828 623.708 -542.659 589.113L-542.852 586.743C-543.912 579.607 -545.175 572.191 -546.714 564.054C-551.786 537.297 -559.596 508.853 -572.029 471.832C-584.014 433.595 -593.564 393.627 -582.383 360.369C-571.558 327.763 -542.304 299.172 -495.426 275.375C-426.95 239.317 -346.409 227.104 -262.488 240.056C-255.173 241.185 -247.74 242.518 -240.399 244.025C-238.751 244.27 -237.228 244.503 -235.685 244.741C-203.893 249.647 -171.09 256.859 -136.371 264.496C-114.422 269.323 -91.7329 274.314 -67.831 279.051C32.9663 294.679 124.302 316.13 200.365 335.042C220.402 340.351 240.38 346.027 259.702 351.918C312.978 365.778 382.473 385.318 447.973 413.82C508.675 438.527 558.35 474.258 584.305 511.861C589.45 519.191 593.972 526.656 597.737 534.051C619.235 573.198 615.315 612.553 586.435 647.877C549.447 693.857 485.182 726.417 437.783 745.633C360.482 781.628 277.91 783.646 185.741 782.55C148.404 782.735 111.348 781.156 72.1168 779.486C47.6389 778.444 22.3322 777.368 -3.99178 776.69C-42.4295 775.618 -67.0958 771.915 -93.2104 767.995C-118.006 764.272 -143.661 760.419 -183.263 758.445C-228.695 756.347 -278.593 751.353 -323.778 744.379ZM-262.021 239.008C-346.776 225.927 -428.057 238.229 -497.073 274.578C-544.225 298.504 -573.666 327.278 -584.558 360.093C-595.78 393.5 -586.215 433.572 -574.204 471.907C-561.771 508.909 -553.972 537.329 -548.906 564.058C-547.366 572.183 -546.104 579.592 -545.054 586.703L-544.861 589.053C-542.019 623.758 -540.305 644.707 -516.766 677.894C-498.597 704.73 -428.422 729.349 -324.246 745.427C-278.911 752.424 -228.848 757.436 -183.271 759.54C-143.901 761.5 -118.36 765.336 -93.6611 769.044C-67.4099 772.986 -42.6212 776.706 -3.89807 777.788C22.3885 778.463 47.6699 779.537 72.1296 780.582C111.412 782.253 148.515 783.833 185.929 783.651C278.516 784.751 361.516 782.715 439.32 746.494C486.846 727.227 551.345 694.541 588.475 648.366C617.536 612.833 621.472 573.236 599.872 533.864C596.081 526.448 591.545 518.947 586.367 511.586C560.288 473.774 510.321 437.844 449.296 413.008C383.635 384.433 313.975 364.846 260.64 350.972C241.356 345.091 221.341 339.402 201.224 334.076C125.05 315.132 33.5992 293.659 -67.27 278.017C-91.0474 273.302 -113.718 268.318 -135.643 263.495C-172.113 255.474 -206.464 247.923 -239.847 242.993C-247.138 241.498 -254.636 240.148 -262.021 239.008Z" fill="#EDE9F6"/>
<path d="M-328.943 729.281C-386.721 720.361 -487.02 700.513 -509.634 667.803C-533.622 634.606 -534.265 615.45 -535.431 580.671C-536.125 573.601 -536.961 566.481 -537.988 558.78C-542.323 526.391 -549.82 494.362 -555.854 470.073C-564.078 433.731 -569.93 395.622 -557.174 363.22C-544.952 331.852 -516.417 304.442 -472.345 281.745C-409.002 247.927 -335.381 236.254 -259.429 247.98C-248.046 249.737 -236.467 252.034 -225.014 254.818C-197.303 259.949 -168.86 267.086 -138.746 274.644C-113.844 280.895 -88.0922 287.355 -60.2213 293.359C23.4129 307.719 104.342 324.797 200.149 346.026C220.265 350.79 240.037 355.79 258.878 360.878C316.405 374.025 383.492 390.901 445.556 416.453C504.938 439.301 552.484 473.707 576.04 510.849C580.612 517.932 584.588 525.172 587.842 532.37C606.166 569.708 601.305 607.653 573.773 642.116C538.09 687.549 478.07 719.211 433.998 737.773C358.682 774.003 279.554 774.978 183.938 772.49C149.485 772.124 115.32 770.2 79.139 768.162C52.3848 766.653 24.7223 765.096 -4.36753 764.109C-33.8174 763.058 -54.2573 760.368 -70.367 757.881C-77.1491 756.834 -83.5622 755.755 -90.3647 754.608C-97.0864 753.474 -104.061 752.295 -111.337 751.172C-127.192 748.724 -149.501 745.707 -181.532 744.091C-229.209 741.857 -281.561 736.596 -328.943 729.281ZM-258.961 246.93C-335.754 235.074 -410.107 246.837 -474.003 280.953C-517.703 303.457 -547.213 331.8 -559.337 362.912C-572.15 395.458 -566.284 433.663 -558.038 470.102C-552.001 494.383 -544.514 526.386 -540.186 558.752C-539.155 566.444 -538.317 573.559 -537.636 580.505C-536.465 615.487 -535.819 634.711 -511.704 668.08C-488.738 701.3 -387.634 721.34 -329.411 730.329C-281.879 737.667 -229.365 742.943 -181.54 745.185C-149.716 746.789 -127.561 749.785 -111.803 752.218C-104.552 753.337 -97.6106 754.513 -90.885 755.648C-84.3799 756.744 -77.6461 757.88 -70.8356 758.931C-54.5964 761.438 -34.0079 764.144 -4.31621 765.206C24.724 766.187 52.3692 767.744 79.1063 769.253C115.32 771.296 149.543 773.224 184.059 773.585C280.151 776.091 359.711 775.098 435.562 738.62C479.752 720.009 539.998 688.216 575.833 642.598C603.522 607.937 608.421 569.764 589.981 532.21C586.723 524.99 582.727 517.72 578.13 510.605C554.428 473.228 506.573 438.605 446.821 415.625C384.567 389.984 317.3 373.067 259.715 359.905C240.895 354.817 221.088 349.818 200.911 345.036C105.014 323.786 24.0283 306.699 -59.5958 292.336C-87.318 286.366 -113.033 279.912 -137.909 273.67C-168.086 266.098 -196.589 258.941 -224.315 253.813C-235.769 251.031 -247.46 248.705 -258.961 246.93Z" fill="#EDE9F6"/>
<path d="M-335.16 715.001C-429.01 700.507 -489.158 680.562 -504.528 658.84C-528.919 625.739 -528.592 607.779 -528.003 575.182C-528.312 568.287 -528.725 561.453 -529.26 554.269C-531.442 524.838 -535.567 495.899 -539.701 469.009C-544.028 436.215 -546.486 398.399 -531.99 366.657C-518.538 336.916 -489.914 309.938 -449.208 288.632C-389.613 256.375 -323.958 245.497 -254.052 256.293C-239.256 258.578 -224.2 261.884 -209.299 266.117C-186.394 271.321 -162.955 278.052 -138.138 285.179C-111.15 292.929 -83.2397 300.942 -52.0892 308.211C-3.05658 317.564 45.278 327.084 96.4525 337.165C130.358 343.848 165.415 350.753 200.754 357.619C221.09 361.846 240.675 366.168 258.961 370.458C320.37 382.584 385.255 396.937 444.238 419.765C502.465 440.836 547.94 473.947 569.03 510.602C573.054 517.455 576.481 524.472 579.212 531.466C594.424 566.998 588.609 603.576 562.393 637.234C527.94 682.185 472.116 712.966 431.339 730.872C357.862 767.379 282.048 767.382 182.973 763.406C151.048 762.567 119.373 760.325 85.8471 757.952C57.1377 755.921 27.4474 753.819 -4.12999 752.492C-23.6527 751.642 -40.946 749.976 -58.5287 747.26C-68.6604 745.695 -77.7599 743.981 -87.386 742.166C-97.011 740.349 -106.98 738.468 -118.08 736.754C-137.533 733.75 -157.01 731.817 -179.365 730.678C-229.292 728.296 -286.073 722.582 -335.16 715.001ZM-253.583 255.242C-324.351 244.313 -390.728 255.285 -450.875 287.848C-491.813 309.265 -520.605 336.408 -534.138 366.32C-548.702 398.196 -546.234 436.106 -541.9 468.99C-537.765 495.869 -533.639 524.796 -531.457 554.208C-530.925 561.386 -530.514 568.217 -530.201 575.084C-530.798 607.803 -531.125 625.833 -506.59 659.125C-490.966 681.218 -430.243 701.438 -335.628 716.05C-286.399 723.652 -229.448 729.383 -179.377 731.77C-157.185 732.906 -137.854 734.819 -118.547 737.8C-107.524 739.503 -97.5912 741.377 -87.9894 743.189C-78.332 745.011 -69.198 746.736 -58.9975 748.311C-41.2488 751.052 -23.8127 752.728 -4.11599 753.586C27.4007 754.913 57.0585 757.01 85.7295 759.04C119.318 761.418 151.035 763.662 183.031 764.507C282.63 768.501 358.881 768.49 432.923 731.706C473.811 713.747 529.862 682.844 564.445 637.708C590.816 603.858 596.665 567.079 581.367 531.342C578.624 524.325 575.182 517.274 571.155 510.39C549.898 473.476 504.091 440.131 445.459 418.903C386.253 396 321.177 381.6 259.674 369.452C241.427 365.17 221.806 360.843 201.411 356.602C166.043 349.734 130.979 342.824 97.0963 336.149C45.9097 326.065 -2.42679 316.54 -51.3977 307.205C-82.371 299.974 -110.23 291.974 -137.178 284.24C-162.049 277.098 -185.538 270.352 -208.446 265.148C-223.399 260.894 -238.617 257.554 -253.583 255.242Z" fill="#EDE9F6"/>
</g>
</g>
<defs>
<linearGradient id="paint0_linear_19_226" x1="960" y1="376.015" x2="960" y2="1264.8" gradientUnits="userSpaceOnUse">
<stop stop-color="#FBFAFF"/>
<stop offset="1" stop-color="white"/>
</linearGradient>
<clipPath id="clip0_19_226">
<rect width="1920" height="1264.8" fill="white"/>
</clipPath>
</defs>
</svg>
