<svg width="1920" height="390" viewBox="0 0 1920 390" fill="none" xmlns="http://www.w3.org/2000/svg">
<g clip-path="url(#clip0_34_179)">
<rect width="1920" height="390" fill="#5981B2"/>
<g style="mix-blend-mode:soft-light" opacity="0.4">
<path d="M1235.8 -406.48C1235.8 -454.768 1240.14 -489.453 1249.88 -518.944C1289.21 -631.314 1446.6 -714.953 1650.86 -732.012C1753.03 -739.76 1848.85 -726.155 1927.95 -692.669C1996.88 -662.915 2063.31 -612.707 2137.01 -534.663C2187.35 -480.722 2231.35 -417.958 2275.5 -337.142C2319.87 -255.168 2340.84 -189.701 2343.5 -124.876C2343.59 -121.93 2343.64 -118.984 2343.64 -115.87C2343.64 -42.0849 2317.6 75.0317 2273.98 197.417C2229.65 321.806 2175.12 427.889 2128.13 481.189C2044.65 625.515 1962.97 607.042 1839.33 579.09C1784.49 566.688 1722.33 552.639 1647.21 548.911C1593.01 546.233 1544.61 544.591 1501.9 543.143C1296.81 536.195 1203.21 533.031 1099.81 434.566C1075.82 410.601 1063.65 378.467 1063.65 339.074C1063.65 308.023 1071.2 272.192 1086.09 232.574C1099.74 196.634 1116.79 159.532 1134.84 120.251C1158.58 68.5884 1183.14 15.1693 1203.57 -43.1282C1227.56 -112.511 1239.22 -188.407 1239.22 -275.158C1239.22 -288.035 1238.96 -301.537 1238.45 -315.288C1238.22 -321.468 1237.98 -327.598 1237.75 -333.672C1236.74 -359.164 1235.8 -383.243 1235.8 -406.48ZM2344.79 -115.87C2344.79 -118.999 2344.74 -121.963 2344.65 -124.931C2341.99 -189.999 2320.96 -255.659 2276.48 -337.84C2232.27 -418.758 2188.21 -481.606 2137.8 -535.631C2063.98 -613.795 1997.43 -664.087 1928.35 -693.906C1849.1 -727.459 1753.11 -741.088 1650.78 -733.326C1446.09 -716.232 1288.3 -632.271 1248.81 -519.424C1239.01 -489.766 1234.65 -454.934 1234.65 -406.48C1234.65 -383.213 1235.59 -359.122 1236.6 -333.612C1236.84 -327.539 1237.08 -321.414 1237.31 -315.234C1237.81 -301.5 1238.07 -288.017 1238.07 -275.158C1238.07 -188.576 1226.43 -112.839 1202.5 -43.61C1182.09 14.6129 1157.55 67.9998 1133.82 119.638C1115.76 158.938 1098.7 196.058 1085.03 232.047C1070.08 271.837 1062.5 307.844 1062.5 339.074C1062.5 378.867 1074.8 411.329 1099.07 435.569C1149.34 483.449 1197.93 510.025 1261.55 524.427C1323.32 538.416 1398.21 540.952 1501.86 544.464C1544.57 545.913 1592.97 547.549 1647.17 550.235C1722.18 553.95 1784.31 567.997 1839.11 580.387C1902.92 594.813 1953.33 606.214 1999.64 596.197C2049.71 585.374 2089.61 550.16 2129.02 482.016C2176.04 428.711 2230.66 322.462 2275.05 197.916C2318.72 75.3795 2344.79 -41.9234 2344.79 -115.87Z" fill="#EDE9F6"/>
<path d="M2331.03 -116.735C2331.06 -114.985 2331.07 -113.25 2331.07 -111.463C2331.07 -40.952 2305.66 71.8802 2263.09 190.347C2219.78 310.913 2166.52 414.105 2120.62 466.391C2039.19 606.589 1959.49 590.245 1838.85 565.5C1786.68 554.802 1727.55 542.678 1656.55 539.99C1604.8 537.882 1558.45 536.721 1517.57 535.693C1319.22 530.714 1228.7 528.441 1128.01 434.293C1101.97 409.491 1088.77 375.393 1088.77 332.931C1088.77 304.454 1094.72 272.044 1106.47 236.604C1119.12 192.896 1136.89 147.224 1155.71 98.8746C1173.39 53.4439 1191.67 6.45941 1207.63 -43.6449C1240.05 -147.639 1244.5 -248.016 1245.02 -314.472L1244.88 -326.192C1244.71 -340.419 1244.55 -353.859 1244.55 -367.232C1244.55 -424.117 1247.6 -470.377 1262.5 -511.248C1302.4 -619.26 1454.98 -701.124 1651.21 -719.799C1751.62 -729.968 1845.36 -719.079 1922.3 -688.315C1990.51 -660.685 2056.06 -612.517 2128.59 -536.723C2181.68 -481.494 2226.71 -416.614 2270.28 -332.541C2312.29 -250.637 2331.03 -184.305 2331.03 -117.467V-116.735ZM2332.23 -111.463C2332.23 -113.258 2332.21 -115.003 2332.17 -116.748L2332.18 -117.467C2332.18 -184.554 2313.39 -251.094 2271.27 -333.214C2227.64 -417.401 2182.55 -482.38 2129.37 -537.699C2056.72 -613.611 1991.05 -661.869 1922.68 -689.561C1845.59 -720.387 1751.69 -731.298 1651.11 -721.114C1454.46 -702.4 1301.5 -620.223 1261.43 -511.757C1246.47 -470.682 1243.4 -424.276 1243.4 -367.232C1243.4 -353.849 1243.56 -340.406 1243.73 -326.172L1243.86 -314.469C1243.34 -248.123 1238.91 -147.894 1206.55 -44.0942C1190.6 5.963 1172.33 52.9251 1154.66 98.3409C1135.83 146.718 1118.05 192.417 1105.38 236.155C1093.6 271.724 1087.62 304.291 1087.62 332.931C1087.62 375.795 1100.96 410.245 1127.28 435.304C1228.27 529.751 1318.92 532.027 1517.54 537.014C1558.42 538.041 1604.76 539.203 1656.52 541.308C1727.43 543.991 1786.52 556.11 1838.64 566.8C1900.91 579.573 1950.09 589.66 1995.28 579.233C2044.14 567.962 2083.07 533.412 2121.51 467.225C2167.43 414.924 2220.79 311.56 2264.16 190.853C2306.78 72.2302 2332.23 -40.7882 2332.23 -111.463Z" fill="#EDE9F6"/>
<path d="M1113.9 326.364C1113.9 300.705 1118.38 271.946 1127.22 240.892C1137.97 187.682 1156.35 131.295 1175.8 71.596C1187.94 34.3365 1200.5 -4.18995 1212.01 -44.346C1239.52 -143.354 1247.59 -236.357 1251.86 -314.279L1251.94 -318.84C1253.15 -390.015 1254.21 -451.488 1275.38 -504.497C1315.83 -608.341 1463.5 -688.561 1651.6 -708.871C1751.59 -721.679 1840.72 -713.715 1916.51 -685.195C1983.02 -660.026 2049.55 -612.455 2119.9 -539.774C2174.97 -483.955 2222.33 -414.882 2264.69 -328.598C2304.45 -246.733 2321.26 -177.577 2318.16 -108.896L2318.16 -107.358C2318.16 -40.0161 2293.39 68.6994 2251.89 183.444C2209.61 300.375 2157.63 400.855 2112.85 452.24C2033.49 588.569 1955.8 574.345 1838.19 552.812C1788.76 543.765 1732.74 533.513 1665.92 531.821C1616.71 530.288 1572.52 529.6 1533.52 528.989C1341.95 525.991 1254.51 524.625 1156.56 434.595C1128.25 408.857 1113.9 372.442 1113.9 326.364ZM2319.66 -124.72C2319.66 -188.436 2302.51 -253.425 2265.7 -329.241C2223.27 -415.659 2175.83 -484.845 2120.67 -540.755C2050.2 -613.563 1983.54 -661.218 1916.87 -686.449C1840.92 -715.029 1751.63 -723.013 1651.49 -710.185C1558.7 -700.167 1474.25 -675.614 1407.28 -639.189C1340.29 -602.757 1294.32 -556.368 1274.33 -505.041C1253.06 -451.786 1252.01 -390.189 1250.79 -318.865L1250.71 -314.334C1246.45 -236.523 1238.39 -143.617 1210.91 -44.7509C1199.41 -4.6346 1186.86 33.8868 1174.72 71.1364C1155.25 130.875 1136.86 187.304 1126.11 240.537C1117.24 271.675 1112.74 300.563 1112.74 326.364C1112.74 372.871 1127.24 409.632 1155.84 435.628C1254.1 525.936 1341.66 527.305 1533.51 530.303C1572.5 530.917 1616.69 531.605 1665.89 533.143C1732.63 534.829 1788.61 545.071 1838 554.121C1898.71 565.23 1946.65 574.007 1990.7 563.131C2038.33 551.381 2076.27 517.436 2113.73 453.072C2158.54 401.675 2210.62 301.03 2252.96 183.943C2294.51 69.0497 2319.31 -39.8522 2319.31 -107.358L2319.31 -108.866C2319.54 -114.1 2319.66 -119.446 2319.66 -124.72Z" fill="#EDE9F6"/>
<path d="M1139.02 318.087C1139.02 295.684 1142.18 270.981 1148.41 244.678C1156.07 179.997 1175.01 110.355 1195.07 36.6216C1202.26 10.1868 1209.7 -17.1488 1216.82 -45.0054C1241.76 -146.558 1251.8 -243.057 1259.14 -313.517C1262.32 -380.31 1265.32 -443.359 1288.69 -496.806C1308.87 -545.815 1353.56 -590.429 1417.94 -625.846C1482.44 -661.331 1563.5 -685.801 1652.35 -696.612C1750.48 -711.923 1837.52 -706.6 1911.05 -680.786C1976.77 -657.773 2042.33 -612.313 2111.5 -541.812C2169.28 -484.769 2217.65 -413.542 2259.37 -324.056C2291.81 -253.68 2306.91 -192.716 2306.91 -132.198C2306.91 -121.823 2306.46 -111.29 2305.55 -100.89C2304.98 -36.2484 2280.61 67.93 2240.35 177.87C2198.61 291.838 2149.41 386.349 2105.37 437.169C2028.07 569.402 1952.36 557.362 1837.76 539.136C1791.12 531.716 1738.24 523.307 1675.63 522.59C1629.07 521.624 1587.09 521.406 1550.05 521.208C1365.16 520.23 1280.78 519.786 1185.54 434.022C1154.67 407.309 1139.02 368.301 1139.02 318.087ZM2308.07 -132.198C2308.07 -192.939 2292.92 -254.097 2260.39 -324.674C2218.59 -414.311 2170.14 -485.66 2112.26 -542.805C2042.97 -613.427 1977.26 -658.976 1911.38 -682.046C1837.69 -707.915 1750.49 -713.255 1652.21 -697.92C1563.25 -687.096 1482.06 -662.584 1417.44 -627.033C1352.82 -591.483 1307.95 -546.654 1287.65 -497.385C1264.19 -443.706 1261.18 -380.524 1257.99 -313.631C1250.66 -243.255 1240.62 -146.816 1215.72 -45.3677C1208.6 -17.5334 1201.16 9.79723 1193.97 36.232C1173.9 110.015 1154.94 179.714 1147.28 244.413C1141.04 270.751 1137.87 295.565 1137.87 318.087C1137.87 368.735 1153.67 408.096 1184.84 435.069C1280.38 521.096 1364.89 521.547 1550.05 522.528C1587.08 522.721 1629.05 522.942 1675.62 523.905C1738.16 524.627 1790.99 533.029 1837.6 540.441C1896.75 549.843 1943.46 557.278 1986.39 545.962C2032.8 533.731 2069.76 500.43 2106.25 438.002C2150.33 387.162 2199.62 292.493 2241.41 178.374C2281.72 68.2997 2306.13 -36.0797 2306.7 -100.818C2307.6 -111.2 2308.07 -121.779 2308.07 -132.198Z" fill="#EDE9F6"/>
<path d="M1162.21 309.061C1162.21 290.371 1164.23 270.133 1168.21 248.888C1171.19 170.008 1190.91 83.5874 1211.79 -7.88916C1214.63 -20.3118 1217.49 -32.8411 1220.34 -45.4945C1236.85 -122.596 1247.53 -194.705 1256.96 -258.324C1259.8 -277.463 1262.48 -295.54 1265.18 -312.831C1270.78 -382.323 1276.96 -439.412 1300.81 -489.378C1321.33 -536.396 1365 -579.51 1427.1 -614.073C1489.36 -648.719 1567.28 -673.177 1652.45 -684.801C1748.87 -702.654 1833.93 -699.965 1905.31 -676.802C1970.3 -655.943 2035.01 -612.55 2103.12 -544.137C2162.87 -486.641 2213.72 -411.1 2254.28 -319.604C2282.94 -254.191 2296.28 -197.018 2296.28 -139.688C2296.28 -124.181 2295.25 -108.397 2293.24 -92.771C2291.73 -30.4444 2267.57 69.1948 2228.59 173.841C2188.05 282.682 2140.41 373.407 2097.89 422.743C2022.51 551.048 1948.64 541.218 1836.84 526.327C1792.94 520.479 1743.18 513.855 1684.73 514.063C1640.83 513.666 1601.08 513.899 1566.01 514.115C1387.41 515.185 1305.9 515.671 1213.18 434.076C1179.36 406.246 1162.21 364.192 1162.21 309.061ZM2297.44 -139.688C2297.44 -197.233 2284.05 -254.588 2255.31 -320.199C2214.68 -411.857 2163.72 -487.537 2103.87 -545.137C2035.64 -613.674 1970.79 -657.159 1905.62 -678.07C1834.09 -701.282 1748.85 -703.989 1652.29 -686.106C1567.02 -674.47 1488.96 -649.967 1426.6 -615.257C1364.26 -580.564 1320.41 -537.247 1299.79 -489.988C1275.84 -439.821 1269.64 -382.596 1264.04 -313.007C1261.34 -295.769 1258.66 -277.689 1255.83 -258.545C1246.4 -194.948 1235.72 -122.864 1219.22 -45.8145C1216.37 -33.176 1213.51 -20.6442 1210.68 -8.22655C1189.78 83.3244 1170.05 169.807 1167.07 248.724C1163.08 269.94 1161.06 290.282 1161.06 309.061C1161.06 364.639 1178.37 407.053 1212.5 435.133C1305.5 516.996 1387.14 516.502 1566.01 515.425C1601.08 515.219 1640.82 514.976 1684.72 515.381C1743.12 515.177 1792.84 521.792 1836.7 527.639C1894.41 535.321 1939.98 541.387 1981.86 529.597C2027.14 516.849 2063.2 484.156 2098.77 423.574C2141.33 374.213 2189.05 283.35 2229.65 174.359C2268.68 69.5669 2292.88 -30.2484 2294.38 -92.6568C2296.41 -108.268 2297.44 -124.119 2297.44 -139.688Z" fill="#EDE9F6"/>
<path d="M1189.13 229.761C1189.13 146.713 1205.53 55.8235 1225.34 -45.8174C1232.95 -87.4272 1239.59 -126.907 1246.02 -165.085C1255.02 -218.581 1263.53 -269.112 1272.61 -312.232C1279.95 -375.456 1288.14 -431.837 1314.25 -482.194C1335.07 -527.27 1377.63 -568.92 1437.34 -602.663C1497.22 -636.502 1571.85 -660.966 1653.18 -673.419C1747.69 -693.868 1830.63 -693.806 1899.7 -673.24C1963.83 -654.545 2027.55 -613.176 2094.48 -546.769C2156.89 -487.977 2208.75 -410.086 2248.64 -315.246C2273.55 -255.277 2285.66 -200.204 2285.66 -146.892C2285.66 -126.365 2283.85 -105.384 2280.29 -84.5271C2275.33 37.0993 2180.43 303.253 2090.17 408.903C2016.81 533.452 1944.89 525.859 1836.02 514.371C1795.01 510.035 1748.53 505.129 1694.39 506.219C1653.34 506.363 1615.98 507.056 1583.02 507.659C1410.92 510.832 1332.37 512.285 1242.33 434.724C1205.18 405.656 1186.37 359.986 1186.37 298.984C1186.37 284.608 1187.45 269.318 1189.59 253.538C1189.29 245.737 1189.13 237.779 1189.13 229.761ZM2286.81 -146.892C2286.81 -200.405 2274.66 -255.662 2249.68 -315.817C2209.72 -410.833 2157.75 -488.876 2095.22 -547.777C2028.16 -614.314 1964.3 -655.774 1899.99 -674.516C1830.75 -695.135 1747.64 -695.202 1652.99 -674.72C1571.58 -662.255 1496.82 -637.748 1436.83 -603.848C1376.9 -569.98 1334.16 -528.134 1313.25 -482.84C1287.04 -432.294 1278.82 -375.776 1271.48 -312.472C1262.41 -269.39 1253.9 -218.844 1244.89 -165.336C1238.46 -127.157 1231.82 -87.688 1224.21 -46.098C1204.39 55.6124 1187.98 146.579 1187.98 229.761C1187.98 237.796 1188.14 245.774 1188.45 253.469C1186.3 269.184 1185.22 284.543 1185.22 298.984C1185.22 360.453 1204.2 406.483 1241.65 435.799C1285.27 473.364 1327.44 493.392 1382.64 502.745C1435.47 511.701 1497.37 510.564 1583.04 508.983C1616 508.374 1653.35 507.686 1694.4 507.535C1748.48 506.455 1794.93 511.356 1835.92 515.682C1892.11 521.609 1936.49 526.299 1977.25 513.996C2021.33 500.689 2056.43 468.537 2091.05 409.738C2132 361.814 2178.07 274.661 2217.38 170.699C2255.04 71.1161 2278.98 -24.2403 2281.44 -84.3732C2285 -105.215 2286.81 -126.278 2286.81 -146.892Z" fill="#EDE9F6"/>
<path d="M1205.69 183.279C1205.69 105.343 1217.53 23.3306 1229.11 -46.6136C1243.46 -140.359 1259.12 -238.042 1278.88 -311.688C1289.25 -378.546 1300.83 -429.113 1326.59 -474.804C1369.88 -562.962 1495.07 -634.502 1653.31 -661.533C1746.08 -684.587 1827 -687.158 1893.87 -669.18C1957.23 -652.708 2020.03 -613.427 2085.91 -549.098C2150.17 -489.956 2204.59 -407.604 2243.29 -310.941C2265.3 -255.275 2275.99 -203.909 2275.99 -153.916C2275.99 -128.271 2273.28 -103.011 2267.7 -76.6968C2264.29 -18.962 2240.6 71.6151 2204.31 165.715C2166.28 264.343 2121.88 347.512 2082.5 393.896C2011.03 514.561 1940.89 509.276 1834.72 501.282C1796.59 498.404 1753.37 495.146 1703.52 497.049C1665.37 497.727 1630.45 498.848 1599.63 499.848C1438.64 505.011 1357.83 507.606 1270.25 434.168C1229.82 404.185 1208.46 352.968 1208.46 286.048C1208.46 276.764 1208.87 267.085 1209.68 257.262C1207.03 234.104 1205.69 209.263 1205.69 183.279ZM2277.15 -153.916C2277.15 -204.103 2266.42 -255.643 2244.34 -311.489C2205.56 -408.341 2151.03 -490.857 2086.64 -550.113C2020.64 -614.571 1957.66 -653.946 1894.14 -670.465C1827.09 -688.485 1746 -685.92 1653.11 -662.831C1494.55 -635.745 1369.04 -563.955 1325.6 -475.484C1296.96 -424.679 1286.26 -366.862 1277.76 -311.998C1258 -238.354 1242.33 -140.629 1227.98 -46.8468C1216.39 23.1471 1204.54 105.229 1204.54 183.279C1204.54 209.313 1205.89 234.218 1208.54 257.285C1207.72 267 1207.31 276.719 1207.31 286.048C1207.31 353.444 1228.85 405.038 1269.59 435.255C1357.47 508.934 1438.41 506.336 1599.67 501.158C1630.48 500.168 1665.4 499.049 1703.55 498.371C1753.34 496.466 1796.54 499.721 1834.64 502.592C1889.44 506.72 1932.72 509.983 1972.47 497.156C2015.44 483.287 2049.65 451.695 2083.39 394.722C2122.8 348.323 2167.28 265.011 2205.37 166.246C2241.7 72.017 2265.43 -18.7263 2268.84 -76.4958C2274.42 -102.803 2277.15 -128.164 2277.15 -153.916Z" fill="#EDE9F6"/>
<path d="M1219.22 133.094C1219.22 80.6973 1223.8 21.6784 1233.23 -47.3295C1247.27 -160.807 1264.37 -247.143 1285.5 -311.285C1297.49 -371.984 1311.21 -421.763 1339.29 -467.689C1383.16 -551.604 1503.67 -621.475 1653.83 -650.073C1744.84 -675.787 1823.76 -680.99 1888.43 -665.545C1950.98 -651.298 2012.9 -614.074 2077.73 -551.753C2162.4 -475.5 2211.81 -376.445 2238.36 -306.775C2257.83 -255.008 2267.3 -207.08 2267.3 -160.259C2267.3 -130.061 2263.44 -100.15 2255.51 -68.8187C2246.6 44.0707 2157.59 281.585 2075.24 379.315C2005.58 496.281 1937.15 493.363 1833.57 488.941C1798.39 487.44 1758.52 485.738 1713.03 488.393C1677.92 489.572 1645.55 491.1 1616.98 492.452C1461.69 499.801 1383.75 503.488 1298.54 434.069C1253.69 402.57 1229.99 346.261 1229.99 271.199C1229.99 267.941 1230.04 264.604 1230.13 261.28C1222.79 221.978 1219.22 180.097 1219.22 133.094ZM2268.45 -160.259C2268.45 -207.266 2258.95 -255.363 2239.42 -307.301C2212.81 -377.113 2163.29 -476.363 2078.45 -552.772C2013.49 -615.23 1951.41 -652.546 1888.66 -666.835C1823.82 -682.322 1744.73 -677.117 1653.59 -651.365C1503.16 -622.713 1382.33 -552.601 1338.33 -468.406C1310.16 -422.344 1296.39 -372.428 1284.4 -311.663C1263.26 -247.515 1246.15 -161.087 1232.09 -47.5305C1222.66 21.5394 1218.07 80.6253 1218.07 133.094C1218.07 180.193 1221.64 222.162 1228.99 261.401C1228.89 264.575 1228.84 267.926 1228.84 271.199C1228.84 346.742 1252.72 403.444 1297.91 435.163C1383.4 504.823 1461.48 501.131 1617.03 493.772C1645.59 492.422 1677.96 490.887 1713.07 489.703C1758.53 487.058 1798.37 488.758 1833.53 490.259C1937.49 494.695 2006.17 497.62 2076.13 380.144C2158.56 282.327 2247.73 44.3958 2256.65 -68.5804C2264.57 -99.9023 2268.45 -129.934 2268.45 -160.259Z" fill="#EDE9F6"/>
<path d="M1230.82 83.7443C1230.82 42.6586 1233.3 -0.359393 1238.4 -47.7484C1248.71 -156.201 1267.11 -244.711 1293.1 -310.828C1304.99 -359.668 1320.44 -411.55 1352.89 -460.662C1397.26 -540.432 1512.93 -608.703 1654.77 -638.874C1745.16 -667.718 1819.81 -675.342 1883.07 -662.189C1944.72 -650.184 2005.65 -614.982 2069.35 -554.579C2138.04 -493.835 2196.14 -404.332 2232.98 -302.546C2250.22 -254.28 2258.6 -209.489 2258.6 -165.616C2258.6 -131.142 2253.46 -96.8089 2242.86 -60.6481C2231.97 47.7424 2147.36 269.995 2067.77 365.439C1999.96 478.911 1933.26 478.436 1832.29 477.716C1800.21 477.488 1763.86 477.229 1722.88 480.542C1691.01 482.189 1661.38 484.089 1635.23 485.775C1485.65 495.416 1410.57 500.252 1327.79 434.725C1267.85 394.869 1253.3 320.928 1251.63 265.914L1251.61 265.748C1237.62 211.206 1230.82 151.67 1230.82 83.7443ZM2259.75 -165.616C2259.75 -209.665 2251.34 -254.618 2234.05 -303.05C2197.13 -405.048 2138.9 -494.742 2070.07 -555.609C2006.22 -616.154 1945.12 -651.443 1883.27 -663.491C1819.85 -676.673 1745.01 -669.044 1654.51 -640.158C1512.42 -609.935 1396.46 -541.44 1351.94 -461.417C1319.4 -412.171 1303.91 -360.15 1292.02 -311.275C1266.01 -245.123 1247.57 -156.482 1237.26 -47.9049C1232.15 -0.468638 1229.67 42.594 1229.67 83.7443C1229.67 151.769 1236.48 211.4 1250.49 266.044C1252.17 321.383 1266.85 395.726 1327.17 435.843C1410.24 501.593 1485.46 496.748 1635.29 487.096C1661.44 485.413 1691.07 483.5 1722.94 481.864C1763.9 478.545 1800.22 478.806 1832.28 479.04C1933.62 479.752 2000.56 480.232 2068.67 366.266C2148.33 270.732 2233.08 48.0876 2243.98 -60.3625C2254.58 -96.5234 2259.75 -131 2259.75 -165.616Z" fill="#EDE9F6"/>
<path d="M1238.55 38.6826C1238.55 10.6163 1239.76 -18.761 1242.14 -48.6423C1249.24 -154.293 1269.03 -244.843 1299.36 -310.518C1317.28 -371.291 1336.98 -414.051 1365.27 -453.59C1387.41 -490.774 1425.75 -526.438 1476.19 -556.768C1526.93 -587.28 1588.79 -611.704 1655.08 -627.396C1743.73 -659.023 1816.47 -669.205 1877.52 -658.536C1938.35 -648.808 1998.42 -615.677 2061.14 -557.25C2132.59 -495.335 2191.87 -403.439 2228.08 -298.471C2243.41 -253.429 2250.87 -211.566 2250.87 -170.486C2250.87 -132.079 2244.28 -93.6293 2230.71 -52.9327C2217.64 51.9213 2136.54 258.605 2060.47 350.548C1994.28 460.517 1929.06 462.59 1830.33 465.726C1801.42 466.647 1768.66 467.685 1732.22 471.541C1703.71 473.587 1678.09 475.727 1653.31 477.798C1508.9 489.852 1436.41 495.905 1355.76 434.3C1295.1 396.285 1276.58 323.79 1271.72 269.671L1271.69 269.505C1249.7 201.675 1238.55 124.016 1238.55 38.6826ZM2252.02 -170.486C2252.02 -211.732 2244.54 -253.754 2229.15 -298.952C2192.87 -404.147 2133.46 -496.244 2061.85 -558.288C1998.98 -616.856 1938.73 -650.079 1877.69 -659.842C1816.47 -670.541 1743.56 -660.346 1654.79 -628.675C1588.45 -612.971 1526.49 -588.504 1475.66 -557.933C1425.05 -527.505 1386.56 -491.695 1364.34 -454.377C1335.99 -414.753 1316.23 -371.872 1298.31 -311.037C1267.94 -245.3 1248.11 -154.571 1240.99 -48.7515C1238.61 -18.8454 1237.4 10.5766 1237.4 38.6826C1237.4 124.138 1248.56 201.926 1270.58 269.89C1275.48 324.314 1294.14 397.181 1355.16 435.422C1436.1 497.251 1508.72 491.19 1653.4 479.113C1678.17 477.043 1703.79 474.902 1732.31 472.854C1768.73 469.001 1801.47 467.963 1830.37 467.047C1929.44 463.898 1994.89 461.818 2061.36 351.377C2096.11 309.385 2135.79 237.364 2170.16 153.87C2202.43 75.4613 2225.48 -1.726 2231.82 -52.6099C2245.41 -93.3115 2252.02 -131.915 2252.02 -170.486Z" fill="#EDE9F6"/>
<path d="M1245.31 1.8672C1245.31 -14.7631 1245.77 -31.8055 1246.65 -48.7909C1250.87 -154.2 1271.51 -244.371 1306.33 -309.576C1325.6 -364.458 1347.78 -406.487 1378.28 -445.946C1424.52 -518.429 1528.21 -581.771 1655.7 -615.432C1742.51 -649.902 1813.25 -662.643 1872.02 -654.401C1931.96 -646.969 1991.09 -615.891 2052.77 -559.395C2126.93 -496.293 2187.32 -401.96 2222.84 -293.76C2236.5 -251.615 2243.14 -212.397 2243.14 -173.864C2243.14 -131.781 2234.99 -89.4589 2218.22 -44.4725C2203.23 54.589 2124.09 249.784 2053.02 336.583C1988.4 443.273 1924.57 448.029 1827.97 455.208C1802.43 457.11 1773.48 459.258 1741.78 463.519C1716.89 465.878 1694.24 468.265 1672.34 470.574C1537.33 484.783 1462.97 492.613 1384.39 434.825C1323.12 398.659 1300.63 327.577 1292.55 274.306C1261.19 193.67 1245.31 102.061 1245.31 1.8672ZM2244.29 -173.864C2244.29 -212.553 2237.63 -251.925 2223.92 -294.22C2188.32 -402.658 2127.79 -497.2 2053.48 -560.438C1991.63 -617.083 1932.31 -648.253 1872.15 -655.71C1813.21 -663.979 1742.3 -651.218 1655.38 -616.696C1527.69 -582.986 1423.75 -519.457 1377.38 -446.773C1346.82 -407.244 1324.59 -365.096 1305.31 -310.167C1270.42 -244.875 1249.73 -154.483 1245.5 -48.8654C1244.61 -31.8552 1244.16 -14.7804 1244.16 1.8672C1244.16 102.247 1260.07 194.033 1291.46 274.691C1299.54 328.096 1322.17 399.583 1383.81 435.968C1462.68 493.966 1537.18 486.124 1672.44 471.888C1694.34 469.581 1716.99 467.197 1741.9 464.825C1773.58 460.569 1802.51 458.421 1828.05 456.526C1924.98 449.315 1989.02 444.55 2053.91 337.41C2087.58 296.293 2124.66 229.801 2158.27 150.253C2189.15 77.1492 2211.97 4.48954 2219.31 -44.105C2236.11 -89.1088 2244.29 -131.6 2244.29 -173.864Z" fill="#EDE9F6"/>
<path d="M1251.11 -28.371C1251.11 -35.491 1251.2 -42.7203 1251.38 -49.8552C1252.8 -155.467 1274.28 -245.2 1313.49 -309.355C1333.76 -358.342 1358.51 -399.481 1391.44 -438.925C1438.25 -507.187 1537.26 -568.863 1656.31 -603.951C1742.42 -641.82 1809.16 -656.675 1866.4 -650.722C1925.41 -645.614 1983.56 -616.613 2044.19 -562.065C2119.9 -498.759 2182.99 -399.521 2217.3 -289.779C2229.49 -250.288 2235.41 -213.502 2235.41 -177.323C2235.41 -131.201 2225.88 -86.5944 2205.42 -36.9379C2188.46 56.8484 2113.31 237.504 2045.35 321.401C1982.15 424.995 1919.56 432.577 1824.8 444.055C1802.87 446.715 1778.02 449.728 1751.29 454.18C1730.28 456.741 1710.89 459.263 1692.14 461.71C1561.67 478.709 1489.8 488.08 1413.15 434.063C1351.34 399.796 1324.88 330.162 1313.56 277.778C1272.69 187.299 1251.11 81.4745 1251.11 -28.371ZM2236.56 -177.323C2236.56 -213.655 2230.62 -250.586 2218.38 -290.221C2184 -400.208 2120.76 -499.673 2044.88 -563.117C1984.09 -617.817 1925.73 -646.907 1866.5 -652.035C1809.09 -658.008 1742.18 -643.128 1655.96 -605.205C1536.73 -570.069 1437.5 -508.222 1390.57 -439.786C1357.59 -400.29 1332.78 -359.039 1312.5 -310.018C1273.21 -245.739 1251.65 -155.752 1250.23 -49.8874C1250.05 -42.7476 1249.96 -35.5059 1249.96 -28.371C1249.96 81.6904 1271.58 187.711 1312.49 278.234C1323.82 330.755 1350.44 400.761 1412.59 435.222C1489.54 489.438 1561.55 480.057 1692.27 463.02C1711.01 460.575 1730.4 458.046 1751.43 455.49C1778.16 451.038 1803.01 448.025 1824.92 445.367C1873.9 439.434 1912.59 434.751 1947.93 418.431C1986.09 400.811 2016.41 371.144 2046.25 322.23C2078.31 282.647 2113.8 219.887 2146.12 145.567C2175.57 77.8238 2198.14 9.75548 2206.5 -36.5185C2226.99 -86.2122 2236.56 -131 2236.56 -177.323Z" fill="#EDE9F6"/>
<path d="M1254.98 -59.031C1254.98 -161.357 1277.35 -247.678 1319.68 -308.658C1341.15 -352.949 1367.07 -390.801 1403.77 -431.474C1451.29 -495.613 1545.78 -555.646 1656.59 -592.116C1740.94 -632.972 1805.82 -650.305 1860.82 -646.698C1918.17 -643.966 1977.09 -616.262 2035.96 -564.35C2114.44 -499.908 2178.75 -398.209 2212.4 -285.316C2223.33 -248.213 2228.64 -213.622 2228.64 -179.568C2228.64 -130.184 2217.4 -82.2815 2193.26 -28.8234C2173.64 62.8116 2103.11 225.791 2038.04 306.961C1975.91 407.85 1917.43 417.929 1820.54 434.629C1801.64 437.889 1782.1 441.256 1760.62 445.625C1743.78 448.196 1727.97 450.719 1712.68 453.146C1586.03 473.322 1516.26 484.432 1441.13 434.066C1378.72 401.697 1348.22 333.476 1333.61 281.941C1282.39 182.153 1255.24 67.2925 1255.03 -50.3471C1255 -53.2649 1254.98 -56.1504 1254.98 -59.031ZM2229.8 -179.568C2229.8 -213.768 2224.46 -248.499 2213.5 -285.738C2179.77 -398.889 2115.31 -500.823 2036.65 -565.407C1977.6 -617.473 1918.46 -645.271 1860.88 -648.013C1805.7 -651.633 1740.66 -634.267 1656.2 -593.356C1545.26 -556.847 1450.55 -496.655 1402.93 -432.374C1366.18 -391.654 1340.2 -353.708 1318.73 -309.39C1276.29 -248.263 1253.82 -161.66 1253.82 -59.031C1253.82 -56.1454 1253.84 -53.2549 1253.88 -50.3371C1254.09 67.5307 1281.3 182.62 1332.57 282.48C1347.2 334.141 1377.86 402.697 1440.6 435.232C1516.03 485.8 1585.93 474.662 1712.84 454.458C1728.13 452.019 1743.94 449.503 1760.8 446.928C1782.29 442.554 1801.82 439.194 1820.71 435.934C1869.12 427.59 1907.36 420.998 1942.19 403.677C1979.76 385.004 2009.6 355.432 2038.93 307.782C2069.45 269.724 2103.41 210.661 2134.49 141.54C2162.55 79.1473 2184.92 15.6283 2194.33 -28.3644C2218.51 -81.8696 2229.8 -129.966 2229.8 -179.568Z" fill="#EDE9F6"/>
<path d="M1258.84 -73.7179C1258.84 -170.486 1282.21 -251.542 1326.41 -308.12C1348.24 -346.85 1376.03 -382.664 1416.59 -424.324C1464.84 -484.501 1554.75 -542.967 1657.11 -580.763C1740.76 -625.326 1801.87 -644.583 1855.32 -643.229C1911.76 -642.822 1969.74 -617.205 2027.66 -567.094C2108.86 -501.446 2174.34 -397.167 2207.31 -280.976C2217.12 -246.008 2221.88 -213.376 2221.88 -181.222C2221.88 -128.672 2208.85 -77.6094 2180.89 -20.5269C2159.33 65.2868 2092.36 215.092 2030.64 293.083C1969.27 391.93 1911.11 405.241 1814.76 427.307C1800.56 430.565 1785.86 433.923 1770.13 437.8C1757.91 440.119 1746.16 442.399 1734.86 444.589C1611.47 468.523 1543.5 481.702 1469.57 434.787C1406.68 404.303 1372.13 337.41 1354.2 286.666C1295.4 183.805 1262.59 67.1966 1259.28 -50.6861C1258.99 -58.4097 1258.84 -66.1582 1258.84 -73.7179ZM2223.03 -181.222C2223.03 -213.515 2218.25 -246.277 2208.4 -281.383C2175.36 -397.84 2109.73 -502.364 2028.34 -568.159C1970.24 -618.432 1912.02 -644.138 1855.34 -644.548C1801.71 -645.904 1740.45 -626.61 1656.69 -581.989C1554.21 -544.154 1464.12 -485.554 1415.78 -425.26C1375.18 -383.565 1347.33 -347.669 1325.5 -308.917C1281.16 -252.175 1257.69 -170.816 1257.69 -73.7179C1257.69 -66.1383 1257.84 -58.3725 1258.13 -50.6291C1261.45 67.4772 1294.32 184.329 1353.19 287.269C1371.14 338.141 1405.87 405.336 1469.07 435.972C1543.29 483.086 1611.41 469.874 1735.05 445.893C1746.36 443.703 1758.1 441.423 1770.34 439.096C1786.1 435.214 1800.79 431.852 1814.99 428.603C1863.22 417.554 1901.3 408.84 1935.84 390.298C1973.04 370.319 2002.56 340.594 2031.54 293.905C2093.31 215.847 2160.4 65.791 2181.95 -20.0228C2209.96 -77.1699 2223.03 -128.439 2223.03 -181.222Z" fill="#EDE9F6"/>
<path d="M1262.71 -85.2692C1262.71 -177.851 1287.14 -254.708 1333.37 -307.535C1359.03 -346.805 1390.39 -379.681 1429.59 -416.983C1479.43 -474.113 1562.57 -529.519 1657.72 -569.04C1712.77 -601.184 1784.28 -638.188 1849.79 -639.317C1905.29 -641.257 1962.3 -617.763 2019.25 -569.49C2101.91 -503.699 2170.23 -394.219 2202.01 -276.617C2210.83 -243.631 2215.12 -212.825 2215.12 -182.444C2215.12 -126.161 2200.7 -73.7484 2168.34 -12.5067C2144.46 68.8543 2080.45 205.148 2023.15 278.544C1961.95 376.123 1903.36 393.149 1806.29 421.36C1797.71 423.86 1788.84 426.435 1779.66 429.156C1772.64 430.802 1765.76 432.431 1759.04 434.01C1642.02 461.623 1571.39 478.284 1498.18 434.701C1434.9 406.144 1396.28 340.659 1375.02 290.745C1309.56 186.652 1270.08 65.2194 1263.79 -51.2727C1263.07 -62.739 1262.71 -74.1779 1262.71 -85.2692ZM2216.27 -182.444C2216.27 -212.959 2211.97 -243.892 2203.12 -277.004C2188.21 -332.143 2164.7 -387.217 2135.1 -436.285C2102.3 -490.661 2063.56 -535.838 2019.92 -570.56C1962.77 -619.005 1905.52 -642.585 1849.77 -640.638C1784.03 -639.504 1712.35 -602.426 1657.26 -570.25C1562.02 -530.696 1478.74 -475.175 1428.81 -417.958C1389.59 -380.635 1358.18 -347.699 1332.51 -308.396C1286.11 -255.388 1261.56 -178.208 1261.56 -85.2692C1261.56 -74.1481 1261.92 -62.6769 1262.64 -51.1834C1265.77 6.9025 1276.86 65.7358 1295.58 123.675C1314.55 182.384 1340.95 238.819 1374.03 291.42C1395.33 341.446 1434.13 407.217 1497.7 435.897C1571.23 479.672 1642.01 462.974 1759.27 435.309C1765.99 433.715 1772.87 432.096 1779.91 430.445C1789.13 427.709 1798 425.136 1806.58 422.641C1903.9 394.358 1962.65 377.285 2024.05 279.368C2081.4 205.898 2145.51 69.4006 2169.39 -11.9554C2201.79 -73.2865 2216.27 -125.905 2216.27 -182.444Z" fill="#EDE9F6"/>
<path d="M1266.57 -95.1162C1266.57 -184.494 1292.13 -257.939 1340.48 -307.504C1369.02 -345.276 1404.81 -376.82 1442.69 -410.213C1493.68 -463.665 1572.28 -517.483 1658.35 -557.899C1715.42 -594.358 1782.09 -632.118 1844.23 -635.989C1898.74 -640.291 1954.77 -618.919 2010.75 -572.46C2096.04 -505.559 2165.5 -393.545 2196.56 -272.812C2204.49 -241.646 2208.35 -212.515 2208.35 -183.749C2208.35 -124.562 2192.1 -69.4389 2155.66 -5.02585C2129.51 71.4079 2070 192.677 2015.55 263.495C1953.47 361.406 1892.99 382.977 1792.78 418.718L1789.15 420.017L1786.17 420.878C1670.17 454.391 1600.16 474.624 1526.84 434.098C1463.26 407.492 1420.57 343.399 1395.93 294.314C1323.01 187.657 1277.76 64.5535 1268.46 -52.3985C1267.21 -66.8843 1266.57 -81.2535 1266.57 -95.1162ZM2209.5 -183.749C2209.5 -212.642 2205.63 -241.894 2197.66 -273.184C2166.53 -394.2 2096.9 -506.482 2011.41 -573.539C1955.21 -620.17 1898.94 -641.627 1844.16 -637.307C1781.78 -633.422 1714.98 -595.582 1657.85 -559.086C1571.72 -518.647 1493 -464.738 1441.95 -411.221C1404.06 -377.823 1368.23 -346.242 1339.66 -308.43C1291.11 -258.664 1265.42 -184.881 1265.42 -95.1162C1265.42 -81.2113 1266.06 -66.7975 1267.32 -52.2719C1276.63 64.9258 1321.97 188.275 1394.98 295.049C1419.66 344.243 1462.54 408.592 1526.39 435.314C1600.03 476.019 1670.2 455.744 1786.45 422.154L1789.46 421.283L1793.12 419.975C1893.56 384.154 1954.18 362.533 2016.45 264.322C2070.94 193.432 2130.55 71.9962 2156.68 -4.43005C2193.19 -68.9449 2209.5 -124.289 2209.5 -183.749Z" fill="#EDE9F6"/>
<path d="M1269.47 -102.355C1269.47 -189.169 1296.21 -259.705 1346.79 -306.346C1372.17 -335.349 1403.15 -360.336 1435.95 -386.791C1442.22 -391.843 1448.59 -396.986 1455.07 -402.263C1507.97 -452.598 1582.08 -504.804 1658.43 -545.513C1714.14 -584.334 1779.03 -624.862 1838.25 -631.374C1891.81 -638.048 1946.89 -618.805 2001.96 -574.169C2089.94 -506.194 2160.6 -391.699 2190.95 -267.895C2198.11 -238.415 2201.59 -210.833 2201.59 -183.579C2201.59 -121.593 2183.45 -63.9113 2142.78 3.43893C2114.6 74.1584 2059.18 181.262 2007.67 249.322C1947.65 342.684 1888.49 372.933 1798.18 411.669C1693.5 449.021 1625.73 470.105 1554.84 434.289C1490.99 409.639 1444.15 346.966 1416.09 298.727C1335.64 189.683 1284.58 64.9712 1272.29 -52.5134C1270.42 -69.4986 1269.47 -86.2679 1269.47 -102.355ZM2202.74 -183.579C2202.74 -210.955 2199.25 -238.648 2192.06 -268.25C2161.63 -392.351 2090.81 -507.114 2002.61 -575.251C1947.31 -620.071 1891.97 -639.398 1838.14 -632.687C1778.68 -626.149 1713.66 -585.537 1657.88 -546.677C1581.51 -505.953 1507.31 -453.685 1454.36 -403.305C1447.93 -398.06 1441.55 -392.919 1435.29 -387.87C1402.45 -361.38 1371.43 -336.362 1346.02 -307.328C1321.61 -284.825 1302.51 -256.308 1289.29 -222.611C1275.38 -187.14 1268.32 -146.679 1268.32 -102.355C1268.32 -86.2134 1269.27 -69.3919 1271.15 -52.3522C1283.46 65.3805 1334.61 190.341 1415.17 299.519C1443.29 347.864 1490.31 410.766 1554.42 435.517C1625.64 471.504 1693.59 450.371 1798.55 412.914C1889.09 374.089 1948.39 343.76 2008.57 250.141C2060.12 182.031 2115.62 74.7911 2143.78 4.08645C2184.54 -63.3978 2202.74 -121.308 2202.74 -183.579Z" fill="#EDE9F6"/>
<path d="M1273.34 -109.288C1273.34 -194.148 1301.28 -262.287 1354.14 -306.327C1377.32 -329.209 1404.65 -349.004 1433.58 -369.964C1444.89 -378.156 1456.58 -386.628 1468.46 -395.592C1509.55 -430.882 1576.02 -483.626 1659.48 -534.619C1716.54 -577.994 1777.05 -619.347 1833.21 -628.371C1885.78 -637.451 1939.9 -620.303 1994.05 -577.405C2084.73 -508.261 2156.55 -391.128 2186.18 -264.057C2192.56 -236.485 2195.79 -209.548 2195.79 -184.005C2195.79 -119.203 2175.73 -58.9953 2130.77 11.2194C2103.17 70.7245 2052.58 164.916 2000.68 234.813C1943.89 321.895 1889.21 361.183 1808.13 403.229C1710.03 446.905 1648.39 463.72 1583.82 434.41C1519.79 411.682 1468.79 350.347 1437.28 302.887C1349.31 191.406 1292.46 64.8966 1277.18 -53.3885C1274.63 -72.5382 1273.34 -91.3452 1273.34 -109.288ZM2196.94 -184.005C2196.94 -209.663 2193.7 -236.711 2187.3 -264.395C2173.55 -323.341 2149.64 -382.621 2118.17 -435.829C2083.95 -493.662 2041.25 -542.997 1994.7 -578.495C1940.3 -621.587 1885.91 -638.81 1833.04 -629.677C1776.67 -620.616 1716.02 -579.181 1658.89 -535.751C1575.41 -484.751 1508.89 -431.965 1467.8 -396.67C1455.95 -387.736 1444.27 -379.268 1432.96 -371.077C1403.99 -350.094 1376.63 -330.274 1353.42 -307.363C1327.92 -286.112 1307.95 -258.821 1294.13 -226.272C1279.57 -191.99 1272.18 -152.633 1272.18 -109.288C1272.18 -91.2781 1273.48 -72.4066 1276.04 -53.1948C1291.35 65.346 1348.3 192.099 1436.39 303.729C1467.98 351.295 1519.16 412.839 1583.44 435.646C1615.47 450.197 1648.45 453.733 1687.17 446.763C1726.07 439.756 1768.51 422.285 1808.58 404.446C1889.85 362.293 1944.67 322.911 2001.57 235.63C2053.51 165.693 2104.16 71.4024 2131.73 11.9172C2176.82 -58.454 2196.94 -118.905 2196.94 -184.005Z" fill="#EDE9F6"/>
<path d="M1276.23 -114.874C1276.23 -198.024 1305.4 -263.95 1360.57 -305.529C1382.13 -323.829 1406.93 -339.711 1433.19 -356.525C1448.67 -366.438 1464.68 -376.689 1480.91 -388.002C1491.68 -396.262 1502.9 -404.942 1514.54 -413.952C1557.85 -447.476 1606.94 -485.469 1659.56 -522.596C1723.79 -575.731 1776.86 -613.312 1827.16 -624.099C1878.72 -635.581 1931.86 -620.561 1985.11 -579.448C2077.06 -510.294 2151.87 -387.696 2180.35 -259.499C2186.1 -233.357 2189.02 -207.793 2189.02 -183.522C2189.02 -115.144 2167.69 -54.4858 2117.69 19.3068C2103.13 46.1682 2051.19 139.864 1992.64 220.27C1941.18 297.79 1890.32 348.262 1817.08 394.513C1751.54 431.392 1681.29 461.735 1611.83 434.198C1561.08 417.756 1507.73 373.748 1457.52 306.916C1362.06 193.25 1299.44 65.1238 1281.16 -53.868C1277.89 -74.8682 1276.23 -95.3921 1276.23 -114.874ZM2190.18 -183.522C2190.18 -207.9 2187.24 -233.573 2181.46 -259.821C2168.09 -319.996 2144.06 -380.632 2111.96 -435.183C2077.12 -494.385 2033.48 -544.649 1985.75 -580.545C1932.24 -621.856 1878.81 -636.945 1826.94 -625.392C1776.44 -614.565 1723.25 -576.905 1658.92 -523.693C1606.32 -486.579 1557.21 -448.576 1513.89 -415.044C1502.25 -406.037 1491.04 -397.359 1480.3 -389.113C1464.1 -377.83 1448.1 -367.584 1432.63 -357.676C1406.33 -340.837 1381.5 -324.936 1359.91 -306.608C1333.29 -286.546 1312.46 -260.394 1298.01 -228.893C1282.8 -195.706 1275.08 -157.346 1275.08 -114.874C1275.08 -95.3152 1276.75 -74.7119 1280.03 -53.6371C1298.34 65.6077 1361.07 193.974 1456.67 307.8C1507 374.8 1560.54 418.96 1611.49 435.456C1642 447.551 1674.03 449.556 1709.38 441.553C1739.86 434.66 1774.25 420.086 1817.61 395.682C1891.03 349.319 1941.99 298.745 1993.55 221.089C2052.12 140.646 2104.09 46.8803 2118.63 20.0586C2168.77 -53.9251 2190.18 -114.829 2190.18 -183.522Z" fill="#EDE9F6"/>
<path d="M1278.65 -120.393C1278.65 -201.027 1309.91 -266.778 1366.65 -305.532C1386.95 -320.282 1409.9 -333.108 1434.19 -346.689C1453.35 -357.403 1473.17 -368.482 1493.13 -381.298C1541.07 -413.817 1592.88 -456.583 1647.74 -501.854L1659.56 -511.607C1712.31 -559.06 1768.22 -606.577 1821.17 -620.962C1871.75 -634.876 1923.97 -621.962 1976.38 -582.577C2071.05 -512.309 2147.11 -387.055 2174.89 -255.691C2180.1 -230.853 2182.75 -206.543 2182.75 -183.435C2182.75 -94.0406 2143.41 -26.9229 2104.94 26.9367C2082.86 61.6301 2037.94 130.917 1984.82 205.485C1942.56 267.814 1894.09 332.78 1826.09 385.741C1755.2 437.364 1695.98 452.69 1639.72 433.961C1588.19 418.833 1533.61 377.393 1477.5 310.786C1374.47 194.893 1306.02 65.031 1284.73 -54.879C1280.7 -77.5355 1278.65 -99.5763 1278.65 -120.393ZM2183.9 -183.435C2183.9 -206.645 2181.24 -231.061 2176.01 -256.002C2148.16 -387.68 2071.92 -513.24 1977.01 -583.682C1924.33 -623.273 1871.8 -636.248 1820.9 -622.248C1767.73 -607.798 1711.7 -560.189 1658.87 -512.664L1647.07 -502.926C1592.23 -457.668 1540.44 -414.924 1492.55 -382.443C1472.64 -369.649 1452.84 -358.58 1433.69 -347.876C1409.36 -334.275 1386.39 -321.434 1366.05 -306.654C1338.27 -287.681 1316.53 -262.545 1301.45 -231.948C1285.56 -199.704 1277.5 -162.174 1277.5 -120.393C1277.5 -99.4919 1279.55 -77.3592 1283.6 -54.6184C1304.94 65.5448 1373.51 195.65 1476.68 311.717C1532.93 378.487 1587.69 420.052 1639.42 435.239C1696 454.068 1755.52 438.694 1826.72 386.841C1894.87 333.768 1943.42 268.713 1985.72 206.307C2038.85 131.724 2083.78 62.417 2105.84 27.746C2144.43 -26.2675 2183.9 -93.6211 2183.9 -183.435Z" fill="#EDE9F6"/>
<path d="M1282.03 -124.316C1282.03 -203.81 1314.6 -267.762 1373.73 -304.392C1392.99 -316.275 1414.45 -326.617 1437.18 -337.567C1459.74 -348.435 1483.07 -359.675 1506.33 -373.425C1551.45 -400.106 1597.56 -437.784 1660.52 -499.409C1713.95 -551.654 1766.07 -599.924 1816.11 -616.574C1865.7 -632.923 1916.98 -622.122 1968.56 -584.466C2065.94 -513.112 2143.25 -385.241 2170.31 -250.755C2175.04 -227.15 2177.43 -204.021 2177.43 -182.007C2177.43 -89.2524 2134.78 -19.9537 2093.06 35.5974C2086.27 44.6334 2079.28 53.8679 2072.11 63.3308C2043.54 101.056 2011.16 143.81 1977.9 191.653C1970.03 202.986 1961.99 214.772 1954.22 226.174C1917.91 279.421 1880.36 334.478 1836.02 377.878C1783.73 429.023 1724.27 449.173 1668.6 434.613C1617.07 421.02 1559.84 380.979 1498.48 315.597C1387.9 197.559 1313.61 66.0068 1289.29 -54.8389C1284.48 -78.9728 1282.03 -102.35 1282.03 -124.316ZM2178.58 -182.007C2178.58 -204.118 2176.18 -227.348 2171.44 -251.05C2144.31 -385.862 2066.81 -514.045 1969.18 -585.578C1917.32 -623.447 1865.71 -634.3 1815.79 -617.84C1765.53 -601.116 1713.3 -552.751 1659.77 -500.412C1596.88 -438.856 1550.83 -401.228 1505.8 -374.599C1482.58 -360.872 1459.27 -349.641 1436.73 -338.781C1413.98 -327.821 1392.49 -317.467 1373.18 -305.549C1344.23 -287.613 1321.58 -263.43 1305.85 -233.659C1289.29 -202.286 1280.88 -165.499 1280.88 -124.316C1280.88 -102.25 1283.34 -78.7742 1288.17 -54.5435C1300.28 5.62986 1324.85 68.6853 1361.19 132.88C1397.24 196.559 1443.17 258.353 1497.7 316.563C1559.2 382.101 1616.61 422.251 1668.34 435.902C1724.37 450.555 1784.2 430.306 1836.77 378.879C1881.2 335.397 1918.78 280.283 1955.13 226.985C1962.9 215.586 1970.93 203.805 1978.81 192.483C2012.04 144.649 2044.41 101.91 2072.98 64.1922C2080.14 54.7367 2087.14 45.4923 2093.94 36.4588C2135.8 -19.281 2178.58 -88.8204 2178.58 -182.007Z" fill="#EDE9F6"/>
<path d="M1296.53 -126.041C1296.53 -205.186 1327.6 -268.143 1384.03 -303.316C1404.02 -315.785 1426.06 -326.326 1449.4 -337.482C1470.18 -347.414 1491.67 -357.684 1513.3 -370.092C1523.42 -375.945 1533.94 -382.584 1544.56 -389.825C1579.78 -413.836 1616.74 -444.722 1664.39 -489.968C1716.71 -539.495 1767.73 -585.238 1816.73 -600.797C1865.2 -616.07 1915.17 -605.368 1965.25 -568.991C2023.02 -527.097 2072.06 -465.972 2107.08 -392.228C2129.93 -345.147 2147 -293.175 2156.45 -241.917C2160.76 -219.354 2162.94 -197.178 2162.94 -176.012C2162.94 -119.141 2147.78 -66.4631 2115.22 -10.242C2106.25 5.14788 2095.83 21.0469 2083.37 38.3537C2073.66 52.0228 2063.61 65.9602 2052.98 80.7194C2029.14 113.806 2002.13 151.295 1974.46 191.98C1969.95 198.647 1965.44 205.371 1960.9 212.134C1930.01 258.128 1898.07 305.693 1861.63 346.177C1852.98 355.796 1844.29 364.792 1835.77 372.907C1784.67 421.825 1726.53 441.046 1672.06 427.037C1621.24 413.897 1565.18 375.357 1505.46 312.507C1465.07 270.662 1428.56 223.157 1396.92 171.311C1374.69 135.312 1355.28 97.6661 1339.23 59.4248C1323.15 21.0171 1311.87 -15.871 1303.73 -56.6749C1298.95 -80.676 1296.53 -104.017 1296.53 -126.041ZM2164.09 -176.012C2164.09 -197.272 2161.9 -219.543 2157.58 -242.196C2148.11 -293.575 2130.99 -345.676 2108.09 -392.862C2072.98 -466.799 2023.8 -528.093 1965.87 -570.106C1915.5 -606.691 1865.22 -617.443 1816.43 -602.068C1767.21 -586.44 1716.08 -540.608 1663.65 -490.984C1616.05 -445.783 1579.14 -414.933 1543.97 -390.957C1533.37 -383.734 1522.88 -377.109 1512.78 -371.269C1491.18 -358.884 1469.72 -348.624 1448.96 -338.701C1425.59 -327.53 1403.52 -316.977 1383.48 -304.473C1326.67 -269.06 1295.38 -205.69 1295.38 -126.041C1295.38 -103.917 1297.81 -80.4823 1302.6 -56.3869C1310.77 -15.4837 1322.08 21.5013 1338.19 59.9959C1354.27 98.3043 1373.71 136.009 1395.98 172.071C1427.66 223.991 1464.24 271.574 1504.68 313.485C1564.55 376.49 1620.78 415.128 1671.81 428.326C1726.63 442.422 1785.13 423.106 1836.52 373.922C1845.05 365.783 1853.77 356.767 1862.43 347.125C1898.93 306.577 1930.89 258.977 1961.81 212.939C1966.35 206.175 1970.87 199.449 1975.37 192.789C2003.03 152.119 2028.87 116.249 2053.87 81.5561C2064.5 66.7994 2074.55 52.8621 2084.26 39.1905C2096.75 21.8464 2107.19 5.91765 2116.17 -9.50949C2148.87 -65.959 2164.09 -118.865 2164.09 -176.012Z" fill="#EDE9F6"/>
<path d="M1311.02 -128.309C1311.02 -206.962 1340.58 -268.83 1394.24 -302.511C1414.98 -315.603 1437.61 -326.315 1461.56 -337.657C1480.51 -346.629 1500.11 -355.905 1520.03 -366.969C1529.87 -372.515 1540.13 -378.82 1550.55 -385.713C1585.12 -408.571 1621.3 -437.843 1667.85 -480.627C1718.99 -527.392 1768.86 -570.565 1816.77 -585.019C1864.07 -599.195 1912.66 -588.607 1961.21 -553.538C2018.48 -512.42 2065.48 -452.441 2097.14 -380.09C2118.02 -334.498 2132.99 -285.154 2141.63 -233.416C2145.51 -211.935 2147.47 -190.767 2147.47 -170.499C2147.47 -114.885 2133.22 -62.9977 2102.62 -7.19742C2094.21 7.96107 2084.45 23.5662 2072.79 40.5162C2059.44 60.4835 2045.23 81.2226 2030.18 103.173C2011.03 131.097 1991.24 159.968 1970.25 191.565L1968.03 194.942C1934.87 245.522 1900.58 297.816 1860.32 341.43C1851.86 350.616 1843.31 359.234 1834.93 367.023C1785.06 413.662 1728.31 431.945 1675.11 418.493C1625.04 405.816 1570.24 368.829 1512.2 308.57C1472.55 268.675 1437.92 222.684 1406.32 167.968C1385.51 132.772 1367.58 96.2396 1351.48 56.2876C1336.95 20.0303 1326.98 -14.4578 1318.16 -59.0226C1313.42 -82.893 1311.02 -106.203 1311.02 -128.309ZM2148.63 -170.499C2148.63 -190.856 2146.65 -212.111 2142.76 -233.674C2134.1 -285.529 2119.1 -334.997 2098.16 -380.691C2066.41 -453.247 2019.27 -513.41 1961.82 -554.657C1913 -589.922 1864.1 -600.569 1816.47 -586.294C1768.36 -571.776 1718.38 -528.511 1667.13 -481.654C1620.63 -438.915 1584.5 -409.678 1549.98 -386.854C1539.58 -379.976 1529.33 -373.686 1519.53 -368.153C1499.63 -357.108 1480.06 -347.838 1461.12 -338.875C1437.14 -327.523 1414.49 -316.794 1393.69 -303.668C1367.3 -287.105 1346.59 -263.624 1332.14 -233.873C1317.36 -203.454 1309.87 -167.936 1309.87 -128.309C1309.87 -106.106 1312.29 -82.6971 1317.04 -58.7298C1325.88 -14.0683 1335.87 20.4968 1350.44 56.8385C1366.56 96.8575 1384.52 133.45 1405.36 168.702C1437.01 223.512 1471.71 269.588 1511.44 309.553C1569.61 369.966 1624.6 407.057 1674.86 419.781C1728.41 433.322 1785.51 414.95 1835.65 368.045C1844.07 360.234 1852.63 351.599 1861.11 342.386C1901.44 298.699 1935.76 246.356 1968.95 195.729L1971.16 192.364C1992.14 160.782 2011.94 131.909 2031.08 103.986C2046.14 82.0315 2060.35 61.2949 2073.71 41.3226C2085.38 24.3503 2095.15 8.71044 2103.59 -6.49023C2134.32 -62.5114 2148.63 -114.627 2148.63 -170.499Z" fill="#EDE9F6"/>
<path d="M1325.52 -130.777C1325.52 -207.889 1354.33 -270.341 1404.56 -302.124C1426.15 -315.919 1449.39 -326.798 1474 -338.318C1491.13 -346.335 1508.84 -354.621 1527.02 -364.379C1536.58 -369.641 1546.61 -375.626 1556.83 -382.17C1590.78 -403.913 1626.22 -431.626 1671.73 -472.029C1721.74 -516.122 1770.51 -556.808 1817.39 -570.189C1863.58 -583.296 1910.85 -572.793 1957.9 -538.978C2014.74 -498.557 2059.76 -439.613 2088.1 -368.511C2106.74 -325.062 2120.08 -276.848 2127.77 -225.193C2131.23 -204.784 2132.98 -184.616 2132.98 -165.238C2132.98 -110.76 2119.62 -59.5278 2090.93 -3.99727C2083.06 10.9661 2073.95 26.3145 2063.1 42.92C2044.76 72.2429 2024.33 103.479 2002.72 136.548C1991.15 154.239 1979.19 172.532 1966.79 191.679C1934.99 241.798 1900.54 294.338 1859.65 337.489C1851.34 346.293 1842.94 354.539 1834.68 362.007C1786.01 406.457 1730.57 423.828 1678.58 410.912C1629.21 398.674 1575.59 363.164 1519.19 305.378C1479.9 266.972 1447.06 222.408 1415.84 165.111C1396.77 131.294 1379.74 94.7662 1363.79 53.4139C1348.93 14.6255 1341.11 -18.024 1332.62 -61.3165C1327.91 -85.1366 1325.52 -108.505 1325.52 -130.777ZM2134.13 -165.238C2134.13 -184.698 2132.37 -204.95 2128.9 -225.434C2121.19 -277.193 2107.82 -325.529 2089.14 -369.077C2060.72 -440.401 2015.55 -499.544 1958.51 -540.098C1911.19 -574.109 1863.61 -584.665 1817.11 -571.466C1770.02 -558.03 1721.14 -517.26 1671.03 -473.078C1625.56 -432.712 1590.17 -405.031 1556.27 -383.322C1546.07 -376.791 1536.06 -370.821 1526.52 -365.569C1508.38 -355.833 1490.68 -347.548 1473.57 -339.54C1448.92 -328.006 1425.64 -317.109 1404 -303.279C1353.39 -271.258 1324.37 -208.383 1324.37 -130.777C1324.37 -108.408 1326.77 -84.9403 1331.49 -61.0258C1340 -17.6588 1347.84 15.0603 1362.74 53.9481C1378.72 95.3624 1395.77 131.955 1414.87 165.814C1446.15 223.223 1479.06 267.884 1518.43 306.369C1574.97 364.307 1628.77 399.913 1678.34 412.201C1730.67 425.197 1786.45 407.744 1835.4 363.04C1843.68 355.557 1852.1 347.284 1860.43 338.46C1901.39 295.225 1935.89 242.628 1967.72 192.459C1980.11 173.322 1992.07 155.027 2003.63 137.336C2025.26 104.264 2045.68 73.023 2064.03 43.7001C2074.9 27.0648 2084.02 11.6791 2091.92 -3.31901C2120.72 -59.0657 2134.13 -110.514 2134.13 -165.238Z" fill="#EDE9F6"/>
<path d="M1339.05 -133.283C1339.05 -209.76 1366.37 -270.999 1414.01 -301.301C1436.52 -315.824 1460.44 -326.821 1485.76 -338.467C1501.07 -345.505 1516.89 -352.784 1533.28 -361.232C1542.57 -366.189 1552.37 -371.84 1562.42 -378.036C1595.79 -398.614 1630.53 -424.713 1675.07 -462.666C1722.05 -502.352 1771.75 -542.127 1817.63 -554.386C1862.77 -566.399 1908.78 -556.009 1954.39 -523.508C2010.87 -483.869 2053.96 -426.071 2079 -356.363C2095.42 -315.25 2107.16 -268.263 2113.89 -216.683C2116.94 -197.421 2118.48 -178.331 2118.48 -159.93C2118.48 -106.667 2106 -56.1451 2079.19 -0.938382C2071.86 13.7905 2063.39 28.8446 2053.32 45.0953C2027.04 90.0914 1996.01 139.233 1963.15 191.262C1934.89 237.261 1900.37 290.035 1858.66 332.73C1850.5 341.126 1842.24 348.99 1834.09 356.118C1786.55 398.299 1732.36 414.726 1681.51 402.365C1632.78 390.598 1580.27 356.637 1525.45 301.43C1486.25 264.341 1455.12 221.269 1424.5 161.765C1406.93 129.139 1391.26 93.7134 1375.19 50.2863C1360.55 10.4093 1354.41 -21.1388 1346.62 -61.0878L1346.12 -63.6523C1341.43 -87.4102 1339.05 -110.835 1339.05 -133.283ZM2119.64 -159.93C2119.64 -178.41 2118.09 -197.578 2115.03 -216.899C2108.28 -268.581 2096.52 -315.687 2080.06 -356.887C2054.94 -426.835 2011.69 -484.845 1955 -524.63C1909.12 -557.323 1862.82 -567.769 1817.38 -555.672C1771.28 -543.353 1721.46 -503.494 1674.38 -463.726C1629.89 -425.81 1595.2 -399.743 1561.88 -379.195C1551.84 -373.014 1542.06 -367.371 1532.8 -362.431C1516.44 -353.995 1500.63 -346.724 1485.33 -339.691C1459.98 -328.03 1436.02 -317.015 1413.45 -302.453C1365.43 -271.912 1337.89 -210.251 1337.89 -133.283C1337.89 -110.739 1340.28 -87.2141 1345 -63.3619L1345.49 -60.7999C1353.29 -20.7913 1359.45 10.8064 1374.12 50.8001C1390.22 94.2942 1405.92 129.767 1423.51 162.442C1454.2 222.08 1485.41 265.252 1524.7 302.433C1579.66 357.779 1632.35 391.834 1681.28 403.656C1732.46 416.096 1786.98 399.582 1834.79 357.165C1842.96 350.018 1851.25 342.121 1859.43 333.71C1901.23 290.931 1935.79 238.085 1964.08 192.027C1996.95 139.998 2027.99 90.8411 2054.27 45.8301C2064.35 29.572 2072.84 14.4831 2080.2 -0.290473C2107.11 -55.7107 2119.64 -106.436 2119.64 -159.93Z" fill="#EDE9F6"/>
<path d="M1353.54 -135.511C1353.54 -211.331 1379.31 -271.358 1424.25 -300.207C1447.7 -315.528 1472.24 -326.613 1498.22 -338.348C1511.66 -344.417 1525.55 -350.689 1540.03 -357.875C1549.17 -362.606 1558.46 -367.786 1568.43 -373.705C1601.13 -393.128 1635.09 -417.644 1678.53 -453.191C1724.35 -490.269 1772.84 -527.404 1817.67 -538.573C1861.64 -549.499 1906.27 -539.211 1950.32 -507.991C2006.3 -469.095 2047.35 -412.393 2069.03 -344.007C2083.42 -304.766 2093.24 -260.229 2099.06 -207.822C2101.69 -189.74 2103.02 -171.764 2103.02 -154.372C2103.02 -102.239 2091.44 -52.333 2066.58 2.67591C2059.8 17.1948 2051.99 31.9719 2042.73 47.859C2021.12 87.9169 1995.27 132.243 1958.92 191.595C1923.37 251.692 1891.1 295.311 1857.35 328.863C1849.36 336.861 1841.25 344.353 1833.23 351.144C1786.95 391.09 1734.16 406.588 1684.57 394.79C1637.27 383.629 1584.58 350.28 1532.22 298.35C1482.72 252.852 1453.69 200.06 1433.93 159.156C1413.5 119.157 1398.37 78.6176 1387.47 47.7697C1375.39 13.2094 1370.2 -14.4304 1364.2 -46.4306C1363.05 -52.5565 1361.86 -58.8785 1360.58 -65.4812C1355.91 -89.2522 1353.54 -112.812 1353.54 -135.511ZM2104.18 -154.372C2104.18 -171.836 2102.84 -189.884 2100.2 -208.013C2094.37 -260.517 2084.52 -305.163 2070.11 -344.486C2048.34 -413.128 2007.13 -470.066 1950.93 -509.116C1906.61 -540.517 1861.69 -550.865 1817.42 -539.859C1772.38 -528.638 1723.79 -491.421 1677.87 -454.268C1634.46 -418.757 1600.55 -394.271 1567.9 -374.877C1557.95 -368.967 1548.68 -363.798 1539.56 -359.082C1525.11 -351.911 1511.22 -345.638 1497.8 -339.575C1471.78 -327.822 1447.2 -316.725 1423.68 -301.354C1378.38 -272.272 1352.39 -211.822 1352.39 -135.511C1352.39 -112.715 1354.77 -89.0561 1359.46 -65.1957C1360.74 -58.5955 1361.92 -52.2759 1363.07 -46.1575C1369.09 -14.0952 1374.28 13.5942 1386.4 48.2588C1397.32 79.154 1412.47 119.751 1432.93 159.809C1452.73 200.805 1481.83 253.728 1531.48 299.363C1583.98 351.43 1636.84 384.875 1684.34 396.079C1734.25 407.963 1787.38 392.379 1833.92 352.202C1841.95 345.391 1850.09 337.879 1858.11 329.861C1891.93 296.225 1924.27 252.536 1959.86 192.34C1996.23 132.976 2022.08 88.6396 2043.7 48.5717C2052.97 32.6722 2060.8 17.8553 2067.6 3.29669C2092.55 -51.9233 2104.18 -102.021 2104.18 -154.372Z" fill="#EDE9F6"/>
<path d="M1368.03 -138.335C1368.03 -212.198 1392.92 -272.385 1434.6 -299.345C1459.06 -315.507 1484.25 -326.605 1510.92 -338.355C1522.51 -343.459 1534.49 -348.739 1547.04 -354.686C1555.89 -359.11 1564.94 -363.965 1574.73 -369.53C1606.36 -387.531 1640.58 -411.126 1682.43 -443.79C1727.13 -478.223 1774.45 -512.681 1818.29 -522.745C1861.15 -532.575 1904.46 -522.397 1947.02 -492.495C2002.55 -454.385 2041.61 -398.832 2059.98 -331.842C2072.31 -294.757 2080.31 -252.652 2085.17 -199.298C2087.4 -182.476 2088.53 -165.701 2088.53 -149.413C2088.53 -98.4159 2077.83 -49.1161 2054.89 5.74644C2048.65 20.0352 2041.5 34.5275 2033.02 50.0395C2011.7 93.0323 1986.33 139.193 1955.46 191.183C1923.81 246.785 1890.59 291.505 1856.68 324.106C1848.86 331.691 1840.89 338.81 1833 345.263C1787.92 382.936 1736.45 397.491 1688.06 386.246C1641.43 375.552 1589.97 343.797 1539.23 294.41C1490.53 251.037 1463.5 200.013 1443.48 155.824C1425.62 118.935 1411.94 80.592 1399.81 44.6579C1389.5 13.7134 1385.31 -10.2444 1380.47 -37.9808C1378.83 -47.3917 1377.13 -57.1202 1375.08 -67.784C1370.41 -91.6003 1368.03 -115.335 1368.03 -138.335ZM2089.68 -149.413C2089.68 -165.771 2088.55 -182.61 2086.31 -199.465C2081.45 -252.905 2073.42 -295.117 2061.07 -332.271C2042.63 -399.542 2003.39 -455.347 1947.62 -493.624C1904.81 -523.702 1861.22 -533.934 1818.07 -524.037C1774.02 -513.924 1726.59 -479.389 1681.78 -444.882C1639.97 -412.253 1605.79 -388.685 1574.22 -370.711C1564.45 -365.154 1555.41 -360.308 1546.59 -355.899C1534.06 -349.962 1522.09 -344.687 1510.51 -339.586C1483.8 -327.818 1458.56 -316.7 1434.03 -300.488C1412.51 -286.574 1395.66 -264.758 1383.93 -235.654C1372.78 -207.967 1366.88 -174.313 1366.88 -138.335C1366.88 -115.238 1369.26 -91.4042 1373.96 -67.5011C1376 -56.8422 1377.7 -47.1212 1379.34 -37.7203C1384.2 -9.92427 1388.39 14.083 1398.74 45.1293C1410.88 81.1155 1424.58 119.501 1442.47 156.447C1462.53 200.748 1489.65 251.918 1538.51 295.427C1589.37 344.943 1641.01 376.798 1687.83 387.536C1736.55 398.858 1788.34 384.224 1833.67 346.33C1841.58 339.859 1849.58 332.716 1857.42 325.114C1891.41 292.432 1924.72 247.611 1956.42 191.92C1987.31 139.901 2012.69 93.7121 2034.01 50.7167C2042.49 35.1924 2049.66 20.658 2055.92 6.32704C2078.95 -48.734 2089.68 -98.2125 2089.68 -149.413Z" fill="#EDE9F6"/>
<path d="M1382.53 -140.964C1382.53 -213.919 1405.87 -272.705 1444.96 -298.224C1470.47 -315.285 1495.11 -325.827 1523.64 -338.036C1533.39 -342.205 1543.47 -346.516 1554.05 -351.3C1562.64 -355.432 1571.46 -359.971 1581.03 -365.173C1612.02 -382.02 1645.47 -403.982 1686.33 -434.283C1729.91 -466.107 1776.05 -497.929 1818.92 -506.895C1860.68 -515.635 1902.66 -505.562 1943.71 -476.947C1998.8 -439.586 2035.87 -385.127 2050.92 -319.461C2064.05 -275.085 2068.7 -227.19 2071.29 -190.418C2073.11 -174.925 2074.04 -159.432 2074.04 -144.327C2074.04 -94.3521 2064.23 -45.5116 2043.18 9.38405C2037.5 23.4597 2030.99 37.6793 2023.3 52.832C2002.88 98.104 1979.56 143.463 1952 191.529C1923.4 243.961 1890.22 288.461 1856.02 320.24C1848.35 327.425 1840.53 334.167 1832.76 340.294C1788.91 375.729 1738.76 389.355 1691.55 378.657C1633.5 365.723 1580.5 324.02 1546.26 291.327C1498.09 249.735 1472.99 200.366 1453.04 153.216C1436.86 117.768 1424.96 81.9463 1412.17 42.1562C1403.16 13.7269 1399.8 -7.64228 1395.9 -32.3889C1394.08 -43.9358 1392.2 -55.8798 1389.59 -69.5981C1384.9 -93.5456 1382.53 -117.558 1382.53 -140.964ZM2075.19 -144.327C2075.19 -159.492 2074.26 -175.044 2072.43 -190.557C2069.84 -227.371 2065.18 -275.371 2052.02 -319.846C2036.91 -385.805 1999.66 -440.539 1944.31 -478.078C1903.01 -506.862 1860.75 -516.995 1818.71 -508.19C1775.64 -499.182 1729.38 -467.291 1685.7 -435.395C1644.89 -405.122 1611.47 -383.187 1580.54 -366.364C1570.99 -361.17 1562.18 -356.641 1553.62 -352.521C1543.06 -347.747 1532.98 -343.436 1523.24 -339.27C1494.66 -327.04 1469.97 -316.483 1444.39 -299.363C1404.93 -273.616 1381.38 -214.4 1381.38 -140.964C1381.38 -117.458 1383.76 -93.3521 1388.46 -69.3127C1391.07 -55.6192 1392.95 -43.6901 1394.77 -32.1531C1398.67 -7.34449 1402.05 14.0768 1411.09 42.6053C1423.89 82.45 1435.81 118.309 1452.01 153.809C1472.02 201.091 1497.2 250.616 1545.54 292.359C1579.86 325.139 1633.04 366.959 1691.33 379.958C1738.85 390.723 1789.31 377.022 1833.41 341.379C1841.21 335.234 1849.06 328.462 1856.75 321.263C1891.04 289.396 1924.31 244.779 1952.97 192.236C1980.55 144.15 2003.89 98.7542 2024.31 53.4649C2032.01 38.3047 2038.53 24.0528 2044.23 9.92751C2065.35 -45.1518 2075.19 -94.166 2075.19 -144.327Z" fill="#EDE9F6"/>
<path d="M1396.06 -144.435C1396.06 -216.391 1417.86 -273.738 1454.38 -297.833C1480.94 -315.848 1506.15 -326.265 1535.34 -338.324C1543.29 -341.606 1551.5 -345 1560.11 -348.7C1568.43 -352.542 1577.02 -356.766 1586.39 -361.617C1616.7 -377.321 1649.39 -397.666 1689.26 -425.646C1731.7 -454.897 1776.65 -484.111 1818.57 -491.983C1859.22 -499.644 1899.89 -489.657 1939.43 -462.307C1994.07 -425.656 2029.15 -372.239 2040.88 -307.827C2050.52 -270.177 2054.06 -230.358 2056.41 -182.14C2057.85 -168.09 2058.58 -153.986 2058.58 -140.186C2058.58 -91.1053 2049.65 -42.5467 2030.49 12.629C2025.37 26.5242 2019.51 40.4815 2012.6 55.2836C1993.67 102.026 1972.39 146.629 1947.56 191.676C1921.36 242.054 1889.14 285.148 1854.38 316.318C1846.88 323.111 1839.2 329.487 1831.55 335.28C1788.93 368.524 1740.11 381.239 1694.08 371.074C1636.88 358.699 1585.42 319.153 1552.32 288.155C1507.15 250.291 1483.41 205.688 1461.66 150.368C1447.03 116.224 1436.41 81.3694 1425.17 44.4672L1423.59 39.2912C1415.59 12.6688 1412.91 -6.80491 1409.82 -29.3572C1408.04 -42.343 1406.2 -55.7685 1403.15 -71.8951C1398.44 -96.0849 1396.06 -120.488 1396.06 -144.435ZM2059.73 -140.186C2059.73 -154.036 2059 -168.19 2057.56 -182.254C2055.21 -230.524 2051.66 -270.428 2042 -308.145C2030.2 -372.883 1994.94 -426.6 1940.02 -463.44C1900.24 -490.955 1859.32 -501.001 1818.39 -493.288C1776.26 -485.376 1731.2 -456.092 1688.67 -426.774C1648.83 -398.822 1616.18 -378.501 1585.91 -362.819C1576.56 -357.974 1567.98 -353.762 1559.7 -349.933C1551.1 -346.24 1542.89 -342.844 1534.95 -339.566C1505.7 -327.482 1480.45 -317.049 1453.8 -298.974C1416.92 -274.645 1394.91 -216.87 1394.91 -144.435C1394.91 -120.394 1397.3 -95.8935 1402.02 -71.6118C1405.06 -55.5299 1406.9 -42.1243 1408.68 -29.1559C1411.78 -6.54146 1414.46 12.9943 1422.5 39.7211L1424.08 44.9045C1435.34 81.8465 1445.97 116.738 1460.62 150.925C1482.44 206.426 1506.27 251.19 1551.62 289.198C1584.79 320.271 1636.43 359.941 1693.87 372.373C1740.19 382.598 1789.32 369.816 1832.19 336.375C1839.86 330.568 1847.57 324.17 1855.09 317.354C1889.96 286.092 1922.27 242.871 1948.54 192.367C1973.39 147.287 1994.69 102.635 2013.64 55.8725C2020.54 41.0654 2026.41 27.0733 2031.56 13.1334C2050.77 -42.2237 2059.73 -90.9338 2059.73 -140.186Z" fill="#EDE9F6"/>
<path d="M1410.55 -148.03C1410.55 -218.629 1430.82 -274.283 1464.79 -296.899C1492.36 -315.828 1518.07 -325.981 1547.84 -337.74C1554.04 -340.191 1560.46 -342.728 1567.16 -345.441C1575.21 -348.988 1583.56 -352.886 1592.72 -357.369C1622.34 -371.884 1654.26 -390.567 1693.17 -416.174C1734.45 -442.784 1778.19 -469.334 1819.19 -476.089C1858.75 -482.647 1898.08 -472.775 1936.1 -446.746C1990.28 -410.886 2023.37 -358.63 2031.79 -295.62C2039.69 -258.773 2041.26 -220.19 2042.49 -173.577C2043.55 -161.177 2044.08 -148.695 2044.08 -136.429C2044.08 -88.2393 2036.03 -39.8905 2018.75 15.7268C2014.18 29.4102 2008.98 43.0762 2002.86 57.4845C1985.73 105.108 1966.5 148.864 1944.08 191.27C1920.44 239.013 1888.35 281.722 1853.71 311.556C1846.37 317.943 1838.83 323.943 1831.31 329.387C1789.93 360.364 1742.43 372.131 1697.59 362.529C1641.23 350.744 1591.32 313.435 1559.37 284.211C1514.46 247.764 1491.67 203.022 1471.26 147.055C1459.04 116.55 1450.13 85.472 1440.7 52.5668C1439.15 47.1599 1437.59 41.7134 1435.99 36.2122C1428.8 10.9853 1426.64 -7.86909 1424.35 -27.8257C1422.75 -41.735 1421.1 -56.116 1417.71 -74.1561C1412.96 -98.6383 1410.55 -123.49 1410.55 -148.03ZM2045.23 -136.429C2045.23 -148.735 2044.69 -161.261 2043.64 -173.661C2042.41 -220.309 2040.84 -258.961 2032.92 -295.876C2024.45 -359.239 1991.17 -411.822 1936.68 -447.88C1898.44 -474.068 1858.85 -483.998 1819.03 -477.397C1777.83 -470.607 1733.99 -443.998 1692.6 -417.321C1653.73 -391.739 1621.84 -373.073 1592.26 -358.581C1583.12 -354.107 1574.78 -350.212 1566.76 -346.68C1560.08 -343.971 1553.66 -341.439 1547.46 -338.989C1517.63 -327.207 1491.87 -317.029 1464.2 -298.038C1429.89 -275.184 1409.4 -219.105 1409.4 -148.03C1409.4 -123.396 1411.82 -98.4447 1416.58 -73.8757C1419.96 -55.8926 1421.61 -41.5364 1423.2 -27.6569C1425.5 -7.63576 1427.68 11.2782 1434.9 36.6218C1436.49 42.1279 1438.05 47.5695 1439.6 52.9763C1449.05 85.9188 1457.97 117.039 1470.2 147.583C1490.69 203.744 1513.57 248.66 1558.68 285.259C1590.7 314.557 1640.78 351.99 1697.37 363.827C1742.52 373.491 1790.3 361.657 1831.93 330.5C1839.48 325.043 1847.04 319.018 1854.4 312.604C1889.16 282.67 1921.36 239.82 1945.07 191.933C1967.52 149.485 1986.77 105.674 2003.91 58.0282C2010.03 43.6174 2015.25 29.9191 2019.83 16.1811C2037.16 -39.5951 2045.23 -88.0853 2045.23 -136.429Z" fill="#EDE9F6"/>
<path d="M1425.05 -151.609C1425.05 -221.718 1443.33 -274.249 1475.22 -295.728C1503.72 -315.553 1528.57 -324.864 1560.03 -336.652C1564.61 -338.365 1569.32 -340.135 1574.22 -341.995C1582.02 -345.257 1590.14 -348.84 1599.06 -352.946C1627.96 -366.277 1659.11 -383.321 1697.08 -406.597C1735.42 -429.551 1779.69 -454.52 1819.8 -460.159C1858.25 -465.621 1896.25 -455.849 1932.75 -431.117C1986.47 -396.016 2017.55 -344.862 2022.67 -283.182C2028.36 -249.535 2028.44 -213.346 2028.52 -175.034L2028.54 -164.646C2029.23 -154.158 2029.59 -143.577 2029.59 -133.147C2029.59 -85.6158 2022.41 -37.1416 2006.98 19.4042C2002.98 32.8957 1998.43 46.2905 1993.09 60.3108C1977.77 109.252 1961.09 150.97 1940.57 191.636C1918.99 237.695 1887.9 278.904 1853.03 307.692C1845.85 313.683 1838.46 319.317 1831.06 324.421C1790.93 353.162 1744.77 364.002 1701.09 354.947C1645.58 343.745 1597.23 308.626 1566.45 281.134C1516.76 242.064 1496.94 192.197 1480.89 144.473C1470.62 116.882 1463.16 88.8208 1455.25 59.1216C1453.03 50.7694 1450.78 42.3131 1448.43 33.7325C1441.91 9.54007 1440.32 -8.09283 1438.63 -26.761C1437.32 -41.278 1435.96 -56.289 1432.3 -75.9329C1427.55 -100.505 1425.05 -126.674 1425.05 -151.609ZM2030.74 -133.147C2030.74 -143.609 2030.39 -154.226 2029.69 -164.7L2029.67 -175.036C2029.59 -213.416 2029.51 -249.664 2023.8 -283.373C2018.66 -345.434 1987.38 -396.939 1933.33 -432.26C1896.62 -457.137 1858.37 -466.967 1819.66 -461.467C1779.36 -455.801 1734.98 -430.777 1696.54 -407.762C1658.6 -384.508 1627.49 -367.481 1598.63 -354.175C1589.72 -350.066 1581.61 -346.491 1573.84 -343.244C1568.96 -341.387 1564.25 -339.619 1559.67 -337.906C1528.14 -326.09 1503.24 -316.76 1474.63 -296.862C1442.39 -275.14 1423.9 -222.2 1423.9 -151.609C1423.9 -126.58 1426.41 -100.311 1431.17 -75.6523C1434.82 -56.0853 1436.18 -41.1066 1437.49 -26.6195C1439.18 -7.88674 1440.78 9.80571 1447.33 34.1247C1449.68 42.7103 1451.93 51.1592 1454.15 59.5039C1462.06 89.2454 1469.54 117.338 1479.82 144.959C1495.93 192.865 1515.84 242.938 1565.77 282.199C1596.62 309.758 1645.14 344.994 1700.89 356.243C1744.85 365.358 1791.29 354.453 1831.66 325.548C1839.08 320.421 1846.5 314.776 1853.7 308.76C1888.72 279.862 1919.93 238.494 1941.58 192.282C1962.11 151.559 1978.83 109.776 1994.16 60.8024C1999.49 46.7796 2004.05 33.36 2008.08 19.8114C2023.54 -36.8809 2030.74 -85.4743 2030.74 -133.147Z" fill="#EDE9F6"/>
<path d="M1438.58 -155.989C1438.58 -224.164 1455.43 -274.727 1484.81 -294.705C1514.15 -315.329 1538 -323.699 1571.02 -335.281C1574.13 -336.372 1577.31 -337.488 1580.59 -338.646C1588.17 -341.622 1596.07 -344.878 1604.75 -348.611C1632.93 -360.718 1663.35 -376.104 1700.5 -397.035C1746.71 -422.403 1784.75 -440.135 1820.12 -444.19C1857.54 -448.539 1894.27 -438.885 1929.29 -415.486C1982.62 -381.185 2011.76 -331.199 2013.58 -270.927C2015.27 -256.923 2016.06 -241.552 2016.06 -222.483C2016.06 -208.672 2015.66 -194.653 2015.23 -179.807C2015.01 -172.003 2014.79 -164.084 2014.62 -156.039C2014.99 -147.939 2015.18 -139.75 2015.18 -131.663C2015.18 -83.9382 2009.02 -36.3892 1995.22 22.523C1991.82 35.6471 1987.8 49.1135 1983.29 62.5427C1970.14 111.877 1955.42 152.76 1936.97 191.237C1917.3 235.701 1887.17 275.356 1852.1 302.926C1845.05 308.531 1837.79 313.778 1830.53 318.523C1791.6 345.002 1746.71 354.897 1704.11 346.4C1649.33 335.793 1602.47 302.906 1572.81 277.189C1523.22 239.515 1505.2 191.359 1489.68 141.176C1481.02 116.044 1474.78 90.517 1468.16 63.4851C1465.56 52.8509 1462.87 41.8447 1459.98 30.6946C1454.03 7.32068 1452.95 -9.2978 1451.82 -26.8859C1450.86 -41.7708 1449.87 -57.1543 1445.97 -78.1325C1441.13 -103.272 1438.58 -130.19 1438.58 -155.989ZM2017.21 -222.483C2017.21 -241.614 2016.42 -257.042 2014.73 -271.041C2012.9 -331.727 1983.56 -382.095 1929.86 -416.627C1894.64 -440.165 1857.67 -449.881 1820.01 -445.499C1784.47 -441.422 1746.33 -423.653 1699.99 -398.22C1662.87 -377.304 1632.49 -361.933 1604.35 -349.846C1595.67 -346.118 1587.78 -342.862 1580.23 -339.898C1576.98 -338.75 1573.79 -337.629 1570.68 -336.54C1537.58 -324.929 1513.67 -316.537 1484.21 -295.831C1454.48 -275.614 1437.42 -224.641 1437.42 -155.989C1437.42 -130.096 1439.99 -103.079 1444.84 -77.8548C1448.73 -56.9683 1449.72 -41.6295 1450.67 -26.7917C1451.81 -9.12918 1452.89 7.55379 1458.87 31.0666C1461.76 42.2142 1464.45 53.2105 1467.05 63.8397C1473.67 90.9064 1479.93 116.468 1488.61 141.64C1504.17 192.018 1522.29 240.393 1572.14 278.267C1601.88 304.042 1648.91 337.043 1703.92 347.697C1746.78 356.246 1791.96 346.296 1831.11 319.663C1838.4 314.904 1845.68 309.637 1852.75 304.007C1887.98 276.318 1918.25 236.487 1937.98 191.845C1956.47 153.308 1971.22 112.351 1984.38 62.9717C1988.89 49.5574 1992.91 36.0613 1996.33 22.8851C2010.16 -36.1586 2016.33 -83.8167 2016.33 -131.663C2016.33 -139.775 2016.14 -147.984 2015.77 -156.059C2015.94 -164.047 2016.16 -171.966 2016.39 -179.765C2016.81 -194.62 2017.21 -208.65 2017.21 -222.483Z" fill="#EDE9F6"/>
<path d="M2003.78 -259.191C2004.24 -252.485 2004.46 -245.536 2004.46 -237.884C2004.46 -220.163 2003.27 -201.726 2002.01 -182.207C2001.29 -171.049 2000.54 -159.51 1999.99 -147.697C2000.11 -142.821 2000.16 -137.92 2000.16 -133.069C2000.16 -85.2342 1994.81 -36.2376 1982.81 25.7857C1979.97 38.7729 1976.63 51.9685 1972.89 64.9979C1961.89 115.41 1949.56 154.366 1932.88 191.351C1915.11 234.439 1886.02 272.63 1850.95 298.917C1844.08 304.141 1836.98 309.02 1829.85 313.429C1791.71 338.045 1749.36 346.789 1707.36 338.705C1653.46 328.678 1608.24 297.954 1579.79 273.949C1530.39 237.525 1514.13 190.964 1499.34 138.293C1492.06 115.166 1486.88 91.702 1481.4 66.8698C1478.61 54.2353 1475.72 41.1762 1472.48 27.8117C1467.04 5.01532 1466.46 -10.7922 1465.85 -27.5208C1465.3 -42.6257 1464.73 -58.2445 1460.64 -80.4276C1455.69 -106.375 1453.07 -134.3 1453.07 -161.183C1453.07 -227.228 1468.45 -275.728 1495.28 -294.254C1525.16 -315.601 1547.76 -322.977 1581.97 -334.142L1587.56 -335.964C1594.91 -338.668 1602.56 -341.61 1610.97 -344.967C1638.64 -356.005 1667.37 -369.362 1704.15 -388.275C1748.84 -410.597 1785.71 -426.087 1820.31 -429.121C1856.6 -432.376 1891.94 -422.81 1925.37 -400.694C1976.71 -368.036 2003.84 -320.693 2003.84 -263.767C2003.84 -262.247 2003.83 -260.718 2003.78 -259.191ZM2005.61 -237.884C2005.61 -245.571 2005.39 -252.552 2004.94 -259.223C2004.97 -260.696 2004.99 -262.235 2004.99 -263.767C2004.99 -321.199 1977.66 -368.945 1925.94 -401.841C1892.32 -424.086 1856.75 -433.711 1820.22 -430.437C1785.46 -427.388 1748.49 -411.861 1703.68 -389.482C1666.93 -370.581 1638.22 -357.239 1610.59 -346.21C1602.19 -342.859 1594.55 -339.919 1587.22 -337.225L1581.66 -335.411C1547.35 -324.216 1524.69 -316.82 1494.68 -295.379C1467.5 -276.615 1451.92 -227.7 1451.92 -161.183C1451.92 -134.206 1454.55 -106.186 1459.52 -80.147C1463.59 -58.0781 1464.15 -42.5164 1464.7 -27.4687C1465.31 -10.6557 1465.89 5.21888 1471.37 28.1617C1474.61 41.5113 1477.49 54.5629 1480.28 67.195C1485.77 92.062 1490.96 115.556 1498.25 138.717C1512.56 189.66 1529.51 238.441 1579.14 275.034C1607.66 299.096 1653.05 329.934 1707.17 340.011C1749.43 348.14 1792.05 339.341 1830.4 314.586C1837.56 310.164 1844.69 305.263 1851.59 300.025C1886.82 273.604 1916.06 235.218 1933.91 191.934C1950.62 154.88 1962.99 115.829 1973.99 65.3703C1977.74 52.3509 1981.08 39.1229 1983.93 26.0936C1995.95 -36.0514 2001.32 -85.1324 2001.32 -133.069C2001.32 -137.93 2001.26 -142.846 2001.14 -147.68C2001.69 -159.428 2002.43 -170.958 2003.15 -182.107C2004.42 -201.654 2005.61 -220.113 2005.61 -237.884Z" fill="#EDE9F6"/>
<path d="M1466.6 -166.321C1466.6 -229.732 1480.57 -275.885 1504.93 -292.942C1535.17 -314.835 1556.38 -321.166 1591.49 -331.649L1593.9 -332.367C1601.07 -334.802 1608.49 -337.426 1616.61 -340.393C1643.31 -350.154 1671.32 -361.919 1707.4 -378.532C1744.81 -395.199 1784.39 -410.914 1820.35 -413.016C1855.59 -415.156 1889.63 -405.696 1921.53 -384.897C1969.46 -354.849 1994.8 -311.772 1994.8 -260.312C1994.8 -255.826 1994.61 -251.221 1994.22 -246.623C1994.23 -245.615 1994.23 -244.682 1994.23 -243.736C1994.23 -224.241 1992.03 -203.576 1989.68 -181.703C1988.2 -167.875 1986.67 -153.581 1985.59 -138.656C1985.52 -76.8286 1977.96 -18.9387 1970.58 29.5399C1968.31 42.3944 1965.64 55.3084 1962.65 67.9022C1956.85 102.015 1947.79 146.886 1928.88 191.76C1913.11 232.91 1884.26 270.558 1849.72 295.078C1843 299.906 1836.04 304.412 1829.04 308.466C1792.21 330.823 1751.12 338.653 1710.23 331.131C1657.09 321.688 1613.42 293.159 1586.14 270.888C1536.87 235.76 1521.7 188.908 1508.2 135.752C1502.08 114.38 1497.83 92.7176 1493.32 69.784C1490.51 55.4748 1487.6 40.6814 1484.12 25.4065C1479.12 3.0812 1479.02 -12.0175 1478.9 -28.0024C1478.79 -43.1806 1478.69 -58.885 1474.43 -82.109C1469.38 -108.709 1466.6 -138.614 1466.6 -166.321ZM1995.95 -260.312C1995.95 -312.283 1970.41 -355.762 1922.09 -386.046C1890.01 -406.969 1855.76 -416.49 1820.29 -414.335C1784.17 -412.217 1744.49 -396.468 1706.98 -379.761C1670.91 -363.153 1642.93 -351.4 1616.26 -341.649C1608.15 -338.685 1600.73 -336.063 1593.59 -333.64L1591.2 -332.928C1555.98 -322.409 1534.71 -316.062 1504.33 -294.059C1479.62 -276.763 1465.45 -230.201 1465.45 -166.321C1465.45 -138.522 1468.24 -108.518 1473.3 -81.8334C1477.54 -58.746 1477.65 -43.1111 1477.75 -27.9925C1477.86 -11.9232 1477.97 3.24996 1483 25.7416C1486.48 40.9942 1489.39 55.7727 1492.2 70.072C1496.71 93.0353 1500.97 114.725 1507.1 136.142C1520.66 189.538 1535.92 236.632 1585.5 271.99C1612.85 294.321 1656.69 322.951 1710.05 332.427C1751.19 339.999 1792.52 332.117 1829.57 309.643C1836.59 305.569 1843.59 301.046 1850.33 296.19C1885.07 271.546 1914.08 233.68 1929.93 192.311C1948.89 147.326 1957.97 102.347 1963.77 68.1977C1966.76 55.6287 1969.43 42.6898 1971.71 29.7857C1979.1 -18.765 1986.67 -76.7268 1986.75 -138.599C1987.82 -153.447 1989.35 -167.729 1990.83 -181.541C1993.29 -204.517 1995.6 -226.157 1995.37 -246.571C1995.75 -251.136 1995.95 -255.784 1995.95 -260.312Z" fill="#EDE9F6"/>
<path d="M1481.09 -173.082C1481.09 -208.519 1485.58 -271.153 1515.63 -292.505C1545.96 -314.77 1565.55 -320.044 1601.13 -329.619C1608.29 -331.828 1615.48 -334.131 1623.24 -336.693C1655.86 -347.474 1687.6 -359.978 1711.62 -369.66C1747.69 -383.685 1785.95 -396.802 1821.29 -397.78C1855.49 -398.8 1888.2 -389.446 1918.54 -369.97C1963.37 -342.285 1987.07 -303.03 1987.07 -256.447C1987.07 -249.466 1986.54 -242.233 1985.5 -234.949C1984.62 -217.734 1981.8 -199.586 1978.81 -180.371C1976.33 -164.482 1973.78 -148.052 1972.03 -130.522C1970.54 -78.8559 1965.82 -28.046 1959.2 32.3639C1957.5 45.1259 1955.5 57.7514 1953.25 69.8657C1948.87 106.241 1942.16 149.056 1925.74 191.212C1911.67 231.136 1883.84 267.228 1849.39 290.255C1842.83 294.693 1836.02 298.828 1829.13 302.538C1793.64 322.615 1753.85 329.542 1714.04 322.57C1661.66 313.729 1619.57 287.399 1593.48 266.863C1544.27 232.925 1530.71 187.772 1518.08 132.271C1512.99 112.408 1509.55 92.3122 1505.9 71.0298C1503.2 55.2919 1500.41 39.0204 1496.81 22.0764C1493.21 4.90893 1492.73 -7.50812 1492.73 -17.3886C1492.73 -21.5483 1492.83 -25.5045 1492.93 -29.7015C1493.02 -33.8487 1493.13 -38.1524 1493.13 -42.6149C1493.13 -52.3391 1492.69 -65.9127 1489.27 -84.7058C1483.99 -112.635 1481.09 -144.021 1481.09 -173.082ZM1988.22 -256.447C1988.22 -303.547 1964.32 -343.198 1919.09 -371.124C1889.01 -390.436 1855.18 -400.111 1821.26 -399.101C1785.76 -398.118 1747.41 -384.969 1711.24 -370.906C1687.23 -361.224 1655.51 -348.733 1622.92 -337.961C1615.17 -335.4 1607.99 -333.096 1600.95 -330.927C1565.17 -321.297 1545.5 -316.003 1515.01 -293.621C1484.5 -271.937 1479.94 -208.792 1479.94 -173.082C1479.94 -143.929 1482.85 -112.446 1488.14 -84.4303C1491.54 -65.7589 1491.98 -52.2795 1491.98 -42.6149C1491.98 -38.1673 1491.87 -33.8835 1491.77 -29.7337C1491.68 -25.7205 1491.58 -21.5657 1491.58 -17.3886C1491.58 -7.4287 1492.07 5.0777 1495.69 22.3866C1499.29 39.3009 1502.08 55.5624 1504.77 71.2903C1508.42 92.5927 1511.87 112.724 1516.98 132.621C1529.66 188.4 1543.31 233.797 1592.86 267.978C1619.02 288.568 1661.27 314.995 1713.87 323.875C1753.91 330.887 1793.94 323.923 1829.63 303.725C1836.54 300.007 1843.38 295.852 1849.97 291.392C1884.64 268.221 1912.65 231.895 1926.79 191.726C1943.28 149.439 1950 106.509 1954.39 70.0966C1956.63 57.9947 1958.63 45.3493 1960.34 32.5476C1966.97 -27.9195 1971.68 -78.7641 1973.18 -130.425C1974.92 -147.861 1977.47 -164.269 1979.94 -180.141C1982.94 -199.395 1985.77 -217.583 1986.64 -234.805C1987.68 -242.089 1988.22 -249.394 1988.22 -256.447Z" fill="#EDE9F6"/>
<path d="M1494.62 -180.225C1494.62 -237.798 1505.58 -277.426 1525.48 -291.809C1555.66 -314.284 1574.18 -318.695 1607.81 -326.704C1614.85 -328.647 1621.81 -330.634 1629.12 -332.781C1659.04 -341.57 1688.15 -351.347 1715.16 -360.606C1748.2 -371.487 1786.71 -382.581 1821.66 -382.39C1854.39 -382.285 1886.69 -372.766 1915.07 -354.86C1957.71 -328.918 1979.33 -294.023 1979.33 -251.138C1979.33 -242.061 1978.32 -232.574 1976.34 -222.938C1974.62 -208.46 1971.42 -193.284 1968.03 -177.217C1964.35 -159.743 1960.54 -141.673 1958.01 -121.934C1956.18 -91.3981 1954.07 -61.2203 1951.83 -29.2688C1950.34 -8.09864 1948.81 13.7894 1947.36 35.829C1946.24 48.5828 1944.91 60.9292 1943.4 72.5228C1940.68 110.871 1936.22 151.785 1922.11 191.483C1909.69 230.295 1882.85 264.873 1848.5 286.363C1842.09 290.427 1835.42 294.191 1828.66 297.55C1794.52 315.379 1755.98 321.408 1717.19 314.981C1665.48 306.719 1624.95 282.563 1600.06 263.745C1550.84 230.924 1538.79 187.414 1527.14 129.535C1522.93 110.998 1520.21 92.2447 1517.32 72.3961C1514.85 55.3994 1512.3 37.8213 1508.64 19.3589C1506.42 7.93669 1505.38 -2.41487 1505.38 -13.2012C1505.38 -19.4166 1505.7 -25.078 1506.04 -31.0673C1506.38 -37.0567 1506.73 -43.2597 1506.73 -50.0689C1506.73 -62.0029 1505.62 -73.676 1503.24 -86.7975C1497.76 -116.061 1494.62 -150.112 1494.62 -180.225ZM1980.49 -251.138C1980.49 -294.552 1958.66 -329.837 1915.61 -356.018C1887.08 -374.028 1854.58 -383.602 1821.67 -383.709C1786.57 -383.905 1747.96 -372.781 1714.83 -361.873C1687.84 -352.617 1658.74 -342.842 1628.83 -334.058C1621.53 -331.914 1614.57 -329.929 1607.56 -327.991C1573.81 -319.955 1555.21 -315.526 1524.86 -292.92C1504.62 -278.295 1493.47 -238.268 1493.47 -180.225C1493.47 -150.025 1496.62 -115.872 1502.12 -86.5242C1504.48 -73.4971 1505.58 -61.9134 1505.58 -50.0689C1505.58 -43.3069 1505.23 -37.1262 1504.89 -31.1518C1504.55 -25.1426 1504.23 -19.4588 1504.23 -13.2012C1504.23 -2.31302 1505.27 8.12299 1507.52 19.6471C1511.16 38.0747 1513.72 55.6329 1516.18 72.6073C1519.07 92.4931 1521.8 111.271 1526.02 129.85C1537.73 188.035 1549.85 231.793 1599.45 264.868C1624.42 283.735 1665.11 307.991 1717.03 316.28C1756.04 322.747 1794.8 316.685 1829.13 298.754C1835.91 295.383 1842.61 291.603 1849.06 287.528C1883.65 265.876 1910.67 231.048 1923.19 191.962C1937.35 152.118 1941.82 111.082 1944.54 72.6744C1946.05 61.1056 1947.38 48.7368 1948.51 35.9458C1949.95 13.8888 1951.49 -8.0043 1952.97 -29.1596C1955.22 -61.1185 1957.33 -91.2987 1959.16 -121.795C1961.67 -141.422 1965.48 -159.46 1969.15 -176.906C1972.55 -193.008 1975.76 -208.217 1977.47 -222.697C1979.47 -232.368 1980.49 -241.957 1980.49 -251.138Z" fill="#EDE9F6"/>
</g>
</g>
<defs>
<clipPath id="clip0_34_179">
<rect width="1920" height="390" fill="white"/>
</clipPath>
</defs>
</svg>
