<svg width="337" height="319" viewBox="0 0 337 319" fill="none" xmlns="http://www.w3.org/2000/svg">
<g clip-path="url(#clip0_230_506)">
<path d="M298.736 143.86C298.989 154.34 297.879 164.915 295.268 175.329C285.72 213.493 256.089 248.902 218.42 262.958C160.37 284.616 104.831 255.145 70.492 208.805C43.5677 172.466 47.014 117.485 70.2091 80.1134C72.6396 76.2033 75.295 72.4313 78.1826 68.8337C118.74 18.2786 201.617 4.89851 252.353 48.2076C280.626 72.3368 297.865 107.571 298.736 143.86Z" fill="#E8E8EC"/>
<path d="M192.475 120.123H247.499C256.829 120.123 264.106 128.205 263.141 137.5C261.589 152.501 256.663 174.537 254.58 192.525C252.759 208.267 239.453 220.143 223.637 220.143H173.931L192.475 120.123Z" fill="#FBC501"/>
<path d="M185.619 120.123H238.038C247.368 120.123 254.645 128.205 253.68 137.5C252.128 152.501 249.799 166.092 247.724 184.08C245.903 199.822 232.597 211.698 216.78 211.698H167.074L185.619 120.123Z" fill="#375964"/>
<path d="M211.331 220.732H204.903V301.703H211.331V220.732Z" fill="#011843"/>
<path d="M222.947 222.65H189.435C188.26 222.65 187.309 221.698 187.309 220.521V220.092H225.073V220.521C225.073 221.698 224.122 222.65 222.947 222.65Z" fill="#011843"/>
<path d="M181.766 309.319C181.766 304.697 185.51 300.947 190.124 300.947H228.693C233.308 300.947 237.051 304.697 237.051 309.319V309.646" stroke="#011843" stroke-width="2.6579" stroke-miterlimit="10" stroke-linecap="round" stroke-linejoin="round"/>
<path d="M221.699 309.239V300.867" stroke="#011843" stroke-width="2.6579" stroke-miterlimit="10"/>
<path d="M196.632 309.239V300.867" stroke="#011843" stroke-width="2.6579" stroke-miterlimit="10"/>
<path d="M182.426 313.389C184.598 313.389 186.359 311.626 186.359 309.45C186.359 307.275 184.598 305.511 182.426 305.511C180.255 305.511 178.494 307.275 178.494 309.45C178.494 311.626 180.255 313.389 182.426 313.389Z" fill="#011843"/>
<path d="M182.426 310.722C183.128 310.722 183.696 310.152 183.696 309.45C183.696 308.748 183.128 308.178 182.426 308.178C181.725 308.178 181.157 308.748 181.157 309.45C181.157 310.152 181.725 310.722 182.426 310.722Z" stroke="#DBE2EF" stroke-width="0.8184" stroke-miterlimit="10" stroke-linecap="round" stroke-linejoin="round"/>
<path d="M196.937 313.389C199.109 313.389 200.87 311.626 200.87 309.45C200.87 307.275 199.109 305.511 196.937 305.511C194.765 305.511 193.005 307.275 193.005 309.45C193.005 311.626 194.765 313.389 196.937 313.389Z" fill="#011843"/>
<path d="M196.937 310.722C197.638 310.722 198.207 310.152 198.207 309.45C198.207 308.748 197.638 308.178 196.937 308.178C196.236 308.178 195.667 308.748 195.667 309.45C195.667 310.152 196.236 310.722 196.937 310.722Z" stroke="#DBE2EF" stroke-width="0.8184" stroke-miterlimit="10" stroke-linecap="round" stroke-linejoin="round"/>
<path d="M222.425 313.389C224.596 313.389 226.357 311.626 226.357 309.45C226.357 307.275 224.596 305.511 222.425 305.511C220.253 305.511 218.492 307.275 218.492 309.45C218.492 311.626 220.253 313.389 222.425 313.389Z" fill="#011843"/>
<path d="M222.424 310.722C223.126 310.722 223.694 310.152 223.694 309.45C223.694 308.748 223.126 308.178 222.424 308.178C221.723 308.178 221.155 308.748 221.155 309.45C221.155 310.152 221.723 310.722 222.424 310.722Z" stroke="#DBE2EF" stroke-width="0.8184" stroke-miterlimit="10" stroke-linecap="round" stroke-linejoin="round"/>
<path d="M236.935 313.389C239.107 313.389 240.868 311.626 240.868 309.45C240.868 307.275 239.107 305.511 236.935 305.511C234.764 305.511 233.003 307.275 233.003 309.45C233.003 311.626 234.764 313.389 236.935 313.389Z" fill="#011843"/>
<path d="M236.935 310.722C237.636 310.722 238.205 310.152 238.205 309.45C238.205 308.748 237.636 308.178 236.935 308.178C236.234 308.178 235.666 308.748 235.666 309.45C235.666 310.152 236.234 310.722 236.935 310.722Z" stroke="#DBE2EF" stroke-width="0.8184" stroke-miterlimit="10" stroke-linecap="round" stroke-linejoin="round"/>
<path d="M109.134 183.491L116.556 312.357C116.563 314.276 113.973 314.378 113.864 312.459L99.731 183.506" fill="#E8E8EC"/>
<path d="M99.731 183.462L109.134 183.498L100.239 188.012L99.731 183.462Z" fill="#011843"/>
<path d="M168.504 319C261.566 319 337.007 317.724 337.007 316.151C337.007 314.578 261.566 313.302 168.504 313.302C75.4417 313.302 0 314.578 0 316.151C0 317.724 75.4417 319 168.504 319Z" fill="#A3B7D3"/>
<path d="M98.8818 102.542H61.8147C57.5195 102.542 54.2692 98.6609 55.0092 94.4238L58.3249 75.4329C58.9053 72.1188 61.7784 69.7059 65.1303 69.7059H102.197C106.493 69.7059 109.743 73.5869 109.003 77.824L105.687 96.8149C105.114 100.122 102.241 102.542 98.8818 102.542Z" fill="#FBC501"/>
<path d="M88.6084 99.8092H96.1611C99.056 99.8092 101.581 97.8542 102.343 95.0561C103.003 92.6213 103.257 90.2157 103.844 87.9409" stroke="white" stroke-width="0.6645" stroke-miterlimit="10" stroke-linecap="round" stroke-linejoin="round"/>
<path d="M73.4087 100.551L77.0363 107.702C77.7473 109.105 79.387 109.272 80.2867 108.036L85.9458 100.231" fill="#FBC501"/>
<path d="M71.399 87.3668C72.4729 87.3668 73.3434 86.4947 73.3434 85.419C73.3434 84.3432 72.4729 83.4712 71.399 83.4712C70.3251 83.4712 69.4546 84.3432 69.4546 85.419C69.4546 86.4947 70.3251 87.3668 71.399 87.3668Z" stroke="white" stroke-width="0.6645" stroke-miterlimit="10"/>
<path d="M83.9577 85.419C83.9577 86.4946 83.087 87.3667 82.0133 87.3667C80.9395 87.3667 80.0688 86.4946 80.0688 85.419C80.0688 84.3433 80.9395 83.4712 82.0133 83.4712C83.087 83.4639 83.9577 84.336 83.9577 85.419Z" stroke="white" stroke-width="0.6645" stroke-miterlimit="10"/>
<path d="M92.628 87.3668C93.7019 87.3668 94.5724 86.4947 94.5724 85.419C94.5724 84.3432 93.7019 83.4712 92.628 83.4712C91.5541 83.4712 90.6836 84.3432 90.6836 85.419C90.6836 86.4947 91.5541 87.3668 92.628 87.3668Z" stroke="white" stroke-width="0.6645" stroke-miterlimit="10"/>
<path d="M104.476 85.041C104.671 84.1108 104.875 83.1805 105.071 82.2502" stroke="#DBE2EF" stroke-width="0.6645" stroke-miterlimit="10" stroke-linecap="round" stroke-linejoin="round"/>
<path d="M170.991 58.1292C173.415 47.9633 167.153 37.7539 157.005 35.3259C146.857 32.8978 136.665 39.1705 134.241 49.3364C131.817 59.5022 138.079 69.7116 148.228 72.1397C158.376 74.5677 168.568 68.295 170.991 58.1292Z" fill="#FBC501"/>
<path d="M164.6 54.9885V52.9898C164.6 52.4738 164.179 52.0595 163.671 52.0595H162.837C162.133 52.0595 161.531 51.5944 161.306 50.9258C161.248 50.7513 161.183 50.5842 161.118 50.417C160.842 49.7411 161.067 48.9635 161.633 48.4983L162.206 48.0259C162.605 47.7061 162.663 47.1174 162.336 46.725L161.067 45.1624C160.748 44.7626 160.16 44.7045 159.768 45.0315L159.043 45.6275C158.448 46.1145 157.628 46.1508 156.953 45.7874C156.576 45.5839 156.191 45.4095 155.785 45.2568C155.052 44.9879 154.544 44.3193 154.544 43.5344V42.7349C154.544 42.2698 154.167 41.8991 153.71 41.8991H151.526C151.062 41.8991 150.692 42.277 150.692 42.7349V43.5707C150.692 44.3266 150.198 44.9807 149.487 45.235C149.038 45.4022 148.609 45.5984 148.203 45.8237C147.557 46.1799 146.774 46.1363 146.201 45.6711L145.591 45.1769C145.091 44.7699 144.358 44.8426 143.952 45.3441L142.987 46.5287C142.58 47.0302 142.653 47.7643 143.154 48.1713L143.756 48.6655C144.249 49.0652 144.394 49.7484 144.147 50.3371C144.046 50.5696 143.959 50.8167 143.879 51.0566C143.69 51.6453 143.154 52.0595 142.537 52.0595H141.586C141.071 52.0595 140.658 52.4738 140.658 52.9898V54.9885C140.658 55.5045 141.071 55.9188 141.586 55.9188H142.689C143.255 55.9188 143.748 56.2822 143.93 56.82C144.046 57.1688 144.184 57.5032 144.343 57.8302C144.59 58.339 144.489 58.9422 144.097 59.3347L143.335 60.0978C142.965 60.4684 142.965 61.0644 143.335 61.4351L144.728 62.8305C145.098 63.2011 145.693 63.2011 146.063 62.8305L146.44 62.4526C146.992 61.9002 147.833 61.7403 148.522 62.0892C148.842 62.2491 149.175 62.3944 149.516 62.5107C150.227 62.7651 150.685 63.4701 150.685 64.2259V64.6911C150.685 65.1635 151.069 65.5487 151.541 65.5487H153.681C154.153 65.5487 154.537 65.1635 154.537 64.6911V64.066C154.537 63.361 154.994 62.7578 155.662 62.5252C156.053 62.3871 156.438 62.22 156.808 62.031C157.454 61.6967 158.244 61.8711 158.738 62.4017L159.217 62.9177C159.579 63.3102 160.196 63.332 160.588 62.9686L161.995 61.6604C162.387 61.297 162.409 60.6792 162.046 60.2867L161.277 59.4582C160.806 58.9495 160.711 58.2081 160.994 57.5758C161.067 57.4087 161.139 57.2343 161.205 57.0598C161.466 56.3548 162.162 55.9042 162.917 55.9042H163.671C164.179 55.926 164.6 55.5045 164.6 54.9885ZM152.607 58.5352C150.039 58.5352 147.949 56.4493 147.949 53.8692C147.949 51.2892 150.032 49.2033 152.607 49.2033C155.176 49.2033 157.265 51.2892 157.265 53.8692C157.265 56.4493 155.183 58.5352 152.607 58.5352Z" fill="white"/>
<path d="M273.219 154.987C272.29 154.987 271.587 155.822 271.746 156.738L274.257 171.143C274.706 172.967 276.339 174.246 278.211 174.246H284.871C286.779 174.246 288.426 172.924 288.847 171.056L290.806 156.68C290.929 155.786 290.233 154.987 289.326 154.987H273.219Z" fill="#011843"/>
<path d="M276.041 164.013C276.041 166.157 274.307 167.887 272.174 167.887C270.034 167.887 268.307 166.15 268.307 164.013C268.307 161.869 270.041 160.14 272.174 160.14C274.307 160.132 276.041 161.869 276.041 164.013Z" stroke="#011843" stroke-width="2" stroke-miterlimit="10" stroke-linecap="round" stroke-linejoin="round"/>
<path d="M285.14 154.943C284.9 153.337 285.277 151.702 286.221 150.561C287.062 149.536 288.15 148.715 288.731 147.494C289.398 146.091 289.602 144.499 289.326 142.973C289.028 141.309 288.136 139.622 286.772 138.59C284.936 137.188 282.724 137.464 280.554 137.348C280.271 137.333 279.981 137.311 279.698 137.275C276.339 136.824 275.164 134.368 273.183 130.792C272.835 132.529 272.479 134.288 272.61 136.054C272.74 137.82 273.415 139.622 274.794 140.727C277.101 142.58 280.561 141.062 283.006 142.726C283.659 143.169 284.501 144.267 284.639 145.044C284.893 146.462 283.507 148.453 282.129 148.802C280.736 149.158 279.328 149.02 278.102 149.768C276.876 150.517 276.469 152.13 276.469 153.569C276.469 154.391 276.499 154.95 276.499 154.95" fill="#FBC501"/>
<path d="M272.653 160.983L290.124 161.041" stroke="#DBE2EF" stroke-width="0.8184" stroke-miterlimit="10" stroke-linecap="round" stroke-linejoin="round"/>
<path d="M273.683 166.492H289.282" stroke="#DBE2EF" stroke-width="0.8184" stroke-miterlimit="10" stroke-linecap="round" stroke-linejoin="round"/>
<path d="M287.947 168.621C288.23 165.67 288.52 162.72 288.803 159.769" stroke="#DBE2EF" stroke-width="0.8184" stroke-miterlimit="10" stroke-linecap="round" stroke-linejoin="round"/>
<path d="M96.6473 42.1462L96.7053 42.1026C96.9955 41.8918 97.0536 41.4848 96.8504 41.2014L93.5493 36.6663C93.3389 36.3756 92.9326 36.3174 92.6496 36.5209C90.7487 37.9091 88.0933 37.4875 86.7076 35.5834L83.1742 30.7212C81.7885 28.817 82.2093 26.157 84.1102 24.7688C84.4004 24.558 84.4584 24.151 84.2553 23.8676L81.5999 20.2119C81.3895 19.9212 80.9832 19.863 80.7002 20.0665L80.6422 20.1101C76.7533 22.9519 75.8972 28.41 78.7268 32.3056L84.4875 40.2202C87.3098 44.1303 92.7585 44.9879 96.6473 42.1462Z" fill="#375964"/>
<path d="M95.8636 28.708C96.8654 28.708 97.6774 27.8945 97.6774 26.891C97.6774 25.8875 96.8654 25.074 95.8636 25.074C94.8619 25.074 94.0498 25.8875 94.0498 26.891C94.0498 27.8945 94.8619 28.708 95.8636 28.708Z" stroke="#FBC501" stroke-miterlimit="10"/>
<path d="M109.649 28.708C110.651 28.708 111.463 27.8945 111.463 26.891C111.463 25.8875 110.651 25.074 109.649 25.074C108.647 25.074 107.835 25.8875 107.835 26.891C107.835 27.8945 108.647 28.708 109.649 28.708Z" stroke="#FBC501" stroke-miterlimit="10"/>
<path d="M102.393 28.708C103.395 28.708 104.207 27.8945 104.207 26.891C104.207 25.8875 103.395 25.074 102.393 25.074C101.392 25.074 100.58 25.8875 100.58 26.891C100.58 27.8945 101.392 28.708 102.393 28.708Z" stroke="#011843" stroke-miterlimit="10"/>
<path d="M253.028 91.3276L254.087 98.9225C254.297 100.412 255.466 100.863 256.416 99.8092L262.387 93.1955" fill="#011843"/>
<path d="M284.015 94.9688H232.495C229.535 94.9688 227.351 92.2071 228.026 89.3217L231.668 73.8049C232.154 71.7263 234.004 70.2582 236.137 70.2582H287.657C290.617 70.2582 292.801 73.02 292.126 75.9053L288.484 91.4221C287.991 93.5007 286.141 94.9688 284.015 94.9688Z" fill="#011843"/>
<path d="M278.124 92.5123H281.628C283.768 92.5123 285.633 91.0587 286.155 88.9801L287.316 84.3941" stroke="#DBE2EF" stroke-width="0.6645" stroke-miterlimit="10" stroke-linecap="round" stroke-linejoin="round"/>
<path d="M287.875 82.1338C287.998 81.5887 288.114 81.0436 288.237 80.4985" stroke="#DBE2EF" stroke-width="0.6645" stroke-miterlimit="10" stroke-linecap="round" stroke-linejoin="round"/>
<path d="M239.881 75.2221H284.211" stroke="#DBE2EF" stroke-width="0.6645" stroke-miterlimit="10" stroke-linecap="round" stroke-linejoin="round"/>
<path d="M238.067 81.0364H267.096" stroke="#DBE2EF" stroke-width="0.6645" stroke-miterlimit="10" stroke-linecap="round" stroke-linejoin="round"/>
<path d="M236.616 86.1238H274.38" stroke="#DBE2EF" stroke-width="0.6645" stroke-miterlimit="10" stroke-linecap="round" stroke-linejoin="round"/>
<path d="M204.693 13.0821H153.42C149.814 13.0821 146.89 10.1532 146.89 6.54106C146.89 2.92894 149.814 0 153.42 0H204.693C208.299 0 211.223 2.92894 211.223 6.54106C211.223 10.1532 208.299 13.0821 204.693 13.0821Z" fill="#FBC501"/>
<path d="M159.318 3.63392L160.124 5.27645C160.153 5.34186 160.218 5.38546 160.291 5.4L162.097 5.66164C162.279 5.69071 162.351 5.90875 162.221 6.03957L160.915 7.31871C160.864 7.36958 160.842 7.44226 160.849 7.51494L161.161 9.31736C161.19 9.49906 161.002 9.63715 160.842 9.54994L159.224 8.6996C159.159 8.66326 159.079 8.66326 159.021 8.6996L157.403 9.54994C157.243 9.63715 157.048 9.49906 157.084 9.31736L157.396 7.51494C157.41 7.44226 157.381 7.36958 157.33 7.31871L156.025 6.03957C155.894 5.90875 155.966 5.69071 156.148 5.66164L157.954 5.4C158.027 5.39273 158.092 5.34186 158.121 5.27645L158.919 3.63392C158.999 3.46675 159.231 3.46675 159.318 3.63392Z" fill="white"/>
<path d="M169.287 3.63392L170.093 5.27645C170.122 5.34186 170.187 5.38546 170.259 5.4L172.066 5.66164C172.247 5.69071 172.32 5.90875 172.189 6.03957L170.883 7.31871C170.833 7.36958 170.811 7.44226 170.818 7.51494L171.13 9.31736C171.159 9.49906 170.97 9.63715 170.811 9.54994L169.193 8.6996C169.128 8.66326 169.048 8.66326 168.99 8.6996L167.372 9.54994C167.212 9.63715 167.016 9.49906 167.053 9.31736L167.365 7.51494C167.379 7.44226 167.35 7.36958 167.299 7.31871L165.993 6.03957C165.863 5.90875 165.935 5.69071 166.117 5.66164L167.923 5.4C167.996 5.39273 168.061 5.34186 168.09 5.27645L168.888 3.63392C168.968 3.46675 169.207 3.46675 169.287 3.63392Z" fill="white"/>
<path d="M179.256 3.63392L180.061 5.27645C180.09 5.34186 180.156 5.38546 180.228 5.4L182.035 5.66164C182.216 5.69071 182.289 5.90875 182.158 6.03957L180.852 7.31871C180.801 7.36958 180.78 7.44226 180.787 7.51494L181.099 9.31736C181.128 9.49906 180.939 9.63715 180.78 9.54994L179.162 8.6996C179.096 8.66326 179.016 8.66326 178.958 8.6996L177.341 9.54994C177.181 9.63715 176.985 9.49906 177.021 9.31736L177.333 7.51494C177.348 7.44226 177.319 7.36958 177.268 7.31871L175.962 6.03957C175.831 5.90875 175.904 5.69071 176.085 5.66164L177.892 5.4C177.964 5.39273 178.03 5.34186 178.059 5.27645L178.864 3.63392C178.944 3.46675 179.176 3.46675 179.256 3.63392Z" fill="white"/>
<path d="M189.232 3.63392L190.037 5.27645C190.066 5.34186 190.132 5.38546 190.204 5.4L192.011 5.66164C192.192 5.69071 192.265 5.90875 192.134 6.03957L190.828 7.31871C190.777 7.36958 190.756 7.44226 190.763 7.51494L191.075 9.31736C191.104 9.49906 190.915 9.63715 190.756 9.54994L189.138 8.6996C189.072 8.66326 188.993 8.66326 188.935 8.6996L187.317 9.54994C187.157 9.63715 186.961 9.49906 186.997 9.31736L187.309 7.51494C187.324 7.44226 187.295 7.36958 187.244 7.31871L185.938 6.03957C185.807 5.90875 185.88 5.69071 186.061 5.66164L187.868 5.4C187.941 5.39273 188.006 5.34186 188.035 5.27645L188.833 3.63392C188.913 3.46675 189.145 3.46675 189.232 3.63392Z" fill="white"/>
<path d="M199.201 3.63392L200.006 5.27645C200.035 5.34186 200.1 5.38546 200.173 5.4L201.98 5.66164C202.161 5.69071 202.233 5.90875 202.103 6.03957L200.797 7.31871C200.746 7.36958 200.724 7.44226 200.732 7.51494L201.044 9.31736C201.073 9.49906 200.884 9.63715 200.724 9.54994L199.106 8.6996C199.041 8.66326 198.961 8.66326 198.903 8.6996L197.285 9.54994C197.126 9.63715 196.93 9.49906 196.966 9.31736L197.278 7.51494C197.293 7.44226 197.264 7.36958 197.213 7.31871L195.907 6.03957C195.776 5.90875 195.849 5.69071 196.03 5.66164L197.837 5.4C197.909 5.39273 197.975 5.34186 198.004 5.27645L198.802 3.63392C198.882 3.46675 199.121 3.46675 199.201 3.63392Z" fill="white"/>
<path d="M51.4035 182.488L36.2255 312.263C36.1094 314.181 38.6923 314.45 38.9099 312.546L60.7918 183.128" fill="#E8E8EC"/>
<path d="M51.2801 183.462L60.9296 183.498L50.7432 187.888L51.2801 183.462Z" fill="#011843"/>
<path d="M307.355 182.488L322.533 313.484C322.649 315.402 320.066 315.671 319.848 313.767L297.966 183.128" fill="#E8E8EC"/>
<path d="M297.974 183.462H307.536L298.801 188.157L297.974 183.462Z" fill="#011843"/>
<path d="M249.284 183.462L242.449 312.052C242.442 313.971 245.032 314.072 245.141 312.154L258.846 183.462" fill="#E8E8EC"/>
<path d="M249.284 183.462H258.846L249.073 188.157L249.284 183.462Z" fill="#011843"/>
<path d="M317.179 174.312H35.6597V183.498H317.179V174.312Z" fill="#375964"/>
<path d="M206.928 174.312H28.1069V183.498H206.928V174.312Z" fill="#FBC501"/>
<path d="M148.102 115.072C148.102 116.409 147.021 117.492 145.686 117.492C144.351 117.492 143.27 116.409 143.27 115.072C143.27 113.734 144.351 112.651 145.686 112.651C147.021 112.651 148.102 113.734 148.102 115.072Z" stroke="#DBE2EF" stroke-width="0.8184" stroke-miterlimit="10"/>
<path d="M214.611 61.2897C214.611 62.627 213.53 63.7099 212.195 63.7099C210.86 63.7099 209.779 62.627 209.779 61.2897C209.779 59.9524 210.86 58.8695 212.195 58.8695C213.53 58.8695 214.611 59.9524 214.611 61.2897Z" stroke="#DBE2EF" stroke-width="0.8184" stroke-miterlimit="10"/>
<path d="M273.618 111.925C273.618 113.262 272.537 114.345 271.202 114.345C269.867 114.345 268.786 113.262 268.786 111.925C268.786 110.587 269.867 109.505 271.202 109.505C272.537 109.505 273.618 110.587 273.618 111.925Z" stroke="#DBE2EF" stroke-width="0.8184" stroke-miterlimit="10"/>
<path d="M99.4917 122.34C100.826 122.34 101.908 121.256 101.908 119.919C101.908 118.583 100.826 117.499 99.4917 117.499C98.1574 117.499 97.0757 118.583 97.0757 119.919C97.0757 121.256 98.1574 122.34 99.4917 122.34Z" stroke="#DBE2EF" stroke-width="0.8184" stroke-miterlimit="10"/>
<path d="M121.548 109.054C121.548 109.97 120.808 110.711 119.893 110.711C118.979 110.711 118.239 109.97 118.239 109.054C118.239 108.138 118.979 107.397 119.893 107.397C120.808 107.397 121.548 108.138 121.548 109.054Z" stroke="#DBE2EF" stroke-width="0.8184" stroke-miterlimit="10"/>
<path d="M161.408 94.242C161.408 95.1578 160.668 95.8991 159.754 95.8991C158.84 95.8991 158.1 95.1578 158.1 94.242C158.1 93.3263 158.84 92.585 159.754 92.585C160.668 92.585 161.408 93.3263 161.408 94.242Z" stroke="#DBE2EF" stroke-width="0.8184" stroke-miterlimit="10"/>
<path d="M118.842 54.7486C118.842 55.6644 118.102 56.4057 117.187 56.4057C116.273 56.4057 115.533 55.6644 115.533 54.7486C115.533 53.8329 116.273 53.0916 117.187 53.0916C118.102 53.0916 118.842 53.8329 118.842 54.7486Z" stroke="#DBE2EF" stroke-width="0.8184" stroke-miterlimit="10"/>
<path d="M251.852 110.711C251.852 111.627 251.112 112.368 250.198 112.368C249.284 112.368 248.544 111.627 248.544 110.711C248.544 109.795 249.284 109.054 250.198 109.054C251.112 109.054 251.852 109.795 251.852 110.711Z" stroke="#DBE2EF" stroke-width="0.8184" stroke-miterlimit="10"/>
<path d="M62.2503 134.942C62.2503 135.858 61.5103 136.599 60.5961 136.599C59.6819 136.599 58.9419 135.858 58.9419 134.942C58.9419 134.026 59.6819 133.285 60.5961 133.285C61.5103 133.285 62.2503 134.026 62.2503 134.942Z" stroke="#DBE2EF" stroke-width="0.8184" stroke-miterlimit="10"/>
<path d="M127.881 83.2459V78.1002" stroke="#DBE2EF" stroke-width="0.8184" stroke-miterlimit="10" stroke-linecap="round" stroke-linejoin="round"/>
<path d="M125.32 80.673H130.45" stroke="#DBE2EF" stroke-width="0.8184" stroke-miterlimit="10" stroke-linecap="round" stroke-linejoin="round"/>
<path d="M184.958 40.1185V34.9801" stroke="#DBE2EF" stroke-width="0.8184" stroke-miterlimit="10" stroke-linecap="round" stroke-linejoin="round"/>
<path d="M182.39 37.5529H187.527" stroke="#DBE2EF" stroke-width="0.8184" stroke-miterlimit="10" stroke-linecap="round" stroke-linejoin="round"/>
<path d="M231.393 108.923V103.785" stroke="#DBE2EF" stroke-width="0.8184" stroke-miterlimit="10" stroke-linecap="round" stroke-linejoin="round"/>
<path d="M228.824 106.35H233.961" stroke="#DBE2EF" stroke-width="0.8184" stroke-miterlimit="10" stroke-linecap="round" stroke-linejoin="round"/>
<path d="M66.4585 158.831V153.686" stroke="#DBE2EF" stroke-width="0.8184" stroke-miterlimit="10" stroke-linecap="round" stroke-linejoin="round"/>
<path d="M63.8901 156.259H69.0196" stroke="#DBE2EF" stroke-width="0.8184" stroke-miterlimit="10" stroke-linecap="round" stroke-linejoin="round"/>
<path d="M89.189 198.557V193.419" stroke="#DBE2EF" stroke-width="0.8184" stroke-miterlimit="10" stroke-linecap="round" stroke-linejoin="round"/>
<path d="M86.6206 195.992H91.7573" stroke="#DBE2EF" stroke-width="0.8184" stroke-miterlimit="10" stroke-linecap="round" stroke-linejoin="round"/>
<path d="M154.29 288.41C153.87 285.691 152.455 282.094 151.853 279.412C152.186 279.201 164.992 274.405 168.17 273.402L171.638 288.046" fill="#FF6258"/>
<path d="M155.937 203.303H150.764C150.764 203.303 157.896 218.035 163.701 235.115C172.574 261.221 174.525 275.197 174.525 275.197L138.895 283.38L115.663 199.233C115.663 199.233 111.6 189.611 117.514 183.324H168.866L155.937 203.303Z" fill="#011843"/>
<path d="M171.914 287.814L176.448 313.331H164.143L162.264 304.188L156.105 313.331H133.896L133.853 311.856C133.787 308.796 135.79 306.063 138.743 305.278C144.547 303.738 152.15 299.791 154.204 288.381" fill="#BD8900"/>
<path d="M153.862 296.928C153.268 296.252 152.673 295.576 152.078 294.9C153.463 294.638 154.508 294.028 155.894 293.766C154.871 293.214 153.667 292.523 152.636 291.971C153.928 291.477 156.438 290.328 156.438 290.328" stroke="white" stroke-miterlimit="10" stroke-linecap="round" stroke-linejoin="round"/>
<path d="M110.149 284.034C110.149 284.034 116.012 274.753 117.673 272.566C118.05 272.689 129.949 279.427 132.764 281.229L123.797 293.301" fill="#FF6258"/>
<path d="M126.147 290.706L115.99 314.545L105.695 307.793L109.126 299.115L98.9763 303.389L80.3955 291.201L81.1646 289.943C82.7825 287.349 85.953 286.157 88.8552 287.123C94.5505 289.013 103.075 289.892 111.027 281.469" fill="#BD8900"/>
<path d="M106.979 288.664C106.406 287.639 105.891 286.585 105.441 285.503C106.972 285.735 108.481 286.026 110.012 286.258C109.475 285.008 108.851 283.613 108.314 282.363C109.685 282.922 111.071 283.359 112.442 283.918" stroke="white" stroke-miterlimit="10" stroke-linecap="round" stroke-linejoin="round"/>
<path d="M199.077 206.53H210.918C219.326 206.53 227.938 202.446 228.642 194.051C229.128 188.237 226.154 183.324 226.154 183.324H167.393C167.393 183.324 146.469 202.257 129.971 224.213C108.988 252.15 102.212 265.247 102.212 265.247L137.015 286.215L189.311 211.618C191.546 208.427 195.188 206.53 199.077 206.53Z" fill="#20353E"/>
<path d="M133.954 283.62C152.041 259.338 169.468 232.971 187.265 208.078C189.522 204.924 193.36 203.303 197.227 203.194L220.03 202.576" stroke="#011843" stroke-width="0.886" stroke-miterlimit="10" stroke-linecap="round" stroke-linejoin="round"/>
<path d="M109.62 257.354L142.776 277.493" stroke="#011843" stroke-width="0.886" stroke-miterlimit="10" stroke-linecap="round" stroke-linejoin="round"/>
<path d="M163.86 194.08C165.608 192.198 167.357 190.323 169.113 188.441" stroke="#011843" stroke-width="0.886" stroke-miterlimit="10" stroke-linecap="round" stroke-linejoin="round"/>
<path d="M168.438 191.878C167.342 193.964 166.443 196.152 165.753 198.405" stroke="#011843" stroke-width="0.886" stroke-miterlimit="10" stroke-linecap="round" stroke-linejoin="round"/>
<path d="M108.509 263.423C111.665 258.953 114.821 254.476 117.977 250.006" stroke="#011843" stroke-width="0.886" stroke-miterlimit="10" stroke-linecap="round" stroke-linejoin="round"/>
<path d="M229.775 129.433C229.571 124.098 228.606 120.174 224.369 116.038C222.773 114.476 220.807 112.731 218.703 111.67C215.641 110.13 211.658 109.526 208.734 108.138L204.41 102.84L196.175 103.603L190.451 102.455C186.722 109.657 174.177 109.999 167.989 116.038C163.752 120.174 162.787 124.098 162.583 129.433C162.047 143.365 163.933 174.312 163.933 174.312H192.163H200.18H226.372C226.379 174.312 230.311 143.365 229.775 129.433Z" fill="#FBC501"/>
<g opacity="0.44">
<mask id="mask0_230_506" style="mask-type:luminance" maskUnits="userSpaceOnUse" x="162" y="102" width="84" height="73">
<path d="M245.163 160.052C243.008 151.535 240.302 142.929 237.182 135.342C234.817 129.593 232.125 123.895 228.149 119.113C224.319 114.505 219.153 110.791 213.298 109.621C211.687 109.141 210.098 108.669 208.742 108.022L204.417 102.724L196.183 103.487L190.458 102.339C186.729 109.541 174.185 109.883 167.996 115.922C163.759 120.057 162.794 123.982 162.591 129.317C162.054 143.249 163.94 174.196 163.94 174.196H192.171H200.188H226.379C226.379 174.196 226.459 173.585 226.59 172.502C229.245 172.698 231.835 172.887 234.251 173.062C241.361 173.578 246.912 166.979 245.163 160.052Z" fill="white"/>
</mask>
<g mask="url(#mask0_230_506)">
<path d="M228.265 183.026V102.462" stroke="#B0BFD6" stroke-width="0.9724" stroke-miterlimit="10" stroke-linecap="round" stroke-linejoin="round"/>
<path d="M214.901 181.144V102.462" stroke="#B0BFD6" stroke-width="0.9724" stroke-miterlimit="10" stroke-linecap="round" stroke-linejoin="round"/>
<path d="M201.544 183.266V102.462" stroke="#B0BFD6" stroke-width="0.9724" stroke-miterlimit="10" stroke-linecap="round" stroke-linejoin="round"/>
<path d="M188.144 178.549L188.238 102.462" stroke="#B0BFD6" stroke-width="0.9724" stroke-miterlimit="10" stroke-linecap="round" stroke-linejoin="round"/>
<path d="M174.83 183.993V102.462" stroke="#B0BFD6" stroke-width="0.9724" stroke-miterlimit="10" stroke-linecap="round" stroke-linejoin="round"/>
<path d="M153.006 120.363H241.666" stroke="#B0BFD6" stroke-width="0.9724" stroke-miterlimit="10" stroke-linecap="round" stroke-linejoin="round"/>
<path d="M153.006 132.376H241.666" stroke="#B0BFD6" stroke-width="0.9724" stroke-miterlimit="10" stroke-linecap="round" stroke-linejoin="round"/>
<path d="M153.006 144.863H241.666" stroke="#B0BFD6" stroke-width="0.9724" stroke-miterlimit="10" stroke-linecap="round" stroke-linejoin="round"/>
<path d="M153.006 157.349L241.666 158.054" stroke="#B0BFD6" stroke-width="0.9724" stroke-miterlimit="10" stroke-linecap="round" stroke-linejoin="round"/>
<path d="M153.006 169.835H241.666" stroke="#B0BFD6" stroke-width="0.9724" stroke-miterlimit="10" stroke-linecap="round" stroke-linejoin="round"/>
</g>
</g>
<path d="M171.5 147.174C172.066 154.282 173.118 162.807 174.235 169.849" stroke="#011843" stroke-width="0.886" stroke-miterlimit="10" stroke-linecap="round" stroke-linejoin="round"/>
<path d="M193.346 110.326L196.364 115.559" stroke="#011843" stroke-width="0.886" stroke-miterlimit="10" stroke-linecap="round" stroke-linejoin="round"/>
<path d="M193.309 110.355L189.544 114.796L186.134 107.848" stroke="#011843" stroke-width="0.886" stroke-miterlimit="10" stroke-linecap="round" stroke-linejoin="round"/>
<path d="M196.4 115.486L207.834 108.552" stroke="#011843" stroke-width="0.886" stroke-miterlimit="10" stroke-linecap="round" stroke-linejoin="round"/>
<path d="M193.36 110.675C193.447 117.477 188.557 124.12 186.997 130.741C185.844 135.625 186.402 140.727 187.005 145.713C187.469 149.543 187.955 153.373 188.47 157.196" stroke="#011843" stroke-width="0.886" stroke-miterlimit="10" stroke-linecap="round" stroke-linejoin="round"/>
<path d="M175.164 111.75C174.605 113.836 174.272 115.988 174.185 118.146" stroke="#011843" stroke-width="0.886" stroke-miterlimit="10" stroke-linecap="round" stroke-linejoin="round"/>
<path d="M160.095 137.268C160.407 132.158 160.719 128.554 162.612 123.793C164.506 119.04 169.962 113.124 174.46 111.801C170.666 121.257 168.511 153.395 173.024 173.825H162.01" fill="#FBC501"/>
<path d="M184.052 165.038C185.343 166.186 186.533 166.92 187.933 167.778C189.217 168.563 192.635 169.268 194.137 169.312H196.342L194.898 158.948C194.993 158.948 194.811 158.977 194.898 158.948L193.759 158.919C189.675 158.177 185.387 157.029 181.36 156.041C176.869 157.988 173.474 160.35 169.926 163.483C169.149 164.166 169.287 165.409 170.187 165.918C170.238 165.947 170.288 165.976 170.347 166.005C170.347 166.005 170.151 166.426 170.455 166.942C170.876 167.647 171.645 167.625 172.305 167.691C172.908 167.749 174.315 166.899 174.315 166.899C174.315 166.899 174.939 167.742 175.367 167.698C177.195 167.524 178.915 167.03 180.751 166.368C181.687 166.019 184.052 165.038 184.052 165.038Z" fill="#FF6258"/>
<path d="M170.071 165.867C172.987 163.89 175.839 161.826 178.632 159.682" stroke="#011843" stroke-width="0.886" stroke-miterlimit="10" stroke-linecap="round" stroke-linejoin="round"/>
<path d="M175.295 167.487C174.634 167.32 174.388 166.957 174.33 166.572C174.243 166.012 174.547 165.46 175.019 165.147C177.66 163.388 180.228 161.513 182.63 159.442" stroke="#011843" stroke-width="0.886" stroke-miterlimit="10" stroke-linecap="round" stroke-linejoin="round"/>
<path d="M192.903 166.528C190.98 166.339 189.123 165.583 187.592 164.406C186.917 163.883 186.003 163.803 185.241 164.195C183.413 165.147 181.585 166.005 179.691 166.848C179.053 167.131 178.255 166.782 178.131 166.092C178.124 166.027 178.117 165.968 178.117 165.91C178.124 165.474 186.373 159.413 186.373 159.413" stroke="#011843" stroke-width="0.886" stroke-miterlimit="10" stroke-linecap="round" stroke-linejoin="round"/>
<path d="M212.659 109.614C218.783 110.631 224.181 114.454 228.157 119.236C232.132 124.018 234.824 129.716 237.189 135.465C240.309 143.046 243.008 151.658 245.17 160.176C246.926 167.095 241.158 173.883 234.033 174.196C219.109 174.857 197.119 174.414 197.119 174.312L194.18 149.594L206.151 150.321L215.453 151.52C215.453 151.52 207.689 131.555 208.575 119.185C208.72 117.012 212.659 109.614 212.659 109.614Z" fill="#FBC501"/>
<path d="M215.772 151.534C215.772 151.534 207.602 131.948 209.01 119.629C209.713 113.444 212.833 110.442 212.833 110.442" stroke="#011843" stroke-width="0.886" stroke-miterlimit="10" stroke-linecap="round" stroke-linejoin="round"/>
<path d="M222.352 151.665L194.173 149.594L196.872 174.261" stroke="#011843" stroke-width="0.886" stroke-miterlimit="10" stroke-linecap="round" stroke-linejoin="round"/>
<path d="M205.781 150.444L206.928 174.312" stroke="#011843" stroke-width="0.886" stroke-miterlimit="10" stroke-linecap="round" stroke-linejoin="round"/>
<path d="M209.191 126.446C208.712 120.995 210.976 115.377 215.097 111.787" stroke="#011843" stroke-width="0.886" stroke-miterlimit="10" stroke-linecap="round" stroke-linejoin="round"/>
<path d="M215.576 151.164C217.281 150.088 218.978 149.013 220.683 147.937" stroke="#011843" stroke-width="0.886" stroke-miterlimit="10" stroke-linecap="round" stroke-linejoin="round"/>
<path d="M236.261 172.27C239.381 171.274 241.985 168.774 243.11 165.692" stroke="#011843" stroke-width="0.886" stroke-miterlimit="10" stroke-linecap="round" stroke-linejoin="round"/>
<path d="M204.773 103.458L189.341 104.577L189.406 88.0862H204.504L204.773 103.458Z" fill="#F74343"/>
<path d="M204.773 103.458L193.309 110.348L189.341 104.577C189.341 104.577 192.751 97.3891 196.952 97.3891C201.152 97.3964 204.773 103.458 204.773 103.458Z" fill="#F74343"/>
<path d="M203.619 91.7347L189.348 103.356V97.9559" fill="#011843"/>
<path d="M192.678 68.6811C191.082 73.6087 186.627 77.3008 182.006 79.6192C182.92 74.3936 186.388 69.1535 192.678 68.6811Z" fill="#011843"/>
<path d="M205.687 83.6165C205.614 87.5266 204.896 91.6838 201.849 94.402C200.354 95.7393 198.533 96.6623 196.647 97.3237C193.832 98.3121 190.161 99.1552 187.229 98.3412C183.841 97.4036 182.31 94.184 181.723 90.9571C181.302 88.6241 181.28 86.2184 181.403 83.8491C181.824 75.7963 185.974 69.0082 192.983 69.0082C202.748 69.0082 205.839 75.5492 205.687 83.6165Z" fill="#FF6258"/>
<path d="M209.198 85.746C209.06 88.2098 207.152 90.1067 204.932 89.9832C202.712 89.8596 201.029 87.7592 201.167 85.3027C201.304 82.8389 203.213 80.942 205.433 81.0655C207.646 81.1891 209.336 83.2822 209.198 85.746Z" fill="#FF6258"/>
<path d="M183.928 84.823C183.928 85.8986 183.058 86.7635 181.991 86.7635C181.803 86.7635 181.621 86.7344 181.447 86.6835C181.418 86.6763 181.338 86.6399 181.338 86.6399C181.338 86.6399 181.295 85.6079 181.345 84.5904C181.389 83.6965 181.469 82.9406 181.469 82.9406C181.469 82.9406 181.578 82.9115 181.621 82.9043C181.737 82.8825 181.861 82.8679 181.991 82.8679C183.065 82.8752 183.928 83.7473 183.928 84.823Z" fill="#E52929"/>
<path d="M198.685 84.823C198.685 85.8986 197.815 86.7635 196.748 86.7635C195.682 86.7635 194.811 85.8913 194.811 84.823C194.811 83.7473 195.682 82.8824 196.748 82.8824C197.815 82.8824 198.685 83.7473 198.685 84.823Z" fill="#E52929"/>
<path d="M189.812 81.0219C188.753 82.5554 187.411 84.3215 187.563 85.2373C187.708 86.153 188.659 86.858 189.573 86.7417" stroke="#011843" stroke-width="0.9724" stroke-miterlimit="10" stroke-linecap="round" stroke-linejoin="round"/>
<path d="M186.634 82.788C186.634 83.115 186.373 83.3767 186.047 83.3767C185.72 83.3767 185.459 83.115 185.459 82.788C185.459 82.4609 185.72 82.1993 186.047 82.1993C186.373 82.1993 186.634 82.4609 186.634 82.788Z" fill="#011843"/>
<path d="M193.57 82.788C193.57 83.115 193.309 83.3767 192.983 83.3767C192.656 83.3767 192.395 83.115 192.395 82.788C192.395 82.4609 192.656 82.1993 192.983 82.1993C193.309 82.1993 193.57 82.4609 193.57 82.788Z" fill="#011843"/>
<path d="M186.583 89.5398C187.73 90.5791 189.478 90.8916 190.908 90.3029" stroke="#011843" stroke-width="0.9724" stroke-miterlimit="10" stroke-linecap="round" stroke-linejoin="round"/>
<path d="M214.088 97.7961C210.874 99.6566 206.76 98.5519 204.903 95.3323C203.046 92.1126 207.363 87.4176 207.363 86.1312C207.363 84.4669 214.69 85.3753 216.548 88.595C218.405 91.8146 217.302 95.9355 214.088 97.7961Z" fill="#011843"/>
<path d="M209.888 87.0252C209.706 83.3476 209.111 79.6265 207.479 76.3269C205.854 73.0273 203.09 70.171 199.593 69.0373C197.046 68.2087 194.267 68.3396 191.655 68.9355C194.173 70.7379 196.458 72.8674 198.541 75.1568C202.19 79.1759 205.041 84.5832 209.888 87.0252Z" fill="#011843"/>
<path d="M205.745 81.4652C199.114 81.1455 191.829 75.7818 189.74 69.4733C194.064 67.6854 198.432 68.7247 201.559 71.5955C204.112 73.9576 205.571 76.2542 205.745 81.4652Z" fill="#011843"/>
<path d="M190.995 71.8572C188.985 74.4445 186.177 77.1264 183.478 78.9869C182.709 79.5175 181.628 79.9972 180.924 79.3867C180.496 79.0087 180.424 78.3764 180.453 77.8023C180.518 76.5522 181.331 74.9387 181.897 73.8268C182.608 72.4168 183.602 71.1158 184.915 70.2364C185.749 69.6841 186.692 69.3062 187.657 69.0518C189.195 68.6521 190.879 68.5576 192.323 69.2262" fill="#011843"/>
<path d="M205.056 94.482C205.6 97.3891 207.929 99.7657 210.316 100.027C212.724 100.289 215.155 98.8718 216.381 96.7786C217.607 94.6855 217.694 92.0327 216.896 89.7433" stroke="#011843" stroke-width="0.886" stroke-miterlimit="10" stroke-linecap="round" stroke-linejoin="round"/>
<path d="M190.415 71.4647C190.03 77.5552 197.053 80.644 202.212 79.2631" stroke="#011843" stroke-width="0.886" stroke-miterlimit="10" stroke-linecap="round" stroke-linejoin="round"/>
<path d="M181.258 79.096C180.511 78.4637 180.279 77.4026 180.322 76.4214C180.497 71.8645 186.177 66.5153 190.668 69.924" stroke="#011843" stroke-width="0.886" stroke-miterlimit="10" stroke-linecap="round" stroke-linejoin="round"/>
<path d="M194.158 91.2696H196.864C200.093 90.6881 204.613 88.704 206.724 86.1893" stroke="#011843" stroke-width="0.886" stroke-miterlimit="10" stroke-linecap="round" stroke-linejoin="round"/>
<path d="M196.335 92.0908H194.332C193.846 92.0908 193.447 91.6911 193.447 91.2041C193.447 90.7172 193.846 90.3174 194.332 90.3174H196.335C196.821 90.3174 197.22 90.7172 197.22 91.2041C197.22 91.6983 196.821 92.0908 196.335 92.0908Z" fill="#FBC501"/>
<path d="M207.595 84.4669C207.595 86.2257 206.899 88.0645 205.636 88.704C205.636 88.704 204.555 88.704 204.069 88.704C202.117 88.704 200.543 86.8071 200.543 84.4669C200.543 82.1266 202.125 80.2297 204.069 80.2297H205.455C206.833 80.8039 207.595 82.6209 207.595 84.4669Z" fill="#9AAECC"/>
<path d="M202.836 82.8897C203.256 79.6047 202.379 76.1597 200.42 73.4852C198.823 71.2975 196.393 69.4442 193.817 68.5358C193.73 68.5067 193.556 68.4485 193.556 68.4485V68.0779L196.161 68.1215C199.404 68.1215 203.22 72.5476 204.221 75.6364C205.23 78.7253 205.382 82.0103 205.643 85.2518" fill="#9AAECC"/>
<path d="M208.887 84.4669C208.887 86.8071 207.305 88.704 205.361 88.704C203.409 88.704 201.834 86.8071 201.834 84.4669C201.834 82.1266 203.416 80.2297 205.361 80.2297C207.312 80.2297 208.887 82.1266 208.887 84.4669Z" fill="#FBC501"/>
<path d="M203.837 82.8897C204.258 79.6047 203.38 76.1597 201.421 73.4852C199.462 70.8106 196.814 68.6666 193.556 68.0779H197.162C197.742 68.0924 199.941 68.8773 201.239 69.9821C203.082 71.5519 204.642 73.8195 205.23 75.6364C206.238 78.7253 206.391 82.0103 206.652 85.2518" fill="#FBC501"/>
<path d="M206.746 84.496C206.746 85.3754 206.195 86.0876 205.513 86.0876C204.831 86.0876 204.279 85.3754 204.279 84.496C204.279 83.6165 204.831 82.9043 205.513 82.9043C206.187 82.9043 206.746 83.6165 206.746 84.496Z" stroke="#011843" stroke-width="0.886" stroke-miterlimit="10" stroke-linecap="round" stroke-linejoin="round"/>
<path d="M158.52 174.312H196.559L196.088 170.249H158.52V174.312Z" fill="#213E66"/>
<path d="M165.572 174.312L144.771 133.954C143.828 132.115 141.935 130.966 139.874 130.966H87.2154C84.9083 130.966 83.4064 133.394 84.4294 135.465L101.813 170.598C103.141 172.895 105.586 174.312 108.241 174.312H165.572Z" fill="#213E66"/>
<path d="M161.103 174.312L140.302 133.954C139.359 132.115 137.465 130.966 135.405 130.966H82.7462C80.439 130.966 78.9372 133.394 79.9602 135.465L97.3438 170.598C98.6715 172.895 101.117 174.312 103.772 174.312H161.103Z" fill="#011843"/>
<path d="M140.498 140.807L138.307 136.555C137.364 134.717 135.47 133.568 133.41 133.568H118.362" stroke="#DBE2EF" stroke-width="0.6645" stroke-miterlimit="10" stroke-linecap="round" stroke-linejoin="round"/>
<path d="M117.702 155.699C119.581 156.927 121.867 156.745 122.803 155.292C123.746 153.846 122.984 151.68 121.105 150.451C119.226 149.223 116.941 149.405 116.005 150.858C115.069 152.305 115.823 154.478 117.702 155.699Z" stroke="#DBE2EF" stroke-width="0.8184" stroke-miterlimit="10"/>
<path d="M248.957 50.8749H220.502C218.696 50.8749 217.324 49.2324 217.651 47.4517L218.768 41.3976L219.973 34.842C220.226 33.4684 221.424 32.4655 222.824 32.4655H251.279C253.086 32.4655 254.457 34.108 254.13 35.8886L253.093 41.5357L251.816 48.4983C251.555 49.8792 250.358 50.8749 248.957 50.8749Z" fill="#FBC501"/>
<path d="M220.415 32.4655L234.439 42.8803L254.754 32.4655" stroke="white" stroke-width="0.6645" stroke-miterlimit="10"/>
<path d="M221.38 49.0579H237" stroke="white" stroke-width="0.6645" stroke-miterlimit="10" stroke-linecap="round" stroke-linejoin="round"/>
<path d="M239.155 49.0579C239.279 49.0579 239.395 49.0579 239.518 49.0579H241.724" stroke="#DBE2EF" stroke-width="0.6645" stroke-miterlimit="10" stroke-linecap="round" stroke-linejoin="round"/>
</g>
<defs>
<clipPath id="clip0_230_506">
<rect width="337" height="319" fill="white"/>
</clipPath>
</defs>
</svg>
