<svg width="306" height="305" viewBox="0 0 306 305" fill="none" xmlns="http://www.w3.org/2000/svg">
<g clip-path="url(#clip0_230_725)">
<path d="M43.0839 242.193H17.7311V250.25H43.0839V242.193Z" fill="#EBEBEB"/>
<path d="M58.3055 148.216H32.9528V156.273H58.3055V148.216Z" fill="#EBEBEB"/>
<path d="M28.9365 260.409C24.711 260.481 14.0608 260.661 9.97955 260.704L3.58367 260.733H3.25919V260.402L3.23035 252.345V251.985H3.59088L16.2673 252.035C19.4256 252.064 25.7854 252.129 28.9437 252.172H29.1167V252.338L28.9365 260.409ZM28.9365 260.409L28.7634 252.352L28.9365 252.525C25.771 252.568 19.4256 252.64 16.2601 252.662L3.58367 252.712L3.9442 252.352L3.91536 260.409L3.58367 260.078L9.86418 260.107C13.8877 260.157 24.7831 260.337 28.9365 260.409Z" fill="#EBEBEB"/>
<path d="M172.379 117.702C168.153 117.774 157.503 117.954 153.422 117.997L147.026 118.026H146.701V117.694L146.673 109.637V109.277H147.033L159.71 109.328C162.868 109.356 169.228 109.421 172.386 109.464H172.559V109.63L172.379 117.702ZM172.379 117.702L172.206 109.644L172.379 109.817C169.213 109.86 162.868 109.933 159.702 109.954L147.026 110.004L147.386 109.644L147.358 117.702L147.026 117.37L153.306 117.399C157.33 117.449 168.225 117.63 172.379 117.702Z" fill="#EBEBEB"/>
<path d="M158.239 127.861C154.013 127.933 143.363 128.113 139.282 128.156L132.886 128.185H132.561V127.854L132.532 119.797V119.437H132.893L145.569 119.487C148.728 119.516 155.088 119.581 158.246 119.624H158.419V119.79L158.239 127.861ZM158.239 127.861L158.066 119.804L158.239 119.977C155.073 120.02 148.728 120.092 145.562 120.114L132.886 120.164L133.246 119.804L133.217 127.861L132.886 127.53L139.166 127.559C143.19 127.609 154.085 127.789 158.239 127.861Z" fill="#EBEBEB"/>
<path d="M144.156 109.644H118.803V117.701H144.156V109.644Z" fill="#EBEBEB"/>
<path d="M301.883 252.352H276.53V260.409H301.883V252.352Z" fill="#EBEBEB"/>
<path d="M287.742 3.54968H262.39V11.6067H287.742V3.54968Z" fill="#EBEBEB"/>
<path d="M301.883 21.7662C297.657 21.8382 287.007 22.0182 282.926 22.0614L276.53 22.0902H276.205V21.759L276.169 13.7092V13.3492H276.53L289.206 13.3996C292.365 13.4284 298.724 13.4932 301.883 13.5364H302.056V13.702L301.883 21.7662ZM301.883 21.7662L301.71 13.7092L301.883 13.882C298.717 13.9252 292.372 13.9972 289.206 14.0188L276.53 14.0692L276.89 13.7092L276.862 21.7662L276.53 21.435L282.81 21.4638C286.827 21.5142 297.722 21.6942 301.883 21.7662Z" fill="#EBEBEB"/>
<path d="M43.0838 11.6067C38.8583 11.6787 28.2081 11.8587 24.1269 11.9019L17.731 11.9307H17.4065V11.5995L17.3705 3.54971V3.1897H17.731L30.4074 3.2401C33.5657 3.2689 39.9255 3.3337 43.0838 3.3769H43.2569V3.54251L43.0838 11.6067ZM43.0838 11.6067L42.9107 3.54971L43.0838 3.72251C39.9183 3.76571 33.5729 3.83771 30.4074 3.85932L17.731 3.90972L18.0916 3.54971L18.0627 11.6067L17.731 11.2755L24.0115 11.3043C28.0279 11.3547 38.9232 11.5347 43.0838 11.6067Z" fill="#EBEBEB"/>
<path d="M189.266 278.943C185.041 279.015 174.391 279.195 170.309 279.238L163.913 279.267H163.589V278.935L163.56 270.878V270.518H163.921L176.597 270.569C179.755 270.598 186.115 270.662 189.273 270.706H189.446V270.871L189.266 278.943ZM189.266 278.943L189.093 270.886L189.266 271.058C186.101 271.102 179.755 271.174 176.59 271.195L163.913 271.246L164.274 270.886L164.245 278.943L163.913 278.611L170.194 278.64C174.217 278.691 185.113 278.871 189.266 278.943Z" fill="#EBEBEB"/>
<path d="M51.2752 55.7439C49.4581 68.1714 38.7286 77.7116 25.7854 77.7116C11.5515 77.7116 0 66.1913 0 51.971C0 37.7578 11.5515 26.2375 25.7854 26.2375V51.971L51.2752 55.7439Z" fill="#EBEBEB"/>
<path d="M56.8058 46.7292C56.8058 48.0108 56.7121 49.2709 56.5246 50.5021L31.0276 46.7292V20.9885C40.589 20.9885 48.9462 26.1943 53.3951 33.9273C55.5728 37.7002 56.8058 42.0779 56.8058 46.7292Z" fill="#DBDBDB"/>
<path d="M55.9838 61.1008H28.5759V61.8208H55.9838V61.1008Z" fill="#C7C7C7"/>
<path d="M57.9017 63.7433C56.6399 63.7433 55.6232 62.7208 55.6232 61.468C55.6232 60.2152 56.6471 59.1927 57.9017 59.1927C59.1636 59.1927 60.1803 60.2152 60.1803 61.468C60.1875 62.7208 59.1636 63.7433 57.9017 63.7433ZM57.9017 59.9056C57.0437 59.9056 56.3442 60.604 56.3442 61.4608C56.3442 62.3176 57.0437 63.016 57.9017 63.016C58.7598 63.016 59.4593 62.3176 59.4593 61.4608C59.4665 60.604 58.767 59.9056 57.9017 59.9056Z" fill="#C7C7C7"/>
<path d="M86.1605 60.028H64.8673V60.9856H86.1605V60.028Z" fill="#C7C7C7"/>
<path d="M76.9164 61.9432H64.8673V62.9009H76.9164V61.9432Z" fill="#C7C7C7"/>
<path d="M140.572 153.674H133.773V201.987H140.572V153.674Z" fill="#EBEBEB"/>
<path d="M152.261 165.367H145.461V201.987H152.261V165.367Z" fill="#EBEBEB"/>
<path d="M163.949 183.677H157.15V201.987H163.949V183.677Z" fill="#EBEBEB"/>
<path d="M175.638 173.215H168.838V201.98H175.638V173.215Z" fill="#EBEBEB"/>
<path d="M187.319 162.235H180.52V201.987H187.319V162.235Z" fill="#EBEBEB"/>
<path d="M199.008 155.776H192.208V201.987H199.008V155.776Z" fill="#EBEBEB"/>
<path d="M129.836 147.525L129.915 161.14L129.951 174.756L130.009 201.987L129.836 201.814C136.087 201.8 142.332 201.785 148.583 201.807L167.331 201.843L186.079 201.879L204.827 201.98L186.079 202.08L167.331 202.116L148.583 202.152C142.332 202.174 136.087 202.167 129.836 202.145H129.663V201.972L129.72 174.741L129.756 161.126L129.836 147.525Z" fill="#EBEBEB"/>
<path d="M128.336 150.261C128.833 150.11 129.338 150.074 129.836 150.066C130.333 150.074 130.838 150.11 131.335 150.261C130.838 150.412 130.333 150.448 129.836 150.455C129.331 150.441 128.833 150.412 128.336 150.261Z" fill="#EBEBEB"/>
<path d="M128.336 154.394C128.833 154.242 129.338 154.206 129.836 154.199C130.333 154.206 130.838 154.242 131.335 154.394C130.838 154.545 130.333 154.581 129.836 154.588C129.331 154.581 128.833 154.545 128.336 154.394Z" fill="#EBEBEB"/>
<path d="M128.336 158.534C128.833 158.383 129.338 158.347 129.836 158.339C130.333 158.347 130.838 158.383 131.335 158.534C130.838 158.685 130.333 158.721 129.836 158.728C129.331 158.721 128.833 158.685 128.336 158.534Z" fill="#EBEBEB"/>
<path d="M128.336 162.674C128.833 162.523 129.338 162.487 129.836 162.479C130.333 162.487 130.838 162.523 131.335 162.674C130.838 162.825 130.333 162.861 129.836 162.868C129.331 162.861 128.833 162.825 128.336 162.674Z" fill="#EBEBEB"/>
<path d="M128.336 166.814C128.833 166.663 129.338 166.627 129.836 166.62C130.333 166.627 130.838 166.663 131.335 166.814C130.838 166.965 130.333 167.001 129.836 167.008C129.331 167.001 128.833 166.965 128.336 166.814Z" fill="#EBEBEB"/>
<path d="M128.336 170.954C128.833 170.803 129.338 170.767 129.836 170.76C130.333 170.767 130.838 170.803 131.335 170.954C130.838 171.105 130.333 171.141 129.836 171.148C129.331 171.134 128.833 171.105 128.336 170.954Z" fill="#EBEBEB"/>
<path d="M128.336 175.087C128.833 174.936 129.338 174.9 129.836 174.893C130.333 174.9 130.838 174.936 131.335 175.087C130.838 175.238 130.333 175.274 129.836 175.281C129.331 175.274 128.833 175.238 128.336 175.087Z" fill="#EBEBEB"/>
<path d="M128.336 179.227C128.833 179.076 129.338 179.04 129.836 179.033C130.333 179.04 130.838 179.076 131.335 179.227C130.838 179.378 130.333 179.414 129.836 179.422C129.331 179.414 128.833 179.378 128.336 179.227Z" fill="#EBEBEB"/>
<path d="M128.336 183.367C128.833 183.216 129.338 183.18 129.836 183.173C130.333 183.18 130.838 183.216 131.335 183.367C130.838 183.518 130.333 183.554 129.836 183.562C129.331 183.554 128.833 183.518 128.336 183.367Z" fill="#EBEBEB"/>
<path d="M128.336 187.507C128.833 187.356 129.338 187.32 129.836 187.313C130.333 187.32 130.838 187.356 131.335 187.507C130.838 187.659 130.333 187.695 129.836 187.702C129.331 187.695 128.833 187.659 128.336 187.507Z" fill="#EBEBEB"/>
<path d="M128.336 191.647C128.833 191.496 129.338 191.46 129.836 191.453C130.333 191.46 130.838 191.496 131.335 191.647C130.838 191.799 130.333 191.835 129.836 191.842C129.331 191.827 128.833 191.799 128.336 191.647Z" fill="#EBEBEB"/>
<path d="M128.336 195.78C128.833 195.629 129.338 195.593 129.836 195.586C130.333 195.593 130.838 195.629 131.335 195.78C130.838 195.932 130.333 195.968 129.836 195.975C129.331 195.968 128.833 195.932 128.336 195.78Z" fill="#EBEBEB"/>
<path d="M2.38672 295.539C98.7071 295.1 206.766 295.093 303.087 295.539C206.759 295.985 98.7071 295.978 2.38672 295.539Z" fill="#263238"/>
<path d="M294.037 0H175.869C169.271 0 163.913 5.43614 163.913 12.1611V255.052C163.913 261.763 169.271 267.213 175.869 267.213H294.037C300.635 267.213 306.007 261.763 306.007 255.052V12.1611C306 5.43614 300.635 0 294.037 0ZM298.522 247.535C298.522 253.929 293.727 259.099 287.815 259.099H182.106C176.179 259.099 171.384 253.929 171.384 247.535V21.363C171.384 8.33782 176.179 7.7042 182.106 7.7042H203.284C204.517 7.7042 205.519 9.10104 205.519 10.8291V11.5779C205.519 15.6316 207.74 15.646 210.466 15.646H259.433C262.188 15.646 264.394 15.6316 264.394 11.5779V10.8291C264.394 9.10104 265.389 7.7042 266.637 7.7042H287.807C293.72 7.7042 298.515 9.43225 298.515 21.363V247.535H298.522Z" fill="#263238"/>
<path d="M298.522 21.363V247.535C298.522 253.929 293.727 259.099 287.815 259.099H182.106C176.179 259.099 171.384 253.929 171.384 247.535V21.363C171.384 8.33784 176.179 7.70422 182.106 7.70422H203.284C204.517 7.70422 205.519 9.10106 205.519 10.8291V11.5779C205.519 15.6316 207.74 15.646 210.465 15.646H259.433C262.188 15.646 264.394 15.6316 264.394 11.5779V10.8291C264.394 9.10106 265.389 7.70422 266.637 7.70422H287.807C293.727 7.70422 298.522 9.43947 298.522 21.363Z" fill="white"/>
<path d="M199.628 12.7876C199.563 12.8524 199.491 12.9244 199.426 12.9892C199.39 13.0252 199.347 13.0684 199.31 13.1044C198.762 12.5716 198.106 12.2908 197.342 12.2908C196.578 12.2908 195.921 12.5716 195.366 13.1116C195.33 13.0756 195.294 13.0324 195.258 12.9964C195.193 12.9316 195.121 12.8596 195.056 12.7948H195.049C195.049 12.7948 195.049 12.7948 195.049 12.7876C195.056 12.7804 195.056 12.7804 195.063 12.7732C195.15 12.694 195.236 12.6148 195.323 12.5428C195.503 12.3916 195.705 12.2692 195.921 12.1612C196.174 12.0388 196.441 11.9452 196.715 11.8948C196.844 11.8732 196.981 11.8588 197.111 11.8444C197.154 11.8372 197.45 11.8372 197.457 11.8372C197.544 11.8444 197.638 11.8444 197.724 11.8588C197.976 11.8876 198.214 11.9452 198.452 12.0316C198.625 12.0964 198.784 12.1684 198.943 12.262C199.109 12.3556 199.267 12.4636 199.411 12.5932C199.484 12.6508 199.556 12.7156 199.628 12.7876C199.628 12.7804 199.628 12.7804 199.628 12.7876Z" fill="#C7C7C7"/>
<path d="M196.008 13.7452C195.9 13.6372 195.792 13.5364 195.683 13.4284C196.051 13.0684 196.484 12.838 196.996 12.766C197.76 12.6652 198.416 12.8956 198.972 13.4212C198.863 13.5292 198.755 13.6372 198.647 13.7452C198.279 13.3924 197.839 13.198 197.328 13.198C196.816 13.198 196.376 13.3924 196.008 13.7452Z" fill="#C7C7C7"/>
<path d="M198.33 14.0692C198.222 14.1772 198.113 14.2852 198.005 14.3932C197.818 14.2132 197.594 14.1124 197.327 14.1124C197.061 14.1124 196.837 14.2132 196.65 14.3932C196.542 14.2852 196.433 14.1772 196.325 14.0692C196.844 13.5364 197.767 13.4932 198.33 14.0692Z" fill="#C7C7C7"/>
<path d="M197.623 14.6813C197.623 14.8397 197.493 14.9693 197.335 14.9693C197.176 14.9693 197.046 14.8397 197.046 14.6813C197.046 14.5229 197.176 14.3932 197.335 14.3932C197.493 14.3932 197.623 14.5229 197.623 14.6813Z" fill="#C7C7C7"/>
<path d="M179.676 13.3996C179.676 12.9316 180.051 12.5572 180.519 12.5572C180.988 12.5572 181.363 12.9316 181.363 13.3996C181.363 13.8676 180.988 14.242 180.519 14.242C180.051 14.242 179.676 13.8676 179.676 13.3996Z" fill="#C7C7C7"/>
<path d="M182.329 13.3996C182.329 12.9316 182.704 12.5572 183.173 12.5572C183.642 12.5572 184.017 12.9316 184.017 13.3996C184.017 13.8676 183.642 14.242 183.173 14.242C182.704 14.242 182.329 13.8676 182.329 13.3996Z" fill="#C7C7C7"/>
<path d="M184.983 13.3996C184.983 12.9316 185.358 12.5572 185.827 12.5572C186.295 12.5572 186.67 12.9316 186.67 13.3996C186.67 13.8676 186.295 14.242 185.827 14.242C185.358 14.242 184.983 13.8676 184.983 13.3996Z" fill="#C7C7C7"/>
<path d="M187.636 13.3996C187.636 12.9316 188.011 12.5572 188.48 12.5572C188.949 12.5572 189.324 12.9316 189.324 13.3996C189.324 13.8676 188.949 14.242 188.48 14.242C188.011 14.242 187.636 13.8676 187.636 13.3996Z" fill="#C7C7C7"/>
<path d="M190.29 13.3996C190.29 12.9316 190.665 12.5572 191.134 12.5572C191.602 12.5572 191.977 12.9316 191.977 13.3996C191.977 13.8676 191.602 14.242 191.134 14.242C190.672 14.242 190.29 13.8676 190.29 13.3996Z" fill="#C7C7C7"/>
<path d="M288.99 15.2356H282.133V12.0604H288.99V15.2356ZM282.479 14.89H288.637V12.4132H282.479V14.89Z" fill="#C7C7C7"/>
<path d="M287.115 12.6076H282.695V14.7029H287.115V12.6076Z" fill="#C7C7C7"/>
<path d="M289.603 12.802H288.99V14.5012H289.603V12.802Z" fill="#C7C7C7"/>
<path d="M241.637 10.5843H228.283C227.829 10.5843 227.461 10.2171 227.461 9.76345C227.461 9.30984 227.829 8.94263 228.283 8.94263H241.637C242.092 8.94263 242.459 9.30984 242.459 9.76345C242.459 10.2171 242.092 10.5843 241.637 10.5843Z" fill="white"/>
<path d="M187.918 245.793H187.29V248.644H186.129V247.19H184.074V248.644H182.913V245.793H182.286L185.098 242.891L187.918 245.793Z" fill="#EBEBEB"/>
<path d="M288.629 242.891H281.851V243.856H288.629V242.891Z" fill="#EBEBEB"/>
<path d="M288.629 245.289H281.851V246.254H288.629V245.289Z" fill="#EBEBEB"/>
<path d="M288.629 247.679H281.851V248.644H288.629V247.679Z" fill="#EBEBEB"/>
<path d="M237.455 245.872L235.523 247.924L233.597 245.872L233.936 245.548L235.523 247.24L237.116 245.548L237.455 245.872Z" fill="#EBEBEB"/>
<path d="M235.523 250.048C233.59 250.048 232.018 248.479 232.018 246.549C232.018 244.619 233.59 243.05 235.523 243.05C237.455 243.05 239.027 244.619 239.027 246.549C239.027 248.479 237.455 250.048 235.523 250.048ZM235.523 243.51C233.85 243.51 232.48 244.871 232.48 246.542C232.48 248.212 233.843 249.573 235.523 249.573C237.195 249.573 238.558 248.212 238.558 246.542C238.558 244.871 237.203 243.51 235.523 243.51Z" fill="#EBEBEB"/>
<path d="M291.795 24.5599H178.111V57.6951H291.795V24.5599Z" fill="#FFC727"/>
<path d="M184.586 35.2018L180.822 31.6881L184.586 28.1744L185.17 28.7936L182.07 31.6881L185.17 34.5825L184.586 35.2018Z" fill="white"/>
<path d="M289.091 29.4992C289.091 29.9096 288.759 30.2408 288.348 30.2408C287.937 30.2408 287.605 29.9096 287.605 29.4992C287.605 29.0888 287.937 28.7576 288.348 28.7576C288.759 28.7576 289.091 29.0888 289.091 29.4992Z" fill="white"/>
<path d="M289.091 32.1272C289.091 32.5376 288.759 32.8689 288.348 32.8689C287.937 32.8689 287.605 32.5376 287.605 32.1272C287.605 31.7168 287.937 31.3856 288.348 31.3856C288.759 31.3856 289.091 31.7168 289.091 32.1272Z" fill="white"/>
<path d="M289.091 34.7481C289.091 35.1586 288.759 35.4898 288.348 35.4898C287.937 35.4898 287.605 35.1586 287.605 34.7481C287.605 34.3377 287.937 34.0065 288.348 34.0065C288.759 34.0065 289.091 34.3449 289.091 34.7481Z" fill="white"/>
<path d="M190.29 31.688C203.37 31.2056 216.544 31.2056 229.631 31.688C216.544 32.1705 203.377 32.1705 190.29 31.688Z" fill="white"/>
<path d="M190.29 35.2018C199.123 34.9642 208.843 34.9642 217.676 35.2018C208.843 35.4394 199.123 35.4394 190.29 35.2018Z" fill="white"/>
<path d="M203.305 47.3053C223.582 47.0821 246.324 47.0821 266.601 47.3053C246.324 47.5285 223.582 47.5285 203.305 47.3053Z" fill="white"/>
<path d="M183.296 84.9119C201.236 84.7823 219.183 84.8183 237.123 84.7679C255.064 84.8183 273.011 84.7895 290.951 84.9119C273.011 85.0415 255.064 85.0055 237.123 85.0631C219.176 85.0127 201.236 85.0415 183.296 84.9119Z" fill="#455A64"/>
<path d="M183.296 97.0225C201.236 96.8929 219.183 96.9289 237.123 96.8713C255.064 96.9217 273.011 96.8929 290.951 97.0225C273.011 97.1522 255.064 97.1161 237.123 97.1665C219.176 97.1233 201.236 97.1522 183.296 97.0225Z" fill="#455A64"/>
<path d="M183.296 109.133C201.236 109.004 219.183 109.04 237.123 108.982C255.064 109.033 273.011 109.004 290.951 109.133C273.011 109.263 255.064 109.227 237.123 109.285C219.176 109.227 201.236 109.263 183.296 109.133Z" fill="#455A64"/>
<path d="M183.296 121.244C201.236 121.114 219.183 121.15 237.123 121.093C255.064 121.143 273.011 121.114 290.951 121.244C273.011 121.374 255.064 121.338 237.123 121.395C219.176 121.338 201.236 121.374 183.296 121.244Z" fill="#455A64"/>
<path d="M183.296 133.355C201.236 133.225 219.183 133.261 237.123 133.204C255.064 133.254 273.011 133.225 290.951 133.355C273.011 133.484 255.064 133.448 237.123 133.506C219.176 133.448 201.236 133.484 183.296 133.355Z" fill="#455A64"/>
<path d="M204.971 77.0421C205.13 88.3607 205.086 99.6722 205.151 110.991C205.086 122.31 205.13 133.621 204.971 144.94C204.812 133.621 204.848 122.31 204.783 110.991C204.848 99.6722 204.812 88.3607 204.971 77.0421Z" fill="#455A64"/>
<path d="M223.589 77.0421C223.747 88.3607 223.704 99.6722 223.776 110.991C223.711 122.31 223.755 133.621 223.589 144.94C223.43 133.621 223.473 122.31 223.409 110.991C223.466 99.6722 223.43 88.3607 223.589 77.0421Z" fill="#455A64"/>
<path d="M242.207 77.0421C242.366 88.3607 242.322 99.6722 242.387 110.991C242.322 122.31 242.366 133.621 242.207 144.94C242.048 133.621 242.092 122.31 242.019 110.991C242.084 99.6722 242.048 88.3607 242.207 77.0421Z" fill="#455A64"/>
<path d="M260.825 77.0421C260.983 88.3607 260.94 99.6722 261.012 110.991C260.947 122.31 260.991 133.621 260.825 144.94C260.666 133.621 260.709 122.31 260.645 110.991C260.702 99.6722 260.666 88.3607 260.825 77.0421Z" fill="#455A64"/>
<path d="M279.443 77.0421C279.601 88.3607 279.558 99.6722 279.623 110.991C279.558 122.31 279.601 133.621 279.443 144.94C279.284 133.621 279.327 122.31 279.263 110.991C279.32 99.6722 279.284 88.3607 279.443 77.0421Z" fill="#455A64"/>
<path opacity="0.5" d="M186.007 124.571C189.295 124.571 191.249 112.273 195.907 112.273C200.558 112.273 201.048 121.244 204.971 121.244C208.893 121.244 208.771 105.483 214.035 105.483C219.298 105.483 218.08 111.877 223.589 111.877C229.098 111.877 227.021 97.0226 232.775 97.0226C238.529 97.0226 236.208 117.486 242.207 117.486C246.007 117.486 247.471 110.984 252.006 110.984C255.006 110.984 256.78 114.238 260.702 114.238C264.69 114.238 265.483 101.739 270.379 101.739C275.275 101.739 275.837 109.133 279.443 109.133C283.048 109.133 284.339 97.0226 290.958 97.0226V144.933H186.007V124.571Z" fill="#FFC727"/>
<path opacity="0.3" d="M186.007 124.571C189.295 124.571 191.249 112.273 195.907 112.273C200.558 112.273 201.048 121.244 204.971 121.244C208.893 121.244 208.771 105.483 214.035 105.483C219.298 105.483 218.08 111.877 223.589 111.877C229.098 111.877 227.021 97.0226 232.775 97.0226C238.529 97.0226 236.208 117.486 242.207 117.486C246.007 117.486 247.471 110.984 252.006 110.984C255.006 110.984 256.78 114.238 260.702 114.238C264.69 114.238 265.483 101.739 270.379 101.739C275.275 101.739 275.837 109.133 279.443 109.133C283.048 109.133 284.339 97.0226 290.958 97.0226V144.933H186.007V124.571Z" fill="#FFC727"/>
<path d="M186.007 125.161V123.98C187.002 123.98 188.372 121.107 189.374 119.005C191.09 115.405 192.871 111.675 195.907 111.675C198.82 111.675 200.269 114.404 201.546 116.809C202.548 118.695 203.579 120.646 204.971 120.646C206.197 120.646 207.257 116.859 208.035 114.094C209.304 109.565 210.617 104.878 214.035 104.878C217.085 104.878 218.282 106.714 219.335 108.341C220.358 109.918 221.245 111.279 223.589 111.279C225.709 111.279 226.538 107.808 227.338 104.453C228.283 100.507 229.256 96.4249 232.775 96.4249C236.265 96.4249 237.159 101.566 238.104 107.002C238.868 111.401 239.82 116.881 242.207 116.881C243.635 116.881 244.803 115.527 246.043 114.101C247.55 112.359 249.259 110.386 252.006 110.386C253.657 110.386 254.948 111.193 256.196 111.97C257.501 112.791 258.856 113.633 260.695 113.633C262.058 113.633 263.298 110.66 264.293 108.269C265.757 104.763 267.271 101.134 270.379 101.134C273.465 101.134 274.987 103.496 276.321 105.576C277.301 107.096 278.224 108.528 279.443 108.528C280.481 108.528 281.649 106.224 282.688 104.201C284.454 100.738 286.661 96.4177 290.958 96.4177V97.5986C287.649 97.5986 285.738 101.343 284.05 104.64C282.608 107.47 281.469 109.702 279.443 109.702C277.33 109.702 276.205 107.96 275.015 106.109C273.811 104.237 272.564 102.307 270.379 102.307C268.331 102.307 266.932 105.67 265.692 108.636C264.308 111.949 263.118 114.807 260.702 114.807C258.359 114.807 256.729 113.792 255.294 112.892C254.148 112.172 253.153 111.553 252.006 111.553C250.023 111.553 248.617 113.187 247.254 114.764C245.855 116.384 244.413 118.054 242.214 118.054C238.544 118.054 237.621 112.762 236.647 107.153C235.912 102.891 234.989 97.5913 232.782 97.5913C230.482 97.5913 229.581 101.343 228.788 104.655C227.829 108.658 226.927 112.438 223.589 112.438C220.358 112.438 219.118 110.544 218.029 108.867C217.042 107.348 216.191 106.037 214.035 106.037C211.799 106.037 210.509 110.631 209.47 114.332C208.302 118.508 207.372 121.806 204.971 121.806C202.606 121.806 201.438 119.588 200.19 117.248C199.036 115.073 197.847 112.834 195.907 112.834C193.881 112.834 192.143 116.477 190.751 119.401C189.223 122.634 188.011 125.161 186.007 125.161Z" fill="#FFC727"/>
<path opacity="0.5" d="M242.207 117.486V144.925H223.589V111.877C229.098 111.877 227.021 97.0226 232.775 97.0226C238.529 97.0226 236.2 117.486 242.207 117.486Z" fill="#FFC727"/>
<path d="M232.768 99.5859C234.397 99.5859 235.717 98.2674 235.717 96.641C235.717 95.0146 234.397 93.6961 232.768 93.6961C231.139 93.6961 229.819 95.0146 229.819 96.641C229.819 98.2674 231.139 99.5859 232.768 99.5859Z" fill="#263238"/>
<path d="M234.455 96.641C234.455 97.5698 233.698 98.3258 232.768 98.3258C231.838 98.3258 231.081 97.5698 231.081 96.641C231.081 95.7121 231.838 94.9561 232.768 94.9561C233.698 94.9561 234.455 95.7121 234.455 96.641Z" fill="#FFC727"/>
<path d="M238.075 84.6382H227.374V90.6H238.075V84.6382Z" fill="#FFC727"/>
<path d="M231.319 90.6H234.131L232.725 92.6232L231.319 90.6Z" fill="#FFC727"/>
<path d="M229.379 86.8343C231.636 86.7119 233.9 86.7119 236.157 86.8343C233.9 86.9567 231.636 86.9567 229.379 86.8343Z" fill="white"/>
<path d="M229.379 87.9935C231.636 87.8711 233.9 87.8711 236.157 87.9935C233.9 88.1159 231.636 88.1087 229.379 87.9935Z" fill="white"/>
<path d="M186.007 77.7765C186.122 88.9656 186.23 100.162 186.238 111.351L186.346 144.925L186 144.652L238.472 144.724L264.711 144.781L290.951 144.933L264.711 145.084L238.472 145.141L186 145.213H185.653V144.94L185.762 111.365C185.783 100.162 185.884 88.9728 186.007 77.7765Z" fill="#455A64"/>
<path d="M191.624 149.958C194.112 149.591 196.614 149.584 199.101 149.958C196.614 150.326 194.112 150.326 191.624 149.958Z" fill="#DBDBDB"/>
<path d="M178.111 84.919C179.243 84.5518 180.39 84.5446 181.522 84.919C180.39 85.2863 179.243 85.2863 178.111 84.919Z" fill="#DBDBDB"/>
<path d="M178.111 97.0226C179.243 96.6554 180.39 96.6481 181.522 97.0226C180.39 97.397 179.243 97.397 178.111 97.0226Z" fill="#DBDBDB"/>
<path d="M178.111 109.133C179.243 108.766 180.39 108.759 181.522 109.133C180.39 109.508 179.243 109.508 178.111 109.133Z" fill="#DBDBDB"/>
<path d="M178.111 121.244C179.243 120.877 180.39 120.87 181.522 121.244C180.39 121.618 179.243 121.618 178.111 121.244Z" fill="#DBDBDB"/>
<path d="M178.111 133.355C179.243 132.988 180.39 132.98 181.522 133.355C180.39 133.729 179.243 133.722 178.111 133.355Z" fill="#DBDBDB"/>
<path d="M209.961 149.958C212.448 149.591 214.95 149.584 217.438 149.958C214.95 150.326 212.456 150.326 209.961 149.958Z" fill="#DBDBDB"/>
<path d="M228.305 149.958C230.792 149.591 233.294 149.584 235.782 149.958C233.287 150.326 230.792 150.326 228.305 149.958Z" fill="#DBDBDB"/>
<path d="M246.641 149.958C249.129 149.591 251.631 149.584 254.119 149.958C251.624 150.326 249.129 150.326 246.641 149.958Z" fill="#DBDBDB"/>
<path d="M264.978 149.958C267.466 149.591 269.968 149.584 272.456 149.958C269.968 150.326 267.466 150.326 264.978 149.958Z" fill="#DBDBDB"/>
<path d="M283.315 149.958C285.803 149.591 288.305 149.584 290.792 149.958C288.305 150.326 285.81 150.326 283.315 149.958Z" fill="#DBDBDB"/>
<path d="M178.212 66.141C188.768 65.6513 199.404 65.6513 209.961 66.141C199.404 66.6306 188.768 66.6306 178.212 66.141Z" fill="#DBDBDB"/>
<path d="M178.212 69.4746C184.976 68.985 191.819 68.985 198.582 69.4746C191.811 69.9642 184.976 69.9642 178.212 69.4746Z" fill="#DBDBDB"/>
<path d="M270.581 69.4746C277.366 69.1146 284.166 69.1074 290.951 69.4746C284.173 69.8346 277.366 69.8346 270.581 69.4746Z" fill="#FFC727"/>
<path d="M178.911 161.09C189.591 160.6 200.349 160.6 211.028 161.09C200.349 161.579 189.591 161.579 178.911 161.09Z" fill="#263238"/>
<path d="M266.702 161.09C274.778 160.73 282.875 160.723 290.951 161.09C282.875 161.457 274.778 161.45 266.702 161.09Z" fill="#FFC727"/>
<path d="M200.781 171.141C209.175 170.652 217.647 170.652 226.041 171.141C217.647 171.631 209.175 171.631 200.781 171.141Z" fill="#263238"/>
<path d="M200.781 174.849C207.812 174.36 214.922 174.36 221.952 174.849C214.914 175.339 207.812 175.339 200.781 174.849Z" fill="#263238"/>
<path d="M290.951 186.723C290.699 186.478 178.414 187.428 178.666 186.723L178.637 167.052V166.785H178.904L234.924 166.864C253.621 166.908 272.326 166.879 291.023 166.98C291.067 167.037 290.93 186.643 290.951 186.723ZM290.951 186.723L290.872 167.044C272.715 167.376 253.456 167.116 234.931 167.239C235.184 167.044 177.621 167.764 179.178 167.044L179.149 186.715C177.628 186.053 291.29 186.931 290.951 186.723Z" fill="#DBDBDB"/>
<path d="M196.087 169.881H181.81V184.138H196.087V169.881Z" fill="#FFC727"/>
<path d="M287.67 177.009C287.67 180.948 284.476 184.138 280.532 184.138C276.587 184.138 273.393 180.948 273.393 177.009C273.393 173.071 276.587 169.881 280.532 169.881C283.185 169.881 285.493 171.321 286.726 173.467C287.331 174.511 287.67 175.721 287.67 177.009Z" fill="#455A64"/>
<path d="M286.733 173.467L280.539 177.009V169.881C283.185 169.881 285.5 171.329 286.733 173.467Z" fill="#FFC727"/>
<path d="M280.539 181.942C283.267 181.942 285.478 179.733 285.478 177.009C285.478 174.286 283.267 172.077 280.539 172.077C277.811 172.077 275.599 174.286 275.599 177.009C275.599 179.733 277.811 181.942 280.539 181.942Z" fill="white"/>
<path d="M200.781 196.436C209.175 195.946 217.647 195.946 226.041 196.436C217.647 196.925 209.175 196.925 200.781 196.436Z" fill="#263238"/>
<path d="M200.781 200.144C207.812 199.654 214.922 199.654 221.952 200.144C214.914 200.633 207.812 200.633 200.781 200.144Z" fill="#263238"/>
<path d="M290.951 212.017C290.699 211.772 178.414 212.722 178.666 212.017L178.637 192.346V192.079H178.904L234.924 192.159C253.621 192.202 272.326 192.173 291.023 192.274C291.067 192.331 290.93 211.938 290.951 212.017ZM290.951 212.017L290.872 192.346C272.715 192.677 253.456 192.418 234.931 192.54C235.184 192.346 177.621 193.066 179.178 192.346L179.149 212.017C177.628 211.347 291.29 212.226 290.951 212.017Z" fill="#DBDBDB"/>
<path d="M196.087 195.176H181.81V209.432H196.087V195.176Z" fill="#455A64"/>
<path d="M287.67 202.304C287.67 202.657 287.641 203.009 287.591 203.348C287.086 206.789 284.115 209.432 280.532 209.432C276.587 209.432 273.393 206.242 273.393 202.304C273.393 198.365 276.587 195.176 280.532 195.176C283.178 195.176 285.493 196.616 286.726 198.761C287.331 199.805 287.67 201.015 287.67 202.304Z" fill="#455A64"/>
<path d="M287.67 202.304C287.67 202.657 287.641 203.009 287.591 203.348L280.532 202.304V195.176C283.178 195.176 285.493 196.616 286.726 198.761C287.331 199.805 287.67 201.015 287.67 202.304Z" fill="#FFC727"/>
<path d="M285.471 202.304C285.471 205.025 283.264 207.236 280.532 207.236C277.799 207.236 275.592 205.025 275.592 202.304C275.592 199.582 277.799 197.372 280.532 197.372C283.264 197.372 285.471 199.582 285.471 202.304Z" fill="white"/>
<path d="M200.781 221.73C209.175 221.24 217.647 221.24 226.041 221.73C217.647 222.219 209.175 222.219 200.781 221.73Z" fill="#263238"/>
<path d="M200.781 225.438C207.812 224.948 214.922 224.948 221.952 225.438C214.914 225.928 207.812 225.928 200.781 225.438Z" fill="#263238"/>
<path d="M290.951 237.311C290.699 237.066 178.414 238.017 178.666 237.311L178.637 217.64V217.374H178.904L234.924 217.453C253.621 217.496 272.326 217.467 291.023 217.568C291.067 217.626 290.93 237.232 290.951 237.311ZM290.951 237.311L290.872 217.64C272.715 217.971 253.456 217.712 234.931 217.835C235.184 217.64 177.621 218.36 179.178 217.64L179.149 237.311C177.628 236.641 291.29 237.52 290.951 237.311Z" fill="#DBDBDB"/>
<path d="M196.087 220.47H181.81V234.726H196.087V220.47Z" fill="#FFC727"/>
<path d="M287.67 227.598C287.67 230.629 285.767 233.229 283.091 234.251C282.298 234.561 281.433 234.726 280.532 234.726C276.587 234.726 273.393 231.536 273.393 227.598C273.393 223.659 276.587 220.47 280.532 220.47C283.185 220.47 285.493 221.91 286.726 224.055C287.331 225.099 287.67 226.309 287.67 227.598Z" fill="#455A64"/>
<path d="M287.67 227.598C287.67 230.629 285.767 233.229 283.092 234.251L280.532 227.598V220.47C283.185 220.47 285.493 221.91 286.726 224.055C287.331 225.099 287.67 226.309 287.67 227.598Z" fill="#FFC727"/>
<path d="M285.471 227.598C285.471 230.32 283.264 232.53 280.532 232.53C277.799 232.53 275.592 230.32 275.592 227.598C275.592 224.876 277.799 222.666 280.532 222.666C283.264 222.666 285.471 224.876 285.471 227.598Z" fill="white"/>
<path d="M301.976 230.392C293.057 242.452 283.762 256.449 281.498 271.569C281.469 271.8 281.837 271.872 281.895 271.649C282.933 267.501 284.238 263.469 285.839 259.538C291.701 257.925 297.455 256.6 300.534 250.79C303.678 244.814 303.274 237.03 302.676 230.521C302.632 230.176 302.157 230.161 301.976 230.392Z" fill="#FFC727"/>
<path d="M285.918 259.423C289.927 250.444 295.069 241.429 301.601 234.049C301.645 233.999 301.717 234.071 301.674 234.121C297.39 239.377 294.138 245.102 290.966 250.927C293.915 247.931 297.152 245.253 299.95 242.077C300.008 242.013 300.094 242.106 300.037 242.164C297.261 245.49 294.225 249.105 290.605 251.567C289.632 253.353 288.658 255.146 287.663 256.939C287.908 256.802 288.161 256.679 288.406 256.557C288.449 256.535 288.485 256.6 288.442 256.622C288.168 256.759 287.894 256.91 287.605 257.032C287.137 257.882 286.668 258.732 286.185 259.574C286.098 259.776 285.839 259.61 285.918 259.423Z" fill="#263238"/>
<path d="M288.903 256.291C291.29 254.923 293.598 253.454 295.746 251.726C295.804 251.675 295.891 251.762 295.833 251.812C293.72 253.598 291.47 255.196 289.004 256.456C288.889 256.514 288.788 256.356 288.903 256.291Z" fill="#263238"/>
<path d="M280.467 269.323C280.489 269.503 280.799 269.503 280.791 269.309C280.835 264.326 280.799 259.322 280.871 254.325C282.147 251.747 284.894 250.322 286.798 248.262C288.175 246.772 289.351 245.094 290.353 243.316C292.711 239.104 293.987 234.366 294.477 229.578C295.004 224.25 292.978 206.674 290.728 207.279C289.56 207.596 285.788 216.301 284.786 219.181C283.149 223.919 281.996 228.822 281.239 233.776C279.421 245.49 279.573 257.529 280.467 269.323Z" fill="#FFC727"/>
<path d="M280.431 247.838C280.438 247.83 280.445 247.823 280.453 247.816C280.727 241.516 282.147 235.151 283.481 229.038C284.916 222.457 286.589 216.25 289.985 210.382C290.05 210.274 290.209 210.368 290.151 210.483C287.844 215.026 286.192 219.851 284.931 224.804C285.154 224.451 285.435 224.113 285.673 223.775C285.767 223.645 285.983 223.767 285.89 223.904C285.558 224.401 285.255 224.977 284.83 225.402C284.815 225.416 284.801 225.416 284.786 225.423C283.618 230.132 282.782 234.942 282.061 239.745C282.111 239.687 282.169 239.615 282.219 239.557C282.255 239.521 282.32 239.572 282.291 239.615C282.205 239.773 282.104 239.932 282.003 240.09C281.642 242.531 281.304 244.958 280.972 247.37C285.32 243.662 289.026 239.291 291.124 233.898C291.132 233.876 291.175 233.884 291.168 233.912C289.12 239.5 285.882 244.468 280.907 247.859C280.813 248.507 280.727 249.162 280.633 249.803C280.611 249.94 280.402 249.904 280.402 249.775C280.402 249.198 280.431 248.622 280.453 248.046C280.381 247.989 280.352 247.895 280.431 247.838Z" fill="#263238"/>
<path d="M282.479 238.708C285.803 233.761 288.903 228.952 291.333 223.479C291.362 223.422 291.463 223.465 291.442 223.523C289.394 228.959 286.524 234.467 282.645 238.83C282.565 238.924 282.407 238.809 282.479 238.708Z" fill="#263238"/>
<path d="M286.892 222.255C288.269 219.822 289.718 217.46 291.016 214.983C291.052 214.911 291.146 214.976 291.117 215.041C290.028 217.575 288.731 220.146 287.108 222.378C287.007 222.5 286.813 222.392 286.892 222.255Z" fill="#263238"/>
<path d="M286.351 223.314C286.38 223.314 286.38 223.357 286.351 223.357C286.322 223.357 286.322 223.314 286.351 223.314Z" fill="#263238"/>
<path d="M277.085 254.915C276.999 258.213 276.645 261.518 275.917 264.729C275.967 265.082 276.018 265.435 276.068 265.802C277.107 262.224 277.655 258.566 277.828 254.865C277.885 254.764 277.907 254.649 277.842 254.527C277.842 254.527 277.842 254.527 277.842 254.519C278.03 249.58 277.575 244.59 276.739 239.701C275.196 230.55 271.821 221.766 265.425 214.904C265.223 214.695 264.82 214.803 264.719 215.048C262.137 221.6 263.039 229.412 265.238 235.95C266.435 239.471 268.144 242.848 270.307 245.879C272.513 248.946 275.304 251.553 277.085 254.915Z" fill="#FFC727"/>
<path d="M266.19 217.964C272.247 227.785 276.465 239.421 276.977 251.02C276.984 251.229 276.638 251.279 276.609 251.071C276.465 250.027 276.306 248.997 276.141 247.967C276.141 247.967 276.133 247.967 276.133 247.96C273.624 245.562 271.057 243.035 269.262 240.04C269.233 239.989 269.305 239.925 269.348 239.975C271.526 242.466 273.566 245.015 276.025 247.233C275.593 244.67 275.081 242.142 274.468 239.658C274.302 239.471 274.15 239.284 273.992 239.097C273.884 238.974 274.064 238.794 274.172 238.917C274.222 238.967 274.266 239.025 274.316 239.075C273.458 235.662 272.413 232.321 271.151 229.031C269.608 227.195 267.884 225.603 266.759 223.393C266.731 223.343 266.803 223.299 266.839 223.343C267.74 224.61 268.613 225.884 269.644 227.058C270.055 227.526 270.502 227.965 270.92 228.419C269.543 224.912 267.906 221.478 265.959 218.094C265.873 217.95 266.103 217.82 266.19 217.964Z" fill="#263238"/>
<path d="M267.416 230.075C269.377 232.703 271.605 235.216 273.429 237.937C273.48 238.017 273.364 238.096 273.299 238.038C270.963 235.849 268.98 232.854 267.286 230.154C267.235 230.068 267.358 230.003 267.416 230.075Z" fill="#263238"/>
<path d="M273.703 238.549L273.79 238.636C273.847 238.693 273.761 238.787 273.703 238.722L273.617 238.636C273.552 238.578 273.646 238.492 273.703 238.549Z" fill="#263238"/>
<path d="M256.701 236.843C257.191 241.897 259.852 247.931 263.096 251.819C264.531 253.54 266.276 254.858 268.281 255.859C270.523 256.967 272.874 258.242 275.203 259.156C276.292 261.921 277.121 264.823 277.655 267.847C277.727 267.595 277.806 267.329 277.878 267.077C276.386 254.289 268.101 243.359 257.501 236.339C257.112 236.087 256.657 236.411 256.701 236.843Z" fill="#FFC727"/>
<path d="M260.363 240.623C260.291 240.558 260.392 240.421 260.472 240.486C266.089 244.641 271.151 250.703 273.977 257.111C274.057 257.284 273.811 257.443 273.718 257.263C273.227 256.399 272.723 255.563 272.211 254.735H272.203C269.781 254.282 267.495 252.583 265.699 250.963C265.649 250.919 265.721 250.847 265.771 250.891C266.709 251.719 267.718 252.475 268.836 253.036C269.824 253.533 270.884 253.85 271.908 254.253C271.014 252.835 270.076 251.467 269.103 250.149C266.5 249.263 264.019 247.665 261.827 246.066C261.755 246.016 261.82 245.901 261.892 245.951C264.12 247.29 266.319 248.471 268.649 249.558C267.185 247.614 265.591 245.778 263.875 244C263.053 243.568 262.217 243.129 261.423 242.668C261.359 242.632 261.402 242.517 261.474 242.545C262.108 242.754 262.757 243.086 263.356 243.467C262.404 242.502 261.416 241.552 260.363 240.623Z" fill="#263238"/>
<path d="M260.587 245.037C260.731 245.13 260.868 245.217 260.998 245.325C261.034 245.361 260.991 245.411 260.948 245.39C260.789 245.325 260.666 245.238 260.522 245.152C260.45 245.109 260.515 244.986 260.587 245.037Z" fill="#263238"/>
<path d="M294.412 295.539H265.368L267.711 269.121L268.223 263.297H291.557L292.069 269.121L294.412 295.539Z" fill="#455A64"/>
<path d="M292.069 269.121H267.711L268.223 263.297H291.557L292.069 269.121Z" fill="#263238"/>
<path d="M292.949 259.228H266.839V264.996H292.949V259.228Z" fill="#455A64"/>
<path d="M158.779 41.1275C158.779 54.815 147.66 65.9249 133.946 65.9249C128.408 65.9249 123.288 64.1105 119.149 61.036L106.985 64.1393L112.047 52.8278C110.165 49.3429 109.112 45.354 109.112 41.1347C109.112 27.4471 120.231 16.3372 133.946 16.3372C147.66 16.3372 158.779 27.4399 158.779 41.1275Z" fill="white"/>
<path d="M158.779 41.1275C158.815 51.0565 152.701 60.1936 143.586 64.0817C135.611 67.4874 125.964 66.4506 118.998 61.2376L119.214 61.2808L107.064 64.4417L106.43 64.6073L106.697 64.0097L111.73 52.6838L111.744 52.9862C109.92 49.6453 108.903 45.8652 108.788 42.0635C108.269 30.4568 116.51 19.5053 127.867 16.9061C143.377 12.9532 158.916 25.1791 158.779 41.1275ZM158.779 41.1275C158.837 25.2295 143.377 13.162 127.961 17.2949C116.972 19.9373 108.903 30.788 109.48 42.0419C109.624 45.7428 110.619 49.4005 112.357 52.6622L112.436 52.8134L112.364 52.9646L107.273 64.2617L106.906 63.8297L119.085 60.784L119.207 60.7552C126.447 66.3857 136.888 67.329 145.057 63.1817C153.35 59.2 158.787 50.3005 158.779 41.1275Z" fill="#263238"/>
<path d="M129.929 55.8879L118.796 44.634L122.538 40.9475L129.035 47.5213L142.541 26.3743L146.976 29.1968L129.929 55.8879Z" fill="#FFC727"/>
<path d="M120.981 134.075C124.601 133.441 127.773 130.849 128.819 127.263C129.843 123.735 128.617 119.898 125.978 117.421C129.8 116.485 133.044 113.77 133.275 109.493C133.52 105.065 130.319 101.703 126.137 100.846C126.108 100.839 126.086 100.889 126.122 100.896C129.836 102.091 132.842 105.339 132.568 109.421C132.331 112.913 130.095 115.052 127.247 116.218C129.396 114.253 130.953 111.61 130.982 108.636C131.011 105.375 129.064 102.221 126.05 100.997C127.535 97.5986 127.939 93.4513 125.992 90.1464C124.356 87.3671 121.183 85.6031 117.988 86.0351C118.774 82.435 117.383 78.4461 114.282 76.322C111.376 74.3276 107.519 74.27 104.468 75.9116C105.254 70.4035 99.9545 65.8529 94.5609 67.5162C94.5105 65.5145 93.1404 63.7649 91.2657 62.9801C89.1097 62.0656 86.7157 62.5697 84.603 63.4265C83.3916 61.7488 81.4159 60.6328 79.2887 60.7624C76.4477 60.9352 74.3638 63.1673 74.0682 65.8601C70.4556 64.9889 66.4176 64.5497 63.043 66.3714C60.2669 67.869 58.1902 70.8643 58.558 74.0684C51.8953 73.3771 46.1556 78.5973 46.2205 85.3079C43.4804 85.7903 41.2595 87.8351 40.3149 90.456C39.3631 93.0985 39.4641 95.0713 39.6011 96.0001C37.1711 96.6266 35.4477 98.837 35.2963 101.343C35.1449 103.805 36.3491 105.785 38.0075 107.405C38.1517 108.017 38.1806 108.622 38.0291 109.378C37.3513 112.791 38.2599 116.139 40.6755 118.638C38.6132 122.18 40.4015 127.055 44.252 128.437C43.3434 132.512 46.2205 136.825 50.3162 137.588C49.9556 140.85 50.9651 144.184 53.2365 146.603C54.9671 148.461 57.7071 149.786 60.1443 148.835C60.1011 150.837 62.1417 152.255 64.0814 152.414C64.8169 152.471 65.5596 152.399 66.2878 152.298C67.1531 152.169 68.2203 151.78 69.0928 151.967C69.9941 152.154 70.6287 153.011 71.3281 153.537C71.8329 153.911 72.3809 154.235 72.9505 154.502C77.2841 156.475 82.7643 155.013 85.4683 151.139C88.1867 153.155 91.8065 152.406 94.597 150.808C95.52 150.282 96.3131 149.634 97.1207 148.965C97.8707 148.346 98.5557 147.849 99.5652 147.726C100.178 147.654 100.798 147.726 101.411 147.661C103.488 147.431 104.894 145.998 106.12 144.443C113.583 149.505 121.962 142.29 120.981 134.075ZM36.0823 102.452C35.8371 99.7442 37.2576 97.4474 39.6516 96.2449C39.6876 96.4321 39.7237 96.5618 39.7237 96.5618C39.7237 96.5618 39.0819 97.1306 38.8007 97.4402C38.2959 98.009 37.8849 98.657 37.5605 99.3482C36.8971 100.788 36.6591 102.43 36.9115 103.992C37.0269 104.698 37.2648 105.36 37.546 106.008C37.5821 106.095 37.6109 106.167 37.6398 106.253C36.8322 105.137 36.2121 103.928 36.0823 102.452ZM80.4929 62.4617C78.0196 62.2816 75.5896 63.6929 74.6162 65.9609C74.5513 65.9465 74.4864 65.9321 74.4215 65.9177C75.0921 63.4553 76.3828 61.3888 79.3392 61.2592C81.4086 61.1728 82.8724 62.224 83.9252 63.7001C83.9108 63.7073 83.9035 63.7073 83.8891 63.7145C82.9085 63.0089 81.762 62.5481 80.4929 62.4617ZM106.358 144.083C106.379 144.061 106.394 144.033 106.415 144.011C112.133 145.977 118.017 142.924 120.015 137.689C118.219 143.622 113.215 147.705 106.358 144.083Z" fill="#263238"/>
<path d="M83.5863 177.499C98.188 208.705 122.949 250.955 134.314 252.719C141.178 253.785 152.787 254.707 161.613 246.412C180.866 228.304 194.054 202.433 201.366 189.149C204.69 183.122 167.576 156.28 162.904 161.968C151.965 175.296 139.628 201.108 137.609 201.029C130.117 200.734 119.02 182.539 100.885 165.662C79.0436 145.329 77.3491 164.164 83.5863 177.499Z" fill="#AD6359"/>
<path d="M196.073 197.595C205.245 187.824 217.287 173.265 217.316 167.138C217.345 160.708 216.544 138.107 214.662 132.916C212.78 127.724 202.707 114.332 198.085 112.568C194.386 111.157 192.403 115.721 196.708 124.016C201.517 133.29 200.046 137.034 200.27 140.001C200.5 143.082 195.338 156.187 190.997 157.295C188.437 157.951 183.13 157.922 181.926 153.314C180.722 148.713 181.933 144.537 180.145 136.501C178.753 130.259 173.518 126.371 171.369 127.465C169.213 128.559 171.001 132.296 169.581 141.657C168.694 147.496 167.829 151.686 160.863 160.219C154.763 167.685 154.381 178.025 154.381 178.025L196.073 197.595Z" fill="#AD6359"/>
<path d="M217.748 152.73C217.496 149.21 219.904 138.532 219.068 133.88C218.239 129.229 212.766 112.114 207.552 110.717C200.998 108.96 202.945 122.886 204.344 128.847C205.743 134.816 201.914 145.581 201.914 145.581L210.934 149.411L217.748 152.73Z" fill="#AD6359"/>
<path d="M200.601 148.036C202.217 142.621 204.221 137.12 204.293 131.432C204.019 127.364 203.197 123.354 203.002 119.242C202.945 116.809 202.793 114.152 204.026 111.949C204.452 111.221 205.209 110.696 206.031 110.602C205.223 110.775 204.56 111.329 204.192 112.042C203.161 114.26 203.406 116.816 203.55 119.199C203.824 122.446 204.358 125.665 204.776 128.927C205.634 135.536 202.952 141.995 200.601 148.036Z" fill="#263238"/>
<path d="M217.438 155.798C218.174 152.363 223.416 142.888 223.921 138.215C224.418 133.542 223.964 115.642 219.392 112.798C213.646 109.227 211.641 123.058 211.316 129.15C210.992 135.241 204.365 144.393 204.365 144.393L211.879 150.657L217.438 155.798Z" fill="#AD6359"/>
<path d="M202.447 146.351C205.49 141.649 208.93 136.969 210.559 131.569C211.417 127.616 211.756 123.577 212.708 119.61C213.328 117.284 213.912 114.706 215.701 112.949C216.306 112.373 217.179 112.093 217.986 112.244C217.171 112.172 216.378 112.517 215.83 113.086C214.237 114.908 213.761 117.414 213.242 119.725C212.607 122.886 212.225 126.104 211.72 129.323C210.718 135.846 206.363 141.275 202.447 146.351Z" fill="#263238"/>
<path d="M203.673 154.617C199.462 158.095 193.593 159.398 188.25 159.743C184.19 159.959 180.159 160.838 176.539 162.731C175.306 163.315 174.16 164.049 172.999 164.769C177.246 161.241 182.697 159.297 188.199 159.038C193.557 158.671 199.123 157.598 203.673 154.617Z" fill="#263238"/>
<path d="M216.991 114.433L197.912 166.036C197.385 167.462 195.777 168.384 194.328 168.096L168.406 162.94C166.956 162.652 166.214 161.263 166.74 159.837L185.819 108.233C186.346 106.808 187.947 105.886 189.396 106.174L215.318 111.329C216.768 111.617 217.525 113.007 216.991 114.433Z" fill="#37474F"/>
<path d="M213.739 111.013L187.817 105.857C186.367 105.569 184.767 106.491 184.24 107.916L165.161 159.52C164.634 160.946 165.377 162.335 166.827 162.623L192.749 167.779C194.198 168.067 195.799 167.145 196.333 165.72L215.412 114.116C215.939 112.69 215.189 111.301 213.739 111.013ZM195.28 163.804C194.775 165.165 193.319 166.051 192.021 165.792L168.831 161.183C167.533 160.924 166.884 159.614 167.389 158.26L185.156 110.206C186.18 107.441 187.283 107.513 188.581 107.772L193.225 108.694C193.492 108.744 193.607 109.09 193.47 109.457L193.412 109.616C193.095 110.48 193.578 110.581 194.177 110.696L204.921 112.834C205.526 112.957 206.009 113.05 206.327 112.186L206.384 112.028C206.521 111.661 206.846 111.409 207.12 111.459L211.764 112.381C213.061 112.64 213.977 113.216 213.04 115.75L195.28 163.804Z" fill="#263238"/>
<path d="M213.047 115.75L195.28 163.804C194.775 165.165 193.319 166.051 192.021 165.792L168.831 161.183C167.533 160.924 166.884 159.614 167.389 158.26L185.156 110.206C186.18 107.441 187.283 107.513 188.581 107.772L193.225 108.694C193.492 108.744 193.607 109.09 193.47 109.457L193.412 109.616C193.095 110.48 193.578 110.581 194.177 110.696L204.921 112.834C205.526 112.957 206.009 113.05 206.327 112.186L206.384 112.028C206.521 111.661 206.846 111.409 207.12 111.459L211.764 112.381C213.069 112.64 213.984 113.216 213.047 115.75Z" fill="white"/>
<path d="M192.021 109.616C191.999 109.63 191.977 109.637 191.963 109.652C191.948 109.659 191.941 109.666 191.927 109.673C191.848 109.537 191.725 109.45 191.559 109.414C191.393 109.378 191.227 109.414 191.062 109.5C191.054 109.493 191.054 109.479 191.047 109.472C191.04 109.457 191.026 109.436 191.018 109.421C191.018 109.421 191.018 109.421 191.026 109.421C191.047 109.407 191.076 109.392 191.098 109.385C191.148 109.364 191.206 109.342 191.256 109.328C191.321 109.313 191.386 109.306 191.451 109.306C191.48 109.306 191.509 109.313 191.545 109.313C191.552 109.313 191.617 109.328 191.624 109.328C191.646 109.335 191.66 109.335 191.682 109.342C191.732 109.356 191.783 109.385 191.826 109.414C191.862 109.436 191.891 109.457 191.912 109.486C191.941 109.515 191.97 109.544 191.992 109.58C192.006 109.58 192.013 109.594 192.021 109.616Z" fill="#C7C7C7"/>
<path d="M191.155 109.659C191.141 109.63 191.126 109.601 191.112 109.58C191.22 109.522 191.336 109.486 191.451 109.5C191.624 109.515 191.754 109.587 191.833 109.724C191.797 109.745 191.768 109.76 191.739 109.781C191.689 109.688 191.602 109.63 191.494 109.608C191.372 109.58 191.263 109.601 191.155 109.659Z" fill="#C7C7C7"/>
<path d="M191.638 109.832C191.61 109.846 191.574 109.868 191.545 109.889C191.516 109.846 191.48 109.81 191.415 109.803C191.357 109.789 191.3 109.803 191.242 109.832C191.227 109.803 191.213 109.774 191.199 109.753C191.357 109.652 191.559 109.681 191.638 109.832Z" fill="#C7C7C7"/>
<path d="M191.437 109.925C191.422 109.961 191.386 109.983 191.35 109.976C191.314 109.969 191.3 109.933 191.307 109.904C191.321 109.868 191.357 109.846 191.393 109.853C191.429 109.861 191.451 109.897 191.437 109.925Z" fill="#C7C7C7"/>
<path d="M187.6 108.874C187.637 108.773 187.752 108.708 187.853 108.73C187.954 108.752 188.011 108.845 187.968 108.946C187.925 109.047 187.817 109.112 187.716 109.09C187.615 109.068 187.564 108.975 187.6 108.874Z" fill="#C7C7C7"/>
<path d="M188.177 108.989C188.213 108.888 188.329 108.824 188.43 108.845C188.531 108.867 188.588 108.96 188.545 109.061C188.509 109.162 188.394 109.227 188.293 109.205C188.199 109.184 188.141 109.09 188.177 108.989Z" fill="#C7C7C7"/>
<path d="M188.761 109.104C188.797 109.004 188.913 108.939 189.014 108.96C189.115 108.982 189.172 109.076 189.129 109.176C189.086 109.277 188.978 109.342 188.877 109.32C188.776 109.299 188.725 109.205 188.761 109.104Z" fill="#C7C7C7"/>
<path d="M189.345 109.22C189.382 109.119 189.497 109.054 189.598 109.076C189.699 109.097 189.756 109.191 189.713 109.292C189.677 109.392 189.562 109.457 189.461 109.436C189.36 109.414 189.309 109.32 189.345 109.22Z" fill="#C7C7C7"/>
<path d="M189.929 109.335C189.966 109.234 190.081 109.169 190.182 109.191C190.283 109.212 190.34 109.306 190.297 109.407C190.254 109.508 190.146 109.572 190.045 109.551C189.944 109.529 189.893 109.436 189.929 109.335Z" fill="#C7C7C7"/>
<path d="M211.432 114.029L209.925 113.727L210.177 113.05L211.684 113.353L211.432 114.029ZM210.033 113.677L211.381 113.943L211.576 113.417L210.228 113.151L210.033 113.677Z" fill="#C7C7C7"/>
<path d="M211.23 113.389L210.264 113.201L210.098 113.641L211.064 113.835L211.23 113.389Z" fill="#C7C7C7"/>
<path d="M211.626 113.9L211.497 113.878L211.626 113.518L211.763 113.54L211.626 113.9Z" fill="#C7C7C7"/>
<path d="M201.409 110.977L198.481 110.393C198.381 110.372 198.33 110.278 198.366 110.184C198.402 110.091 198.51 110.026 198.611 110.048L201.539 110.631C201.64 110.653 201.69 110.746 201.654 110.84C201.625 110.933 201.51 110.998 201.409 110.977Z" fill="white"/>
<path d="M171.153 158.606L171.016 158.577L170.792 159.189L170.533 159.139L170.648 158.829L170.201 158.735L170.086 159.045L169.826 158.995L170.057 158.39L169.92 158.361L170.764 157.871L171.153 158.606Z" fill="#EBEBEB"/>
<path d="M193.398 162.587L191.913 162.292L191.985 162.091L193.477 162.386L193.398 162.587Z" fill="#EBEBEB"/>
<path d="M193.21 163.099L191.725 162.803L191.797 162.595L193.29 162.89L193.21 163.099Z" fill="#EBEBEB"/>
<path d="M193.023 163.61L191.538 163.315L191.61 163.106L193.095 163.401L193.023 163.61Z" fill="#EBEBEB"/>
<path d="M182.012 160.787L181.428 161.14L181.169 160.615L181.27 160.564L181.486 160.989L181.962 160.701L182.012 160.787Z" fill="#EBEBEB"/>
<path d="M181.262 161.587C180.837 161.5 180.621 161.097 180.772 160.694C180.923 160.283 181.392 160.017 181.818 160.103C182.243 160.19 182.459 160.593 182.308 160.996C182.156 161.407 181.688 161.673 181.262 161.587ZM181.774 160.197C181.407 160.125 181.003 160.355 180.866 160.708C180.736 161.061 180.923 161.414 181.291 161.486C181.659 161.558 182.063 161.327 182.2 160.975C182.337 160.622 182.142 160.276 181.774 160.197Z" fill="#EBEBEB"/>
<path d="M186.959 113.72L186.411 112.813L187.514 112.229L187.593 112.381L186.685 112.863L187.139 113.612L186.959 113.72Z" fill="#DBDBDB"/>
<path d="M210.336 117.068C210.307 117.154 210.206 117.212 210.112 117.19C210.026 117.176 209.975 117.09 210.011 117.003C210.04 116.917 210.141 116.859 210.235 116.881C210.321 116.895 210.372 116.982 210.336 117.068Z" fill="#DBDBDB"/>
<path d="M210.134 117.622C210.105 117.709 210.004 117.766 209.91 117.745C209.824 117.73 209.773 117.644 209.81 117.558C209.838 117.471 209.939 117.414 210.033 117.435C210.12 117.457 210.163 117.536 210.134 117.622Z" fill="#DBDBDB"/>
<path d="M209.925 118.184C209.896 118.27 209.795 118.328 209.701 118.306C209.615 118.292 209.564 118.206 209.6 118.119C209.629 118.033 209.73 117.975 209.824 117.997C209.91 118.011 209.961 118.098 209.925 118.184Z" fill="#DBDBDB"/>
<path d="M193.441 114.303C196.686 114.829 199.909 115.469 203.075 116.218C199.823 115.7 196.599 115.059 193.441 114.303Z" fill="#DBDBDB"/>
<path d="M184.363 116.701C186.721 117.046 189.057 117.507 191.328 118.083C188.963 117.738 186.634 117.277 184.363 116.701Z" fill="#DBDBDB"/>
<path d="M202.685 123.073C204.293 123.267 205.887 123.584 207.408 124.009C205.793 123.822 204.207 123.505 202.685 123.073Z" fill="#DBDBDB"/>
<path d="M202.491 123.584C204.099 123.778 205.692 124.095 207.214 124.52C205.606 124.326 204.019 124.016 202.491 123.584Z" fill="#DBDBDB"/>
<path d="M184.096 117.406C185.625 117.586 187.125 117.882 188.567 118.292C187.038 118.119 185.538 117.817 184.096 117.406Z" fill="#DBDBDB"/>
<path d="M193.896 121.489L189.504 127.703L186.966 134.564C183.051 133.787 181.01 130.079 182.409 126.291C183.808 122.504 188.12 120.063 192.042 120.841C192.72 120.97 193.34 121.194 193.896 121.489Z" fill="#FFC727"/>
<path d="M191.66 134.06C190.175 134.665 188.538 134.874 186.966 134.557L189.504 127.695L191.66 134.06Z" fill="#263238"/>
<path d="M196.599 129.107C195.763 131.375 193.881 133.16 191.66 134.06L189.504 127.695L196.614 124.477C197.169 125.859 197.205 127.479 196.599 129.107Z" fill="#37474F"/>
<path d="M197.573 124.138L189.403 127.832L194.444 120.697C195.915 121.474 196.996 122.684 197.573 124.138Z" fill="#C7C7C7"/>
<path d="M193.052 128.401C192.352 130.295 190.196 131.519 188.235 131.13C186.274 130.741 185.257 128.891 185.957 126.99C186.656 125.096 188.812 123.872 190.773 124.261C192.735 124.657 193.751 126.507 193.052 128.401Z" fill="white"/>
<path d="M201.734 123.555L200.969 123.404L201.243 122.67L202.008 122.821L201.734 123.555Z" fill="#FFC727"/>
<path d="M201.964 125.01C203.572 125.204 205.166 125.521 206.687 125.946C205.079 125.751 203.493 125.442 201.964 125.01Z" fill="#DBDBDB"/>
<path d="M201.777 125.521C203.385 125.715 204.978 126.032 206.5 126.457C204.892 126.263 203.305 125.946 201.777 125.521Z" fill="#DBDBDB"/>
<path d="M201.02 125.492L200.255 125.341L200.529 124.599L201.294 124.751L201.02 125.492Z" fill="#263238"/>
<path d="M201.25 126.947C202.858 127.141 204.452 127.458 205.973 127.883C204.365 127.688 202.779 127.371 201.25 126.947Z" fill="#DBDBDB"/>
<path d="M201.063 127.458C202.671 127.652 204.265 127.969 205.786 128.394C204.178 128.199 202.592 127.883 201.063 127.458Z" fill="#DBDBDB"/>
<path d="M200.306 127.429L199.542 127.278L199.815 126.536L200.573 126.687L200.306 127.429Z" fill="#37474F"/>
<path d="M200.536 128.883C202.144 129.078 203.738 129.395 205.26 129.819C203.644 129.625 202.058 129.308 200.536 128.883Z" fill="#DBDBDB"/>
<path d="M200.349 129.395C201.957 129.589 203.551 129.906 205.072 130.331C203.457 130.136 201.871 129.819 200.349 129.395Z" fill="#DBDBDB"/>
<path d="M199.585 129.366L198.82 129.215L199.094 128.473L199.859 128.624L199.585 129.366Z" fill="#C7C7C7"/>
<path d="M185.61 159.535L183.938 159.203L189.793 143.377L191.458 143.709L185.61 159.535Z" fill="#EBEBEB"/>
<path d="M177.614 135.392C182.113 136.163 186.815 137.099 191.235 138.1C186.728 137.322 182.027 136.393 177.614 135.392Z" fill="#263238"/>
<path d="M177.289 136.271C179.849 136.652 182.387 137.156 184.861 137.776C182.301 137.394 179.763 136.89 177.289 136.271Z" fill="#263238"/>
<path d="M196.874 139.223C198.676 139.489 200.45 139.842 202.195 140.281C200.392 140.015 198.611 139.662 196.874 139.223Z" fill="#FFC727"/>
<path d="M174.398 150.045L173.85 149.937L177.037 141.325L177.585 141.433L174.398 150.045Z" fill="#FFC727"/>
<path d="M172.076 156.323L171.528 156.215L173.576 150.678L174.124 150.786L172.076 156.323Z" fill="#455A64"/>
<path d="M178.342 147.006L177.794 146.898L179.662 141.851L180.21 141.959L178.342 147.006Z" fill="#FFC727"/>
<path d="M174.708 156.849L174.16 156.741L177.52 147.647L178.068 147.755L174.708 156.849Z" fill="#455A64"/>
<path d="M181.983 144.803L181.435 144.695L182.293 142.369L182.842 142.477L181.983 144.803Z" fill="#FFC727"/>
<path d="M177.333 157.374L176.792 157.266L181.161 145.437L181.709 145.545L177.333 157.374Z" fill="#455A64"/>
<path d="M183.101 149.404L182.553 149.296L184.925 142.895L185.473 143.003L183.101 149.404Z" fill="#FFC727"/>
<path d="M179.965 157.893L179.417 157.785L182.279 150.045L182.827 150.153L179.965 157.893Z" fill="#455A64"/>
<path d="M186.23 148.576L185.682 148.468L187.557 143.413L188.098 143.529L186.23 148.576Z" fill="#FFC727"/>
<path d="M182.596 158.419L182.048 158.311L185.409 149.217L185.957 149.325L182.596 158.419Z" fill="#455A64"/>
<path d="M186.656 155.07L186.108 154.962L190.182 143.939L190.73 144.047L186.656 155.07Z" fill="#FFC727"/>
<path d="M185.221 158.944L184.68 158.836L185.834 155.704L186.382 155.812L185.221 158.944Z" fill="#455A64"/>
<path d="M191.631 149.253L191.083 149.145L192.814 144.465L193.362 144.573L191.631 149.253Z" fill="#FFC727"/>
<path d="M187.853 159.463L187.305 159.355L190.809 149.886L191.357 149.994L187.853 159.463Z" fill="#455A64"/>
<path d="M191.105 158.303L190.557 158.195L195.446 144.983L195.987 145.091L191.105 158.303Z" fill="#FFC727"/>
<path d="M190.485 159.988L189.937 159.88L190.283 158.944L190.831 159.052L190.485 159.988Z" fill="#455A64"/>
<path d="M197.573 148.446L197.025 148.338L198.07 145.509L198.618 145.617L197.573 148.446Z" fill="#FFC727"/>
<path d="M193.11 160.507L192.569 160.399L196.751 149.08L197.299 149.188L193.11 160.507Z" fill="#455A64"/>
<path d="M179.532 138.87C181.14 139.064 182.733 139.381 184.255 139.806C182.647 139.619 181.061 139.302 179.532 138.87Z" fill="#DBDBDB"/>
<path d="M179.344 139.381C180.952 139.576 182.546 139.892 184.067 140.317C182.459 140.123 180.873 139.813 179.344 139.381Z" fill="#DBDBDB"/>
<path d="M178.587 139.352L177.823 139.201L178.097 138.467L178.854 138.618L178.587 139.352Z" fill="#FFC727"/>
<path d="M187.42 140.44C189.028 140.634 190.622 140.951 192.143 141.376C190.535 141.181 188.949 140.872 187.42 140.44Z" fill="#DBDBDB"/>
<path d="M187.233 140.951C188.841 141.145 190.434 141.462 191.956 141.887C190.348 141.692 188.762 141.376 187.233 140.951Z" fill="#DBDBDB"/>
<path d="M186.476 140.922L185.711 140.771L185.985 140.029L186.743 140.18L186.476 140.922Z" fill="#455A64"/>
<path d="M215.946 171.393C217.41 168.29 222.378 156.078 222.666 150.902C222.947 145.725 221.404 126.01 216.14 123.044C209.535 119.314 208.101 134.636 208.093 141.361C208.086 148.086 202.072 155.222 202.072 155.222L211.713 163.739L215.946 171.393Z" fill="#AD6359"/>
<path d="M208.959 130.827C209.081 133.045 208.959 135.32 208.858 137.538C208.757 139.633 208.822 141.829 208.403 143.889C207.985 145.955 207.091 147.849 206.031 149.656C205.505 150.542 204.935 151.391 204.337 152.226C203.68 153.141 202.931 153.998 202.296 154.919C202.231 155.02 202.065 154.919 202.13 154.818C203.248 153.126 204.178 151.226 205.058 149.397C205.981 147.496 206.68 145.444 207.098 143.377C207.935 139.23 207.87 134.939 208.663 130.784C208.699 130.619 208.951 130.669 208.959 130.827Z" fill="#263238"/>
<path d="M208.411 143.889C208.346 139.18 207.105 119.617 215.564 122.511C220.279 125.247 221.57 135.493 222.111 140.54C221.21 135.839 219.573 125.622 215.268 123.13C207.978 120.762 208.85 139.604 208.411 143.889Z" fill="#263238"/>
<path d="M153.985 172.56L195.835 206.991C195.835 206.991 173.576 240.94 158.484 250.523C151.36 255.045 136.91 255.06 132.093 253.267C127.593 251.589 102.349 226.439 83.4495 181.15C68.7758 145.969 92.1456 154.595 100.921 163.718C110.374 173.546 135.287 198.754 136.657 198.344C138.034 197.926 153.985 172.56 153.985 172.56Z" fill="#FFC727"/>
<path d="M148.555 185.038C154.857 189.948 161.007 195.046 167.129 200.18C170.129 202.7 181.652 213.147 184.976 216.092C185.106 216.207 184.788 216.553 184.651 216.445C181.385 213.932 169.199 203.693 166.242 201.13C160.221 195.903 154.237 190.639 148.41 185.203C148.302 185.095 148.446 184.951 148.555 185.038Z" fill="#263238"/>
<path opacity="0.1" d="M154.179 252.482C146.622 254.995 136.073 254.743 132.1 253.259C127.6 251.582 102.349 226.424 83.4493 181.15C75.395 161.853 78.7912 155.733 84.9563 155.661C93.8687 168.052 130.903 219.743 154.179 252.482Z" fill="black"/>
<path d="M126.634 295.517H16.152C21.5672 269.388 45.1317 175.303 64.3482 161.356C76.1593 152.788 91.7705 158.728 94.424 162.386C105.327 177.406 123.461 271.483 126.634 295.517Z" fill="#EBEBEB"/>
<path d="M96.2483 165.172C96.2338 165.122 96.1545 165.136 96.1617 165.187C96.6953 169.781 97.5967 180.444 89.1962 180.322C85.8144 180.271 82.6561 178.651 80.0098 177.031C77.2914 175.368 74.8469 173.395 72.626 171.257C70.16 168.888 67.6218 166.396 65.6533 163.689C65.5668 163.574 65.3649 163.711 65.4514 163.826C67.5641 166.519 69.3524 169.341 71.768 171.854C74.097 174.266 76.7217 176.491 79.743 178.255C82.5696 179.911 85.9298 181.517 89.5063 181.423C92.9097 181.33 95.3037 179.364 96.1762 176.592C97.3227 172.941 97.0703 168.78 96.2483 165.172Z" fill="#263238"/>
<path d="M67.8742 157.684C67.8742 157.684 75.2003 196.716 76.5847 211.218C77.9692 225.719 73.5635 295.517 73.5635 295.517H14.306C14.306 295.517 32.2606 209.67 49.8764 176.426C59.7045 157.871 67.8742 157.684 67.8742 157.684Z" fill="#FFC727"/>
<path d="M93.1405 160.334C93.1405 160.334 104.973 204.493 105.752 209.18C106.531 213.867 110.461 295.87 110.461 295.87L129.828 295.733C129.821 295.741 109.429 172.164 93.1405 160.334Z" fill="#FFC727"/>
<path d="M49.3283 173.474C24.3865 207.013 -3.49 274.104 5.10514 285.704C14.6737 298.621 49.3716 251.647 48.8812 249.256C48.5063 247.449 57.4547 207.819 64.4131 178.932C71.357 150.074 55.5007 165.18 49.3283 173.474Z" fill="#AD6359"/>
<path d="M49.1553 249.263C49.8258 245.066 62.2282 192.72 65.5596 176.253C68.8909 159.787 63.0719 155.647 49.2562 172.243C35.4477 188.839 7.51353 241.725 3.1799 268.322C-0.987874 293.941 11.6669 292.162 26.7733 278.503C39.1468 267.321 49.1553 249.263 49.1553 249.263Z" fill="#FFC727"/>
<path d="M49.1553 249.263C52.7462 228.944 57.3034 208.806 62.8267 188.926C59.243 209.245 54.6715 229.391 49.1553 249.263Z" fill="#263238"/>
<path d="M63.5262 191.907C63.4036 194.628 62.2571 197.278 60.5121 199.359C61.3702 196.832 62.4518 194.355 63.5262 191.907Z" fill="#263238"/>
<path d="M5.10521 285.704C12.9721 294.135 31.0493 293.415 76.7434 295.863C83.0672 296.201 97.4669 252.287 90.7321 251.582C82.2524 250.689 49.1481 249.062 46.7109 249.249C26.1604 250.819 -0.230703 279.987 5.10521 285.704Z" fill="#AD6359"/>
<path d="M82.7427 253.159C82.7427 253.159 99.558 247.737 109.278 247.614C122.293 247.456 133.592 252.669 138.193 255.139C147.805 260.294 167.468 279.396 162.947 286.013C158.852 292.004 139.743 271.462 139.743 271.462C139.743 271.462 162.688 289.188 156.436 295.496C150.177 301.803 129.353 276.703 129.353 276.703C129.353 276.703 152.521 295.445 145.043 300.932C139.39 305.079 119.243 283.399 119.243 283.399C119.243 283.399 139.044 299.65 133.412 304.158C127.189 309.14 107.338 290.304 107.338 290.304C91.0927 299.369 79.6493 297.044 71.7031 294.43C69.7707 293.797 82.7427 253.159 82.7427 253.159Z" fill="#AD6359"/>
<path d="M132.201 264.823C134.97 266.81 137.789 268.797 140.378 271.022C142.959 273.247 145.468 275.566 147.841 278.021C153.645 284.04 156.335 288.72 156.133 288.447C151.461 282.046 142.325 273.938 139.743 271.714C137.162 269.496 134.696 267.141 132.114 264.924C132.042 264.859 132.129 264.773 132.201 264.823Z" fill="#263238"/>
<path d="M123.988 273.996C127.413 276.682 130.917 279.223 134.227 282.067C137.522 284.89 140.399 287.864 143.493 290.909C143.731 291.147 143.529 291.197 143.276 290.967C140.068 288.051 136.873 285.595 133.629 282.715C130.398 279.843 127.247 276.826 123.916 274.075C123.865 274.032 123.93 273.953 123.988 273.996Z" fill="#263238"/>
<path d="M115.515 280.606C120.967 284.443 125.697 289.282 130.232 294.142C130.456 294.387 130.189 294.423 129.944 294.185C125.134 289.592 121.399 285.955 115.385 280.793C115.292 280.714 115.4 280.519 115.515 280.606Z" fill="#263238"/>
<path d="M85.4828 250.257L52.6309 299.053C52.6309 299.053 11.9626 295.553 4.73746 286.28C-0.0215948 280.174 25.8504 249.112 48.6794 249.098L85.4828 250.257Z" fill="#FFC727"/>
<path d="M22.9589 259.905C26.2037 256.788 35.5127 249.263 48.7083 249.069C48.8237 249.069 48.8525 249.249 48.7371 249.263C38.9234 250.365 26.4489 257.32 23.0743 260.056C22.9806 260.121 22.8796 259.984 22.9589 259.905Z" fill="#263238"/>
<path d="M40.9567 293.3C44.2808 287.741 47.9006 282.363 51.5348 276.998C55.169 271.627 58.7959 266.249 62.5671 260.971C64.6943 257.99 66.8142 254.995 69.0423 252.086C69.1 252.007 69.2442 252.086 69.1938 252.172C65.8768 257.724 62.2787 263.116 58.6806 268.502C55.0824 273.895 51.4194 279.259 47.7131 284.58C45.6148 287.59 43.466 290.556 41.2379 293.465C41.1225 293.609 40.8557 293.458 40.9567 293.3Z" fill="#263238"/>
<path d="M85.4756 249.688C82.9879 249.235 80.4642 249.17 77.9404 249.055C75.4167 248.939 72.8929 248.867 70.3692 248.817C65.3433 248.723 54.7148 247.946 45.651 249.242C45.55 249.256 46.1341 249.667 46.235 249.652C50.5182 248.81 82.3317 250.61 84.8987 250.437C84.8194 250.617 84.7473 250.797 84.6968 250.991C84.6608 251.121 84.8122 251.265 84.9348 251.157C85.2232 250.898 85.4107 250.603 85.6775 250.322C85.8866 250.099 85.7929 249.746 85.4756 249.688Z" fill="#263238"/>
<path d="M15.0271 292.112C19.0507 292.947 24.6894 294.589 28.713 295.64C23.9684 295.438 19.3463 294.027 15.0271 292.112Z" fill="#263238"/>
<path d="M88.4103 176.484C82.4255 177.211 71.0326 169.003 67.8022 160.211C67.5859 159.607 69.3164 153.868 71.0975 146.79C72.1574 142.492 73.239 137.682 73.9096 133.225C74.0394 132.311 100.899 144.213 100.899 144.213C100.899 144.213 96.7387 153.148 95.621 160.931C95.5345 161.579 95.5056 162.199 95.5417 162.789C95.5417 162.875 95.5489 162.983 95.5345 163.099C95.585 166.67 94.8134 175.706 88.4103 176.484Z" fill="#AD6359"/>
<path d="M95.5489 162.803C95.5417 162.89 95.5417 163.005 95.5345 163.113C94.6403 163.099 93.6813 163.005 92.643 162.832C76.2098 160.003 74.9551 138.74 74.8975 133.391C79.7647 134.845 100.899 144.227 100.899 144.227C100.899 144.227 96.7386 153.17 95.6138 160.953C95.5417 161.594 95.5056 162.213 95.5489 162.803Z" fill="#263238"/>
<path d="M73.924 97.7282C69.7058 107.333 71.5806 136.724 77.926 143.975C87.1196 154.487 103.848 157.353 113.222 145.933C122.301 134.867 119.178 96.6049 111.939 89.844C101.274 79.8861 80.1541 83.5438 73.924 97.7282Z" fill="#AD6359"/>
<path d="M99.8248 119.646C99.8032 119.574 99.6734 119.746 99.6806 119.826C99.8104 121.806 99.6302 124.095 97.8563 124.815C97.7986 124.837 97.8131 124.938 97.878 124.923C100.056 124.549 100.265 121.503 99.8248 119.646Z" fill="#263238"/>
<path d="M97.9789 117.637C94.7773 117.507 94.7485 123.908 97.7193 124.03C100.64 124.153 100.661 117.752 97.9789 117.637Z" fill="#263238"/>
<path d="M111.319 120.02C111.333 119.941 111.47 120.114 111.47 120.193C111.398 122.173 111.65 124.462 113.446 125.125C113.503 125.146 113.496 125.247 113.431 125.233C111.247 124.916 110.936 121.885 111.319 120.02Z" fill="#263238"/>
<path d="M113.107 117.953C116.301 117.723 116.532 124.124 113.568 124.34C110.648 124.542 110.425 118.141 113.107 117.953Z" fill="#263238"/>
<path d="M95.4551 114.699C96.3276 114.483 97.0991 114.137 97.9428 113.835C98.8946 113.489 99.6878 113.317 100.308 112.467C100.64 112.013 100.51 111.193 100.099 110.825C99.1398 109.968 97.8707 110.098 96.7098 110.465C95.4479 110.861 94.5826 111.488 93.8543 112.589C93.1549 113.662 94.3014 114.987 95.4551 114.699Z" fill="#263238"/>
<path d="M115.595 114.735C114.708 114.584 113.914 114.303 113.049 114.065C112.076 113.799 111.268 113.684 110.583 112.885C110.215 112.46 110.287 111.632 110.67 111.236C111.557 110.307 112.833 110.343 114.023 110.616C115.306 110.912 116.222 111.473 117.037 112.51C117.815 113.525 116.77 114.929 115.595 114.735Z" fill="#263238"/>
<path d="M97.914 138.056C98.3899 138.524 98.8586 139.165 99.5796 139.23C100.272 139.288 101.079 138.985 101.714 138.74C101.779 138.719 101.844 138.784 101.801 138.841C101.281 139.597 100.193 140.072 99.2768 139.907C98.3755 139.748 97.9356 138.971 97.7193 138.143C97.6904 138.028 97.8491 137.984 97.914 138.056Z" fill="#263238"/>
<path d="M100.027 132.123C101.13 133.852 102.767 134.795 104.533 135.148C105.319 135.306 106.156 135.342 106.963 135.27C107.122 135.27 107.281 135.248 107.432 135.22C107.576 135.205 107.706 135.184 107.865 135.155C108.096 135.119 108.225 134.932 108.261 134.716V134.701C108.261 134.629 108.261 134.572 108.24 134.5C108.24 134.5 108.24 134.5 108.24 134.485V134.312C108.29 132.786 108.146 130.46 108.146 130.46C108.701 130.741 111.549 132.03 111.506 131.238C111.138 124.628 110.727 117.284 108.961 110.782C108.91 110.566 108.579 110.617 108.6 110.833C108.701 117.197 109.927 123.498 110.136 129.891C109.228 129.546 107.749 128.898 106.949 128.912C106.733 128.977 107.302 133.398 107.223 134.082C107.223 134.082 107.223 134.111 107.209 134.154C104.634 134.471 102.702 133.693 100.214 131.958C100.063 131.828 99.9042 131.965 100.027 132.123Z" fill="#263238"/>
<path d="M106.062 134.485C106.062 134.485 104.699 136.307 102.839 136.962C102.154 137.207 101.418 137.3 100.647 137.092C99.0605 136.667 99.0244 135.212 99.3273 133.974C99.5652 132.951 100.048 132.073 100.048 132.073C100.048 132.073 102.349 134.248 106.062 134.485Z" fill="#263238"/>
<path d="M102.839 136.962C102.154 137.207 101.418 137.3 100.647 137.092C99.0605 136.667 99.0244 135.212 99.3273 133.974C101.022 134.154 102.702 135.313 102.839 136.962Z" fill="#FF9BBC"/>
<path d="M117.974 100.918C117.116 98.4482 115.955 97.9298 115.955 97.9298C115.955 97.9298 115.977 95.0137 113.345 91.2768C110.59 87.3671 107.598 86.8559 107.598 86.8559C107.598 86.8559 105.081 84.0262 99.3706 82.9606C98.0582 82.7158 94.0779 82.651 92.8521 83.1478C91.4388 83.7166 89.9318 82.975 88.4608 82.939C87.098 82.9102 85.7352 83.1766 84.4661 83.7022C83.4205 84.1342 82.4255 84.7462 81.5386 85.5239C81.0266 85.9775 80.5795 86.4959 80.118 87.0215C79.3537 87.8927 78.6254 88.1951 77.5943 88.4975C75.3806 89.1528 73.5419 90.744 72.4242 93.0625C71.7753 94.4017 71.4941 95.8417 71.4292 97.3754C71.3571 99.233 69.3958 100.111 68.6675 101.71C67.4849 104.302 68.1123 107.42 69.9798 109.342C67.5426 111.085 66.6268 114.987 67.932 118.054C68.9415 120.43 71.0542 121.489 73.1886 122.072C73.5924 122.18 73.9962 122.245 74.3928 122.266C78.7624 122.994 83.0744 118.191 81.4881 113.007C81.4881 112.993 81.4953 112.978 81.4953 112.964C81.4953 112.964 84.7762 112.193 87.4874 108.723C89.1458 106.599 89.6866 103.683 89.7083 100.839C95.1884 104.288 102.796 100.889 103.776 93.8545C105.334 95.5681 109.826 98.4626 111.896 97.8146C112.79 104.129 116.936 106.484 118.039 106.448C118.19 106.455 118.962 103.755 117.974 100.918ZM78.7769 120.43C80.0387 119.113 81.005 117.248 81.4592 113.295C82.0649 116.297 80.7814 118.897 78.7769 120.43ZM96.1041 101.148C99.248 100.27 101.952 97.721 103.264 94.0345C102.269 98.3402 99.4643 100.558 96.1041 101.148Z" fill="#263238"/>
<path d="M97.1857 128.804C93.6309 128.372 90.6745 125.579 90.1986 121.878C89.6361 117.493 92.7439 113.475 97.128 112.906C101.519 112.345 105.543 115.448 106.113 119.826C106.675 124.203 103.567 128.228 99.1831 128.797C98.5053 128.883 97.8347 128.883 97.1857 128.804ZM98.9956 113.965C98.4332 113.9 97.8563 113.893 97.2651 113.972C93.465 114.461 90.7682 117.946 91.2585 121.741C91.7489 125.535 95.2389 128.228 99.0389 127.739C102.839 127.249 105.536 123.764 105.045 119.97C104.634 116.758 102.075 114.339 98.9956 113.965Z" fill="#FFC727"/>
<path d="M115.595 128.783C112.544 128.415 110.165 124.959 110.179 120.783C110.187 118.674 110.799 116.686 111.896 115.189C113.028 113.641 114.556 112.791 116.186 112.798C117.823 112.805 119.33 113.669 120.455 115.225C121.543 116.73 122.135 118.724 122.127 120.834C122.106 125.247 119.416 128.833 116.121 128.819C115.948 128.819 115.775 128.804 115.595 128.783ZM116.59 113.893C116.453 113.878 116.323 113.871 116.186 113.864C114.91 113.857 113.698 114.555 112.768 115.815C111.802 117.133 111.268 118.897 111.254 120.776C111.239 124.599 113.417 127.724 116.128 127.739C118.832 127.753 121.039 124.643 121.06 120.819C121.068 118.933 120.548 117.169 119.589 115.844C118.767 114.713 117.715 114.029 116.59 113.893Z" fill="#FFC727"/>
<path d="M105.839 120.754L105.154 119.934C106.372 118.918 109.192 117.558 111.146 119.66L110.36 120.387C108.615 118.501 105.954 120.661 105.839 120.754Z" fill="#FFC727"/>
<path d="M70.0879 122.662L69.1361 122.166C69.3669 121.726 71.4652 117.831 73.8663 117.45C76.1088 117.104 90.4798 118.508 91.0854 118.573L90.9773 119.638C86.86 119.228 75.7627 118.242 74.0322 118.508C72.453 118.76 70.6504 121.597 70.0879 122.662Z" fill="#FFC727"/>
<path d="M78.4091 122.367C78.4091 122.367 72.7847 112.409 68.3213 114.317C63.8579 116.233 67.4488 130.223 72.2439 132.555C77.039 134.888 79.2888 130.496 79.2888 130.496L78.4091 122.367Z" fill="#AD6359"/>
<path d="M69.4533 118.306C69.374 118.292 69.3452 118.4 69.4173 118.436C72.7703 120.186 74.2917 123.591 75.2507 127.069C74.3422 125.679 72.9938 124.837 71.1478 125.903C71.0541 125.96 71.1262 126.111 71.2272 126.097C72.6837 125.931 73.6932 126.277 74.5441 127.515C75.1498 128.394 75.5175 129.459 75.9141 130.439C76.0439 130.763 76.628 130.655 76.5414 130.287C76.5342 130.259 76.527 130.23 76.5198 130.201C77.039 125.766 74.1908 119.214 69.4533 118.306Z" fill="#263238"/>
</g>
<defs>
<clipPath id="clip0_230_725">
<rect width="306" height="305" fill="white"/>
</clipPath>
</defs>
</svg>
